<?xml version="1.0" encoding="utf-8" standalone="no"?>
<!DOCTYPE svg PUBLIC "-//W3C//DTD SVG 1.1//EN"
  "http://www.w3.org/Graphics/SVG/1.1/DTD/svg11.dtd">
<svg xmlns:xlink="http://www.w3.org/1999/xlink" width="237.6pt" height="150.943619pt" viewBox="0 0 237.6 150.943619" xmlns="http://www.w3.org/2000/svg" version="1.1">
 <metadata>
  <rdf:RDF xmlns:dc="http://purl.org/dc/elements/1.1/" xmlns:cc="http://creativecommons.org/ns#" xmlns:rdf="http://www.w3.org/1999/02/22-rdf-syntax-ns#">
   <cc:Work>
    <dc:type rdf:resource="http://purl.org/dc/dcmitype/StillImage"/>
    <dc:date>2023-03-25T22:11:07.655105</dc:date>
    <dc:format>image/svg+xml</dc:format>
    <dc:creator>
     <cc:Agent>
      <dc:title>Matplotlib v3.6.3, https://matplotlib.org/</dc:title>
     </cc:Agent>
    </dc:creator>
   </cc:Work>
  </rdf:RDF>
 </metadata>
 <defs>
  <style type="text/css">*{stroke-linejoin: round; stroke-linecap: butt}</style>
 </defs>
 <g id="figure_1">
  <g id="patch_1">
   <path d="M 0 150.943619 
L 237.6 150.943619 
L 237.6 0 
L 0 0 
z
" style="fill: #ffffff"/>
  </g>
  <g id="axes_1">
   <g id="line2d_1">
    <path d="M 17.345455 92.70396 
L 220.254545 92.70396 
" clip-path="url(#p1e8df368c7)" style="fill: none; stroke: #000044; stroke-width: 4; stroke-linecap: square"/>
   </g>
   <g id="line2d_2">
    <path d="M 17.345455 42.30396 
L 220.254545 42.30396 
" clip-path="url(#p1e8df368c7)" style="fill: none; stroke: #440000; stroke-width: 4; stroke-linecap: square"/>
   </g>
   <g id="text_1">
    <!-- $\frac{1}{\sqrt{2}}(|01\rangle - |10\rangle)$ -->
    <g transform="translate(17.345455 133.02396) scale(0.2 -0.2)">
     <defs>
      <path id="CMR17-31" d="M 1702 4058 
C 1702 4192 1696 4192 1606 4192 
C 1357 3916 979 3827 621 3827 
C 602 3827 570 3827 563 3808 
C 557 3795 557 3782 557 3648 
C 755 3648 1088 3686 1344 3839 
L 1344 461 
C 1344 236 1331 160 781 160 
L 589 160 
L 589 0 
C 896 0 1216 0 1523 0 
C 1830 0 2150 0 2458 0 
L 2458 160 
L 2266 160 
C 1715 160 1702 230 1702 458 
L 1702 4058 
z
" transform="scale(0.015625)"/>
      <path id="CMSY10-70" d="M 2490 -5472 
L 1363 -2982 
C 1318 -2880 1286 -2880 1267 -2880 
C 1261 -2880 1229 -2880 1158 -2931 
L 550 -3392 
C 467 -3456 467 -3475 467 -3494 
C 467 -3526 486 -3565 531 -3565 
C 570 -3565 678 -3475 749 -3424 
C 787 -3393 883 -3323 954 -3271 
L 2214 -6042 
C 2259 -6144 2291 -6144 2349 -6144 
C 2445 -6144 2464 -6106 2509 -6016 
L 5414 0 
C 5459 90 5459 115 5459 128 
C 5459 192 5408 256 5331 256 
C 5280 256 5235 224 5184 122 
L 2490 -5472 
z
" transform="scale(0.015625)"/>
      <path id="CMR17-32" d="M 2669 989 
L 2554 989 
C 2490 536 2438 459 2413 420 
C 2381 369 1920 369 1830 369 
L 602 369 
C 832 619 1280 1072 1824 1597 
C 2214 1967 2669 2402 2669 3035 
C 2669 3790 2067 4224 1395 4224 
C 691 4224 262 3604 262 3030 
C 262 2780 448 2748 525 2748 
C 589 2748 781 2787 781 3010 
C 781 3207 614 3264 525 3264 
C 486 3264 448 3258 422 3245 
C 544 3790 915 4058 1306 4058 
C 1862 4058 2227 3617 2227 3035 
C 2227 2479 1901 2000 1536 1584 
L 262 146 
L 262 0 
L 2515 0 
L 2669 989 
z
" transform="scale(0.015625)"/>
      <path id="CMR17-28" d="M 1958 -1561 
C 1958 -1555 1958 -1542 1939 -1523 
C 1645 -1224 858 -407 858 1581 
C 858 3569 1632 4379 1946 4697 
C 1946 4704 1958 4717 1958 4736 
C 1958 4755 1939 4768 1914 4768 
C 1843 4768 1299 4296 986 3594 
C 666 2887 576 2199 576 1588 
C 576 1128 621 351 1005 -471 
C 1312 -1135 1837 -1600 1914 -1600 
C 1946 -1600 1958 -1587 1958 -1561 
z
" transform="scale(0.015625)"/>
      <path id="CMSY10-6a" d="M 1018 4570 
C 1018 4685 1018 4800 890 4800 
C 762 4800 762 4685 762 4570 
L 762 -1370 
C 762 -1485 762 -1600 890 -1600 
C 1018 -1600 1018 -1485 1018 -1370 
L 1018 4570 
z
" transform="scale(0.015625)"/>
      <path id="CMR17-30" d="M 2688 2025 
C 2688 2416 2682 3080 2413 3591 
C 2176 4039 1798 4198 1466 4198 
C 1158 4198 768 4058 525 3597 
C 269 3118 243 2524 243 2025 
C 243 1661 250 1106 448 619 
C 723 -39 1216 -128 1466 -128 
C 1760 -128 2208 -7 2470 600 
C 2662 1042 2688 1559 2688 2025 
z
M 1466 -26 
C 1056 -26 813 325 723 812 
C 653 1188 653 1738 653 2096 
C 653 2588 653 2997 736 3387 
C 858 3929 1216 4096 1466 4096 
C 1728 4096 2067 3923 2189 3400 
C 2272 3036 2278 2607 2278 2096 
C 2278 1680 2278 1169 2202 792 
C 2067 95 1690 -26 1466 -26 
z
" transform="scale(0.015625)"/>
      <path id="CMSY10-69" d="M 1747 1491 
C 1779 1568 1779 1581 1779 1600 
C 1779 1619 1779 1632 1747 1709 
L 627 4653 
C 589 4762 550 4800 480 4800 
C 410 4800 352 4742 352 4672 
C 352 4653 352 4640 384 4570 
L 1517 1600 
L 384 -1357 
C 352 -1427 352 -1440 352 -1472 
C 352 -1542 410 -1600 480 -1600 
C 563 -1600 589 -1536 614 -1472 
L 1747 1491 
z
" transform="scale(0.015625)"/>
      <path id="CMSY10-0" d="M 4218 1472 
C 4326 1472 4442 1472 4442 1600 
C 4442 1728 4326 1728 4218 1728 
L 755 1728 
C 646 1728 531 1728 531 1600 
C 531 1472 646 1472 755 1472 
L 4218 1472 
z
" transform="scale(0.015625)"/>
      <path id="CMR17-29" d="M 1683 1581 
C 1683 2040 1638 2817 1254 3639 
C 947 4303 422 4768 346 4768 
C 326 4768 301 4761 301 4729 
C 301 4717 307 4710 314 4697 
C 621 4378 1402 3568 1402 1584 
C 1402 -407 627 -1217 314 -1537 
C 307 -1549 301 -1556 301 -1568 
C 301 -1600 326 -1600 346 -1600 
C 416 -1600 960 -1128 1274 -426 
C 1594 281 1683 969 1683 1581 
z
" transform="scale(0.015625)"/>
     </defs>
     <use xlink:href="#CMR17-31" transform="translate(29.05766 39.226102) scale(0.697382)"/>
     <use xlink:href="#CMSY10-70" transform="translate(0 13.350281) scale(0.697382)"/>
     <use xlink:href="#CMR17-32" transform="translate(58.11532 -44.344481) scale(0.697382)"/>
     <use xlink:href="#CMR17-28" transform="translate(91.294015 0) scale(0.996264)"/>
     <use xlink:href="#CMSY10-6a" transform="translate(126.574783 0) scale(0.996264)"/>
     <use xlink:href="#CMR17-30" transform="translate(154.248868 0) scale(0.996264)"/>
     <use xlink:href="#CMR17-31" transform="translate(199.939345 0) scale(0.996264)"/>
     <use xlink:href="#CMSY10-69" transform="translate(245.629822 0) scale(0.996264)"/>
     <use xlink:href="#CMSY10-0" transform="translate(306.512763 0) scale(0.996264)"/>
     <use xlink:href="#CMSY10-6a" transform="translate(406.139437 0) scale(0.996264)"/>
     <use xlink:href="#CMR17-31" transform="translate(433.813522 0) scale(0.996264)"/>
     <use xlink:href="#CMR17-30" transform="translate(479.503999 0) scale(0.996264)"/>
     <use xlink:href="#CMSY10-69" transform="translate(525.194476 0) scale(0.996264)"/>
     <use xlink:href="#CMR17-29" transform="translate(563.93821 0) scale(0.996264)"/>
     <path d="M 0 22.914133 
L 90.098501 22.914133 
L 90.098501 26.899083 
L 0 26.899083 
L 0 22.914133 
z
"/>
     <path d="M 58.11532 13.350281 
L 90.098501 13.350281 
L 90.098501 16.139732 
L 58.11532 16.139732 
L 58.11532 13.350281 
z
"/>
    </g>
   </g>
   <g id="text_2">
    <!-- $-3$ -->
    <g transform="translate(193.876364 133.02396) scale(0.2 -0.2)">
     <defs>
      <path id="CMR17-33" d="M 1414 2157 
C 1984 2157 2234 1662 2234 1090 
C 2234 320 1824 25 1453 25 
C 1114 25 563 194 390 693 
C 422 680 454 680 486 680 
C 640 680 755 782 755 948 
C 755 1133 614 1216 486 1216 
C 378 1216 211 1165 211 926 
C 211 335 787 -128 1466 -128 
C 2176 -128 2720 430 2720 1085 
C 2720 1707 2208 2157 1600 2227 
C 2086 2328 2554 2756 2554 3329 
C 2554 3820 2048 4179 1472 4179 
C 890 4179 378 3829 378 3329 
C 378 3110 544 3072 627 3072 
C 762 3072 877 3155 877 3321 
C 877 3486 762 3569 627 3569 
C 602 3569 570 3569 544 3557 
C 730 3959 1235 4032 1459 4032 
C 1683 4032 2106 3925 2106 3320 
C 2106 3143 2080 2828 1862 2550 
C 1670 2304 1453 2304 1242 2284 
C 1210 2284 1062 2269 1037 2269 
C 992 2263 966 2257 966 2208 
C 966 2163 973 2157 1101 2157 
L 1414 2157 
z
" transform="scale(0.015625)"/>
     </defs>
     <use xlink:href="#CMSY10-0" transform="scale(0.996264)"/>
     <use xlink:href="#CMR17-33" transform="translate(77.487468 0) scale(0.996264)"/>
    </g>
   </g>
   <g id="text_3">
    <!-- $|00\rangle$ -->
    <g transform="translate(17.345455 22.14396) scale(0.2 -0.2)">
     <use xlink:href="#CMSY10-6a" transform="scale(0.996264)"/>
     <use xlink:href="#CMR17-30" transform="translate(27.674085 0) scale(0.996264)"/>
     <use xlink:href="#CMR17-30" transform="translate(73.364562 0) scale(0.996264)"/>
     <use xlink:href="#CMSY10-69" transform="translate(119.055039 0) scale(0.996264)"/>
    </g>
   </g>
   <g id="text_4">
    <!-- $1$ -->
    <g transform="translate(210.109091 22.14396) scale(0.2 -0.2)">
     <use xlink:href="#CMR17-31" transform="scale(0.996264)"/>
    </g>
   </g>
   <g id="text_5">
    <!-- $\Downarrow$ -->
    <g transform="translate(118.8 76.57596) scale(0.32 -0.32)">
     <defs>
      <path id="CMSY10-2b" d="M 2697 4211 
C 2697 4326 2697 4442 2569 4442 
C 2441 4442 2441 4320 2441 4211 
L 2441 154 
C 2192 -141 2020 -493 1949 -653 
C 1873 -480 1700 -134 1458 154 
L 1458 4211 
C 1458 4326 1458 4442 1330 4442 
C 1202 4442 1202 4326 1202 4211 
L 1202 448 
C 952 678 862 736 760 806 
C 549 954 306 1088 267 1088 
C 197 1088 197 1018 197 960 
C 197 870 197 858 274 819 
C 1265 307 1681 -467 1885 -1184 
C 1892 -1222 1924 -1235 1949 -1235 
C 2001 -1235 2013 -1190 2020 -1165 
C 2263 -326 2736 358 3651 832 
C 3702 858 3702 890 3702 960 
C 3702 1018 3702 1088 3632 1088 
C 3593 1088 3337 947 3139 813 
C 3005 717 2915 646 2697 448 
L 2697 4211 
z
" transform="scale(0.015625)"/>
     </defs>
     <use xlink:href="#CMSY10-2b" transform="scale(0.996264)"/>
    </g>
   </g>
  </g>
 </g>
 <defs>
  <clipPath id="p1e8df368c7">
   <rect x="7.2" y="39.78396" width="223.2" height="55.44"/>
  </clipPath>
 </defs>
</svg>
