<?xml version="1.0" encoding="utf-8" standalone="no"?>
<!DOCTYPE svg PUBLIC "-//W3C//DTD SVG 1.1//EN"
  "http://www.w3.org/Graphics/SVG/1.1/DTD/svg11.dtd">
<!-- Created with matplotlib (https://matplotlib.org/) -->
<svg height="307.173995pt" version="1.1" viewBox="0 0 404.916729 307.173995" width="404.916729pt" xmlns="http://www.w3.org/2000/svg" xmlns:xlink="http://www.w3.org/1999/xlink">
 <defs>
  <style type="text/css">
*{stroke-linecap:butt;stroke-linejoin:round;}
  </style>
 </defs>
 <g id="figure_1">
  <g id="patch_1">
   <path d="M 0 307.173995 
L 404.916729 307.173995 
L 404.916729 0 
L 0 0 
z
" style="fill:#ffffff;"/>
  </g>
  <g id="axes_1">
   <g id="patch_2">
    <path d="M 59.416729 255.32 
L 394.216729 255.32 
L 394.216729 10.7 
L 59.416729 10.7 
z
" style="fill:#ffffff;"/>
   </g>
   <g id="patch_3">
    <path clip-path="url(#pb5d47e4c26)" d="M 74.634911 255.32 
L 80.602826 255.32 
L 80.602826 255.32 
L 74.634911 255.32 
z
" style="fill:#595959;"/>
   </g>
   <g id="patch_4">
    <path clip-path="url(#pb5d47e4c26)" d="M 82.094804 255.32 
L 88.062719 255.32 
L 88.062719 255.32 
L 82.094804 255.32 
z
" style="fill:#595959;"/>
   </g>
   <g id="patch_5">
    <path clip-path="url(#pb5d47e4c26)" d="M 89.554697 255.32 
L 95.522612 255.32 
L 95.522612 255.32 
L 89.554697 255.32 
z
" style="fill:#595959;"/>
   </g>
   <g id="patch_6">
    <path clip-path="url(#pb5d47e4c26)" d="M 97.01459 255.32 
L 102.982505 255.32 
L 102.982505 255.32 
L 97.01459 255.32 
z
" style="fill:#595959;"/>
   </g>
   <g id="patch_7">
    <path clip-path="url(#pb5d47e4c26)" d="M 104.474483 255.32 
L 110.442398 255.32 
L 110.442398 255.32 
L 104.474483 255.32 
z
" style="fill:#595959;"/>
   </g>
   <g id="patch_8">
    <path clip-path="url(#pb5d47e4c26)" d="M 111.934376 255.32 
L 117.902291 255.32 
L 117.902291 255.32 
L 111.934376 255.32 
z
" style="fill:#595959;"/>
   </g>
   <g id="patch_9">
    <path clip-path="url(#pb5d47e4c26)" d="M 119.394269 255.32 
L 125.362184 255.32 
L 125.362184 255.32 
L 119.394269 255.32 
z
" style="fill:#595959;"/>
   </g>
   <g id="patch_10">
    <path clip-path="url(#pb5d47e4c26)" d="M 126.854163 255.32 
L 132.822077 255.32 
L 132.822077 255.32 
L 126.854163 255.32 
z
" style="fill:#595959;"/>
   </g>
   <g id="patch_11">
    <path clip-path="url(#pb5d47e4c26)" d="M 134.314056 255.32 
L 140.28197 255.32 
L 140.28197 255.32 
L 134.314056 255.32 
z
" style="fill:#595959;"/>
   </g>
   <g id="patch_12">
    <path clip-path="url(#pb5d47e4c26)" d="M 141.773949 255.32 
L 147.741863 255.32 
L 147.741863 255.32 
L 141.773949 255.32 
z
" style="fill:#595959;"/>
   </g>
   <g id="patch_13">
    <path clip-path="url(#pb5d47e4c26)" d="M 149.233842 255.32 
L 155.201756 255.32 
L 155.201756 255.32 
L 149.233842 255.32 
z
" style="fill:#595959;"/>
   </g>
   <g id="patch_14">
    <path clip-path="url(#pb5d47e4c26)" d="M 156.693735 255.32 
L 162.661649 255.32 
L 162.661649 255.32 
L 156.693735 255.32 
z
" style="fill:#595959;"/>
   </g>
   <g id="patch_15">
    <path clip-path="url(#pb5d47e4c26)" d="M 164.153628 255.32 
L 170.121542 255.32 
L 170.121542 255.32 
L 164.153628 255.32 
z
" style="fill:#595959;"/>
   </g>
   <g id="patch_16">
    <path clip-path="url(#pb5d47e4c26)" d="M 171.613521 255.32 
L 177.581435 255.32 
L 177.581435 255.32 
L 171.613521 255.32 
z
" style="fill:#595959;"/>
   </g>
   <g id="patch_17">
    <path clip-path="url(#pb5d47e4c26)" d="M 179.073414 255.32 
L 185.041328 255.32 
L 185.041328 255.32 
L 179.073414 255.32 
z
" style="fill:#595959;"/>
   </g>
   <g id="patch_18">
    <path clip-path="url(#pb5d47e4c26)" d="M 186.533307 255.32 
L 192.501221 255.32 
L 192.501221 255.32 
L 186.533307 255.32 
z
" style="fill:#595959;"/>
   </g>
   <g id="patch_19">
    <path clip-path="url(#pb5d47e4c26)" d="M 193.9932 255.32 
L 199.961114 255.32 
L 199.961114 255.32 
L 193.9932 255.32 
z
" style="fill:#595959;"/>
   </g>
   <g id="patch_20">
    <path clip-path="url(#pb5d47e4c26)" d="M 201.453093 255.32 
L 207.421007 255.32 
L 207.421007 255.32 
L 201.453093 255.32 
z
" style="fill:#595959;"/>
   </g>
   <g id="patch_21">
    <path clip-path="url(#pb5d47e4c26)" d="M 208.912986 255.32 
L 214.880901 255.32 
L 214.880901 255.32 
L 208.912986 255.32 
z
" style="fill:#595959;"/>
   </g>
   <g id="patch_22">
    <path clip-path="url(#pb5d47e4c26)" d="M 216.372879 255.32 
L 222.340794 255.32 
L 222.340794 255.32 
L 216.372879 255.32 
z
" style="fill:#595959;"/>
   </g>
   <g id="patch_23">
    <path clip-path="url(#pb5d47e4c26)" d="M 223.832772 255.32 
L 229.800687 255.32 
L 229.800687 255.32 
L 223.832772 255.32 
z
" style="fill:#595959;"/>
   </g>
   <g id="patch_24">
    <path clip-path="url(#pb5d47e4c26)" d="M 231.292665 255.32 
L 237.26058 255.32 
L 237.26058 255.32 
L 231.292665 255.32 
z
" style="fill:#595959;"/>
   </g>
   <g id="patch_25">
    <path clip-path="url(#pb5d47e4c26)" d="M 238.752558 255.32 
L 244.720473 255.32 
L 244.720473 255.32 
L 238.752558 255.32 
z
" style="fill:#595959;"/>
   </g>
   <g id="patch_26">
    <path clip-path="url(#pb5d47e4c26)" d="M 246.212451 255.32 
L 252.180366 255.32 
L 252.180366 255.32 
L 246.212451 255.32 
z
" style="fill:#595959;"/>
   </g>
   <g id="patch_27">
    <path clip-path="url(#pb5d47e4c26)" d="M 253.672344 255.32 
L 259.640259 255.32 
L 259.640259 255.32 
L 253.672344 255.32 
z
" style="fill:#595959;"/>
   </g>
   <g id="patch_28">
    <path clip-path="url(#pb5d47e4c26)" d="M 261.132237 255.32 
L 267.100152 255.32 
L 267.100152 255.32 
L 261.132237 255.32 
z
" style="fill:#595959;"/>
   </g>
   <g id="patch_29">
    <path clip-path="url(#pb5d47e4c26)" d="M 268.59213 255.32 
L 274.560045 255.32 
L 274.560045 255.32 
L 268.59213 255.32 
z
" style="fill:#595959;"/>
   </g>
   <g id="patch_30">
    <path clip-path="url(#pb5d47e4c26)" d="M 276.052023 255.32 
L 282.019938 255.32 
L 282.019938 255.32 
L 276.052023 255.32 
z
" style="fill:#595959;"/>
   </g>
   <g id="patch_31">
    <path clip-path="url(#pb5d47e4c26)" d="M 283.511917 255.32 
L 289.479831 255.32 
L 289.479831 255.32 
L 283.511917 255.32 
z
" style="fill:#595959;"/>
   </g>
   <g id="patch_32">
    <path clip-path="url(#pb5d47e4c26)" d="M 290.97181 255.32 
L 296.939724 255.32 
L 296.939724 255.32 
L 290.97181 255.32 
z
" style="fill:#595959;"/>
   </g>
   <g id="patch_33">
    <path clip-path="url(#pb5d47e4c26)" d="M 298.431703 255.32 
L 304.399617 255.32 
L 304.399617 255.32 
L 298.431703 255.32 
z
" style="fill:#595959;"/>
   </g>
   <g id="patch_34">
    <path clip-path="url(#pb5d47e4c26)" d="M 305.891596 255.32 
L 311.85951 255.32 
L 311.85951 255.32 
L 305.891596 255.32 
z
" style="fill:#595959;"/>
   </g>
   <g id="patch_35">
    <path clip-path="url(#pb5d47e4c26)" d="M 313.351489 255.32 
L 319.319403 255.32 
L 319.319403 255.32 
L 313.351489 255.32 
z
" style="fill:#595959;"/>
   </g>
   <g id="patch_36">
    <path clip-path="url(#pb5d47e4c26)" d="M 320.811382 255.32 
L 326.779296 255.32 
L 326.779296 255.32 
L 320.811382 255.32 
z
" style="fill:#595959;"/>
   </g>
   <g id="patch_37">
    <path clip-path="url(#pb5d47e4c26)" d="M 328.271275 255.32 
L 334.239189 255.32 
L 334.239189 255.32 
L 328.271275 255.32 
z
" style="fill:#595959;"/>
   </g>
   <g id="patch_38">
    <path clip-path="url(#pb5d47e4c26)" d="M 335.731168 255.32 
L 341.699082 255.32 
L 341.699082 255.32 
L 335.731168 255.32 
z
" style="fill:#595959;"/>
   </g>
   <g id="patch_39">
    <path clip-path="url(#pb5d47e4c26)" d="M 343.191061 255.32 
L 349.158975 255.32 
L 349.158975 255.32 
L 343.191061 255.32 
z
" style="fill:#595959;"/>
   </g>
   <g id="patch_40">
    <path clip-path="url(#pb5d47e4c26)" d="M 350.650954 255.32 
L 356.618868 255.32 
L 356.618868 255.32 
L 350.650954 255.32 
z
" style="fill:#595959;"/>
   </g>
   <g id="patch_41">
    <path clip-path="url(#pb5d47e4c26)" d="M 358.110847 255.32 
L 364.078761 255.32 
L 364.078761 255.32 
L 358.110847 255.32 
z
" style="fill:#595959;"/>
   </g>
   <g id="patch_42">
    <path clip-path="url(#pb5d47e4c26)" d="M 365.57074 255.32 
L 371.538655 255.32 
L 371.538655 255.32 
L 365.57074 255.32 
z
" style="fill:#595959;"/>
   </g>
   <g id="patch_43">
    <path clip-path="url(#pb5d47e4c26)" d="M 373.030633 255.32 
L 378.998548 255.32 
L 378.998548 22.348571 
L 373.030633 22.348571 
z
" style="fill:#595959;"/>
   </g>
   <g id="matplotlib.axis_1">
    <g id="xtick_1">
     <g id="line2d_1">
      <defs>
       <path d="M 0 0 
L 0 3.5 
" id="m5716ba715a" style="stroke:#000000;stroke-width:0.8;"/>
      </defs>
      <g>
       <use style="stroke:#000000;stroke-width:0.8;" x="77.618868" xlink:href="#m5716ba715a" y="255.32"/>
      </g>
     </g>
     <g id="line2d_2">
      <defs>
       <path d="M 0 0 
L 0 -3.5 
" id="mc0599911ff" style="stroke:#000000;stroke-width:0.8;"/>
      </defs>
      <g>
       <use style="stroke:#000000;stroke-width:0.8;" x="77.618868" xlink:href="#mc0599911ff" y="10.7"/>
      </g>
     </g>
     <g id="text_1">
      <!-- $-20$ -->
      <defs>
       <path d="M 65.90625 23 
C 67.59375 23 69.40625 23 69.40625 25 
C 69.40625 27 67.59375 27 65.90625 27 
L 11.796875 27 
C 10.09375 27 8.296875 27 8.296875 25 
C 8.296875 23 10.09375 23 11.796875 23 
z
" id="CMSY10-0"/>
       <path d="M 41.703125 15.46875 
L 39.90625 15.46875 
C 38.90625 8.390625 38.09375 7.1875 37.703125 6.59375 
C 37.203125 5.796875 30 5.796875 28.59375 5.796875 
L 9.40625 5.796875 
C 13 9.6875 20 16.765625 28.5 24.9375 
C 34.59375 30.71875 41.703125 37.5 41.703125 47.390625 
C 41.703125 59.1875 32.296875 66 21.796875 66 
C 10.796875 66 4.09375 56.296875 4.09375 47.296875 
C 4.09375 43.390625 7 42.890625 8.203125 42.890625 
C 9.203125 42.890625 12.203125 43.484375 12.203125 46.984375 
C 12.203125 50.09375 9.59375 51 8.203125 51 
C 7.59375 51 7 50.890625 6.59375 50.6875 
C 8.5 59.1875 14.296875 63.390625 20.40625 63.390625 
C 29.09375 63.390625 34.796875 56.5 34.796875 47.390625 
C 34.796875 38.703125 29.703125 31.21875 24 24.734375 
L 4.09375 2.296875 
L 4.09375 0 
L 39.296875 0 
z
" id="CMR17-50"/>
       <path d="M 42 31.84375 
C 42 37.96875 41.90625 48.421875 37.703125 56.453125 
C 34 63.484375 28.09375 66 22.90625 66 
C 18.09375 66 12 63.78125 8.203125 56.5625 
C 4.203125 49.015625 3.796875 39.671875 3.796875 31.84375 
C 3.796875 26.109375 3.90625 17.375 7 9.734375 
C 11.296875 -0.609375 19 -2 22.90625 -2 
C 27.5 -2 34.5 -0.109375 38.59375 9.4375 
C 41.59375 16.375 42 24.5 42 31.84375 
z
M 22.90625 -0.40625 
C 16.5 -0.40625 12.703125 5.125 11.296875 12.75 
C 10.203125 18.6875 10.203125 27.328125 10.203125 32.953125 
C 10.203125 40.6875 10.203125 47.109375 11.5 53.234375 
C 13.40625 61.78125 19 64.390625 22.90625 64.390625 
C 27 64.390625 32.296875 61.671875 34.203125 53.4375 
C 35.5 47.71875 35.59375 40.984375 35.59375 32.953125 
C 35.59375 26.421875 35.59375 18.375 34.40625 12.453125 
C 32.296875 1.5 26.40625 -0.40625 22.90625 -0.40625 
z
" id="CMR17-48"/>
      </defs>
      <g transform="translate(62.420712 274.7733)scale(0.18 -0.18)">
       <use transform="scale(0.996264)" xlink:href="#CMSY10-0"/>
       <use transform="translate(77.487468 0)scale(0.996264)" xlink:href="#CMR17-50"/>
       <use transform="translate(123.177945 0)scale(0.996264)" xlink:href="#CMR17-48"/>
      </g>
     </g>
    </g>
    <g id="xtick_2">
     <g id="line2d_3">
      <g>
       <use style="stroke:#000000;stroke-width:0.8;" x="152.217799" xlink:href="#m5716ba715a" y="255.32"/>
      </g>
     </g>
     <g id="line2d_4">
      <g>
       <use style="stroke:#000000;stroke-width:0.8;" x="152.217799" xlink:href="#mc0599911ff" y="10.7"/>
      </g>
     </g>
     <g id="text_2">
      <!-- $-10$ -->
      <defs>
       <path d="M 26.59375 63.796875 
C 26.59375 65.890625 26.5 66 25.09375 66 
C 21.203125 61.359375 15.296875 59.890625 9.703125 59.6875 
C 9.40625 59.6875 8.90625 59.6875 8.796875 59.5 
C 8.703125 59.296875 8.703125 59.09375 8.703125 57 
C 11.796875 57 17 57.59375 21 59.984375 
L 21 7.296875 
C 21 3.796875 20.796875 2.59375 12.203125 2.59375 
L 9.203125 2.59375 
L 9.203125 0 
C 14 0.09375 19 0.1875 23.796875 0.1875 
C 28.59375 0.1875 33.59375 0.09375 38.40625 0 
L 38.40625 2.59375 
L 35.40625 2.59375 
C 26.796875 2.59375 26.59375 3.6875 26.59375 7.296875 
z
" id="CMR17-49"/>
      </defs>
      <g transform="translate(137.019642 274.7733)scale(0.18 -0.18)">
       <use transform="scale(0.996264)" xlink:href="#CMSY10-0"/>
       <use transform="translate(77.487468 0)scale(0.996264)" xlink:href="#CMR17-49"/>
       <use transform="translate(123.177945 0)scale(0.996264)" xlink:href="#CMR17-48"/>
      </g>
     </g>
    </g>
    <g id="xtick_3">
     <g id="line2d_5">
      <g>
       <use style="stroke:#000000;stroke-width:0.8;" x="226.816729" xlink:href="#m5716ba715a" y="255.32"/>
      </g>
     </g>
     <g id="line2d_6">
      <g>
       <use style="stroke:#000000;stroke-width:0.8;" x="226.816729" xlink:href="#mc0599911ff" y="10.7"/>
      </g>
     </g>
     <g id="text_3">
      <!-- $0$ -->
      <g transform="translate(222.704586 274.7733)scale(0.18 -0.18)">
       <use transform="scale(0.996264)" xlink:href="#CMR17-48"/>
      </g>
     </g>
    </g>
    <g id="xtick_4">
     <g id="line2d_7">
      <g>
       <use style="stroke:#000000;stroke-width:0.8;" x="301.41566" xlink:href="#m5716ba715a" y="255.32"/>
      </g>
     </g>
     <g id="line2d_8">
      <g>
       <use style="stroke:#000000;stroke-width:0.8;" x="301.41566" xlink:href="#mc0599911ff" y="10.7"/>
      </g>
     </g>
     <g id="text_4">
      <!-- $10$ -->
      <g transform="translate(293.191374 274.7733)scale(0.18 -0.18)">
       <use transform="scale(0.996264)" xlink:href="#CMR17-49"/>
       <use transform="translate(45.690477 0)scale(0.996264)" xlink:href="#CMR17-48"/>
      </g>
     </g>
    </g>
    <g id="xtick_5">
     <g id="line2d_9">
      <g>
       <use style="stroke:#000000;stroke-width:0.8;" x="376.01459" xlink:href="#m5716ba715a" y="255.32"/>
      </g>
     </g>
     <g id="line2d_10">
      <g>
       <use style="stroke:#000000;stroke-width:0.8;" x="376.01459" xlink:href="#mc0599911ff" y="10.7"/>
      </g>
     </g>
     <g id="text_5">
      <!-- $20$ -->
      <g transform="translate(367.790304 274.7733)scale(0.18 -0.18)">
       <use transform="scale(0.996264)" xlink:href="#CMR17-50"/>
       <use transform="translate(45.690477 0)scale(0.996264)" xlink:href="#CMR17-48"/>
      </g>
     </g>
    </g>
    <g id="text_6">
     <!-- $x$ -->
     <defs>
      <path d="M 47.40625 41 
C 44.203125 40.390625 43 37.984375 43 36.09375 
C 43 33.6875 44.90625 32.890625 46.296875 32.890625 
C 49.296875 32.890625 51.40625 35.484375 51.40625 38.1875 
C 51.40625 42.09375 46.59375 44 42.40625 44 
C 36.296875 44 32.90625 38.296875 32 36.390625 
C 29.703125 43.59375 23.5 44 21.703125 44 
C 11.5 44 6.09375 31.140625 6.09375 28.890625 
C 6.09375 28.484375 6.5 27.96875 7.203125 27.96875 
C 8 27.96875 8.203125 28.578125 8.40625 28.984375 
C 11.796875 40.1875 18.5 41.984375 21.40625 41.984375 
C 25.90625 41.984375 26.796875 38.09375 26.796875 35.6875 
C 26.796875 33.484375 26.203125 31.140625 25 26.21875 
L 21.59375 12.15625 
C 20.09375 6.09375 17.203125 1 11.90625 1 
C 11.40625 1 8.90625 1 6.796875 1.96875 
C 10.40625 2.59375 11.203125 5.59375 11.203125 6.796875 
C 11.203125 8.796875 9.703125 10 7.796875 10 
C 5.40625 10 2.796875 7.890625 2.796875 4.6875 
C 2.796875 0.890625 7.5 -1 11.796875 -1 
C 16.59375 -1 20 2.390625 22.09375 6.484375 
C 23.703125 1 28.703125 -1 32.40625 -1 
C 42.59375 -1 48 11.734375 48 14 
C 48 14.515625 47.59375 14.921875 47 14.921875 
C 46.09375 14.921875 46 14.40625 45.703125 13.59375 
C 43 4.6875 37.203125 1 32.703125 1 
C 29.203125 1 27.296875 3.1875 27.296875 7.296875 
C 27.296875 9.484375 27.703125 11.125 29.296875 17.90625 
L 32.796875 31.859375 
C 34.296875 37.890625 37.703125 41.984375 42.296875 41.984375 
C 42.5 41.984375 45.296875 41.984375 47.40625 41 
z
" id="CMMI12-120"/>
     </defs>
     <g transform="translate(221.273323 296.098361)scale(0.2 -0.2)">
      <use transform="scale(0.996264)" xlink:href="#CMMI12-120"/>
     </g>
    </g>
   </g>
   <g id="matplotlib.axis_2">
    <g id="ytick_1">
     <g id="line2d_11">
      <defs>
       <path d="M 0 0 
L -3.5 0 
" id="m063b5ec4dd" style="stroke:#000000;stroke-width:0.8;"/>
      </defs>
      <g>
       <use style="stroke:#000000;stroke-width:0.8;" x="59.416729" xlink:href="#m063b5ec4dd" y="255.32"/>
      </g>
     </g>
     <g id="line2d_12">
      <defs>
       <path d="M 0 0 
L 3.5 0 
" id="mb0d26d85da" style="stroke:#000000;stroke-width:0.8;"/>
      </defs>
      <g>
       <use style="stroke:#000000;stroke-width:0.8;" x="394.216729" xlink:href="#mb0d26d85da" y="255.32"/>
      </g>
     </g>
     <g id="text_7">
      <!-- $0.0$ -->
      <defs>
       <path d="M 18.40625 4.796875 
C 18.40625 7.6875 16 9.6875 13.59375 9.6875 
C 10.703125 9.6875 8.703125 7.296875 8.703125 4.890625 
C 8.703125 2 11.09375 0 13.5 0 
C 16.40625 0 18.40625 2.390625 18.40625 4.796875 
z
" id="CMMI12-58"/>
      </defs>
      <g transform="translate(31.090666 261.54665)scale(0.18 -0.18)">
       <use transform="scale(0.996264)" xlink:href="#CMR17-48"/>
       <use transform="translate(45.690477 0)scale(0.996264)" xlink:href="#CMMI12-58"/>
       <use transform="translate(72.787654 0)scale(0.996264)" xlink:href="#CMR17-48"/>
      </g>
     </g>
    </g>
    <g id="ytick_2">
     <g id="line2d_13">
      <g>
       <use style="stroke:#000000;stroke-width:0.8;" x="59.416729" xlink:href="#m063b5ec4dd" y="208.725714"/>
      </g>
     </g>
     <g id="line2d_14">
      <g>
       <use style="stroke:#000000;stroke-width:0.8;" x="394.216729" xlink:href="#mb0d26d85da" y="208.725714"/>
      </g>
     </g>
     <g id="text_8">
      <!-- $0.2$ -->
      <g transform="translate(31.090666 214.952364)scale(0.18 -0.18)">
       <use transform="scale(0.996264)" xlink:href="#CMR17-48"/>
       <use transform="translate(45.690477 0)scale(0.996264)" xlink:href="#CMMI12-58"/>
       <use transform="translate(72.787654 0)scale(0.996264)" xlink:href="#CMR17-50"/>
      </g>
     </g>
    </g>
    <g id="ytick_3">
     <g id="line2d_15">
      <g>
       <use style="stroke:#000000;stroke-width:0.8;" x="59.416729" xlink:href="#m063b5ec4dd" y="162.131429"/>
      </g>
     </g>
     <g id="line2d_16">
      <g>
       <use style="stroke:#000000;stroke-width:0.8;" x="394.216729" xlink:href="#mb0d26d85da" y="162.131429"/>
      </g>
     </g>
     <g id="text_9">
      <!-- $0.4$ -->
      <defs>
       <path d="M 33.59375 64.796875 
C 33.59375 66.890625 33.5 67 31.703125 67 
L 2 19.59375 
L 2 17 
L 27.796875 17 
L 27.796875 7.1875 
C 27.796875 3.59375 27.59375 2.59375 20.59375 2.59375 
L 18.703125 2.59375 
L 18.703125 0 
C 21.90625 0.1875 27.296875 0.1875 30.703125 0.1875 
C 34.09375 0.1875 39.5 0.1875 42.703125 0 
L 42.703125 2.59375 
L 40.796875 2.59375 
C 33.796875 2.59375 33.59375 3.59375 33.59375 7.1875 
L 33.59375 17 
L 43.796875 17 
L 43.796875 19.59375 
L 33.59375 19.59375 
z
M 28.09375 58.171875 
L 28.09375 19.59375 
L 4 19.59375 
z
" id="CMR17-52"/>
      </defs>
      <g transform="translate(31.090666 168.358079)scale(0.18 -0.18)">
       <use transform="scale(0.996264)" xlink:href="#CMR17-48"/>
       <use transform="translate(45.690477 0)scale(0.996264)" xlink:href="#CMMI12-58"/>
       <use transform="translate(72.787654 0)scale(0.996264)" xlink:href="#CMR17-52"/>
      </g>
     </g>
    </g>
    <g id="ytick_4">
     <g id="line2d_17">
      <g>
       <use style="stroke:#000000;stroke-width:0.8;" x="59.416729" xlink:href="#m063b5ec4dd" y="115.537143"/>
      </g>
     </g>
     <g id="line2d_18">
      <g>
       <use style="stroke:#000000;stroke-width:0.8;" x="394.216729" xlink:href="#mb0d26d85da" y="115.537143"/>
      </g>
     </g>
     <g id="text_10">
      <!-- $0.6$ -->
      <defs>
       <path d="M 10.59375 34.34375 
C 10.59375 58 21.796875 63.6875 28.296875 63.6875 
C 30.40625 63.6875 35.5 63.265625 37.5 59.09375 
C 35.90625 59.09375 32.90625 59.09375 32.90625 55.59375 
C 32.90625 52.890625 35.09375 52 36.5 52 
C 37.40625 52 40.09375 52.390625 40.09375 55.796875 
C 40.09375 62.296875 35.09375 66 28.203125 66 
C 16.296875 66 3.796875 53.296875 3.796875 31.421875 
C 3.796875 4.015625 15.09375 -2 23.09375 -2 
C 32.796875 -2 42 6.734375 42 20.234375 
C 42 32.828125 33.90625 42 23.703125 42 
C 17.59375 42 13.09375 37.96875 10.59375 30.921875 
z
M 23.09375 0.390625 
C 10.796875 0.390625 10.796875 18.9375 10.796875 22.65625 
C 10.796875 29.90625 14.203125 40.390625 23.5 40.390625 
C 25.203125 40.390625 30.09375 40.390625 33.40625 33.4375 
C 35.203125 29.515625 35.203125 25.375 35.203125 20.34375 
C 35.203125 14.90625 35.203125 10.875 33.09375 6.84375 
C 30.90625 2.703125 27.703125 0.390625 23.09375 0.390625 
z
" id="CMR17-54"/>
      </defs>
      <g transform="translate(31.090666 121.763793)scale(0.18 -0.18)">
       <use transform="scale(0.996264)" xlink:href="#CMR17-48"/>
       <use transform="translate(45.690477 0)scale(0.996264)" xlink:href="#CMMI12-58"/>
       <use transform="translate(72.787654 0)scale(0.996264)" xlink:href="#CMR17-54"/>
      </g>
     </g>
    </g>
    <g id="ytick_5">
     <g id="line2d_19">
      <g>
       <use style="stroke:#000000;stroke-width:0.8;" x="59.416729" xlink:href="#m063b5ec4dd" y="68.942857"/>
      </g>
     </g>
     <g id="line2d_20">
      <g>
       <use style="stroke:#000000;stroke-width:0.8;" x="394.216729" xlink:href="#mb0d26d85da" y="68.942857"/>
      </g>
     </g>
     <g id="text_11">
      <!-- $0.8$ -->
      <defs>
       <path d="M 27.203125 35.765625 
C 33.5 38.96875 39.90625 43.796875 39.90625 51.53125 
C 39.90625 60.6875 31.09375 66 23 66 
C 13.90625 66 5.90625 59.375 5.90625 50.234375 
C 5.90625 47.71875 6.5 43.390625 10.40625 39.578125 
C 11.40625 38.578125 15.59375 35.5625 18.296875 33.65625 
C 13.796875 31.34375 3.296875 25.8125 3.296875 14.765625 
C 3.296875 4.40625 13.09375 -2 22.796875 -2 
C 33.5 -2 42.5 5.71875 42.5 15.96875 
C 42.5 25.109375 36.40625 29.328125 32.40625 32.046875 
z
M 14.09375 44.609375 
C 13.296875 45.109375 9.296875 48.21875 9.296875 52.9375 
C 9.296875 59.078125 15.59375 63.6875 22.796875 63.6875 
C 30.703125 63.6875 36.5 58.0625 36.5 51.53125 
C 36.5 42.1875 26.09375 36.859375 25.59375 36.859375 
C 25.5 36.859375 25.40625 36.859375 24.59375 37.46875 
z
M 32.5 24 
C 34 22.90625 38.796875 19.578125 38.796875 13.453125 
C 38.796875 6.015625 31.40625 0.390625 23 0.390625 
C 13.90625 0.390625 7 6.921875 7 14.859375 
C 7 22.796875 13.09375 29.4375 20 32.546875 
z
" id="CMR17-56"/>
      </defs>
      <g transform="translate(31.090666 75.169507)scale(0.18 -0.18)">
       <use transform="scale(0.996264)" xlink:href="#CMR17-48"/>
       <use transform="translate(45.690477 0)scale(0.996264)" xlink:href="#CMMI12-58"/>
       <use transform="translate(72.787654 0)scale(0.996264)" xlink:href="#CMR17-56"/>
      </g>
     </g>
    </g>
    <g id="ytick_6">
     <g id="line2d_21">
      <g>
       <use style="stroke:#000000;stroke-width:0.8;" x="59.416729" xlink:href="#m063b5ec4dd" y="22.348571"/>
      </g>
     </g>
     <g id="line2d_22">
      <g>
       <use style="stroke:#000000;stroke-width:0.8;" x="394.216729" xlink:href="#mb0d26d85da" y="22.348571"/>
      </g>
     </g>
     <g id="text_12">
      <!-- $1.0$ -->
      <g transform="translate(31.090666 28.575221)scale(0.18 -0.18)">
       <use transform="scale(0.996264)" xlink:href="#CMR17-49"/>
       <use transform="translate(45.690477 0)scale(0.996264)" xlink:href="#CMMI12-58"/>
       <use transform="translate(72.787654 0)scale(0.996264)" xlink:href="#CMR17-48"/>
      </g>
     </g>
    </g>
    <g id="text_13">
     <!-- $P(x,t=20)$ -->
     <defs>
      <path d="M 29.59375 31.59375 
L 46.40625 31.59375 
C 60.203125 31.59375 74 41.765625 74 53.125 
C 74 60.90625 67.40625 68 54.796875 68 
L 23.90625 68 
C 22 68 21.09375 68 21.09375 66.09375 
C 21.09375 65.09375 22 65.09375 23.5 65.09375 
C 29.59375 65.09375 29.59375 64.296875 29.59375 63.203125 
C 29.59375 63 29.59375 62.40625 29.203125 60.90625 
L 15.703125 7.359375 
C 14.796875 3.890625 14.59375 2.890625 7.59375 2.890625 
C 5.703125 2.890625 4.703125 2.890625 4.703125 1.09375 
C 4.703125 0 5.59375 0 6.203125 0 
C 8.09375 0 10.09375 0.1875 12 0.1875 
L 23.703125 0.1875 
C 25.59375 0.1875 27.703125 0 29.59375 0 
C 30.40625 0 31.5 0 31.5 1.890625 
C 31.5 2.890625 30.59375 2.890625 29.09375 2.890625 
C 23.09375 2.890625 23 3.59375 23 4.578125 
C 23 5.078125 23.09375 5.765625 23.203125 6.265625 
z
M 36.796875 61.203125 
C 37.703125 64.890625 38.09375 65.09375 42 65.09375 
L 51.90625 65.09375 
C 59.40625 65.09375 65.59375 62.703125 65.59375 55.21875 
C 65.59375 52.640625 64.296875 44.15625 59.703125 39.578125 
C 58 37.78125 53.203125 34 44.09375 34 
L 30 34 
z
" id="CMMI12-80"/>
      <path d="M 30.59375 -24.40625 
C 30.59375 -24.3125 30.59375 -24.109375 30.296875 -23.8125 
C 25.703125 -19.109375 13.40625 -6.296875 13.40625 24.9375 
C 13.40625 56.171875 25.5 68.875 30.40625 73.890625 
C 30.40625 73.984375 30.59375 74.1875 30.59375 74.484375 
C 30.59375 74.796875 30.296875 75 29.90625 75 
C 28.796875 75 20.296875 67.578125 15.40625 56.5625 
C 10.40625 45.453125 9 34.65625 9 25.046875 
C 9 17.828125 9.703125 5.625 15.703125 -7.296875 
C 20.5 -17.703125 28.703125 -25 29.90625 -25 
C 30.40625 -25 30.59375 -24.8125 30.59375 -24.40625 
z
" id="CMR17-40"/>
      <path d="M 19.5 -0.40625 
C 19.5 5.390625 17.59375 9.6875 13.5 9.6875 
C 10.296875 9.6875 8.703125 7.09375 8.703125 4.890625 
C 8.703125 2.6875 10.203125 0 13.59375 0 
C 14.90625 0 16 0.390625 16.90625 1.296875 
C 17.09375 1.5 17.203125 1.5 17.296875 1.5 
C 17.5 1.5 17.5 0.09375 17.5 -0.40625 
C 17.5 -3.640625 16.90625 -10.03125 11.09375 -16.421875 
C 10 -17.609375 10 -17.8125 10 -18 
C 10 -18.5 10.5 -19 11 -19 
C 11.796875 -19 19.5 -11.703125 19.5 -0.40625 
z
" id="CMMI12-59"/>
      <path d="M 20.09375 40.09375 
L 29.296875 40.09375 
C 31.203125 40.09375 32.203125 40.09375 32.203125 41.890625 
C 32.203125 43 31.59375 43 29.59375 43 
L 20.796875 43 
L 24.5 57.25 
C 24.90625 58.625 24.90625 58.8125 24.90625 59.5 
C 24.90625 61.09375 23.59375 62 22.296875 62 
C 21.5 62 19.203125 61.6875 18.40625 58.53125 
L 14.5 43 
L 5.09375 43 
C 3.09375 43 2.203125 43 2.203125 41.09375 
C 2.203125 40.09375 2.90625 40.09375 4.796875 40.09375 
L 13.703125 40.09375 
L 7.09375 13.765625 
C 6.296875 10.265625 6 9.265625 6 7.96875 
C 6 3.28125 9.296875 -1 14.90625 -1 
C 25 -1 30.40625 13.5625 30.40625 14.265625 
C 30.40625 14.859375 30 15.15625 29.40625 15.15625 
C 29.203125 15.15625 28.796875 15.15625 28.59375 14.75 
C 28.5 14.65625 28.40625 14.5625 27.703125 12.96875 
C 25.59375 7.96875 21 1 15.203125 1 
C 12.203125 1 12 3.484375 12 5.6875 
C 12 5.78125 12 7.671875 12.296875 8.875 
z
" id="CMMI12-116"/>
      <path d="M 64.296875 32 
C 65.796875 32 67.296875 32 67.296875 33.6875 
C 67.296875 35.5 65.59375 35.5 63.90625 35.5 
L 8 35.5 
C 6.296875 35.5 4.59375 35.5 4.59375 33.6875 
C 4.59375 32 6.09375 32 7.59375 32 
z
M 63.90625 14.484375 
C 65.59375 14.484375 67.296875 14.484375 67.296875 16.296875 
C 67.296875 18 65.796875 18 64.296875 18 
L 7.59375 18 
C 6.09375 18 4.59375 18 4.59375 16.296875 
C 4.59375 14.484375 6.296875 14.484375 8 14.484375 
z
" id="CMR17-61"/>
      <path d="M 26.296875 24.9375 
C 26.296875 32.140625 25.59375 44.359375 19.59375 57.265625 
C 14.796875 67.6875 6.59375 75 5.40625 75 
C 5.09375 75 4.703125 74.890625 4.703125 74.390625 
C 4.703125 74.1875 4.796875 74.09375 4.90625 73.890625 
C 9.703125 68.875 21.90625 56.171875 21.90625 25.046875 
C 21.90625 -6.1875 9.796875 -18.90625 4.90625 -23.90625 
C 4.796875 -24.109375 4.703125 -24.203125 4.703125 -24.40625 
C 4.703125 -24.90625 5.09375 -25 5.40625 -25 
C 6.5 -25 15 -17.609375 19.90625 -6.59375 
C 24.90625 4.515625 26.296875 15.328125 26.296875 24.9375 
z
" id="CMR17-41"/>
     </defs>
     <g transform="translate(22.126022 182.989227)rotate(-90)scale(0.2 -0.2)">
      <use transform="scale(0.996264)" xlink:href="#CMMI12-80"/>
      <use transform="translate(76.425821 0)scale(0.996264)" xlink:href="#CMR17-40"/>
      <use transform="translate(111.706589 0)scale(0.996264)" xlink:href="#CMMI12-120"/>
      <use transform="translate(167.140648 0)scale(0.996264)" xlink:href="#CMMI12-59"/>
      <use transform="translate(210.84223 0)scale(0.996264)" xlink:href="#CMMI12-116"/>
      <use transform="translate(273.742569 0)scale(0.996264)" xlink:href="#CMR17-61"/>
      <use transform="translate(373.131367 0)scale(0.996264)" xlink:href="#CMR17-50"/>
      <use transform="translate(418.821844 0)scale(0.996264)" xlink:href="#CMR17-48"/>
      <use transform="translate(464.512321 0)scale(0.996264)" xlink:href="#CMR17-41"/>
     </g>
    </g>
   </g>
   <g id="patch_44">
    <path d="M 59.416729 255.32 
L 59.416729 10.7 
" style="fill:none;stroke:#000000;stroke-linecap:square;stroke-linejoin:miter;stroke-width:0.8;"/>
   </g>
   <g id="patch_45">
    <path d="M 394.216729 255.32 
L 394.216729 10.7 
" style="fill:none;stroke:#000000;stroke-linecap:square;stroke-linejoin:miter;stroke-width:0.8;"/>
   </g>
   <g id="patch_46">
    <path d="M 59.416729 255.32 
L 394.216729 255.32 
" style="fill:none;stroke:#000000;stroke-linecap:square;stroke-linejoin:miter;stroke-width:0.8;"/>
   </g>
   <g id="patch_47">
    <path d="M 59.416729 10.7 
L 394.216729 10.7 
" style="fill:none;stroke:#000000;stroke-linecap:square;stroke-linejoin:miter;stroke-width:0.8;"/>
   </g>
  </g>
 </g>
 <defs>
  <clipPath id="pb5d47e4c26">
   <rect height="244.62" width="334.8" x="59.416729" y="10.7"/>
  </clipPath>
 </defs>
</svg>
