<?xml version="1.0" encoding="utf-8" standalone="no"?>
<!DOCTYPE svg PUBLIC "-//W3C//DTD SVG 1.1//EN"
  "http://www.w3.org/Graphics/SVG/1.1/DTD/svg11.dtd">
<svg xmlns:xlink="http://www.w3.org/1999/xlink" width="440.39952pt" height="440.39952pt" viewBox="0 0 440.39952 440.39952" xmlns="http://www.w3.org/2000/svg" version="1.1">
 <metadata>
  <rdf:RDF xmlns:dc="http://purl.org/dc/elements/1.1/" xmlns:cc="http://creativecommons.org/ns#" xmlns:rdf="http://www.w3.org/1999/02/22-rdf-syntax-ns#">
   <cc:Work>
    <dc:type rdf:resource="http://purl.org/dc/dcmitype/StillImage"/>
    <dc:date>2023-05-29T16:37:12.929866</dc:date>
    <dc:format>image/svg+xml</dc:format>
    <dc:creator>
     <cc:Agent>
      <dc:title>Matplotlib v3.6.3, https://matplotlib.org/</dc:title>
     </cc:Agent>
    </dc:creator>
   </cc:Work>
  </rdf:RDF>
 </metadata>
 <defs>
  <style type="text/css">*{stroke-linejoin: round; stroke-linecap: butt}</style>
 </defs>
 <g id="figure_1">
  <g id="patch_1">
   <path d="M 0 440.39952 
L 440.39952 440.39952 
L 440.39952 0 
L 0 0 
z
" style="fill: #ffffff"/>
  </g>
  <g id="axes_1">
   <g id="patch_2">
    <path d="M 62.369736 194.894252 
L 429.69952 194.894252 
L 429.69952 10.7 
L 62.369736 10.7 
z
" style="fill: #ffffff"/>
   </g>
   <g id="matplotlib.axis_1">
    <g id="xtick_1">
     <g id="line2d_1">
      <defs>
       <path id="mecd493f47d" d="M 0 0 
L 0 3.5 
" style="stroke: #000000; stroke-width: 0.8"/>
      </defs>
      <g>
       <use xlink:href="#mecd493f47d" x="79.066545" y="194.894252" style="stroke: #000000; stroke-width: 0.8"/>
      </g>
     </g>
     <g id="line2d_2">
      <defs>
       <path id="m2dded5f8b8" d="M 0 0 
L 0 -3.5 
" style="stroke: #000000; stroke-width: 0.8"/>
      </defs>
      <g>
       <use xlink:href="#m2dded5f8b8" x="79.066545" y="10.7" style="stroke: #000000; stroke-width: 0.8"/>
      </g>
     </g>
    </g>
    <g id="xtick_2">
     <g id="line2d_3">
      <g>
       <use xlink:href="#mecd493f47d" x="162.550586" y="194.894252" style="stroke: #000000; stroke-width: 0.8"/>
      </g>
     </g>
     <g id="line2d_4">
      <g>
       <use xlink:href="#m2dded5f8b8" x="162.550586" y="10.7" style="stroke: #000000; stroke-width: 0.8"/>
      </g>
     </g>
    </g>
    <g id="xtick_3">
     <g id="line2d_5">
      <g>
       <use xlink:href="#mecd493f47d" x="246.034628" y="194.894252" style="stroke: #000000; stroke-width: 0.8"/>
      </g>
     </g>
     <g id="line2d_6">
      <g>
       <use xlink:href="#m2dded5f8b8" x="246.034628" y="10.7" style="stroke: #000000; stroke-width: 0.8"/>
      </g>
     </g>
    </g>
    <g id="xtick_4">
     <g id="line2d_7">
      <g>
       <use xlink:href="#mecd493f47d" x="329.51867" y="194.894252" style="stroke: #000000; stroke-width: 0.8"/>
      </g>
     </g>
     <g id="line2d_8">
      <g>
       <use xlink:href="#m2dded5f8b8" x="329.51867" y="10.7" style="stroke: #000000; stroke-width: 0.8"/>
      </g>
     </g>
    </g>
    <g id="xtick_5">
     <g id="line2d_9">
      <g>
       <use xlink:href="#mecd493f47d" x="413.002712" y="194.894252" style="stroke: #000000; stroke-width: 0.8"/>
      </g>
     </g>
     <g id="line2d_10">
      <g>
       <use xlink:href="#m2dded5f8b8" x="413.002712" y="10.7" style="stroke: #000000; stroke-width: 0.8"/>
      </g>
     </g>
    </g>
   </g>
   <g id="matplotlib.axis_2">
    <g id="ytick_1">
     <g id="line2d_11">
      <defs>
       <path id="m2d0b36e324" d="M 0 0 
L -3.5 0 
" style="stroke: #000000; stroke-width: 0.8"/>
      </defs>
      <g>
       <use xlink:href="#m2d0b36e324" x="62.369736" y="186.521786" style="stroke: #000000; stroke-width: 0.8"/>
      </g>
     </g>
     <g id="line2d_12">
      <defs>
       <path id="m703e71d0cb" d="M 0 0 
L 3.5 0 
" style="stroke: #000000; stroke-width: 0.8"/>
      </defs>
      <g>
       <use xlink:href="#m703e71d0cb" x="429.69952" y="186.521786" style="stroke: #000000; stroke-width: 0.8"/>
      </g>
     </g>
     <g id="text_1">
      <!-- $\mathdefault{0.00}$ -->
      <g transform="translate(31.090666 191.364725) scale(0.14 -0.14)">
       <defs>
        <path id="CMR17-30" d="M 2688 2025 
C 2688 2416 2682 3080 2413 3591 
C 2176 4039 1798 4198 1466 4198 
C 1158 4198 768 4058 525 3597 
C 269 3118 243 2524 243 2025 
C 243 1661 250 1106 448 619 
C 723 -39 1216 -128 1466 -128 
C 1760 -128 2208 -7 2470 600 
C 2662 1042 2688 1559 2688 2025 
z
M 1466 -26 
C 1056 -26 813 325 723 812 
C 653 1188 653 1738 653 2096 
C 653 2588 653 2997 736 3387 
C 858 3929 1216 4096 1466 4096 
C 1728 4096 2067 3923 2189 3400 
C 2272 3036 2278 2607 2278 2096 
C 2278 1680 2278 1169 2202 792 
C 2067 95 1690 -26 1466 -26 
z
" transform="scale(0.015625)"/>
        <path id="CMMI12-3a" d="M 1178 307 
C 1178 492 1024 619 870 619 
C 685 619 557 466 557 313 
C 557 128 710 0 864 0 
C 1050 0 1178 153 1178 307 
z
" transform="scale(0.015625)"/>
       </defs>
       <use xlink:href="#CMR17-30" transform="scale(0.996264)"/>
       <use xlink:href="#CMMI12-3a" transform="translate(45.690477 0) scale(0.996264)"/>
       <use xlink:href="#CMR17-30" transform="translate(72.787654 0) scale(0.996264)"/>
       <use xlink:href="#CMR17-30" transform="translate(118.478131 0) scale(0.996264)"/>
      </g>
     </g>
    </g>
    <g id="ytick_2">
     <g id="line2d_13">
      <g>
       <use xlink:href="#m2d0b36e324" x="62.369736" y="152.458635" style="stroke: #000000; stroke-width: 0.8"/>
      </g>
     </g>
     <g id="line2d_14">
      <g>
       <use xlink:href="#m703e71d0cb" x="429.69952" y="152.458635" style="stroke: #000000; stroke-width: 0.8"/>
      </g>
     </g>
     <g id="text_2">
      <!-- $\mathdefault{0.05}$ -->
      <g transform="translate(31.090666 157.301573) scale(0.14 -0.14)">
       <defs>
        <path id="CMR17-35" d="M 730 3692 
C 794 3666 1056 3584 1325 3584 
C 1920 3584 2246 3911 2432 4100 
C 2432 4157 2432 4192 2394 4192 
C 2387 4192 2374 4192 2323 4163 
C 2099 4058 1837 3973 1517 3973 
C 1325 3973 1037 3999 723 4139 
C 653 4171 640 4171 634 4171 
C 602 4171 595 4164 595 4037 
L 595 2203 
C 595 2089 595 2057 659 2057 
C 691 2057 704 2070 736 2114 
C 941 2401 1222 2522 1542 2522 
C 1766 2522 2246 2382 2246 1289 
C 2246 1085 2246 715 2054 421 
C 1894 159 1645 25 1370 25 
C 947 25 518 320 403 814 
C 429 807 480 795 506 795 
C 589 795 749 840 749 1038 
C 749 1210 627 1280 506 1280 
C 358 1280 262 1190 262 1011 
C 262 454 704 -128 1382 -128 
C 2042 -128 2669 440 2669 1264 
C 2669 2030 2170 2624 1549 2624 
C 1222 2624 947 2503 730 2274 
L 730 3692 
z
" transform="scale(0.015625)"/>
       </defs>
       <use xlink:href="#CMR17-30" transform="scale(0.996264)"/>
       <use xlink:href="#CMMI12-3a" transform="translate(45.690477 0) scale(0.996264)"/>
       <use xlink:href="#CMR17-30" transform="translate(72.787654 0) scale(0.996264)"/>
       <use xlink:href="#CMR17-35" transform="translate(118.478131 0) scale(0.996264)"/>
      </g>
     </g>
    </g>
    <g id="ytick_3">
     <g id="line2d_15">
      <g>
       <use xlink:href="#m2d0b36e324" x="62.369736" y="118.395484" style="stroke: #000000; stroke-width: 0.8"/>
      </g>
     </g>
     <g id="line2d_16">
      <g>
       <use xlink:href="#m703e71d0cb" x="429.69952" y="118.395484" style="stroke: #000000; stroke-width: 0.8"/>
      </g>
     </g>
     <g id="text_3">
      <!-- $\mathdefault{0.10}$ -->
      <g transform="translate(31.090666 123.238422) scale(0.14 -0.14)">
       <defs>
        <path id="CMR17-31" d="M 1702 4058 
C 1702 4192 1696 4192 1606 4192 
C 1357 3916 979 3827 621 3827 
C 602 3827 570 3827 563 3808 
C 557 3795 557 3782 557 3648 
C 755 3648 1088 3686 1344 3839 
L 1344 461 
C 1344 236 1331 160 781 160 
L 589 160 
L 589 0 
C 896 0 1216 0 1523 0 
C 1830 0 2150 0 2458 0 
L 2458 160 
L 2266 160 
C 1715 160 1702 230 1702 458 
L 1702 4058 
z
" transform="scale(0.015625)"/>
       </defs>
       <use xlink:href="#CMR17-30" transform="scale(0.996264)"/>
       <use xlink:href="#CMMI12-3a" transform="translate(45.690477 0) scale(0.996264)"/>
       <use xlink:href="#CMR17-31" transform="translate(72.787654 0) scale(0.996264)"/>
       <use xlink:href="#CMR17-30" transform="translate(118.478131 0) scale(0.996264)"/>
      </g>
     </g>
    </g>
    <g id="ytick_4">
     <g id="line2d_17">
      <g>
       <use xlink:href="#m2d0b36e324" x="62.369736" y="84.332333" style="stroke: #000000; stroke-width: 0.8"/>
      </g>
     </g>
     <g id="line2d_18">
      <g>
       <use xlink:href="#m703e71d0cb" x="429.69952" y="84.332333" style="stroke: #000000; stroke-width: 0.8"/>
      </g>
     </g>
     <g id="text_4">
      <!-- $\mathdefault{0.15}$ -->
      <g transform="translate(31.090666 89.175271) scale(0.14 -0.14)">
       <use xlink:href="#CMR17-30" transform="scale(0.996264)"/>
       <use xlink:href="#CMMI12-3a" transform="translate(45.690477 0) scale(0.996264)"/>
       <use xlink:href="#CMR17-31" transform="translate(72.787654 0) scale(0.996264)"/>
       <use xlink:href="#CMR17-35" transform="translate(118.478131 0) scale(0.996264)"/>
      </g>
     </g>
    </g>
    <g id="ytick_5">
     <g id="line2d_19">
      <g>
       <use xlink:href="#m2d0b36e324" x="62.369736" y="50.269181" style="stroke: #000000; stroke-width: 0.8"/>
      </g>
     </g>
     <g id="line2d_20">
      <g>
       <use xlink:href="#m703e71d0cb" x="429.69952" y="50.269181" style="stroke: #000000; stroke-width: 0.8"/>
      </g>
     </g>
     <g id="text_5">
      <!-- $\mathdefault{0.20}$ -->
      <g transform="translate(31.090666 55.11212) scale(0.14 -0.14)">
       <defs>
        <path id="CMR17-32" d="M 2669 989 
L 2554 989 
C 2490 536 2438 459 2413 420 
C 2381 369 1920 369 1830 369 
L 602 369 
C 832 619 1280 1072 1824 1597 
C 2214 1967 2669 2402 2669 3035 
C 2669 3790 2067 4224 1395 4224 
C 691 4224 262 3604 262 3030 
C 262 2780 448 2748 525 2748 
C 589 2748 781 2787 781 3010 
C 781 3207 614 3264 525 3264 
C 486 3264 448 3258 422 3245 
C 544 3790 915 4058 1306 4058 
C 1862 4058 2227 3617 2227 3035 
C 2227 2479 1901 2000 1536 1584 
L 262 146 
L 262 0 
L 2515 0 
L 2669 989 
z
" transform="scale(0.015625)"/>
       </defs>
       <use xlink:href="#CMR17-30" transform="scale(0.996264)"/>
       <use xlink:href="#CMMI12-3a" transform="translate(45.690477 0) scale(0.996264)"/>
       <use xlink:href="#CMR17-32" transform="translate(72.787654 0) scale(0.996264)"/>
       <use xlink:href="#CMR17-30" transform="translate(118.478131 0) scale(0.996264)"/>
      </g>
     </g>
    </g>
    <g id="ytick_6">
     <g id="line2d_21">
      <g>
       <use xlink:href="#m2d0b36e324" x="62.369736" y="16.20603" style="stroke: #000000; stroke-width: 0.8"/>
      </g>
     </g>
     <g id="line2d_22">
      <g>
       <use xlink:href="#m703e71d0cb" x="429.69952" y="16.20603" style="stroke: #000000; stroke-width: 0.8"/>
      </g>
     </g>
     <g id="text_6">
      <!-- $\mathdefault{0.25}$ -->
      <g transform="translate(31.090666 21.048968) scale(0.14 -0.14)">
       <use xlink:href="#CMR17-30" transform="scale(0.996264)"/>
       <use xlink:href="#CMMI12-3a" transform="translate(45.690477 0) scale(0.996264)"/>
       <use xlink:href="#CMR17-32" transform="translate(72.787654 0) scale(0.996264)"/>
       <use xlink:href="#CMR17-35" transform="translate(118.478131 0) scale(0.996264)"/>
      </g>
     </g>
    </g>
    <g id="text_7">
     <!-- $\lambda_s(t)$ -->
     <g transform="translate(22.126022 122.531867) rotate(-90) scale(0.2 -0.2)">
      <defs>
       <path id="CMMI12-15" d="M 1978 3965 
C 1818 4416 1312 4416 1229 4416 
C 1190 4416 1120 4416 1120 4352 
C 1120 4302 1158 4295 1190 4289 
C 1286 4276 1363 4263 1466 4080 
C 1530 3959 2189 2059 2189 2046 
C 2189 2040 2182 2033 2131 1982 
L 467 311 
C 390 234 339 183 339 102 
C 339 12 416 -64 518 -64 
C 544 -64 614 -51 653 -13 
C 755 82 1670 1194 2253 1881 
C 2419 1383 2624 797 2822 261 
C 2854 166 2886 76 2976 -6 
C 3040 -64 3053 -64 3232 -64 
L 3354 -64 
C 3379 -64 3424 -64 3424 -13 
C 3424 13 3418 19 3392 45 
C 3334 115 3290 229 3264 306 
L 1978 3965 
z
" transform="scale(0.015625)"/>
       <path id="CMMI12-73" d="M 1459 1280 
C 1568 1261 1741 1223 1779 1216 
C 1862 1192 2150 1090 2150 783 
C 2150 586 1971 70 1229 70 
C 1094 70 614 70 486 436 
C 742 404 870 603 870 745 
C 870 880 781 950 653 950 
C 512 950 326 841 326 552 
C 326 173 710 -64 1222 -64 
C 2195 -64 2483 651 2483 984 
C 2483 1079 2483 1258 2278 1462 
C 2118 1616 1965 1648 1619 1718 
C 1446 1756 1171 1814 1171 2101 
C 1171 2229 1286 2689 1894 2689 
C 2163 2689 2426 2589 2490 2368 
C 2208 2368 2195 2125 2195 2119 
C 2195 1984 2317 1946 2374 1946 
C 2464 1946 2643 2015 2643 2281 
C 2643 2545 2400 2816 1901 2816 
C 1062 2816 838 2160 838 1899 
C 838 1414 1312 1312 1459 1280 
z
" transform="scale(0.015625)"/>
       <path id="CMR17-28" d="M 1958 -1561 
C 1958 -1555 1958 -1542 1939 -1523 
C 1645 -1224 858 -407 858 1581 
C 858 3569 1632 4379 1946 4697 
C 1946 4704 1958 4717 1958 4736 
C 1958 4755 1939 4768 1914 4768 
C 1843 4768 1299 4296 986 3594 
C 666 2887 576 2199 576 1588 
C 576 1128 621 351 1005 -471 
C 1312 -1135 1837 -1600 1914 -1600 
C 1946 -1600 1958 -1587 1958 -1561 
z
" transform="scale(0.015625)"/>
       <path id="CMMI12-74" d="M 1286 2566 
L 1875 2566 
C 1997 2566 2061 2566 2061 2681 
C 2061 2752 2022 2752 1894 2752 
L 1331 2752 
L 1568 3692 
C 1594 3781 1594 3794 1594 3840 
C 1594 3943 1510 4000 1427 4000 
C 1376 4000 1229 3981 1178 3775 
L 928 2752 
L 326 2752 
C 198 2752 141 2752 141 2630 
C 141 2566 186 2566 307 2566 
L 877 2566 
L 454 881 
C 403 658 384 594 384 511 
C 384 211 595 -64 954 -64 
C 1600 -64 1946 868 1946 912 
C 1946 951 1920 970 1882 970 
C 1869 970 1843 970 1830 944 
C 1824 938 1818 931 1773 829 
C 1638 511 1344 64 973 64 
C 781 64 768 224 768 364 
C 768 370 768 492 787 568 
L 1286 2566 
z
" transform="scale(0.015625)"/>
       <path id="CMR17-29" d="M 1683 1581 
C 1683 2040 1638 2817 1254 3639 
C 947 4303 422 4768 346 4768 
C 326 4768 301 4761 301 4729 
C 301 4717 307 4710 314 4697 
C 621 4378 1402 3568 1402 1584 
C 1402 -407 627 -1217 314 -1537 
C 307 -1549 301 -1556 301 -1568 
C 301 -1600 326 -1600 346 -1600 
C 416 -1600 960 -1128 1274 -426 
C 1594 281 1683 969 1683 1581 
z
" transform="scale(0.015625)"/>
      </defs>
      <use xlink:href="#CMMI12-15" transform="scale(0.996264)"/>
      <use xlink:href="#CMMI12-73" transform="translate(56.904072 -14.943915) scale(0.697382)"/>
      <use xlink:href="#CMR17-28" transform="translate(89.567093 0) scale(0.996264)"/>
      <use xlink:href="#CMMI12-74" transform="translate(124.847861 0) scale(0.996264)"/>
      <use xlink:href="#CMR17-29" transform="translate(160.074191 0) scale(0.996264)"/>
     </g>
    </g>
   </g>
   <g id="line2d_23">
    <path d="M 79.066545 186.521786 
L 79.901385 179.697771 
L 80.736226 168.839397 
L 81.571066 167.546255 
L 82.405906 173.830005 
L 83.240747 177.603235 
L 84.075587 175.69258 
L 84.910428 172.312401 
L 85.745268 170.823824 
L 86.580109 171.662425 
L 87.414949 171.910403 
L 88.249789 172.338563 
L 89.08463 171.527898 
L 89.91947 169.223922 
L 90.754311 168.699112 
L 91.589151 170.544835 
L 92.423991 171.964098 
L 93.258832 170.797684 
L 94.093672 168.021868 
L 94.928513 167.10049 
L 95.763353 167.764006 
L 96.598194 169.632562 
L 97.433034 169.982774 
L 99.102715 166.665655 
L 99.937555 166.855374 
L 100.772396 168.237228 
L 101.607236 168.467228 
L 102.442076 166.310394 
L 103.276917 165.053169 
L 104.111757 165.879494 
L 104.946598 167.84604 
L 105.781438 166.725015 
L 106.616279 165.303295 
L 107.451119 165.249022 
L 108.285959 165.518359 
L 109.95564 165.36947 
L 110.790481 165.262361 
L 111.625321 165.353892 
L 113.295002 164.287285 
L 114.129842 163.62902 
L 114.964683 164.205494 
L 115.799523 164.2931 
L 116.634364 164.562864 
L 117.469204 164.959933 
L 118.304044 164.383726 
L 119.138885 162.950322 
L 119.973725 162.906785 
L 121.643406 164.279037 
L 122.478246 164.325584 
L 123.313087 163.876721 
L 124.147927 162.844224 
L 124.982768 163.130854 
L 125.817608 164.521116 
L 126.652449 165.079539 
L 128.322129 162.70167 
L 129.15697 162.44411 
L 130.826651 164.543929 
L 132.496331 162.357746 
L 133.331172 162.601769 
L 134.166012 163.179544 
L 135.000853 163.40624 
L 135.835693 163.899168 
L 136.670534 163.667311 
L 137.505374 162.333772 
L 138.340214 162.345673 
L 139.175055 163.864798 
L 140.009895 164.319162 
L 140.844736 163.499797 
L 141.679576 162.264833 
L 142.514416 162.439502 
L 144.184097 163.878521 
L 145.853778 163.229329 
L 147.523459 162.344512 
L 148.358299 162.973498 
L 149.19314 163.904873 
L 150.02798 162.79743 
L 150.862821 161.444309 
L 151.697661 161.60307 
L 152.532501 163.369779 
L 153.367342 163.391225 
L 154.202182 162.339813 
L 155.037023 161.805339 
L 155.871863 162.370468 
L 156.706704 162.712564 
L 158.376384 161.406806 
L 159.211225 161.854933 
L 160.046065 161.660073 
L 161.715746 162.523976 
L 162.550586 162.80961 
L 163.385427 161.186334 
L 164.220267 160.23966 
L 165.055108 161.542631 
L 165.889948 163.059738 
L 166.724789 163.364866 
L 167.559629 162.419417 
L 168.394469 161.169036 
L 169.22931 161.422633 
L 170.06415 161.532416 
L 170.898991 161.94419 
L 172.568671 162.003847 
L 173.403512 161.246113 
L 174.238352 161.04547 
L 175.073193 161.677216 
L 175.908033 161.68709 
L 176.742874 161.005022 
L 177.577714 161.121717 
L 179.247395 160.925137 
L 180.917076 160.208192 
L 181.751916 159.807083 
L 183.421597 160.828851 
L 185.091278 160.344066 
L 186.760959 159.197817 
L 188.430639 158.923914 
L 189.26548 158.507049 
L 190.10032 158.628289 
L 190.935161 159.230994 
L 191.770001 158.816159 
L 192.604842 158.023152 
L 193.439682 157.948728 
L 194.274522 157.368354 
L 195.109363 157.37563 
L 195.944203 157.622034 
L 196.779044 158.1055 
L 198.448724 157.404572 
L 200.118405 157.004663 
L 200.953246 157.229044 
L 201.788086 157.62636 
L 203.457767 157.710577 
L 204.292607 156.322495 
L 205.127448 156.236982 
L 205.962288 157.924386 
L 206.797129 159.044719 
L 207.631969 157.286155 
L 208.466809 155.174685 
L 209.30165 155.834042 
L 210.13649 158.291461 
L 210.971331 159.161778 
L 211.806171 158.663585 
L 212.641012 157.680748 
L 213.475852 158.421013 
L 214.310692 158.987987 
L 215.145533 158.721908 
L 215.980373 158.862806 
L 216.815214 160.097597 
L 217.650054 160.060613 
L 218.484894 159.325408 
L 219.319735 159.099438 
L 220.154575 159.959813 
L 220.989416 160.577147 
L 221.824256 161.580601 
L 222.659097 161.170358 
L 223.493937 160.177186 
L 224.328777 160.3828 
L 225.163618 161.618665 
L 225.998458 161.562765 
L 226.833299 161.261148 
L 227.668139 160.738689 
L 228.502979 161.528911 
L 229.33782 162.046916 
L 231.007501 160.748374 
L 231.842341 161.44936 
L 232.677182 162.319888 
L 233.512022 161.191231 
L 234.346862 160.276364 
L 235.181703 161.818871 
L 236.016543 162.37384 
L 236.851384 161.49131 
L 237.686224 159.950216 
L 238.521064 160.13769 
L 239.355905 161.443418 
L 240.190745 161.595749 
L 241.025586 161.070533 
L 241.860426 160.296041 
L 242.695267 160.719745 
L 243.530107 161.408744 
L 244.364947 160.991674 
L 245.199788 160.890328 
L 246.869469 159.61569 
L 247.704309 160.029659 
L 248.539149 160.940103 
L 249.37399 161.298429 
L 250.20883 160.066594 
L 251.043671 159.064348 
L 251.878511 158.559943 
L 253.548192 160.759449 
L 254.383032 159.888477 
L 255.217873 158.17106 
L 256.052713 157.271774 
L 256.887554 158.164471 
L 257.722394 159.637625 
L 258.557234 159.237574 
L 259.392075 157.477822 
L 260.226915 156.707884 
L 261.061756 158.391247 
L 261.896596 158.972029 
L 263.566277 156.792841 
L 264.401117 156.974961 
L 266.070798 158.546053 
L 266.905639 157.943988 
L 268.575319 156.128173 
L 269.41016 156.389641 
L 270.245 156.821951 
L 271.079841 158.345513 
L 271.914681 158.720346 
L 272.749522 157.439717 
L 273.584362 155.814599 
L 274.419202 155.876638 
L 276.088883 157.630236 
L 276.923724 157.444242 
L 277.758564 156.752325 
L 278.593404 156.48155 
L 279.428245 157.542247 
L 280.263085 157.131337 
L 281.097926 156.108437 
L 281.932766 155.919567 
L 282.767607 156.986529 
L 283.602447 157.220361 
L 284.437287 156.589756 
L 285.272128 155.811506 
L 286.941809 156.668112 
L 287.776649 156.036398 
L 288.611489 155.049314 
L 289.44633 156.363797 
L 290.28117 157.263585 
L 291.950851 154.537604 
L 292.785692 154.858907 
L 293.620532 155.698231 
L 294.455372 155.952938 
L 296.125053 154.897307 
L 296.959894 154.675435 
L 297.794734 154.314221 
L 298.629574 154.408839 
L 299.464415 155.32635 
L 300.299255 155.835875 
L 301.968936 152.96326 
L 302.803777 153.895797 
L 303.638617 155.626137 
L 304.473457 156.315253 
L 305.308298 155.706703 
L 306.143138 154.080735 
L 306.977979 153.071334 
L 307.812819 154.130944 
L 308.647659 156.270805 
L 309.4825 157.135952 
L 310.31734 156.116027 
L 311.152181 154.286339 
L 311.987021 153.862767 
L 312.821862 155.859088 
L 313.656702 157.248903 
L 314.491542 155.890624 
L 315.326383 154.855833 
L 316.161223 154.873178 
L 316.996064 155.711758 
L 318.665745 158.412031 
L 319.500585 157.32147 
L 320.335425 155.08371 
L 321.170266 154.393362 
L 322.839947 157.943726 
L 323.674787 157.812632 
L 324.509627 155.547234 
L 325.344468 155.207493 
L 327.014149 157.846953 
L 327.848989 156.731074 
L 328.68383 155.327848 
L 329.51867 154.739876 
L 330.35351 155.592898 
L 331.188351 157.467882 
L 332.023191 157.762387 
L 332.858032 155.452599 
L 333.692872 153.941132 
L 334.527712 154.644223 
L 335.362553 157.152116 
L 336.197393 157.25811 
L 337.032234 156.023832 
L 337.867074 154.534565 
L 338.701915 155.099174 
L 339.536755 156.171506 
L 342.041276 155.008153 
L 342.876117 154.059182 
L 343.710957 154.1995 
L 345.380638 155.328046 
L 346.215478 154.146752 
L 347.050319 153.283419 
L 347.885159 153.183758 
L 348.72 153.715628 
L 349.55484 154.395665 
L 350.38968 153.321045 
L 351.224521 151.905054 
L 352.059361 152.281622 
L 352.894202 152.931611 
L 353.729042 153.27719 
L 354.563882 152.331688 
L 355.398723 151.819174 
L 357.068404 152.690554 
L 357.903244 152.419383 
L 358.738085 150.865167 
L 359.572925 151.389187 
L 360.407765 153.27452 
L 361.242606 153.266901 
L 362.077446 151.77078 
L 362.912287 151.01132 
L 363.747127 151.663793 
L 364.581967 152.740165 
L 365.416808 152.812713 
L 366.251648 152.413095 
L 367.086489 152.574003 
L 367.921329 153.057379 
L 369.59101 152.08276 
L 371.260691 153.858555 
L 372.095531 153.165752 
L 372.930372 152.707308 
L 373.765212 152.465135 
L 375.434893 153.834998 
L 376.269733 153.925562 
L 377.104574 153.465401 
L 377.939414 153.45114 
L 378.774255 153.769919 
L 379.609095 153.672815 
L 380.443935 153.011844 
L 382.113616 153.955272 
L 382.948457 154.853559 
L 383.783297 154.561825 
L 384.618137 153.616793 
L 385.452978 153.485306 
L 386.287818 154.332325 
L 387.957499 154.015835 
L 389.62718 154.976035 
L 390.46202 153.626127 
L 391.296861 153.091728 
L 392.131701 153.815316 
L 392.966542 155.64489 
L 393.801382 155.620631 
L 394.636222 153.7355 
L 395.471063 152.385634 
L 397.140744 154.853847 
L 397.975584 154.70665 
L 399.645265 153.920217 
L 400.480105 152.761635 
L 401.314946 153.113202 
L 402.149786 154.183164 
L 402.984627 154.319878 
L 403.819467 152.925134 
L 404.654307 152.240478 
L 405.489148 153.10631 
L 406.323988 154.457828 
L 407.158829 154.479223 
L 407.993669 152.613024 
L 408.82851 152.087946 
L 409.66335 153.705322 
L 410.49819 154.018486 
L 411.333031 153.185306 
L 412.167871 152.531871 
L 413.002712 152.971444 
L 413.002712 152.971444 
" clip-path="url(#p0f145ea0c8)" style="fill: none; stroke: #000000; stroke-width: 0.5; stroke-linecap: square"/>
   </g>
   <g id="line2d_24">
    <path d="M 79.066545 186.521786 
L 79.901385 179.697771 
L 80.736226 169.532689 
L 81.571066 163.952397 
L 82.405906 164.264061 
L 83.240747 162.95849 
L 84.910428 149.649679 
L 85.745268 144.787048 
L 87.414949 138.821998 
L 88.249789 136.290913 
L 89.08463 135.338999 
L 90.754311 131.220368 
L 91.589151 127.30768 
L 92.423991 124.814185 
L 94.093672 121.375216 
L 96.598194 118.356618 
L 97.433034 116.162336 
L 98.267874 114.687725 
L 99.102715 114.44521 
L 99.937555 116.325256 
L 100.772396 115.573641 
L 101.607236 111.830781 
L 102.442076 109.934465 
L 103.276917 109.604952 
L 104.111757 110.148458 
L 104.946598 109.458961 
L 105.781438 107.04401 
L 106.616279 106.5562 
L 107.451119 106.448065 
L 108.285959 105.212511 
L 109.1208 104.304672 
L 109.95564 102.553991 
L 110.790481 101.48134 
L 111.625321 102.296461 
L 112.460161 101.886936 
L 113.295002 102.06516 
L 114.129842 103.922185 
L 114.964683 103.559392 
L 115.799523 105.433036 
L 116.634364 104.899251 
L 117.469204 105.754454 
L 118.304044 107.1207 
L 119.138885 106.539327 
L 119.973725 107.13537 
L 121.643406 108.871721 
L 122.478246 108.903182 
L 123.313087 109.388201 
L 124.147927 108.175931 
L 125.817608 111.207487 
L 127.487289 111.963372 
L 128.322129 110.005713 
L 129.15697 108.808446 
L 129.99181 108.905841 
L 130.826651 107.215594 
L 131.661491 107.019434 
L 132.496331 105.102814 
L 133.331172 102.823145 
L 134.166012 101.828447 
L 135.000853 99.889356 
L 136.670534 94.777696 
L 137.505374 93.737139 
L 138.340214 92.492338 
L 139.175055 93.015096 
L 140.009895 87.418356 
L 140.844736 85.233907 
L 141.679576 84.349236 
L 142.514416 82.882197 
L 143.349257 85.436719 
L 144.184097 82.336902 
L 145.018938 80.501623 
L 145.853778 78.345795 
L 146.688619 78.097399 
L 147.523459 79.5498 
L 148.358299 83.171288 
L 149.19314 82.010424 
L 150.02798 82.313833 
L 150.862821 81.819701 
L 151.697661 81.907474 
L 152.532501 84.426056 
L 153.367342 84.018056 
L 154.202182 84.920737 
L 155.037023 86.897363 
L 155.871863 87.439003 
L 156.706704 87.003287 
L 157.541544 87.818168 
L 158.376384 86.981629 
L 159.211225 88.87655 
L 160.880906 85.803687 
L 161.715746 84.057511 
L 162.550586 83.894769 
L 163.385427 81.797495 
L 164.220267 82.744166 
L 165.055108 81.027809 
L 165.889948 81.173591 
L 166.724789 82.515228 
L 167.559629 79.886999 
L 168.394469 81.455514 
L 169.22931 80.289153 
L 170.06415 81.724956 
L 171.733831 80.772075 
L 172.568671 79.288905 
L 173.403512 81.409906 
L 174.238352 81.605907 
L 175.073193 82.15041 
L 175.908033 83.20106 
L 176.742874 82.738891 
L 177.577714 84.48152 
L 178.412554 84.47534 
L 179.247395 83.545196 
L 180.082235 83.456196 
L 180.917076 82.32253 
L 181.751916 81.381956 
L 182.586756 81.450359 
L 183.421597 78.263846 
L 184.256437 77.246749 
L 185.091278 74.65204 
L 185.926118 73.11852 
L 186.760959 72.077415 
L 187.595799 70.854175 
L 188.430639 66.777701 
L 189.26548 64.860724 
L 190.10032 62.586902 
L 190.935161 62.859918 
L 191.770001 64.129708 
L 192.604842 60.099899 
L 193.439682 60.338607 
L 194.274522 57.53497 
L 195.109363 60.143147 
L 195.944203 59.83546 
L 196.779044 60.512157 
L 197.613884 59.834301 
L 199.283565 61.758313 
L 200.953246 62.306684 
L 201.788086 61.167545 
L 204.292607 64.04877 
L 205.127448 63.920508 
L 205.962288 64.268109 
L 206.797129 63.717067 
L 207.631969 65.338261 
L 209.30165 63.269642 
L 210.13649 61.246984 
L 210.971331 60.268702 
L 211.806171 61.575665 
L 212.641012 62.449838 
L 213.475852 62.65472 
L 214.310692 61.344056 
L 215.980373 61.161686 
L 216.815214 62.806079 
L 217.650054 63.103335 
L 218.484894 62.795097 
L 219.319735 61.494765 
L 220.154575 61.385538 
L 220.989416 61.761806 
L 221.824256 62.289614 
L 222.659097 62.424325 
L 223.493937 61.558685 
L 224.328777 61.649112 
L 225.163618 62.381334 
L 225.998458 63.522273 
L 226.833299 64.435735 
L 227.668139 65.124371 
L 228.502979 64.242457 
L 229.33782 65.975158 
L 230.17266 65.206954 
L 231.007501 64.283274 
L 231.842341 62.250382 
L 232.677182 60.56344 
L 233.512022 59.407219 
L 234.346862 59.695794 
L 235.181703 56.866466 
L 236.016543 55.18826 
L 236.851384 52.041472 
L 237.686224 49.395667 
L 238.521064 48.773637 
L 239.355905 46.383973 
L 241.025586 42.802846 
L 241.860426 42.011812 
L 242.695267 42.618759 
L 243.530107 44.059199 
L 244.364947 42.232993 
L 245.199788 42.002911 
L 246.034628 41.917923 
L 246.869469 43.510219 
L 247.704309 46.198992 
L 249.37399 43.835541 
L 250.20883 44.395124 
L 251.043671 45.402866 
L 251.878511 46.868936 
L 252.713352 47.251886 
L 253.548192 46.06634 
L 254.383032 48.54936 
L 256.052713 51.333838 
L 256.887554 51.545268 
L 257.722394 50.777266 
L 258.557234 50.384602 
L 259.392075 50.549442 
L 260.226915 48.019125 
L 261.061756 46.406957 
L 262.731437 44.575754 
L 263.566277 46.438899 
L 264.401117 46.898384 
L 265.235958 46.342515 
L 266.070798 47.166547 
L 266.905639 45.38338 
L 267.740479 45.770605 
L 268.575319 46.979359 
L 269.41016 46.726739 
L 270.245 48.788942 
L 271.079841 48.181551 
L 271.914681 48.757081 
L 273.584362 50.765232 
L 274.419202 50.272028 
L 275.254043 51.750171 
L 276.088883 50.798758 
L 276.923724 52.165624 
L 277.758564 51.709304 
L 278.593404 49.826608 
L 279.428245 49.404434 
L 281.097926 47.637416 
L 281.932766 47.990843 
L 283.602447 44.674276 
L 284.437287 43.524855 
L 285.272128 40.262373 
L 286.106968 40.571301 
L 287.776649 36.472852 
L 288.611489 32.324558 
L 289.44633 31.87724 
L 290.28117 29.966419 
L 291.116011 34.538957 
L 291.950851 33.017007 
L 292.785692 33.261011 
L 293.620532 34.240138 
L 294.455372 34.162914 
L 295.290213 37.728635 
L 296.125053 37.28952 
L 296.959894 37.607729 
L 297.794734 36.622688 
L 298.629574 38.782708 
L 299.464415 38.893531 
L 300.299255 42.733488 
L 301.134096 40.952587 
L 302.803777 43.099785 
L 303.638617 44.164423 
L 304.473457 45.957599 
L 305.308298 46.033986 
L 306.143138 45.700047 
L 306.977979 46.219433 
L 307.812819 45.837018 
L 308.647659 45.143137 
L 309.4825 45.145615 
L 310.31734 42.718517 
L 311.152181 43.181392 
L 311.987021 41.920263 
L 312.821862 42.248117 
L 313.656702 40.531134 
L 314.491542 40.525113 
L 315.326383 38.223996 
L 316.161223 39.779924 
L 316.996064 37.946429 
L 318.665745 36.237228 
L 319.500585 33.688176 
L 320.335425 35.210519 
L 321.170266 33.333411 
L 322.005106 33.993278 
L 322.839947 32.226035 
L 323.674787 33.791228 
L 324.509627 33.29765 
L 325.344468 34.344999 
L 326.179308 32.673067 
L 327.014149 33.321891 
L 328.68383 35.254249 
L 329.51867 36.844267 
L 330.35351 36.617144 
L 331.188351 35.249668 
L 332.023191 34.306689 
L 332.858032 34.490002 
L 333.692872 34.207072 
L 334.527712 34.675557 
L 335.362553 30.54503 
L 336.197393 30.377306 
L 337.032234 28.045065 
L 337.867074 28.354448 
L 338.701915 26.277074 
L 339.536755 25.084762 
L 340.371595 23.082062 
L 342.041276 25.087391 
L 342.876117 23.231256 
L 343.710957 25.011038 
L 344.545797 22.099281 
L 345.380638 26.040818 
L 346.215478 24.088951 
L 347.050319 24.998524 
L 347.885159 22.821221 
L 348.72 24.000026 
L 349.55484 25.403738 
L 350.38968 27.70314 
L 351.224521 28.638908 
L 352.059361 28.664424 
L 352.894202 30.416085 
L 353.729042 31.139089 
L 354.563882 34.418381 
L 355.398723 35.496362 
L 356.233563 37.009692 
L 357.068404 35.869919 
L 357.903244 35.758165 
L 358.738085 34.689419 
L 359.572925 36.202544 
L 360.407765 34.966045 
L 361.242606 35.160784 
L 362.077446 32.599695 
L 362.912287 33.410835 
L 363.747127 33.709014 
L 364.581967 33.394274 
L 365.416808 32.058775 
L 366.251648 30.469425 
L 367.086489 32.205626 
L 367.921329 31.470054 
L 368.75617 32.58119 
L 369.59101 29.889657 
L 370.42585 32.372158 
L 371.260691 32.822403 
L 372.095531 35.04431 
L 372.930372 33.278686 
L 374.600052 33.343294 
L 375.434893 33.924907 
L 376.269733 34.004273 
L 377.104574 32.856769 
L 377.939414 32.48239 
L 378.774255 31.818169 
L 379.609095 32.078731 
L 380.443935 30.869866 
L 381.278776 31.590257 
L 382.113616 30.533842 
L 382.948457 31.402714 
L 383.783297 30.60984 
L 384.618137 31.576058 
L 385.452978 29.408403 
L 386.287818 29.109345 
L 387.122659 25.891891 
L 387.957499 25.425213 
L 388.79234 25.121278 
L 389.62718 23.121441 
L 390.46202 22.74789 
L 391.296861 19.072466 
L 392.131701 20.054368 
L 392.966542 20.647165 
L 393.801382 21.683422 
L 394.636222 20.082912 
L 396.305903 21.859505 
L 397.140744 24.084069 
L 397.975584 24.421405 
L 398.810425 23.838968 
L 399.645265 25.617811 
L 400.480105 26.743975 
L 402.149786 29.454246 
L 402.984627 30.362612 
L 403.819467 31.50506 
L 404.654307 33.086347 
L 405.489148 33.632865 
L 406.323988 34.967897 
L 407.993669 34.864987 
L 408.82851 35.047522 
L 409.66335 36.080259 
L 410.49819 36.003581 
L 411.333031 37.301067 
L 412.167871 36.690163 
L 413.002712 36.482084 
L 413.002712 36.482084 
" clip-path="url(#p0f145ea0c8)" style="fill: none; stroke: #880000; stroke-width: 0.5; stroke-linecap: square"/>
   </g>
   <g id="patch_3">
    <path d="M 62.369736 194.894252 
L 62.369736 10.7 
" style="fill: none; stroke: #000000; stroke-width: 0.8; stroke-linejoin: miter; stroke-linecap: square"/>
   </g>
   <g id="patch_4">
    <path d="M 429.69952 194.894252 
L 429.69952 10.7 
" style="fill: none; stroke: #000000; stroke-width: 0.8; stroke-linejoin: miter; stroke-linecap: square"/>
   </g>
   <g id="patch_5">
    <path d="M 62.369736 194.894252 
L 429.69952 194.894252 
" style="fill: none; stroke: #000000; stroke-width: 0.8; stroke-linejoin: miter; stroke-linecap: square"/>
   </g>
   <g id="patch_6">
    <path d="M 62.369736 10.7 
L 429.69952 10.7 
" style="fill: none; stroke: #000000; stroke-width: 0.8; stroke-linejoin: miter; stroke-linecap: square"/>
   </g>
  </g>
  <g id="axes_2">
   <g id="patch_7">
    <path d="M 62.369736 392.088985 
L 429.69952 392.088985 
L 429.69952 207.894732 
L 62.369736 207.894732 
z
" style="fill: #ffffff"/>
   </g>
   <g id="matplotlib.axis_3">
    <g id="xtick_6">
     <g id="line2d_25">
      <g>
       <use xlink:href="#mecd493f47d" x="79.066545" y="392.088985" style="stroke: #000000; stroke-width: 0.8"/>
      </g>
     </g>
     <g id="line2d_26">
      <g>
       <use xlink:href="#m2dded5f8b8" x="79.066545" y="207.894732" style="stroke: #000000; stroke-width: 0.8"/>
      </g>
     </g>
     <g id="text_8">
      <!-- $\mathdefault{0}$ -->
      <g transform="translate(75.6523 408.774861) scale(0.14 -0.14)">
       <use xlink:href="#CMR17-30" transform="scale(0.996264)"/>
      </g>
     </g>
    </g>
    <g id="xtick_7">
     <g id="line2d_27">
      <g>
       <use xlink:href="#mecd493f47d" x="162.550586" y="392.088985" style="stroke: #000000; stroke-width: 0.8"/>
      </g>
     </g>
     <g id="line2d_28">
      <g>
       <use xlink:href="#m2dded5f8b8" x="162.550586" y="207.894732" style="stroke: #000000; stroke-width: 0.8"/>
      </g>
     </g>
     <g id="text_9">
      <!-- $\mathdefault{100}$ -->
      <g transform="translate(152.307854 408.774861) scale(0.14 -0.14)">
       <use xlink:href="#CMR17-31" transform="scale(0.996264)"/>
       <use xlink:href="#CMR17-30" transform="translate(45.690477 0) scale(0.996264)"/>
       <use xlink:href="#CMR17-30" transform="translate(91.380954 0) scale(0.996264)"/>
      </g>
     </g>
    </g>
    <g id="xtick_8">
     <g id="line2d_29">
      <g>
       <use xlink:href="#mecd493f47d" x="246.034628" y="392.088985" style="stroke: #000000; stroke-width: 0.8"/>
      </g>
     </g>
     <g id="line2d_30">
      <g>
       <use xlink:href="#m2dded5f8b8" x="246.034628" y="207.894732" style="stroke: #000000; stroke-width: 0.8"/>
      </g>
     </g>
     <g id="text_10">
      <!-- $\mathdefault{200}$ -->
      <g transform="translate(235.791895 408.774861) scale(0.14 -0.14)">
       <use xlink:href="#CMR17-32" transform="scale(0.996264)"/>
       <use xlink:href="#CMR17-30" transform="translate(45.690477 0) scale(0.996264)"/>
       <use xlink:href="#CMR17-30" transform="translate(91.380954 0) scale(0.996264)"/>
      </g>
     </g>
    </g>
    <g id="xtick_9">
     <g id="line2d_31">
      <g>
       <use xlink:href="#mecd493f47d" x="329.51867" y="392.088985" style="stroke: #000000; stroke-width: 0.8"/>
      </g>
     </g>
     <g id="line2d_32">
      <g>
       <use xlink:href="#m2dded5f8b8" x="329.51867" y="207.894732" style="stroke: #000000; stroke-width: 0.8"/>
      </g>
     </g>
     <g id="text_11">
      <!-- $\mathdefault{300}$ -->
      <g transform="translate(319.275937 408.774861) scale(0.14 -0.14)">
       <defs>
        <path id="CMR17-33" d="M 1414 2157 
C 1984 2157 2234 1662 2234 1090 
C 2234 320 1824 25 1453 25 
C 1114 25 563 194 390 693 
C 422 680 454 680 486 680 
C 640 680 755 782 755 948 
C 755 1133 614 1216 486 1216 
C 378 1216 211 1165 211 926 
C 211 335 787 -128 1466 -128 
C 2176 -128 2720 430 2720 1085 
C 2720 1707 2208 2157 1600 2227 
C 2086 2328 2554 2756 2554 3329 
C 2554 3820 2048 4179 1472 4179 
C 890 4179 378 3829 378 3329 
C 378 3110 544 3072 627 3072 
C 762 3072 877 3155 877 3321 
C 877 3486 762 3569 627 3569 
C 602 3569 570 3569 544 3557 
C 730 3959 1235 4032 1459 4032 
C 1683 4032 2106 3925 2106 3320 
C 2106 3143 2080 2828 1862 2550 
C 1670 2304 1453 2304 1242 2284 
C 1210 2284 1062 2269 1037 2269 
C 992 2263 966 2257 966 2208 
C 966 2163 973 2157 1101 2157 
L 1414 2157 
z
" transform="scale(0.015625)"/>
       </defs>
       <use xlink:href="#CMR17-33" transform="scale(0.996264)"/>
       <use xlink:href="#CMR17-30" transform="translate(45.690477 0) scale(0.996264)"/>
       <use xlink:href="#CMR17-30" transform="translate(91.380954 0) scale(0.996264)"/>
      </g>
     </g>
    </g>
    <g id="xtick_10">
     <g id="line2d_33">
      <g>
       <use xlink:href="#mecd493f47d" x="413.002712" y="392.088985" style="stroke: #000000; stroke-width: 0.8"/>
      </g>
     </g>
     <g id="line2d_34">
      <g>
       <use xlink:href="#m2dded5f8b8" x="413.002712" y="207.894732" style="stroke: #000000; stroke-width: 0.8"/>
      </g>
     </g>
     <g id="text_12">
      <!-- $\mathdefault{400}$ -->
      <g transform="translate(402.759979 408.774861) scale(0.14 -0.14)">
       <defs>
        <path id="CMR17-34" d="M 2150 4122 
C 2150 4256 2144 4256 2029 4256 
L 128 1254 
L 128 1088 
L 1779 1088 
L 1779 457 
C 1779 224 1766 160 1318 160 
L 1197 160 
L 1197 0 
C 1402 0 1747 0 1965 0 
C 2182 0 2528 0 2733 0 
L 2733 160 
L 2611 160 
C 2163 160 2150 224 2150 457 
L 2150 1088 
L 2803 1088 
L 2803 1254 
L 2150 1254 
L 2150 4122 
z
M 1798 3703 
L 1798 1254 
L 256 1254 
L 1798 3703 
z
" transform="scale(0.015625)"/>
       </defs>
       <use xlink:href="#CMR17-34" transform="scale(0.996264)"/>
       <use xlink:href="#CMR17-30" transform="translate(45.690477 0) scale(0.996264)"/>
       <use xlink:href="#CMR17-30" transform="translate(91.380954 0) scale(0.996264)"/>
      </g>
     </g>
    </g>
    <g id="text_13">
     <!-- $t$ -->
     <g transform="translate(242.511995 429.323886) scale(0.2 -0.2)">
      <use xlink:href="#CMMI12-74" transform="scale(0.996264)"/>
     </g>
    </g>
   </g>
   <g id="matplotlib.axis_4">
    <g id="ytick_7">
     <g id="line2d_35">
      <g>
       <use xlink:href="#m2d0b36e324" x="62.369736" y="383.716519" style="stroke: #000000; stroke-width: 0.8"/>
      </g>
     </g>
     <g id="line2d_36">
      <g>
       <use xlink:href="#m703e71d0cb" x="429.69952" y="383.716519" style="stroke: #000000; stroke-width: 0.8"/>
      </g>
     </g>
     <g id="text_14">
      <!-- $\mathdefault{0.0}$ -->
      <g transform="translate(37.919154 388.559457) scale(0.14 -0.14)">
       <use xlink:href="#CMR17-30" transform="scale(0.996264)"/>
       <use xlink:href="#CMMI12-3a" transform="translate(45.690477 0) scale(0.996264)"/>
       <use xlink:href="#CMR17-30" transform="translate(72.787654 0) scale(0.996264)"/>
      </g>
     </g>
    </g>
    <g id="ytick_8">
     <g id="line2d_37">
      <g>
       <use xlink:href="#m2d0b36e324" x="62.369736" y="349.867273" style="stroke: #000000; stroke-width: 0.8"/>
      </g>
     </g>
     <g id="line2d_38">
      <g>
       <use xlink:href="#m703e71d0cb" x="429.69952" y="349.867273" style="stroke: #000000; stroke-width: 0.8"/>
      </g>
     </g>
     <g id="text_15">
      <!-- $\mathdefault{0.2}$ -->
      <g transform="translate(37.919154 354.710211) scale(0.14 -0.14)">
       <use xlink:href="#CMR17-30" transform="scale(0.996264)"/>
       <use xlink:href="#CMMI12-3a" transform="translate(45.690477 0) scale(0.996264)"/>
       <use xlink:href="#CMR17-32" transform="translate(72.787654 0) scale(0.996264)"/>
      </g>
     </g>
    </g>
    <g id="ytick_9">
     <g id="line2d_39">
      <g>
       <use xlink:href="#m2d0b36e324" x="62.369736" y="316.018027" style="stroke: #000000; stroke-width: 0.8"/>
      </g>
     </g>
     <g id="line2d_40">
      <g>
       <use xlink:href="#m703e71d0cb" x="429.69952" y="316.018027" style="stroke: #000000; stroke-width: 0.8"/>
      </g>
     </g>
     <g id="text_16">
      <!-- $\mathdefault{0.4}$ -->
      <g transform="translate(37.919154 320.860965) scale(0.14 -0.14)">
       <use xlink:href="#CMR17-30" transform="scale(0.996264)"/>
       <use xlink:href="#CMMI12-3a" transform="translate(45.690477 0) scale(0.996264)"/>
       <use xlink:href="#CMR17-34" transform="translate(72.787654 0) scale(0.996264)"/>
      </g>
     </g>
    </g>
    <g id="ytick_10">
     <g id="line2d_41">
      <g>
       <use xlink:href="#m2d0b36e324" x="62.369736" y="282.168781" style="stroke: #000000; stroke-width: 0.8"/>
      </g>
     </g>
     <g id="line2d_42">
      <g>
       <use xlink:href="#m703e71d0cb" x="429.69952" y="282.168781" style="stroke: #000000; stroke-width: 0.8"/>
      </g>
     </g>
     <g id="text_17">
      <!-- $\mathdefault{0.6}$ -->
      <g transform="translate(37.919154 287.011719) scale(0.14 -0.14)">
       <defs>
        <path id="CMR17-36" d="M 678 2176 
C 678 3690 1395 4032 1811 4032 
C 1946 4032 2272 4009 2400 3776 
C 2298 3776 2106 3776 2106 3553 
C 2106 3381 2246 3323 2336 3323 
C 2394 3323 2566 3348 2566 3560 
C 2566 3954 2246 4179 1805 4179 
C 1043 4179 243 3390 243 1984 
C 243 253 966 -128 1478 -128 
C 2099 -128 2688 427 2688 1283 
C 2688 2081 2170 2662 1517 2662 
C 1126 2662 838 2407 678 1960 
L 678 2176 
z
M 1478 25 
C 691 25 691 1200 691 1436 
C 691 1896 909 2560 1504 2560 
C 1613 2560 1926 2560 2138 2120 
C 2253 1870 2253 1609 2253 1289 
C 2253 944 2253 690 2118 434 
C 1978 171 1773 25 1478 25 
z
" transform="scale(0.015625)"/>
       </defs>
       <use xlink:href="#CMR17-30" transform="scale(0.996264)"/>
       <use xlink:href="#CMMI12-3a" transform="translate(45.690477 0) scale(0.996264)"/>
       <use xlink:href="#CMR17-36" transform="translate(72.787654 0) scale(0.996264)"/>
      </g>
     </g>
    </g>
    <g id="ytick_11">
     <g id="line2d_43">
      <g>
       <use xlink:href="#m2d0b36e324" x="62.369736" y="248.319535" style="stroke: #000000; stroke-width: 0.8"/>
      </g>
     </g>
     <g id="line2d_44">
      <g>
       <use xlink:href="#m703e71d0cb" x="429.69952" y="248.319535" style="stroke: #000000; stroke-width: 0.8"/>
      </g>
     </g>
     <g id="text_18">
      <!-- $\mathdefault{0.8}$ -->
      <g transform="translate(37.919154 253.162473) scale(0.14 -0.14)">
       <defs>
        <path id="CMR17-38" d="M 1741 2264 
C 2144 2467 2554 2773 2554 3263 
C 2554 3841 1990 4179 1472 4179 
C 890 4179 378 3759 378 3180 
C 378 3021 416 2747 666 2505 
C 730 2442 998 2251 1171 2130 
C 883 1983 211 1634 211 934 
C 211 279 838 -128 1459 -128 
C 2144 -128 2720 362 2720 1010 
C 2720 1590 2330 1857 2074 2029 
L 1741 2264 
z
M 902 2822 
C 851 2854 595 3051 595 3351 
C 595 3739 998 4032 1459 4032 
C 1965 4032 2336 3676 2336 3262 
C 2336 2669 1670 2331 1638 2331 
C 1632 2331 1626 2331 1574 2370 
L 902 2822 
z
M 2080 1519 
C 2176 1449 2483 1240 2483 851 
C 2483 381 2010 25 1472 25 
C 890 25 448 438 448 940 
C 448 1443 838 1862 1280 2060 
L 2080 1519 
z
" transform="scale(0.015625)"/>
       </defs>
       <use xlink:href="#CMR17-30" transform="scale(0.996264)"/>
       <use xlink:href="#CMMI12-3a" transform="translate(45.690477 0) scale(0.996264)"/>
       <use xlink:href="#CMR17-38" transform="translate(72.787654 0) scale(0.996264)"/>
      </g>
     </g>
    </g>
    <g id="ytick_12">
     <g id="line2d_45">
      <g>
       <use xlink:href="#m2d0b36e324" x="62.369736" y="214.470289" style="stroke: #000000; stroke-width: 0.8"/>
      </g>
     </g>
     <g id="line2d_46">
      <g>
       <use xlink:href="#m703e71d0cb" x="429.69952" y="214.470289" style="stroke: #000000; stroke-width: 0.8"/>
      </g>
     </g>
     <g id="text_19">
      <!-- $\mathdefault{1.0}$ -->
      <g transform="translate(37.919154 219.313227) scale(0.14 -0.14)">
       <use xlink:href="#CMR17-31" transform="scale(0.996264)"/>
       <use xlink:href="#CMMI12-3a" transform="translate(45.690477 0) scale(0.996264)"/>
       <use xlink:href="#CMR17-30" transform="translate(72.787654 0) scale(0.996264)"/>
      </g>
     </g>
    </g>
    <g id="text_20">
     <!-- $\mathcal{Q}_s(t)$ -->
     <g transform="translate(28.954511 322.172384) rotate(-90) scale(0.2 -0.2)">
      <defs>
       <path id="CMSY10-51" d="M 1427 192 
C 1306 192 1235 192 1075 96 
C 1024 64 870 -38 870 -115 
C 870 -173 902 -173 934 -173 
C 1363 -173 1626 -230 2266 -452 
C 2707 -610 3162 -768 3667 -768 
C 4416 -768 5037 -117 5037 141 
C 5037 173 5011 192 4979 192 
C 4915 192 4781 142 4678 74 
C 4531 -20 4518 -65 4486 -146 
C 4397 -396 4262 -416 4090 -416 
C 3667 -416 3379 -316 2458 -13 
C 3565 302 4960 1414 4960 2963 
C 4960 3837 4486 4544 3546 4544 
C 2240 4544 723 3202 723 1866 
C 723 1186 1126 672 1837 672 
C 2483 672 3213 1095 3213 1249 
C 3213 1287 3168 1287 3142 1287 
C 3053 1287 2944 1221 2854 1175 
C 2592 1024 2323 1024 2259 1024 
C 1683 1024 1267 1474 1267 2136 
C 1267 2939 1990 4192 3123 4192 
C 3930 4192 4416 3549 4416 2694 
C 4416 2057 4154 1330 3546 790 
C 3130 411 2662 192 1613 192 
L 1427 192 
z
" transform="scale(0.015625)"/>
      </defs>
      <use xlink:href="#CMSY10-51" transform="scale(0.996264)"/>
      <use xlink:href="#CMMI12-73" transform="translate(81.361931 -14.943915) scale(0.697382)"/>
      <use xlink:href="#CMR17-28" transform="translate(114.024952 0) scale(0.996264)"/>
      <use xlink:href="#CMMI12-74" transform="translate(149.305719 0) scale(0.996264)"/>
      <use xlink:href="#CMR17-29" transform="translate(184.53205 0) scale(0.996264)"/>
     </g>
    </g>
   </g>
   <g id="line2d_47">
    <path d="M 79.066545 383.716519 
L 79.901385 370.620048 
L 80.736226 351.633761 
L 81.571066 349.587521 
L 82.405906 360.16999 
L 83.240747 366.883822 
L 84.075587 363.319373 
L 84.910428 357.402759 
L 85.745268 355.153183 
L 86.580109 356.468838 
L 87.414949 356.749905 
L 88.249789 357.241096 
L 89.08463 355.823954 
L 89.91947 352.228353 
L 90.754311 351.246993 
L 92.423991 356.688289 
L 93.258832 354.707626 
L 94.093672 349.607977 
L 94.928513 347.645542 
L 95.763353 349.002261 
L 96.598194 352.690478 
L 97.433034 353.221026 
L 99.102715 346.859571 
L 99.937555 347.07615 
L 100.772396 349.499693 
L 101.607236 349.882765 
L 102.442076 346.747217 
L 103.276917 344.895183 
L 104.111757 345.850251 
L 104.946598 348.28888 
L 106.616279 344.762563 
L 107.451119 344.578125 
L 108.285959 344.702818 
L 109.1208 344.244311 
L 111.625321 344.276612 
L 113.295002 341.890579 
L 114.129842 341.26183 
L 114.964683 342.389844 
L 117.469204 342.384505 
L 118.304044 341.716057 
L 119.138885 340.062039 
L 119.973725 339.860453 
L 121.643406 341.267252 
L 122.478246 341.266489 
L 123.313087 340.56807 
L 124.147927 339.216959 
L 124.982768 339.282485 
L 125.817608 340.771055 
L 126.652449 341.338475 
L 127.487289 339.982108 
L 128.322129 338.33229 
L 129.15697 337.929057 
L 130.826651 339.812063 
L 132.496331 337.270989 
L 133.331172 337.485444 
L 134.166012 337.902645 
L 135.000853 337.857232 
L 135.835693 338.155743 
L 136.670534 337.917754 
L 137.505374 336.553284 
L 138.340214 336.302743 
L 139.175055 337.657787 
L 140.009895 338.039022 
L 140.844736 337.234212 
L 141.679576 335.710147 
L 142.514416 335.487421 
L 143.349257 336.084896 
L 144.184097 336.978829 
L 145.018938 336.839859 
L 145.853778 336.177521 
L 146.688619 335.262581 
L 147.523459 334.632133 
L 148.358299 335.322482 
L 149.19314 336.192103 
L 150.862821 333.293061 
L 151.697661 333.295524 
L 152.532501 335.086383 
L 153.367342 334.88134 
L 154.202182 333.626272 
L 155.037023 332.939184 
L 155.871863 333.357012 
L 156.706704 333.599911 
L 158.376384 332.192491 
L 159.211225 332.432081 
L 160.046065 331.838934 
L 160.880906 332.142027 
L 162.550586 332.924799 
L 163.385427 331.03927 
L 164.220267 329.901267 
L 165.055108 331.123524 
L 165.889948 332.594801 
L 166.724789 332.68116 
L 168.394469 330.234093 
L 169.22931 330.497691 
L 170.06415 330.398269 
L 170.898991 330.500432 
L 172.568671 330.473899 
L 173.403512 329.573675 
L 174.238352 329.129528 
L 175.073193 329.684097 
L 175.908033 329.698447 
L 176.742874 329.013293 
L 177.577714 328.9167 
L 179.247395 328.312958 
L 180.917076 327.411778 
L 181.751916 326.93627 
L 182.586756 327.521801 
L 183.421597 327.911573 
L 184.256437 327.46584 
L 186.760959 325.721377 
L 187.595799 325.649973 
L 188.430639 325.315711 
L 189.26548 324.592364 
L 190.10032 324.54322 
L 190.935161 325.237242 
L 191.770001 324.805924 
L 192.604842 323.937997 
L 193.439682 323.618305 
L 194.274522 322.919646 
L 195.109363 322.916886 
L 196.779044 323.551238 
L 198.448724 322.3334 
L 200.118405 322.19655 
L 201.788086 322.440372 
L 203.457767 322.089541 
L 204.292607 320.827235 
L 205.127448 320.798218 
L 205.962288 322.302114 
L 206.797129 323.114184 
L 208.466809 319.127958 
L 209.30165 319.870096 
L 210.13649 322.179733 
L 210.971331 322.72321 
L 212.641012 320.981809 
L 213.475852 321.852692 
L 214.310692 322.369158 
L 215.145533 321.893213 
L 215.980373 321.690546 
L 216.815214 322.850812 
L 217.650054 322.908723 
L 218.484894 322.098671 
L 219.319735 321.748819 
L 220.154575 322.477675 
L 220.989416 323.053094 
L 221.824256 323.815478 
L 222.659097 323.300855 
L 223.493937 322.309284 
L 224.328777 322.54633 
L 225.163618 323.665553 
L 226.833299 323.133348 
L 227.668139 322.605326 
L 228.502979 323.364038 
L 229.33782 323.758429 
L 231.007501 322.272214 
L 232.677182 323.782807 
L 233.512022 322.483486 
L 234.346862 321.510466 
L 235.181703 323.001102 
L 236.016543 323.550558 
L 236.851384 322.434779 
L 237.686224 320.798058 
L 238.521064 321.031523 
L 239.355905 322.299592 
L 240.190745 322.3934 
L 241.860426 320.770375 
L 242.695267 321.21684 
L 243.530107 321.861018 
L 244.364947 321.402963 
L 245.199788 321.16328 
L 246.869469 319.637812 
L 247.704309 320.050769 
L 248.539149 321.014182 
L 249.37399 321.314528 
L 250.20883 319.92203 
L 251.043671 318.763167 
L 251.878511 318.22565 
L 253.548192 320.355355 
L 254.383032 319.413155 
L 255.217873 317.572723 
L 256.052713 316.707612 
L 256.887554 317.515612 
L 257.722394 319.027736 
L 258.557234 318.558634 
L 259.392075 316.772018 
L 260.226915 315.968351 
L 261.061756 317.457216 
L 261.896596 317.908868 
L 263.566277 315.898181 
L 264.401117 315.950388 
L 266.070798 317.179105 
L 266.905639 316.699002 
L 268.575319 314.824063 
L 269.41016 314.930601 
L 270.245 315.223974 
L 271.079841 316.65542 
L 271.914681 316.953188 
L 272.749522 315.736655 
L 273.584362 314.134948 
L 274.419202 313.993836 
L 275.254043 314.618486 
L 276.088883 315.566995 
L 276.923724 315.422174 
L 277.758564 314.633473 
L 278.593404 314.173052 
L 279.428245 315.163849 
L 280.263085 314.835855 
L 281.097926 313.860995 
L 281.932766 313.493795 
L 282.767607 314.339848 
L 283.602447 314.520229 
L 284.437287 313.907393 
L 285.272128 313.100219 
L 286.941809 313.757243 
L 287.776649 313.082781 
L 288.611489 312.124656 
L 289.44633 313.235801 
L 290.28117 314.000975 
L 291.950851 311.352251 
L 292.785692 311.640766 
L 293.620532 312.281841 
L 294.455372 312.419608 
L 296.125053 311.374581 
L 297.794734 310.709577 
L 298.629574 310.685387 
L 299.464415 311.46315 
L 300.299255 311.820512 
L 301.968936 309.289836 
L 302.803777 309.862041 
L 303.638617 311.176589 
L 304.473457 311.779919 
L 305.308298 311.32325 
L 306.143138 309.776936 
L 306.977979 308.774424 
L 307.812819 309.542419 
L 308.647659 311.40062 
L 309.4825 312.04921 
L 310.31734 310.914428 
L 311.152181 309.302712 
L 311.987021 308.947545 
L 312.821862 310.606048 
L 313.656702 311.695237 
L 314.491542 310.399828 
L 315.326383 309.431213 
L 316.161223 309.334519 
L 316.996064 309.898441 
L 318.665745 312.272278 
L 319.500585 311.215242 
L 320.335425 309.09794 
L 321.170266 308.493972 
L 322.839947 311.475319 
L 323.674787 311.188022 
L 324.509627 309.115277 
L 325.344468 308.838364 
L 326.179308 310.103787 
L 327.014149 311.100266 
L 328.68383 308.606249 
L 329.51867 308.096272 
L 330.35351 308.843845 
L 331.188351 310.37449 
L 332.023191 310.541745 
L 332.858032 308.479306 
L 333.692872 307.164515 
L 334.527712 307.689385 
L 335.362553 309.665244 
L 336.197393 309.693183 
L 337.867074 307.322272 
L 338.701915 307.743524 
L 339.536755 308.530325 
L 342.041276 307.36858 
L 342.876117 306.475494 
L 343.710957 306.574299 
L 344.545797 307.068422 
L 345.380638 307.378205 
L 346.215478 306.257068 
L 347.050319 305.503844 
L 347.885159 305.485997 
L 349.55484 306.202803 
L 351.224521 304.113981 
L 352.059361 304.440467 
L 352.894202 304.978582 
L 353.729042 305.016181 
L 354.563882 304.085882 
L 355.398723 303.62488 
L 357.068404 304.352473 
L 357.903244 304.003694 
L 358.738085 302.65169 
L 359.572925 302.99353 
L 360.407765 304.443518 
L 361.242606 304.444504 
L 362.077446 303.198419 
L 362.912287 302.509944 
L 363.747127 302.919484 
L 364.581967 303.668917 
L 365.416808 303.728532 
L 366.251648 303.424537 
L 367.086489 303.418188 
L 367.921329 303.698978 
L 368.75617 303.147755 
L 369.59101 302.841998 
L 370.42585 303.627495 
L 371.260691 304.233019 
L 372.095531 303.470476 
L 372.930372 302.931923 
L 373.765212 302.747319 
L 375.434893 303.846178 
L 376.269733 303.845889 
L 377.104574 303.328203 
L 377.939414 303.215426 
L 378.774255 303.349744 
L 379.609095 303.27142 
L 380.443935 302.730652 
L 382.113616 303.214773 
L 382.948457 303.879256 
L 383.783297 303.655469 
L 384.618137 302.827584 
L 385.452978 302.621997 
L 386.287818 303.16574 
L 387.957499 302.857817 
L 389.62718 303.483687 
L 390.46202 302.255158 
L 391.296861 301.737917 
L 392.131701 302.273641 
L 392.966542 303.741527 
L 393.801382 303.609358 
L 394.636222 301.985674 
L 395.471063 300.877976 
L 397.140744 302.754129 
L 397.975584 302.551147 
L 399.645265 301.828324 
L 400.480105 300.860565 
L 401.314946 301.035052 
L 402.149786 301.867769 
L 402.984627 301.994579 
L 403.819467 300.837495 
L 404.654307 300.208877 
L 405.489148 300.779588 
L 406.323988 301.856784 
L 407.158829 301.806 
L 407.993669 300.326329 
L 408.82851 299.86414 
L 409.66335 301.087968 
L 410.49819 301.297405 
L 412.167871 300.009702 
L 413.002712 300.230536 
L 413.002712 300.230536 
" clip-path="url(#pd0c69aa3c8)" style="fill: none; stroke: #000000; stroke-width: 0.5; stroke-linecap: square"/>
   </g>
   <g id="line2d_48">
    <path d="M 79.066545 383.716519 
L 79.901385 370.620048 
L 80.736226 352.8224 
L 81.571066 343.860648 
L 82.405906 345.499166 
L 83.240747 344.572468 
L 84.910428 325.637212 
L 85.745268 319.877815 
L 87.414949 313.224737 
L 88.249789 309.571798 
L 89.91947 304.986507 
L 90.754311 302.550799 
L 91.589151 298.518974 
L 92.423991 295.384478 
L 93.258832 292.835014 
L 95.763353 287.23637 
L 97.433034 282.159494 
L 98.267874 280.430904 
L 99.102715 279.318065 
L 99.937555 278.510174 
L 100.772396 277.090752 
L 101.607236 274.709934 
L 103.276917 271.800694 
L 104.111757 271.005973 
L 107.451119 265.966828 
L 108.285959 264.484701 
L 109.95564 262.174877 
L 110.790481 261.208023 
L 111.625321 260.412154 
L 113.295002 258.50487 
L 114.129842 258.047178 
L 114.964683 257.298401 
L 115.799523 257.082311 
L 116.634364 256.292077 
L 119.973725 254.062152 
L 121.643406 253.371648 
L 123.313087 252.23044 
L 124.147927 251.386989 
L 124.982768 251.111712 
L 125.817608 251.087775 
L 127.487289 250.16721 
L 128.322129 249.124604 
L 129.15697 248.474566 
L 129.99181 248.089271 
L 130.826651 247.270322 
L 131.661491 246.665171 
L 133.331172 245.146916 
L 134.166012 244.664997 
L 136.670534 242.409259 
L 139.175055 241.196624 
L 140.009895 240.213342 
L 140.844736 239.713686 
L 141.679576 239.358675 
L 142.514416 238.847998 
L 143.349257 238.780088 
L 145.018938 237.620067 
L 145.853778 237.072807 
L 146.688619 236.74313 
L 147.523459 236.598746 
L 148.358299 236.599858 
L 149.19314 236.133021 
L 150.862821 235.551653 
L 151.697661 235.346395 
L 152.532501 235.295521 
L 153.367342 234.951806 
L 154.202182 234.796892 
L 155.037023 234.805522 
L 155.871863 234.610526 
L 157.541544 234.010828 
L 158.376384 233.709604 
L 159.211225 233.676909 
L 163.385427 231.863593 
L 166.724789 231.194873 
L 167.559629 230.765291 
L 168.394469 230.696058 
L 169.22931 230.448901 
L 170.06415 230.417382 
L 171.733831 229.94964 
L 172.568671 229.623207 
L 174.238352 229.436867 
L 175.908033 229.215176 
L 176.742874 228.936593 
L 178.412554 228.797273 
L 184.256437 227.212016 
L 185.091278 226.904849 
L 194.274522 224.94983 
L 195.944203 224.81359 
L 203.457767 223.87453 
L 204.292607 223.829642 
L 205.962288 223.529231 
L 206.797129 223.425498 
L 207.631969 223.460758 
L 210.13649 223.037696 
L 211.806171 222.927609 
L 213.475852 222.854829 
L 215.145533 222.631575 
L 217.650054 222.471023 
L 220.154575 222.19534 
L 228.502979 221.744031 
L 230.17266 221.655495 
L 236.016543 221.09145 
L 238.521064 220.703454 
L 244.364947 220.209554 
L 255.217873 219.757633 
L 257.722394 219.654641 
L 262.731437 219.355157 
L 266.070798 219.296213 
L 267.740479 219.203344 
L 275.254043 219.047365 
L 279.428245 218.830394 
L 285.272128 218.49058 
L 287.776649 218.362938 
L 289.44633 218.234129 
L 305.308298 217.971236 
L 313.656702 217.763171 
L 322.839947 217.367079 
L 334.527712 217.158909 
L 337.032234 217.024766 
L 343.710957 216.922571 
L 346.215478 216.859419 
L 359.572925 216.830317 
L 362.912287 216.748873 
L 376.269733 216.623579 
L 405.489148 216.353027 
L 413.002712 216.394175 
L 413.002712 216.394175 
" clip-path="url(#pd0c69aa3c8)" style="fill: none; stroke: #880000; stroke-width: 0.5; stroke-linecap: square"/>
   </g>
   <g id="patch_8">
    <path d="M 62.369736 392.088985 
L 62.369736 207.894732 
" style="fill: none; stroke: #000000; stroke-width: 0.8; stroke-linejoin: miter; stroke-linecap: square"/>
   </g>
   <g id="patch_9">
    <path d="M 429.69952 392.088985 
L 429.69952 207.894732 
" style="fill: none; stroke: #000000; stroke-width: 0.8; stroke-linejoin: miter; stroke-linecap: square"/>
   </g>
   <g id="patch_10">
    <path d="M 62.369736 392.088985 
L 429.69952 392.088985 
" style="fill: none; stroke: #000000; stroke-width: 0.8; stroke-linejoin: miter; stroke-linecap: square"/>
   </g>
   <g id="patch_11">
    <path d="M 62.369736 207.894732 
L 429.69952 207.894732 
" style="fill: none; stroke: #000000; stroke-width: 0.8; stroke-linejoin: miter; stroke-linecap: square"/>
   </g>
   <g id="legend_1">
    <g id="patch_12">
     <path d="M 295.974829 383.088985 
L 417.09952 383.088985 
Q 420.69952 383.088985 420.69952 379.488985 
L 420.69952 331.112856 
Q 420.69952 327.512856 417.09952 327.512856 
L 295.974829 327.512856 
Q 292.374829 327.512856 292.374829 331.112856 
L 292.374829 379.488985 
Q 292.374829 383.088985 295.974829 383.088985 
z
" style="fill: #ffffff; opacity: 0.8; stroke: #cccccc; stroke-linejoin: miter"/>
    </g>
    <g id="line2d_49">
     <path d="M 299.574829 341.012856 
L 317.574829 341.012856 
L 335.574829 341.012856 
" style="fill: none; stroke: #000000; stroke-width: 0.5; stroke-linecap: square"/>
    </g>
    <g id="text_21">
     <!-- $J_w = 0.5$ -->
     <g transform="translate(349.974829 347.312856) scale(0.18 -0.18)">
      <defs>
       <path id="CMMI12-4a" d="M 3418 3912 
C 3469 4103 3482 4167 3795 4167 
C 3898 4167 3962 4167 3962 4282 
C 3962 4352 3904 4352 3878 4352 
C 3770 4352 3648 4352 3533 4352 
L 3181 4352 
C 2912 4352 2630 4352 2362 4352 
C 2304 4352 2227 4352 2227 4237 
C 2227 4173 2278 4173 2278 4167 
L 2438 4167 
C 2950 4167 2950 4116 2950 4020 
C 2950 4013 2950 3969 2925 3868 
L 2189 960 
C 2022 312 1594 0 1286 0 
C 1069 0 762 100 685 431 
C 710 424 742 418 768 418 
C 979 418 1146 603 1146 788 
C 1146 890 1082 1024 890 1024 
C 774 1024 506 961 506 549 
C 506 151 838 -128 1299 -128 
C 1882 -128 2509 311 2662 915 
L 3418 3912 
z
" transform="scale(0.015625)"/>
       <path id="CMMI12-77" d="M 2202 390 
C 2342 6 2739 -64 2982 -64 
C 3469 -64 3757 358 3936 798 
C 4083 1169 4320 2012 4320 2389 
C 4320 2778 4122 2816 4064 2816 
C 3910 2816 3770 2663 3770 2535 
C 3770 2459 3814 2414 3846 2389 
C 3904 2331 4070 2159 4070 1827 
C 4070 1609 3891 1009 3757 709 
C 3578 319 3341 64 3008 64 
C 2650 64 2534 332 2534 626 
C 2534 811 2592 1035 2618 1143 
L 2886 2216 
C 2918 2344 2976 2567 2976 2593 
C 2976 2689 2899 2753 2803 2753 
C 2618 2753 2573 2593 2534 2440 
C 2470 2191 2202 1111 2176 971 
C 2150 862 2150 792 2150 651 
C 2150 498 1946 255 1939 243 
C 1869 172 1766 64 1568 64 
C 1062 64 1062 543 1062 651 
C 1062 856 1107 1137 1395 1897 
C 1472 2095 1504 2178 1504 2305 
C 1504 2574 1312 2816 998 2816 
C 410 2816 173 1890 173 1839 
C 173 1814 198 1782 243 1782 
C 301 1782 307 1807 333 1896 
C 493 2454 742 2682 979 2682 
C 1043 2682 1146 2682 1146 2478 
C 1146 2446 1146 2312 1037 2031 
C 736 1233 672 971 672 728 
C 672 57 1222 -64 1549 -64 
C 1658 -64 1946 -64 2202 390 
z
" transform="scale(0.015625)"/>
       <path id="CMR17-3d" d="M 4115 2017 
C 4211 2017 4307 2017 4307 2125 
C 4307 2240 4198 2240 4090 2240 
L 512 2240 
C 403 2240 294 2240 294 2125 
C 294 2017 390 2017 486 2017 
L 4115 2017 
z
M 4090 896 
C 4198 896 4307 896 4307 1011 
C 4307 1119 4211 1119 4115 1119 
L 486 1119 
C 390 1119 294 1119 294 1011 
C 294 896 403 896 512 896 
L 4090 896 
z
" transform="scale(0.015625)"/>
      </defs>
      <use xlink:href="#CMMI12-4a" transform="scale(0.996264)"/>
      <use xlink:href="#CMMI12-77" transform="translate(53.917955 -14.943915) scale(0.697382)"/>
      <use xlink:href="#CMR17-3d" transform="translate(132.778904 0) scale(0.996264)"/>
      <use xlink:href="#CMR17-30" transform="translate(232.167701 0) scale(0.996264)"/>
      <use xlink:href="#CMMI12-3a" transform="translate(277.858178 0) scale(0.996264)"/>
      <use xlink:href="#CMR17-35" transform="translate(304.955355 0) scale(0.996264)"/>
     </g>
    </g>
    <g id="line2d_50">
     <path d="M 299.574829 366.100921 
L 317.574829 366.100921 
L 335.574829 366.100921 
" style="fill: none; stroke: #880000; stroke-width: 0.5; stroke-linecap: square"/>
    </g>
    <g id="text_22">
     <!-- $J_w = 1.6$ -->
     <g transform="translate(349.974829 372.400921) scale(0.18 -0.18)">
      <use xlink:href="#CMMI12-4a" transform="scale(0.996264)"/>
      <use xlink:href="#CMMI12-77" transform="translate(53.917955 -14.943915) scale(0.697382)"/>
      <use xlink:href="#CMR17-3d" transform="translate(132.778904 0) scale(0.996264)"/>
      <use xlink:href="#CMR17-31" transform="translate(232.167701 0) scale(0.996264)"/>
      <use xlink:href="#CMMI12-3a" transform="translate(277.858178 0) scale(0.996264)"/>
      <use xlink:href="#CMR17-36" transform="translate(304.955355 0) scale(0.996264)"/>
     </g>
    </g>
   </g>
  </g>
 </g>
 <defs>
  <clipPath id="p0f145ea0c8">
   <rect x="62.369736" y="10.7" width="367.329784" height="184.194252"/>
  </clipPath>
  <clipPath id="pd0c69aa3c8">
   <rect x="62.369736" y="207.894732" width="367.329784" height="184.194252"/>
  </clipPath>
 </defs>
</svg>
