<?xml version="1.0" encoding="utf-8" standalone="no"?>
<!DOCTYPE svg PUBLIC "-//W3C//DTD SVG 1.1//EN"
  "http://www.w3.org/Graphics/SVG/1.1/DTD/svg11.dtd">
<svg xmlns:xlink="http://www.w3.org/1999/xlink" width="839.52pt" height="263.52pt" viewBox="0 0 839.52 263.52" xmlns="http://www.w3.org/2000/svg" version="1.1">
 <metadata>
  <rdf:RDF xmlns:dc="http://purl.org/dc/elements/1.1/" xmlns:cc="http://creativecommons.org/ns#" xmlns:rdf="http://www.w3.org/1999/02/22-rdf-syntax-ns#">
   <cc:Work>
    <dc:type rdf:resource="http://purl.org/dc/dcmitype/StillImage"/>
    <dc:date>2024-02-23T16:42:22.895873</dc:date>
    <dc:format>image/svg+xml</dc:format>
    <dc:creator>
     <cc:Agent>
      <dc:title>Matplotlib v3.8.2, https://matplotlib.org/</dc:title>
     </cc:Agent>
    </dc:creator>
   </cc:Work>
  </rdf:RDF>
 </metadata>
 <defs>
  <style type="text/css">*{stroke-linejoin: round; stroke-linecap: butt}</style>
 </defs>
 <g id="figure_1">
  <g id="patch_1">
   <path d="M 0 263.52 
L 839.52 263.52 
L 839.52 0 
L 0 0 
z
" style="fill: #ffffff"/>
  </g>
  <g id="axes_1">
   <g id="patch_2">
    <path d="M 42.498817 236.922095 
L 406.54 236.922095 
L 406.54 10.7 
L 42.498817 10.7 
z
" style="fill: #ffffff"/>
   </g>
   <g id="matplotlib.axis_1">
    <g id="xtick_1">
     <g id="line2d_1">
      <defs>
       <path id="m8d6387496d" d="M 0 0 
L 0 3.5 
" style="stroke: #000000; stroke-width: 0.8"/>
      </defs>
      <g>
       <use xlink:href="#m8d6387496d" x="49.499609" y="236.922095" style="stroke: #000000; stroke-width: 0.8"/>
      </g>
     </g>
     <g id="line2d_2">
      <defs>
       <path id="m1ee911e952" d="M 0 0 
L 0 -3.5 
" style="stroke: #000000; stroke-width: 0.8"/>
      </defs>
      <g>
       <use xlink:href="#m1ee911e952" x="49.499609" y="10.7" style="stroke: #000000; stroke-width: 0.8"/>
      </g>
     </g>
     <g id="text_1">
      <!-- $\mathdefault{0}$ -->
      <g transform="translate(46.085365 253.607972) scale(0.14 -0.14)">
       <defs>
        <path id="CMR17-30" d="M 2688 2025 
C 2688 2416 2682 3080 2413 3591 
C 2176 4039 1798 4198 1466 4198 
C 1158 4198 768 4058 525 3597 
C 269 3118 243 2524 243 2025 
C 243 1661 250 1106 448 619 
C 723 -39 1216 -128 1466 -128 
C 1760 -128 2208 -7 2470 600 
C 2662 1042 2688 1559 2688 2025 
z
M 1466 -26 
C 1056 -26 813 325 723 812 
C 653 1188 653 1738 653 2096 
C 653 2588 653 2997 736 3387 
C 858 3929 1216 4096 1466 4096 
C 1728 4096 2067 3923 2189 3400 
C 2272 3036 2278 2607 2278 2096 
C 2278 1680 2278 1169 2202 792 
C 2067 95 1690 -26 1466 -26 
z
" transform="scale(0.015625)"/>
       </defs>
       <use xlink:href="#CMR17-30" transform="scale(0.996264)"/>
      </g>
     </g>
    </g>
    <g id="xtick_2">
     <g id="line2d_3">
      <g>
       <use xlink:href="#m8d6387496d" x="119.507529" y="236.922095" style="stroke: #000000; stroke-width: 0.8"/>
      </g>
     </g>
     <g id="line2d_4">
      <g>
       <use xlink:href="#m1ee911e952" x="119.507529" y="10.7" style="stroke: #000000; stroke-width: 0.8"/>
      </g>
     </g>
     <g id="text_2">
      <!-- $\mathdefault{2}$ -->
      <g transform="translate(116.093285 253.607972) scale(0.14 -0.14)">
       <defs>
        <path id="CMR17-32" d="M 2669 989 
L 2554 989 
C 2490 536 2438 459 2413 420 
C 2381 369 1920 369 1830 369 
L 602 369 
C 832 619 1280 1072 1824 1597 
C 2214 1967 2669 2402 2669 3035 
C 2669 3790 2067 4224 1395 4224 
C 691 4224 262 3604 262 3030 
C 262 2780 448 2748 525 2748 
C 589 2748 781 2787 781 3010 
C 781 3207 614 3264 525 3264 
C 486 3264 448 3258 422 3245 
C 544 3790 915 4058 1306 4058 
C 1862 4058 2227 3617 2227 3035 
C 2227 2479 1901 2000 1536 1584 
L 262 146 
L 262 0 
L 2515 0 
L 2669 989 
z
" transform="scale(0.015625)"/>
       </defs>
       <use xlink:href="#CMR17-32" transform="scale(0.996264)"/>
      </g>
     </g>
    </g>
    <g id="xtick_3">
     <g id="line2d_5">
      <g>
       <use xlink:href="#m8d6387496d" x="189.515449" y="236.922095" style="stroke: #000000; stroke-width: 0.8"/>
      </g>
     </g>
     <g id="line2d_6">
      <g>
       <use xlink:href="#m1ee911e952" x="189.515449" y="10.7" style="stroke: #000000; stroke-width: 0.8"/>
      </g>
     </g>
     <g id="text_3">
      <!-- $\mathdefault{4}$ -->
      <g transform="translate(186.101204 253.607972) scale(0.14 -0.14)">
       <defs>
        <path id="CMR17-34" d="M 2150 4122 
C 2150 4256 2144 4256 2029 4256 
L 128 1254 
L 128 1088 
L 1779 1088 
L 1779 457 
C 1779 224 1766 160 1318 160 
L 1197 160 
L 1197 0 
C 1402 0 1747 0 1965 0 
C 2182 0 2528 0 2733 0 
L 2733 160 
L 2611 160 
C 2163 160 2150 224 2150 457 
L 2150 1088 
L 2803 1088 
L 2803 1254 
L 2150 1254 
L 2150 4122 
z
M 1798 3703 
L 1798 1254 
L 256 1254 
L 1798 3703 
z
" transform="scale(0.015625)"/>
       </defs>
       <use xlink:href="#CMR17-34" transform="scale(0.996264)"/>
      </g>
     </g>
    </g>
    <g id="xtick_4">
     <g id="line2d_7">
      <g>
       <use xlink:href="#m8d6387496d" x="259.523368" y="236.922095" style="stroke: #000000; stroke-width: 0.8"/>
      </g>
     </g>
     <g id="line2d_8">
      <g>
       <use xlink:href="#m1ee911e952" x="259.523368" y="10.7" style="stroke: #000000; stroke-width: 0.8"/>
      </g>
     </g>
     <g id="text_4">
      <!-- $\mathdefault{6}$ -->
      <g transform="translate(256.109124 253.607972) scale(0.14 -0.14)">
       <defs>
        <path id="CMR17-36" d="M 678 2176 
C 678 3690 1395 4032 1811 4032 
C 1946 4032 2272 4009 2400 3776 
C 2298 3776 2106 3776 2106 3553 
C 2106 3381 2246 3323 2336 3323 
C 2394 3323 2566 3348 2566 3560 
C 2566 3954 2246 4179 1805 4179 
C 1043 4179 243 3390 243 1984 
C 243 253 966 -128 1478 -128 
C 2099 -128 2688 427 2688 1283 
C 2688 2081 2170 2662 1517 2662 
C 1126 2662 838 2407 678 1960 
L 678 2176 
z
M 1478 25 
C 691 25 691 1200 691 1436 
C 691 1896 909 2560 1504 2560 
C 1613 2560 1926 2560 2138 2120 
C 2253 1870 2253 1609 2253 1289 
C 2253 944 2253 690 2118 434 
C 1978 171 1773 25 1478 25 
z
" transform="scale(0.015625)"/>
       </defs>
       <use xlink:href="#CMR17-36" transform="scale(0.996264)"/>
      </g>
     </g>
    </g>
    <g id="xtick_5">
     <g id="line2d_9">
      <g>
       <use xlink:href="#m8d6387496d" x="329.531288" y="236.922095" style="stroke: #000000; stroke-width: 0.8"/>
      </g>
     </g>
     <g id="line2d_10">
      <g>
       <use xlink:href="#m1ee911e952" x="329.531288" y="10.7" style="stroke: #000000; stroke-width: 0.8"/>
      </g>
     </g>
     <g id="text_5">
      <!-- $\mathdefault{8}$ -->
      <g transform="translate(326.117044 253.607972) scale(0.14 -0.14)">
       <defs>
        <path id="CMR17-38" d="M 1741 2264 
C 2144 2467 2554 2773 2554 3263 
C 2554 3841 1990 4179 1472 4179 
C 890 4179 378 3759 378 3180 
C 378 3021 416 2747 666 2505 
C 730 2442 998 2251 1171 2130 
C 883 1983 211 1634 211 934 
C 211 279 838 -128 1459 -128 
C 2144 -128 2720 362 2720 1010 
C 2720 1590 2330 1857 2074 2029 
L 1741 2264 
z
M 902 2822 
C 851 2854 595 3051 595 3351 
C 595 3739 998 4032 1459 4032 
C 1965 4032 2336 3676 2336 3262 
C 2336 2669 1670 2331 1638 2331 
C 1632 2331 1626 2331 1574 2370 
L 902 2822 
z
M 2080 1519 
C 2176 1449 2483 1240 2483 851 
C 2483 381 2010 25 1472 25 
C 890 25 448 438 448 940 
C 448 1443 838 1862 1280 2060 
L 2080 1519 
z
" transform="scale(0.015625)"/>
       </defs>
       <use xlink:href="#CMR17-38" transform="scale(0.996264)"/>
      </g>
     </g>
    </g>
    <g id="xtick_6">
     <g id="line2d_11">
      <g>
       <use xlink:href="#m8d6387496d" x="399.539208" y="236.922095" style="stroke: #000000; stroke-width: 0.8"/>
      </g>
     </g>
     <g id="line2d_12">
      <g>
       <use xlink:href="#m1ee911e952" x="399.539208" y="10.7" style="stroke: #000000; stroke-width: 0.8"/>
      </g>
     </g>
     <g id="text_6">
      <!-- $\mathdefault{10}$ -->
      <g transform="translate(392.710719 253.607972) scale(0.14 -0.14)">
       <defs>
        <path id="CMR17-31" d="M 1702 4058 
C 1702 4192 1696 4192 1606 4192 
C 1357 3916 979 3827 621 3827 
C 602 3827 570 3827 563 3808 
C 557 3795 557 3782 557 3648 
C 755 3648 1088 3686 1344 3839 
L 1344 461 
C 1344 236 1331 160 781 160 
L 589 160 
L 589 0 
C 896 0 1216 0 1523 0 
C 1830 0 2150 0 2458 0 
L 2458 160 
L 2266 160 
C 1715 160 1702 230 1702 458 
L 1702 4058 
z
" transform="scale(0.015625)"/>
       </defs>
       <use xlink:href="#CMR17-31" transform="scale(0.996264)"/>
       <use xlink:href="#CMR17-30" transform="translate(45.690477 0) scale(0.996264)"/>
      </g>
     </g>
    </g>
   </g>
   <g id="matplotlib.axis_2">
    <g id="ytick_1">
     <g id="line2d_13">
      <defs>
       <path id="m54f9324bfe" d="M 0 0 
L -3.5 0 
" style="stroke: #000000; stroke-width: 0.8"/>
      </defs>
      <g>
       <use xlink:href="#m54f9324bfe" x="42.498817" y="226.560778" style="stroke: #000000; stroke-width: 0.8"/>
      </g>
     </g>
     <g id="line2d_14">
      <defs>
       <path id="m82f58ac1da" d="M 0 0 
L 3.5 0 
" style="stroke: #000000; stroke-width: 0.8"/>
      </defs>
      <g>
       <use xlink:href="#m82f58ac1da" x="406.54" y="226.560778" style="stroke: #000000; stroke-width: 0.8"/>
      </g>
     </g>
     <g id="text_7">
      <!-- $\mathdefault{−0.2}$ -->
      <g transform="translate(7.2 231.403716) scale(0.14 -0.14)">
       <defs>
        <path id="CMSY10-0" d="M 4218 1472 
C 4326 1472 4442 1472 4442 1600 
C 4442 1728 4326 1728 4218 1728 
L 755 1728 
C 646 1728 531 1728 531 1600 
C 531 1472 646 1472 755 1472 
L 4218 1472 
z
" transform="scale(0.015625)"/>
        <path id="CMMI12-3a" d="M 1178 307 
C 1178 492 1024 619 870 619 
C 685 619 557 466 557 313 
C 557 128 710 0 864 0 
C 1050 0 1178 153 1178 307 
z
" transform="scale(0.015625)"/>
       </defs>
       <use xlink:href="#CMSY10-0" transform="scale(0.996264)"/>
       <use xlink:href="#CMR17-30" transform="translate(77.487468 0) scale(0.996264)"/>
       <use xlink:href="#CMMI12-3a" transform="translate(123.177945 0) scale(0.996264)"/>
       <use xlink:href="#CMR17-32" transform="translate(150.275122 0) scale(0.996264)"/>
      </g>
     </g>
    </g>
    <g id="ytick_2">
     <g id="line2d_15">
      <g>
       <use xlink:href="#m54f9324bfe" x="42.498817" y="192.023053" style="stroke: #000000; stroke-width: 0.8"/>
      </g>
     </g>
     <g id="line2d_16">
      <g>
       <use xlink:href="#m82f58ac1da" x="406.54" y="192.023053" style="stroke: #000000; stroke-width: 0.8"/>
      </g>
     </g>
     <g id="text_8">
      <!-- $\mathdefault{0.0}$ -->
      <g transform="translate(18.048235 196.865992) scale(0.14 -0.14)">
       <use xlink:href="#CMR17-30" transform="scale(0.996264)"/>
       <use xlink:href="#CMMI12-3a" transform="translate(45.690477 0) scale(0.996264)"/>
       <use xlink:href="#CMR17-30" transform="translate(72.787654 0) scale(0.996264)"/>
      </g>
     </g>
    </g>
    <g id="ytick_3">
     <g id="line2d_17">
      <g>
       <use xlink:href="#m54f9324bfe" x="42.498817" y="157.485329" style="stroke: #000000; stroke-width: 0.8"/>
      </g>
     </g>
     <g id="line2d_18">
      <g>
       <use xlink:href="#m82f58ac1da" x="406.54" y="157.485329" style="stroke: #000000; stroke-width: 0.8"/>
      </g>
     </g>
     <g id="text_9">
      <!-- $\mathdefault{0.2}$ -->
      <g transform="translate(18.048235 162.328267) scale(0.14 -0.14)">
       <use xlink:href="#CMR17-30" transform="scale(0.996264)"/>
       <use xlink:href="#CMMI12-3a" transform="translate(45.690477 0) scale(0.996264)"/>
       <use xlink:href="#CMR17-32" transform="translate(72.787654 0) scale(0.996264)"/>
      </g>
     </g>
    </g>
    <g id="ytick_4">
     <g id="line2d_19">
      <g>
       <use xlink:href="#m54f9324bfe" x="42.498817" y="122.947604" style="stroke: #000000; stroke-width: 0.8"/>
      </g>
     </g>
     <g id="line2d_20">
      <g>
       <use xlink:href="#m82f58ac1da" x="406.54" y="122.947604" style="stroke: #000000; stroke-width: 0.8"/>
      </g>
     </g>
     <g id="text_10">
      <!-- $\mathdefault{0.4}$ -->
      <g transform="translate(18.048235 127.790543) scale(0.14 -0.14)">
       <use xlink:href="#CMR17-30" transform="scale(0.996264)"/>
       <use xlink:href="#CMMI12-3a" transform="translate(45.690477 0) scale(0.996264)"/>
       <use xlink:href="#CMR17-34" transform="translate(72.787654 0) scale(0.996264)"/>
      </g>
     </g>
    </g>
    <g id="ytick_5">
     <g id="line2d_21">
      <g>
       <use xlink:href="#m54f9324bfe" x="42.498817" y="88.40988" style="stroke: #000000; stroke-width: 0.8"/>
      </g>
     </g>
     <g id="line2d_22">
      <g>
       <use xlink:href="#m82f58ac1da" x="406.54" y="88.40988" style="stroke: #000000; stroke-width: 0.8"/>
      </g>
     </g>
     <g id="text_11">
      <!-- $\mathdefault{0.6}$ -->
      <g transform="translate(18.048235 93.252818) scale(0.14 -0.14)">
       <use xlink:href="#CMR17-30" transform="scale(0.996264)"/>
       <use xlink:href="#CMMI12-3a" transform="translate(45.690477 0) scale(0.996264)"/>
       <use xlink:href="#CMR17-36" transform="translate(72.787654 0) scale(0.996264)"/>
      </g>
     </g>
    </g>
    <g id="ytick_6">
     <g id="line2d_23">
      <g>
       <use xlink:href="#m54f9324bfe" x="42.498817" y="53.872156" style="stroke: #000000; stroke-width: 0.8"/>
      </g>
     </g>
     <g id="line2d_24">
      <g>
       <use xlink:href="#m82f58ac1da" x="406.54" y="53.872156" style="stroke: #000000; stroke-width: 0.8"/>
      </g>
     </g>
     <g id="text_12">
      <!-- $\mathdefault{0.8}$ -->
      <g transform="translate(18.048235 58.715094) scale(0.14 -0.14)">
       <use xlink:href="#CMR17-30" transform="scale(0.996264)"/>
       <use xlink:href="#CMMI12-3a" transform="translate(45.690477 0) scale(0.996264)"/>
       <use xlink:href="#CMR17-38" transform="translate(72.787654 0) scale(0.996264)"/>
      </g>
     </g>
    </g>
    <g id="ytick_7">
     <g id="line2d_25">
      <g>
       <use xlink:href="#m54f9324bfe" x="42.498817" y="19.334431" style="stroke: #000000; stroke-width: 0.8"/>
      </g>
     </g>
     <g id="line2d_26">
      <g>
       <use xlink:href="#m82f58ac1da" x="406.54" y="19.334431" style="stroke: #000000; stroke-width: 0.8"/>
      </g>
     </g>
     <g id="text_13">
      <!-- $\mathdefault{1.0}$ -->
      <g transform="translate(18.048235 24.177369) scale(0.14 -0.14)">
       <use xlink:href="#CMR17-31" transform="scale(0.996264)"/>
       <use xlink:href="#CMMI12-3a" transform="translate(45.690477 0) scale(0.996264)"/>
       <use xlink:href="#CMR17-30" transform="translate(72.787654 0) scale(0.996264)"/>
      </g>
     </g>
    </g>
   </g>
   <g id="line2d_27">
    <path d="M 49.499609 19.334431 
L 52.234294 19.510045 
L 54.968978 20.036246 
L 57.703662 20.911106 
L 60.438347 22.131426 
L 63.173031 23.692745 
L 65.907715 25.589362 
L 68.6424 27.814357 
L 71.377084 30.359626 
L 74.111768 33.215914 
L 76.846453 36.372855 
L 79.581137 39.819016 
L 82.315822 43.541948 
L 85.050506 47.528241 
L 87.78519 51.763579 
L 90.519875 56.232802 
L 95.989243 65.808454 
L 101.458612 76.119627 
L 106.927981 87.021743 
L 115.132034 104.151182 
L 137.009509 150.683321 
L 142.478878 161.694122 
L 147.948246 172.179396 
L 153.417615 182.018989 
L 158.886984 191.106179 
L 161.621668 195.338326 
L 164.356353 199.349198 
L 167.091037 203.129866 
L 169.825721 206.672468 
L 172.560406 209.97024 
L 175.29509 213.017526 
L 178.029774 215.809789 
L 180.764459 218.343623 
L 183.499143 220.616746 
L 186.233827 222.627999 
L 188.968512 224.377337 
L 191.703196 225.865814 
L 194.437881 227.095563 
L 197.172565 228.069771 
L 199.907249 228.792652 
L 202.641934 229.269411 
L 205.376618 229.506211 
L 208.111302 229.510124 
L 210.845987 229.289094 
L 213.580671 228.851883 
L 216.315355 228.208018 
L 219.05004 227.367741 
L 221.784724 226.341944 
L 224.519409 225.142116 
L 227.254093 223.780273 
L 229.988777 222.268902 
L 235.458146 218.849452 
L 240.927515 214.990464 
L 246.396884 210.80182 
L 254.600937 204.143098 
L 268.274358 192.939801 
L 273.743727 188.714055 
L 279.213096 184.768238 
L 284.682465 181.178595 
L 290.151833 178.010332 
L 295.621202 175.316706 
L 298.355886 174.161095 
L 301.090571 173.138386 
L 303.825255 172.251637 
L 306.55994 171.503085 
L 309.294624 170.894155 
L 312.029308 170.425464 
L 314.763993 170.096831 
L 317.498677 169.9073 
L 320.233361 169.85515 
L 322.968046 169.937925 
L 325.70273 170.152454 
L 328.437415 170.494889 
L 331.172099 170.96073 
L 336.641468 172.241611 
L 342.110836 173.947564 
L 347.580205 176.023231 
L 353.049574 178.406902 
L 358.518943 181.032073 
L 366.722996 185.269756 
L 383.131102 193.948487 
L 388.600471 196.652626 
L 394.069839 199.159913 
L 399.539208 201.417679 
L 399.539208 201.417679 
" clip-path="url(#p93f5dc37d2)" style="fill: none; stroke: #000000; stroke-width: 0.5; stroke-linecap: square"/>
   </g>
   <g id="line2d_28">
    <path d="M 49.499609 192.023053 
L 60.438347 174.209712 
L 65.907715 165.628702 
L 71.377084 157.432136 
L 76.846453 149.737709 
L 82.315822 142.654411 
L 85.050506 139.373152 
L 87.78519 136.280664 
L 90.519875 133.387326 
L 93.254559 130.702659 
L 95.989243 128.235292 
L 98.723928 125.992921 
L 101.458612 123.982284 
L 104.193296 122.209133 
L 106.927981 120.678212 
L 109.662665 119.39324 
L 112.39735 118.356902 
L 115.132034 117.57084 
L 117.866718 117.03565 
L 120.601403 116.750885 
L 123.336087 116.715066 
L 126.070771 116.925689 
L 128.805456 117.379245 
L 131.54014 118.071239 
L 134.274825 118.99622 
L 137.009509 120.147806 
L 139.744193 121.518722 
L 142.478878 123.100838 
L 145.213562 124.88521 
L 147.948246 126.862124 
L 150.682931 129.02115 
L 153.417615 131.351188 
L 158.886984 136.476901 
L 164.356353 142.139278 
L 169.825721 148.231401 
L 175.29509 154.641463 
L 186.233827 167.956352 
L 194.437881 177.925636 
L 199.907249 184.357499 
L 205.376618 190.498531 
L 210.845987 196.255329 
L 216.315355 201.544129 
L 221.784724 206.292154 
L 224.519409 208.443912 
L 227.254093 210.438712 
L 229.988777 212.270994 
L 232.723462 213.93605 
L 235.458146 215.430028 
L 238.19283 216.749944 
L 240.927515 217.893686 
L 243.662199 218.860011 
L 246.396884 219.648538 
L 249.131568 220.259744 
L 251.866252 220.694946 
L 254.600937 220.956287 
L 257.335621 221.04671 
L 260.070305 220.969938 
L 262.80499 220.73044 
L 265.539674 220.333405 
L 268.274358 219.7847 
L 271.009043 219.090838 
L 273.743727 218.258932 
L 276.478412 217.296654 
L 281.94778 215.01418 
L 287.417149 212.314156 
L 292.886518 209.273116 
L 298.355886 205.971694 
L 306.55994 200.713109 
L 320.233361 191.821045 
L 325.70273 188.449563 
L 331.172099 185.291667 
L 336.641468 182.410009 
L 342.110836 179.859109 
L 347.580205 177.684449 
L 353.049574 175.921778 
L 358.518943 174.596634 
L 361.253627 174.103259 
L 363.988311 173.724101 
L 366.722996 173.459408 
L 369.45768 173.308786 
L 372.192364 173.271205 
L 377.661733 173.527986 
L 383.131102 174.209515 
L 388.600471 175.28669 
L 394.069839 176.72243 
L 399.539208 178.472705 
L 399.539208 178.472705 
" clip-path="url(#p93f5dc37d2)" style="fill: none; stroke: #880000; stroke-width: 0.5; stroke-linecap: square"/>
   </g>
   <g id="line2d_29">
    <path d="M 49.499609 192.023053 
L 52.234294 191.952817 
L 54.968978 191.742474 
L 57.703662 191.393126 
L 60.438347 190.9066 
L 63.173031 190.285439 
L 65.907715 189.532895 
L 68.6424 188.652906 
L 74.111768 186.529662 
L 79.581137 183.960139 
L 85.050506 180.998158 
L 90.519875 177.705842 
L 95.989243 174.152355 
L 104.193296 168.497242 
L 120.601403 157.013463 
L 126.070771 153.43354 
L 131.54014 150.109004 
L 137.009509 147.112488 
L 142.478878 144.510424 
L 147.948246 142.36172 
L 150.682931 141.473441 
L 153.417615 140.716601 
L 156.152299 140.095959 
L 158.886984 139.615621 
L 161.621668 139.279017 
L 164.356353 139.088885 
L 167.091037 139.047261 
L 169.825721 139.155469 
L 172.560406 139.414114 
L 175.29509 139.82308 
L 178.029774 140.381535 
L 180.764459 141.087935 
L 183.499143 141.940031 
L 186.233827 142.934882 
L 188.968512 144.068874 
L 191.703196 145.337736 
L 197.172565 148.259851 
L 202.641934 151.654887 
L 208.111302 155.467768 
L 213.580671 159.635821 
L 219.05004 164.090045 
L 227.254093 171.145238 
L 246.396884 187.977878 
L 251.866252 192.530073 
L 257.335621 196.832636 
L 262.80499 200.819631 
L 268.274358 204.431896 
L 273.743727 207.618121 
L 279.213096 210.335759 
L 281.94778 211.508138 
L 284.682465 212.551742 
L 287.417149 213.464006 
L 290.151833 214.243009 
L 292.886518 214.887483 
L 295.621202 215.396813 
L 298.355886 215.771032 
L 301.090571 216.010821 
L 303.825255 216.117496 
L 306.55994 216.093002 
L 309.294624 215.939889 
L 312.029308 215.661304 
L 314.763993 215.260963 
L 320.233361 214.112601 
L 325.70273 212.535019 
L 331.172099 210.575811 
L 336.641468 208.288868 
L 342.110836 205.733165 
L 350.314889 201.533715 
L 374.927049 188.36517 
L 380.396417 185.727581 
L 385.865786 183.31657 
L 391.335155 181.177927 
L 396.804524 179.3504 
L 399.539208 178.563323 
L 399.539208 178.563323 
" clip-path="url(#p93f5dc37d2)" style="fill: none; stroke: #440088; stroke-width: 0.5; stroke-linecap: square"/>
   </g>
   <g id="line2d_30">
    <path d="M 49.499609 192.023053 
L 63.173031 191.925853 
L 71.377084 191.630163 
L 76.846453 191.265048 
L 82.315822 190.732763 
L 87.78519 190.01031 
L 93.254559 189.079971 
L 98.723928 187.929868 
L 104.193296 186.554376 
L 109.662665 184.954399 
L 115.132034 183.137481 
L 120.601403 181.117769 
L 126.070771 178.915816 
L 134.274825 175.330923 
L 145.213562 170.206371 
L 161.621668 162.466402 
L 169.825721 158.916402 
L 175.29509 156.778593 
L 180.764459 154.877748 
L 186.233827 153.256895 
L 191.703196 151.955163 
L 197.172565 151.00686 
L 202.641934 150.440643 
L 208.111302 150.278803 
L 213.580671 150.536677 
L 219.05004 151.222207 
L 224.519409 152.335647 
L 229.988777 153.869436 
L 235.458146 155.808227 
L 240.927515 158.129087 
L 246.396884 160.801858 
L 251.866252 163.789664 
L 257.335621 167.049571 
L 262.80499 170.533371 
L 271.009043 176.062891 
L 295.621202 193.017646 
L 301.090571 196.484019 
L 306.55994 199.721048 
L 312.029308 202.680236 
L 317.498677 205.318364 
L 322.968046 207.598318 
L 328.437415 209.489786 
L 333.906783 210.969822 
L 339.376152 212.023252 
L 344.845521 212.642926 
L 350.314889 212.829808 
L 355.784258 212.59289 
L 361.253627 211.948959 
L 366.722996 210.922197 
L 372.192364 209.543629 
L 377.661733 207.850449 
L 383.131102 205.885212 
L 388.600471 203.694928 
L 396.804524 200.098645 
L 399.539208 198.843536 
L 399.539208 198.843536 
" clip-path="url(#p93f5dc37d2)" style="fill: none; stroke: #000088; stroke-width: 0.5; stroke-linecap: square"/>
   </g>
   <g id="patch_3">
    <path d="M 42.498817 236.922095 
L 42.498817 10.7 
" style="fill: none; stroke: #000000; stroke-width: 0.8; stroke-linejoin: miter; stroke-linecap: square"/>
   </g>
   <g id="patch_4">
    <path d="M 406.54 236.922095 
L 406.54 10.7 
" style="fill: none; stroke: #000000; stroke-width: 0.8; stroke-linejoin: miter; stroke-linecap: square"/>
   </g>
   <g id="patch_5">
    <path d="M 42.498817 236.922095 
L 406.54 236.922095 
" style="fill: none; stroke: #000000; stroke-width: 0.8; stroke-linejoin: miter; stroke-linecap: square"/>
   </g>
   <g id="patch_6">
    <path d="M 42.498817 10.7 
L 406.54 10.7 
" style="fill: none; stroke: #000000; stroke-width: 0.8; stroke-linejoin: miter; stroke-linecap: square"/>
   </g>
   <g id="legend_1">
    <g id="patch_7">
     <path d="M 322.930006 125.452257 
L 393.94 125.452257 
Q 397.54 125.452257 397.54 121.852257 
L 397.54 23.3 
Q 397.54 19.7 393.94 19.7 
L 322.930006 19.7 
Q 319.330006 19.7 319.330006 23.3 
L 319.330006 121.852257 
Q 319.330006 125.452257 322.930006 125.452257 
z
" style="fill: #ffffff; opacity: 0.8; stroke: #cccccc; stroke-linejoin: miter"/>
    </g>
    <g id="line2d_31">
     <path d="M 326.530006 33.2 
L 344.530006 33.2 
L 362.530006 33.2 
" style="fill: none; stroke: #000000; stroke-width: 0.5; stroke-linecap: square"/>
    </g>
    <g id="text_14">
     <!-- $j_0$ -->
     <g transform="translate(376.930006 39.5) scale(0.18 -0.18)">
      <defs>
       <path id="CMMI12-6a" d="M 2240 2028 
C 2266 2131 2266 2219 2266 2245 
C 2266 2613 1990 2816 1702 2816 
C 1056 2816 710 1889 710 1845 
C 710 1813 736 1788 774 1788 
C 826 1788 832 1813 864 1876 
C 1120 2492 1440 2689 1683 2689 
C 1818 2689 1888 2618 1888 2397 
C 1888 2245 1869 2181 1843 2067 
L 1235 -327 
C 1114 -796 813 -1152 461 -1152 
C 435 -1152 301 -1152 179 -1088 
C 333 -1056 454 -936 454 -784 
C 454 -682 378 -580 237 -580 
C 70 -580 -83 -720 -83 -911 
C -83 -1171 198 -1280 461 -1280 
C 902 -1280 1485 -956 1645 -320 
L 2240 2028 
z
M 2502 4013 
C 2502 4173 2368 4224 2291 4224 
C 2118 4224 1971 4058 1971 3917 
C 1971 3822 2048 3707 2189 3707 
C 2336 3707 2502 3847 2502 4013 
z
" transform="scale(0.015625)"/>
      </defs>
      <use xlink:href="#CMMI12-6a" transform="scale(0.996264)"/>
      <use xlink:href="#CMR17-30" transform="translate(40.357692 -14.943915) scale(0.697382)"/>
     </g>
    </g>
    <g id="line2d_32">
     <path d="M 326.530006 58.288064 
L 344.530006 58.288064 
L 362.530006 58.288064 
" style="fill: none; stroke: #880000; stroke-width: 0.5; stroke-linecap: square"/>
    </g>
    <g id="text_15">
     <!-- $j_1$ -->
     <g transform="translate(376.930006 64.588064) scale(0.18 -0.18)">
      <use xlink:href="#CMMI12-6a" transform="scale(0.996264)"/>
      <use xlink:href="#CMR17-31" transform="translate(40.357692 -14.943915) scale(0.697382)"/>
     </g>
    </g>
    <g id="line2d_33">
     <path d="M 326.530006 83.376128 
L 344.530006 83.376128 
L 362.530006 83.376128 
" style="fill: none; stroke: #440088; stroke-width: 0.5; stroke-linecap: square"/>
    </g>
    <g id="text_16">
     <!-- $j_2$ -->
     <g transform="translate(376.930006 89.676128) scale(0.18 -0.18)">
      <use xlink:href="#CMMI12-6a" transform="scale(0.996264)"/>
      <use xlink:href="#CMR17-32" transform="translate(40.357692 -14.943915) scale(0.697382)"/>
     </g>
    </g>
    <g id="line2d_34">
     <path d="M 326.530006 108.464193 
L 344.530006 108.464193 
L 362.530006 108.464193 
" style="fill: none; stroke: #000088; stroke-width: 0.5; stroke-linecap: square"/>
    </g>
    <g id="text_17">
     <!-- $j_3$ -->
     <g transform="translate(376.930006 114.764193) scale(0.18 -0.18)">
      <defs>
       <path id="CMR17-33" d="M 1414 2157 
C 1984 2157 2234 1662 2234 1090 
C 2234 320 1824 25 1453 25 
C 1114 25 563 194 390 693 
C 422 680 454 680 486 680 
C 640 680 755 782 755 948 
C 755 1133 614 1216 486 1216 
C 378 1216 211 1165 211 926 
C 211 335 787 -128 1466 -128 
C 2176 -128 2720 430 2720 1085 
C 2720 1707 2208 2157 1600 2227 
C 2086 2328 2554 2756 2554 3329 
C 2554 3820 2048 4179 1472 4179 
C 890 4179 378 3829 378 3329 
C 378 3110 544 3072 627 3072 
C 762 3072 877 3155 877 3321 
C 877 3486 762 3569 627 3569 
C 602 3569 570 3569 544 3557 
C 730 3959 1235 4032 1459 4032 
C 1683 4032 2106 3925 2106 3320 
C 2106 3143 2080 2828 1862 2550 
C 1670 2304 1453 2304 1242 2284 
C 1210 2284 1062 2269 1037 2269 
C 992 2263 966 2257 966 2208 
C 966 2163 973 2157 1101 2157 
L 1414 2157 
z
" transform="scale(0.015625)"/>
      </defs>
      <use xlink:href="#CMMI12-6a" transform="scale(0.996264)"/>
      <use xlink:href="#CMR17-33" transform="translate(40.357692 -14.943915) scale(0.697382)"/>
     </g>
    </g>
   </g>
  </g>
  <g id="axes_2">
   <g id="patch_8">
    <path d="M 464.778817 236.922095 
L 828.82 236.922095 
L 828.82 10.7 
L 464.778817 10.7 
z
" style="fill: #ffffff"/>
   </g>
   <g id="matplotlib.axis_3">
    <g id="xtick_7">
     <g id="line2d_35">
      <g>
       <use xlink:href="#m8d6387496d" x="471.779609" y="236.922095" style="stroke: #000000; stroke-width: 0.8"/>
      </g>
     </g>
     <g id="line2d_36">
      <g>
       <use xlink:href="#m1ee911e952" x="471.779609" y="10.7" style="stroke: #000000; stroke-width: 0.8"/>
      </g>
     </g>
     <g id="text_18">
      <!-- $\mathdefault{0}$ -->
      <g transform="translate(468.365365 253.607972) scale(0.14 -0.14)">
       <use xlink:href="#CMR17-30" transform="scale(0.996264)"/>
      </g>
     </g>
    </g>
    <g id="xtick_8">
     <g id="line2d_37">
      <g>
       <use xlink:href="#m8d6387496d" x="541.787529" y="236.922095" style="stroke: #000000; stroke-width: 0.8"/>
      </g>
     </g>
     <g id="line2d_38">
      <g>
       <use xlink:href="#m1ee911e952" x="541.787529" y="10.7" style="stroke: #000000; stroke-width: 0.8"/>
      </g>
     </g>
     <g id="text_19">
      <!-- $\mathdefault{2}$ -->
      <g transform="translate(538.373285 253.607972) scale(0.14 -0.14)">
       <use xlink:href="#CMR17-32" transform="scale(0.996264)"/>
      </g>
     </g>
    </g>
    <g id="xtick_9">
     <g id="line2d_39">
      <g>
       <use xlink:href="#m8d6387496d" x="611.795449" y="236.922095" style="stroke: #000000; stroke-width: 0.8"/>
      </g>
     </g>
     <g id="line2d_40">
      <g>
       <use xlink:href="#m1ee911e952" x="611.795449" y="10.7" style="stroke: #000000; stroke-width: 0.8"/>
      </g>
     </g>
     <g id="text_20">
      <!-- $\mathdefault{4}$ -->
      <g transform="translate(608.381204 253.607972) scale(0.14 -0.14)">
       <use xlink:href="#CMR17-34" transform="scale(0.996264)"/>
      </g>
     </g>
    </g>
    <g id="xtick_10">
     <g id="line2d_41">
      <g>
       <use xlink:href="#m8d6387496d" x="681.803368" y="236.922095" style="stroke: #000000; stroke-width: 0.8"/>
      </g>
     </g>
     <g id="line2d_42">
      <g>
       <use xlink:href="#m1ee911e952" x="681.803368" y="10.7" style="stroke: #000000; stroke-width: 0.8"/>
      </g>
     </g>
     <g id="text_21">
      <!-- $\mathdefault{6}$ -->
      <g transform="translate(678.389124 253.607972) scale(0.14 -0.14)">
       <use xlink:href="#CMR17-36" transform="scale(0.996264)"/>
      </g>
     </g>
    </g>
    <g id="xtick_11">
     <g id="line2d_43">
      <g>
       <use xlink:href="#m8d6387496d" x="751.811288" y="236.922095" style="stroke: #000000; stroke-width: 0.8"/>
      </g>
     </g>
     <g id="line2d_44">
      <g>
       <use xlink:href="#m1ee911e952" x="751.811288" y="10.7" style="stroke: #000000; stroke-width: 0.8"/>
      </g>
     </g>
     <g id="text_22">
      <!-- $\mathdefault{8}$ -->
      <g transform="translate(748.397044 253.607972) scale(0.14 -0.14)">
       <use xlink:href="#CMR17-38" transform="scale(0.996264)"/>
      </g>
     </g>
    </g>
    <g id="xtick_12">
     <g id="line2d_45">
      <g>
       <use xlink:href="#m8d6387496d" x="821.819208" y="236.922095" style="stroke: #000000; stroke-width: 0.8"/>
      </g>
     </g>
     <g id="line2d_46">
      <g>
       <use xlink:href="#m1ee911e952" x="821.819208" y="10.7" style="stroke: #000000; stroke-width: 0.8"/>
      </g>
     </g>
     <g id="text_23">
      <!-- $\mathdefault{10}$ -->
      <g transform="translate(814.990719 253.607972) scale(0.14 -0.14)">
       <use xlink:href="#CMR17-31" transform="scale(0.996264)"/>
       <use xlink:href="#CMR17-30" transform="translate(45.690477 0) scale(0.996264)"/>
      </g>
     </g>
    </g>
   </g>
   <g id="matplotlib.axis_4">
    <g id="ytick_8">
     <g id="line2d_47">
      <g>
       <use xlink:href="#m54f9324bfe" x="464.778817" y="208.042679" style="stroke: #000000; stroke-width: 0.8"/>
      </g>
     </g>
     <g id="line2d_48">
      <g>
       <use xlink:href="#m82f58ac1da" x="828.82" y="208.042679" style="stroke: #000000; stroke-width: 0.8"/>
      </g>
     </g>
     <g id="text_24">
      <!-- $\mathdefault{−0.4}$ -->
      <g transform="translate(429.48 212.885617) scale(0.14 -0.14)">
       <use xlink:href="#CMSY10-0" transform="scale(0.996264)"/>
       <use xlink:href="#CMR17-30" transform="translate(77.487468 0) scale(0.996264)"/>
       <use xlink:href="#CMMI12-3a" transform="translate(123.177945 0) scale(0.996264)"/>
       <use xlink:href="#CMR17-34" transform="translate(150.275122 0) scale(0.996264)"/>
      </g>
     </g>
    </g>
    <g id="ytick_9">
     <g id="line2d_49">
      <g>
       <use xlink:href="#m54f9324bfe" x="464.778817" y="159.910318" style="stroke: #000000; stroke-width: 0.8"/>
      </g>
     </g>
     <g id="line2d_50">
      <g>
       <use xlink:href="#m82f58ac1da" x="828.82" y="159.910318" style="stroke: #000000; stroke-width: 0.8"/>
      </g>
     </g>
     <g id="text_25">
      <!-- $\mathdefault{−0.2}$ -->
      <g transform="translate(429.48 164.753256) scale(0.14 -0.14)">
       <use xlink:href="#CMSY10-0" transform="scale(0.996264)"/>
       <use xlink:href="#CMR17-30" transform="translate(77.487468 0) scale(0.996264)"/>
       <use xlink:href="#CMMI12-3a" transform="translate(123.177945 0) scale(0.996264)"/>
       <use xlink:href="#CMR17-32" transform="translate(150.275122 0) scale(0.996264)"/>
      </g>
     </g>
    </g>
    <g id="ytick_10">
     <g id="line2d_51">
      <g>
       <use xlink:href="#m54f9324bfe" x="464.778817" y="111.777957" style="stroke: #000000; stroke-width: 0.8"/>
      </g>
     </g>
     <g id="line2d_52">
      <g>
       <use xlink:href="#m82f58ac1da" x="828.82" y="111.777957" style="stroke: #000000; stroke-width: 0.8"/>
      </g>
     </g>
     <g id="text_26">
      <!-- $\mathdefault{0.0}$ -->
      <g transform="translate(440.328235 116.620896) scale(0.14 -0.14)">
       <use xlink:href="#CMR17-30" transform="scale(0.996264)"/>
       <use xlink:href="#CMMI12-3a" transform="translate(45.690477 0) scale(0.996264)"/>
       <use xlink:href="#CMR17-30" transform="translate(72.787654 0) scale(0.996264)"/>
      </g>
     </g>
    </g>
    <g id="ytick_11">
     <g id="line2d_53">
      <g>
       <use xlink:href="#m54f9324bfe" x="464.778817" y="63.645597" style="stroke: #000000; stroke-width: 0.8"/>
      </g>
     </g>
     <g id="line2d_54">
      <g>
       <use xlink:href="#m82f58ac1da" x="828.82" y="63.645597" style="stroke: #000000; stroke-width: 0.8"/>
      </g>
     </g>
     <g id="text_27">
      <!-- $\mathdefault{0.2}$ -->
      <g transform="translate(440.328235 68.488535) scale(0.14 -0.14)">
       <use xlink:href="#CMR17-30" transform="scale(0.996264)"/>
       <use xlink:href="#CMMI12-3a" transform="translate(45.690477 0) scale(0.996264)"/>
       <use xlink:href="#CMR17-32" transform="translate(72.787654 0) scale(0.996264)"/>
      </g>
     </g>
    </g>
    <g id="ytick_12">
     <g id="line2d_55">
      <g>
       <use xlink:href="#m54f9324bfe" x="464.778817" y="15.513236" style="stroke: #000000; stroke-width: 0.8"/>
      </g>
     </g>
     <g id="line2d_56">
      <g>
       <use xlink:href="#m82f58ac1da" x="828.82" y="15.513236" style="stroke: #000000; stroke-width: 0.8"/>
      </g>
     </g>
     <g id="text_28">
      <!-- $\mathdefault{0.4}$ -->
      <g transform="translate(440.328235 20.356174) scale(0.14 -0.14)">
       <use xlink:href="#CMR17-30" transform="scale(0.996264)"/>
       <use xlink:href="#CMMI12-3a" transform="translate(45.690477 0) scale(0.996264)"/>
       <use xlink:href="#CMR17-34" transform="translate(72.787654 0) scale(0.996264)"/>
      </g>
     </g>
    </g>
   </g>
   <g id="line2d_57">
    <path d="M 504.560422 264.52 
L 505.580308 253.565109 
L 508.260299 228.238362 
L 510.940289 205.742486 
L 513.62028 185.613163 
L 516.300271 167.500716 
L 518.980261 151.137131 
L 521.660252 136.313699 
L 524.340243 122.865494 
L 527.020233 110.660355 
L 529.700224 99.590926 
L 532.380215 89.568808 
L 535.060205 80.520193 
L 537.740196 72.382568 
L 540.420187 65.102195 
L 543.100177 58.632162 
L 545.780168 52.930866 
L 548.460159 47.960823 
L 551.140149 43.68773 
L 553.82014 40.079719 
L 556.500131 37.106762 
L 559.180121 34.740206 
L 561.860112 32.952398 
L 564.540103 31.716387 
L 567.220094 31.005696 
L 569.900084 30.794143 
L 572.580075 31.055705 
L 575.260066 31.764417 
L 577.940056 32.894308 
L 580.620047 34.419352 
L 583.300038 36.313446 
L 585.980028 38.550409 
L 588.660019 41.103986 
L 591.34001 43.947879 
L 594.02 47.055773 
L 596.699991 50.401385 
L 599.379982 53.958512 
L 604.739963 61.603231 
L 610.099944 69.78414 
L 618.139916 82.624238 
L 628.859879 99.818707 
L 634.219861 108.059487 
L 639.579842 115.85804 
L 644.939823 123.081277 
L 647.619814 126.440473 
L 650.299805 129.614194 
L 652.979795 132.591078 
L 655.659786 135.361023 
L 658.339777 137.915198 
L 661.019767 140.246061 
L 663.699758 142.347363 
L 666.379749 144.21415 
L 669.059739 145.842757 
L 671.73973 147.230799 
L 674.419721 148.377158 
L 677.099711 149.281956 
L 679.779702 149.946535 
L 682.459693 150.373423 
L 685.139683 150.566298 
L 687.819674 150.529948 
L 690.499665 150.270225 
L 693.179655 149.793995 
L 695.859646 149.109086 
L 698.539637 148.224231 
L 701.219627 147.149003 
L 703.899618 145.89376 
L 706.579609 144.469569 
L 709.2596 142.888146 
L 714.619581 139.303257 
L 719.979562 135.24298 
L 725.339544 130.816854 
L 733.379516 123.738717 
L 746.779469 111.70847 
L 752.13945 107.127542 
L 757.499432 102.825271 
L 762.859413 98.887093 
L 768.219394 95.38754 
L 770.899385 93.822257 
L 773.579376 92.38904 
L 776.259366 91.093653 
L 778.939357 89.941001 
L 781.619348 88.935123 
L 784.299339 88.079186 
L 786.979329 87.375472 
L 789.65932 86.825392 
L 792.339311 86.429484 
L 795.019301 86.187425 
L 797.699292 86.098047 
L 800.379283 86.159358 
L 803.059273 86.36856 
L 805.739264 86.722083 
L 808.419255 87.215609 
L 811.099245 87.844113 
L 813.779236 88.601895 
L 819.139217 90.479383 
L 821.819208 91.584711 
L 821.819208 91.584711 
" clip-path="url(#p7634002461)" style="fill: none; stroke: #000000; stroke-width: 0.5; stroke-linecap: square"/>
   </g>
   <g id="line2d_58">
    <path d="M 526.854853 264.52 
L 527.020233 263.564247 
L 529.700224 249.343759 
L 532.380215 236.174393 
L 535.060205 223.889051 
L 537.740196 212.358111 
L 540.420187 201.480766 
L 543.100177 191.178568 
L 545.780168 181.39056 
L 548.460159 172.069553 
L 551.140149 163.179256 
L 553.82014 154.692025 
L 556.500131 146.587098 
L 559.180121 138.849174 
L 561.860112 131.467284 
L 564.540103 124.433863 
L 567.220094 117.744003 
L 569.900084 111.394824 
L 572.580075 105.384969 
L 575.260066 99.714167 
L 577.940056 94.382876 
L 580.620047 89.391983 
L 583.300038 84.742548 
L 585.980028 80.435586 
L 588.660019 76.47189 
L 591.34001 72.851876 
L 594.02 69.575455 
L 596.699991 66.641928 
L 599.379982 64.049897 
L 602.059972 61.797199 
L 604.739963 59.880845 
L 607.419954 58.29698 
L 610.099944 57.040858 
L 612.779935 56.106816 
L 615.459926 55.488273 
L 618.139916 55.177726 
L 620.819907 55.166762 
L 623.499898 55.446078 
L 626.179888 56.0055 
L 628.859879 56.83402 
L 631.53987 57.919832 
L 634.219861 59.250372 
L 636.899851 60.812372 
L 639.579842 62.59191 
L 642.259833 64.574465 
L 644.939823 66.744981 
L 647.619814 69.087928 
L 652.979795 74.227033 
L 658.339777 79.860653 
L 663.699758 85.854528 
L 671.73973 95.225694 
L 682.459693 107.739756 
L 687.819674 113.725362 
L 693.179655 119.378954 
L 698.539637 124.600223 
L 703.899618 129.30113 
L 706.579609 131.432611 
L 709.2596 133.407184 
L 711.93959 135.217819 
L 714.619581 136.858438 
L 717.299572 138.323934 
L 719.979562 139.610181 
L 722.659553 140.714036 
L 725.339544 141.63334 
L 728.019534 142.366916 
L 730.699525 142.914558 
L 733.379516 143.277018 
L 736.059506 143.455984 
L 738.739497 143.454064 
L 741.419488 143.274753 
L 744.099478 142.922406 
L 746.779469 142.402199 
L 749.45946 141.720095 
L 752.13945 140.882799 
L 754.819441 139.897713 
L 757.499432 138.772892 
L 762.859413 136.13919 
L 768.219394 133.05712 
L 773.579376 129.609033 
L 778.939357 125.882317 
L 786.979329 119.968109 
L 800.379283 110.004397 
L 805.739264 106.236024 
L 811.099245 102.711554 
L 816.459227 99.501139 
L 821.819208 96.666123 
L 821.819208 96.666123 
" clip-path="url(#p7634002461)" style="fill: none; stroke: #880000; stroke-width: 0.5; stroke-linecap: square"/>
   </g>
   <g id="line2d_59">
    <path d="M 546.945372 264.52 
L 548.460159 258.162755 
L 551.140149 247.883686 
L 553.82014 238.406203 
L 556.500131 229.595409 
L 559.180121 221.341826 
L 561.860112 213.556466 
L 564.540103 206.166968 
L 569.900084 192.35173 
L 575.260066 179.549173 
L 580.620047 167.538035 
L 585.980028 156.184935 
L 591.34001 145.418614 
L 596.699991 135.211807 
L 602.059972 125.568074 
L 607.419954 116.511944 
L 612.779935 108.081346 
L 618.139916 100.321645 
L 623.499898 93.280876 
L 626.179888 90.044866 
L 628.859879 87.005885 
L 631.53987 84.169088 
L 634.219861 81.539201 
L 636.899851 79.120453 
L 639.579842 76.916515 
L 642.259833 74.930454 
L 644.939823 73.164683 
L 647.619814 71.62093 
L 650.299805 70.300199 
L 652.979795 69.202755 
L 655.659786 68.328098 
L 658.339777 67.674952 
L 661.019767 67.241258 
L 663.699758 67.024173 
L 666.379749 67.020071 
L 669.059739 67.224553 
L 671.73973 67.632461 
L 674.419721 68.237893 
L 677.099711 69.034227 
L 679.779702 70.014149 
L 682.459693 71.169681 
L 685.139683 72.492215 
L 687.819674 73.972553 
L 690.499665 75.600945 
L 695.859646 79.260409 
L 701.219627 83.383331 
L 706.579609 87.876687 
L 711.93959 92.643404 
L 722.659553 102.599165 
L 730.699525 110.046529 
L 736.059506 114.824155 
L 741.419488 119.349236 
L 746.779469 123.541666 
L 752.13945 127.329913 
L 757.499432 130.652213 
L 760.179422 132.122245 
L 762.859413 133.457541 
L 765.539404 134.653527 
L 768.219394 135.70638 
L 770.899385 136.613045 
L 773.579376 137.371236 
L 776.259366 137.97944 
L 778.939357 138.436917 
L 781.619348 138.743699 
L 784.299339 138.900571 
L 786.979329 138.909072 
L 789.65932 138.771468 
L 792.339311 138.490739 
L 795.019301 138.070553 
L 797.699292 137.515242 
L 800.379283 136.829774 
L 803.059273 136.019714 
L 808.419255 134.050894 
L 813.779236 131.663975 
L 819.139217 128.921305 
L 821.819208 127.437654 
L 821.819208 127.437654 
" clip-path="url(#p7634002461)" style="fill: none; stroke: #440088; stroke-width: 0.5; stroke-linecap: square"/>
   </g>
   <g id="line2d_60">
    <path d="M 567.605491 264.52 
L 569.900084 255.882423 
L 572.580075 246.765051 
L 575.260066 238.465368 
L 577.940056 230.8555 
L 580.620047 223.828378 
L 583.300038 217.294098 
L 585.980028 211.176999 
L 588.660019 205.413318 
L 591.34001 199.949282 
L 596.699991 189.746001 
L 602.059972 180.284481 
L 607.419954 171.367305 
L 612.779935 162.860598 
L 618.139916 154.678563 
L 626.179888 142.914959 
L 631.53987 135.390146 
L 636.899851 128.128102 
L 642.259833 121.152765 
L 647.619814 114.498317 
L 652.979795 108.205838 
L 658.339777 102.320411 
L 663.699758 96.888588 
L 669.059739 91.956161 
L 674.419721 87.566203 
L 677.099711 85.58694 
L 679.779702 83.757356 
L 682.459693 82.08135 
L 685.139683 80.562371 
L 687.819674 79.20339 
L 690.499665 78.006868 
L 693.179655 76.97473 
L 695.859646 76.108345 
L 698.539637 75.408507 
L 701.219627 74.875421 
L 703.899618 74.508689 
L 706.579609 74.307309 
L 709.2596 74.269666 
L 711.93959 74.393534 
L 714.619581 74.676081 
L 717.299572 75.113875 
L 719.979562 75.702892 
L 722.659553 76.438536 
L 725.339544 77.315648 
L 728.019534 78.328533 
L 730.699525 79.470978 
L 736.059506 82.11728 
L 741.419488 85.195582 
L 746.779469 88.640563 
L 752.13945 92.381711 
L 760.179422 98.385169 
L 781.619348 114.845427 
L 786.979329 118.652801 
L 792.339311 122.197962 
L 797.699292 125.420882 
L 803.059273 128.268766 
L 808.419255 130.696947 
L 813.779236 132.669636 
L 816.459227 133.476554 
L 819.139217 134.160475 
L 821.819208 134.71964 
L 821.819208 134.71964 
" clip-path="url(#p7634002461)" style="fill: none; stroke: #000088; stroke-width: 0.5; stroke-linecap: square"/>
   </g>
   <g id="patch_9">
    <path d="M 464.778817 236.922095 
L 464.778817 10.7 
" style="fill: none; stroke: #000000; stroke-width: 0.8; stroke-linejoin: miter; stroke-linecap: square"/>
   </g>
   <g id="patch_10">
    <path d="M 828.82 236.922095 
L 828.82 10.7 
" style="fill: none; stroke: #000000; stroke-width: 0.8; stroke-linejoin: miter; stroke-linecap: square"/>
   </g>
   <g id="patch_11">
    <path d="M 464.778817 236.922095 
L 828.82 236.922095 
" style="fill: none; stroke: #000000; stroke-width: 0.8; stroke-linejoin: miter; stroke-linecap: square"/>
   </g>
   <g id="patch_12">
    <path d="M 464.778817 10.7 
L 828.82 10.7 
" style="fill: none; stroke: #000000; stroke-width: 0.8; stroke-linejoin: miter; stroke-linecap: square"/>
   </g>
   <g id="legend_2">
    <g id="patch_13">
     <path d="M 743.912838 227.922095 
L 816.22 227.922095 
Q 819.82 227.922095 819.82 224.322095 
L 819.82 125.769838 
Q 819.82 122.169838 816.22 122.169838 
L 743.912838 122.169838 
Q 740.312838 122.169838 740.312838 125.769838 
L 740.312838 224.322095 
Q 740.312838 227.922095 743.912838 227.922095 
z
" style="fill: #ffffff; opacity: 0.8; stroke: #cccccc; stroke-linejoin: miter"/>
    </g>
    <g id="line2d_61">
     <path d="M 747.512838 135.669838 
L 765.512838 135.669838 
L 783.512838 135.669838 
" style="fill: none; stroke: #000000; stroke-width: 0.5; stroke-linecap: square"/>
    </g>
    <g id="text_29">
     <!-- $y_0$ -->
     <g transform="translate(797.912838 141.969838) scale(0.18 -0.18)">
      <defs>
       <path id="CMMI12-79" d="M 1683 -700 
C 1510 -939 1261 -1152 947 -1152 
C 870 -1152 563 -1152 467 -889 
C 486 -895 518 -895 531 -895 
C 723 -895 851 -729 851 -582 
C 851 -435 730 -384 634 -384 
C 531 -384 307 -458 307 -759 
C 307 -1071 582 -1286 947 -1286 
C 1587 -1286 2234 -700 2413 6 
L 3040 2485 
C 3046 2517 3059 2556 3059 2594 
C 3059 2689 2982 2753 2886 2753 
C 2829 2753 2694 2727 2643 2535 
L 2170 658 
C 2138 543 2138 530 2086 460 
C 1958 281 1747 64 1440 64 
C 1082 64 1050 415 1050 588 
C 1050 952 1222 1443 1395 1903 
C 1466 2088 1504 2178 1504 2305 
C 1504 2574 1312 2816 998 2816 
C 410 2816 173 1890 173 1839 
C 173 1814 198 1782 243 1782 
C 301 1782 307 1807 333 1897 
C 486 2433 730 2689 979 2689 
C 1037 2689 1146 2689 1146 2478 
C 1146 2312 1075 2127 979 1884 
C 666 1047 666 837 666 683 
C 666 77 1101 -64 1421 -64 
C 1606 -64 1837 -6 2061 230 
L 2067 224 
C 1971 -147 1907 -392 1683 -700 
z
" transform="scale(0.015625)"/>
      </defs>
      <use xlink:href="#CMMI12-79" transform="scale(0.996264)"/>
      <use xlink:href="#CMR17-30" transform="translate(47.564188 -14.943915) scale(0.697382)"/>
     </g>
    </g>
    <g id="line2d_62">
     <path d="M 747.512838 160.757903 
L 765.512838 160.757903 
L 783.512838 160.757903 
" style="fill: none; stroke: #880000; stroke-width: 0.5; stroke-linecap: square"/>
    </g>
    <g id="text_30">
     <!-- $y_1$ -->
     <g transform="translate(797.912838 167.057903) scale(0.18 -0.18)">
      <use xlink:href="#CMMI12-79" transform="scale(0.996264)"/>
      <use xlink:href="#CMR17-31" transform="translate(47.564188 -14.943915) scale(0.697382)"/>
     </g>
    </g>
    <g id="line2d_63">
     <path d="M 747.512838 185.845967 
L 765.512838 185.845967 
L 783.512838 185.845967 
" style="fill: none; stroke: #440088; stroke-width: 0.5; stroke-linecap: square"/>
    </g>
    <g id="text_31">
     <!-- $y_2$ -->
     <g transform="translate(797.912838 192.145967) scale(0.18 -0.18)">
      <use xlink:href="#CMMI12-79" transform="scale(0.996264)"/>
      <use xlink:href="#CMR17-32" transform="translate(47.564188 -14.943915) scale(0.697382)"/>
     </g>
    </g>
    <g id="line2d_64">
     <path d="M 747.512838 210.934031 
L 765.512838 210.934031 
L 783.512838 210.934031 
" style="fill: none; stroke: #000088; stroke-width: 0.5; stroke-linecap: square"/>
    </g>
    <g id="text_32">
     <!-- $y_3$ -->
     <g transform="translate(797.912838 217.234031) scale(0.18 -0.18)">
      <use xlink:href="#CMMI12-79" transform="scale(0.996264)"/>
      <use xlink:href="#CMR17-33" transform="translate(47.564188 -14.943915) scale(0.697382)"/>
     </g>
    </g>
   </g>
  </g>
 </g>
 <defs>
  <clipPath id="p93f5dc37d2">
   <rect x="42.498817" y="10.7" width="364.041183" height="226.222095"/>
  </clipPath>
  <clipPath id="p7634002461">
   <rect x="464.778817" y="10.7" width="364.041183" height="226.222095"/>
  </clipPath>
 </defs>
</svg>
