<?xml version="1.0" encoding="utf-8" standalone="no"?>
<!DOCTYPE svg PUBLIC "-//W3C//DTD SVG 1.1//EN"
  "http://www.w3.org/Graphics/SVG/1.1/DTD/svg11.dtd">
<svg xmlns:xlink="http://www.w3.org/1999/xlink" width="495.579071pt" height="383.507493pt" viewBox="0 0 495.579071 383.507493" xmlns="http://www.w3.org/2000/svg" version="1.1">
 <metadata>
  <rdf:RDF xmlns:dc="http://purl.org/dc/elements/1.1/" xmlns:cc="http://creativecommons.org/ns#" xmlns:rdf="http://www.w3.org/1999/02/22-rdf-syntax-ns#">
   <cc:Work>
    <dc:type rdf:resource="http://purl.org/dc/dcmitype/StillImage"/>
    <dc:date>2024-02-22T09:57:40.142061</dc:date>
    <dc:format>image/svg+xml</dc:format>
    <dc:creator>
     <cc:Agent>
      <dc:title>Matplotlib v3.8.2, https://matplotlib.org/</dc:title>
     </cc:Agent>
    </dc:creator>
   </cc:Work>
  </rdf:RDF>
 </metadata>
 <defs>
  <style type="text/css">*{stroke-linejoin: round; stroke-linecap: butt}</style>
 </defs>
 <g id="figure_1">
  <g id="patch_1">
   <path d="M 0 383.507493 
L 495.579071 383.507493 
L 495.579071 0 
L 0 0 
z
" style="fill: #ffffff"/>
  </g>
  <g id="axes_1">
   <g id="patch_2">
    <path d="M 38.479071 175.469588 
L 169.773188 175.469588 
L 169.773188 24.269588 
L 38.479071 24.269588 
z
" style="fill: #ffffff"/>
   </g>
   <g id="matplotlib.axis_1">
    <g id="xtick_1">
     <g id="line2d_1">
      <defs>
       <path id="m261f30a765" d="M 0 0 
L 0 3.5 
" style="stroke: #000000; stroke-width: 0.8"/>
      </defs>
      <g>
       <use xlink:href="#m261f30a765" x="44.446985" y="175.469588" style="stroke: #000000; stroke-width: 0.8"/>
      </g>
     </g>
     <g id="line2d_2">
      <defs>
       <path id="m95c7abfd5d" d="M 0 0 
L 0 -3.5 
" style="stroke: #000000; stroke-width: 0.8"/>
      </defs>
      <g>
       <use xlink:href="#m95c7abfd5d" x="44.446985" y="24.269588" style="stroke: #000000; stroke-width: 0.8"/>
      </g>
     </g>
    </g>
    <g id="xtick_2">
     <g id="line2d_3">
      <g>
       <use xlink:href="#m261f30a765" x="68.318643" y="175.469588" style="stroke: #000000; stroke-width: 0.8"/>
      </g>
     </g>
     <g id="line2d_4">
      <g>
       <use xlink:href="#m95c7abfd5d" x="68.318643" y="24.269588" style="stroke: #000000; stroke-width: 0.8"/>
      </g>
     </g>
    </g>
    <g id="xtick_3">
     <g id="line2d_5">
      <g>
       <use xlink:href="#m261f30a765" x="92.190301" y="175.469588" style="stroke: #000000; stroke-width: 0.8"/>
      </g>
     </g>
     <g id="line2d_6">
      <g>
       <use xlink:href="#m95c7abfd5d" x="92.190301" y="24.269588" style="stroke: #000000; stroke-width: 0.8"/>
      </g>
     </g>
    </g>
    <g id="xtick_4">
     <g id="line2d_7">
      <g>
       <use xlink:href="#m261f30a765" x="116.061958" y="175.469588" style="stroke: #000000; stroke-width: 0.8"/>
      </g>
     </g>
     <g id="line2d_8">
      <g>
       <use xlink:href="#m95c7abfd5d" x="116.061958" y="24.269588" style="stroke: #000000; stroke-width: 0.8"/>
      </g>
     </g>
    </g>
    <g id="xtick_5">
     <g id="line2d_9">
      <g>
       <use xlink:href="#m261f30a765" x="139.933616" y="175.469588" style="stroke: #000000; stroke-width: 0.8"/>
      </g>
     </g>
     <g id="line2d_10">
      <g>
       <use xlink:href="#m95c7abfd5d" x="139.933616" y="24.269588" style="stroke: #000000; stroke-width: 0.8"/>
      </g>
     </g>
    </g>
    <g id="xtick_6">
     <g id="line2d_11">
      <g>
       <use xlink:href="#m261f30a765" x="163.805274" y="175.469588" style="stroke: #000000; stroke-width: 0.8"/>
      </g>
     </g>
     <g id="line2d_12">
      <g>
       <use xlink:href="#m95c7abfd5d" x="163.805274" y="24.269588" style="stroke: #000000; stroke-width: 0.8"/>
      </g>
     </g>
    </g>
   </g>
   <g id="matplotlib.axis_2">
    <g id="ytick_1">
     <g id="line2d_13">
      <defs>
       <path id="md2d034b686" d="M 0 0 
L -3.5 0 
" style="stroke: #000000; stroke-width: 0.8"/>
      </defs>
      <g>
       <use xlink:href="#md2d034b686" x="38.479071" y="168.596861" style="stroke: #000000; stroke-width: 0.8"/>
      </g>
     </g>
     <g id="line2d_14">
      <defs>
       <path id="m7f4aac254b" d="M 0 0 
L 3.5 0 
" style="stroke: #000000; stroke-width: 0.8"/>
      </defs>
      <g>
       <use xlink:href="#m7f4aac254b" x="169.773188" y="168.596861" style="stroke: #000000; stroke-width: 0.8"/>
      </g>
     </g>
     <g id="text_1">
      <!-- $\mathdefault{0.00}$ -->
      <g transform="translate(7.2 173.439799) scale(0.14 -0.14)">
       <defs>
        <path id="CMR17-30" d="M 2688 2025 
C 2688 2416 2682 3080 2413 3591 
C 2176 4039 1798 4198 1466 4198 
C 1158 4198 768 4058 525 3597 
C 269 3118 243 2524 243 2025 
C 243 1661 250 1106 448 619 
C 723 -39 1216 -128 1466 -128 
C 1760 -128 2208 -7 2470 600 
C 2662 1042 2688 1559 2688 2025 
z
M 1466 -26 
C 1056 -26 813 325 723 812 
C 653 1188 653 1738 653 2096 
C 653 2588 653 2997 736 3387 
C 858 3929 1216 4096 1466 4096 
C 1728 4096 2067 3923 2189 3400 
C 2272 3036 2278 2607 2278 2096 
C 2278 1680 2278 1169 2202 792 
C 2067 95 1690 -26 1466 -26 
z
" transform="scale(0.015625)"/>
        <path id="CMMI12-3a" d="M 1178 307 
C 1178 492 1024 619 870 619 
C 685 619 557 466 557 313 
C 557 128 710 0 864 0 
C 1050 0 1178 153 1178 307 
z
" transform="scale(0.015625)"/>
       </defs>
       <use xlink:href="#CMR17-30" transform="scale(0.996264)"/>
       <use xlink:href="#CMMI12-3a" transform="translate(45.690477 0) scale(0.996264)"/>
       <use xlink:href="#CMR17-30" transform="translate(72.787654 0) scale(0.996264)"/>
       <use xlink:href="#CMR17-30" transform="translate(118.478131 0) scale(0.996264)"/>
      </g>
     </g>
    </g>
    <g id="ytick_2">
     <g id="line2d_15">
      <g>
       <use xlink:href="#md2d034b686" x="38.479071" y="134.233225" style="stroke: #000000; stroke-width: 0.8"/>
      </g>
     </g>
     <g id="line2d_16">
      <g>
       <use xlink:href="#m7f4aac254b" x="169.773188" y="134.233225" style="stroke: #000000; stroke-width: 0.8"/>
      </g>
     </g>
     <g id="text_2">
      <!-- $\mathdefault{0.25}$ -->
      <g transform="translate(7.2 139.076163) scale(0.14 -0.14)">
       <defs>
        <path id="CMR17-32" d="M 2669 989 
L 2554 989 
C 2490 536 2438 459 2413 420 
C 2381 369 1920 369 1830 369 
L 602 369 
C 832 619 1280 1072 1824 1597 
C 2214 1967 2669 2402 2669 3035 
C 2669 3790 2067 4224 1395 4224 
C 691 4224 262 3604 262 3030 
C 262 2780 448 2748 525 2748 
C 589 2748 781 2787 781 3010 
C 781 3207 614 3264 525 3264 
C 486 3264 448 3258 422 3245 
C 544 3790 915 4058 1306 4058 
C 1862 4058 2227 3617 2227 3035 
C 2227 2479 1901 2000 1536 1584 
L 262 146 
L 262 0 
L 2515 0 
L 2669 989 
z
" transform="scale(0.015625)"/>
        <path id="CMR17-35" d="M 730 3692 
C 794 3666 1056 3584 1325 3584 
C 1920 3584 2246 3911 2432 4100 
C 2432 4157 2432 4192 2394 4192 
C 2387 4192 2374 4192 2323 4163 
C 2099 4058 1837 3973 1517 3973 
C 1325 3973 1037 3999 723 4139 
C 653 4171 640 4171 634 4171 
C 602 4171 595 4164 595 4037 
L 595 2203 
C 595 2089 595 2057 659 2057 
C 691 2057 704 2070 736 2114 
C 941 2401 1222 2522 1542 2522 
C 1766 2522 2246 2382 2246 1289 
C 2246 1085 2246 715 2054 421 
C 1894 159 1645 25 1370 25 
C 947 25 518 320 403 814 
C 429 807 480 795 506 795 
C 589 795 749 840 749 1038 
C 749 1210 627 1280 506 1280 
C 358 1280 262 1190 262 1011 
C 262 454 704 -128 1382 -128 
C 2042 -128 2669 440 2669 1264 
C 2669 2030 2170 2624 1549 2624 
C 1222 2624 947 2503 730 2274 
L 730 3692 
z
" transform="scale(0.015625)"/>
       </defs>
       <use xlink:href="#CMR17-30" transform="scale(0.996264)"/>
       <use xlink:href="#CMMI12-3a" transform="translate(45.690477 0) scale(0.996264)"/>
       <use xlink:href="#CMR17-32" transform="translate(72.787654 0) scale(0.996264)"/>
       <use xlink:href="#CMR17-35" transform="translate(118.478131 0) scale(0.996264)"/>
      </g>
     </g>
    </g>
    <g id="ytick_3">
     <g id="line2d_17">
      <g>
       <use xlink:href="#md2d034b686" x="38.479071" y="99.869588" style="stroke: #000000; stroke-width: 0.8"/>
      </g>
     </g>
     <g id="line2d_18">
      <g>
       <use xlink:href="#m7f4aac254b" x="169.773188" y="99.869588" style="stroke: #000000; stroke-width: 0.8"/>
      </g>
     </g>
     <g id="text_3">
      <!-- $\mathdefault{0.50}$ -->
      <g transform="translate(7.2 104.712527) scale(0.14 -0.14)">
       <use xlink:href="#CMR17-30" transform="scale(0.996264)"/>
       <use xlink:href="#CMMI12-3a" transform="translate(45.690477 0) scale(0.996264)"/>
       <use xlink:href="#CMR17-35" transform="translate(72.787654 0) scale(0.996264)"/>
       <use xlink:href="#CMR17-30" transform="translate(118.478131 0) scale(0.996264)"/>
      </g>
     </g>
    </g>
    <g id="ytick_4">
     <g id="line2d_19">
      <g>
       <use xlink:href="#md2d034b686" x="38.479071" y="65.505952" style="stroke: #000000; stroke-width: 0.8"/>
      </g>
     </g>
     <g id="line2d_20">
      <g>
       <use xlink:href="#m7f4aac254b" x="169.773188" y="65.505952" style="stroke: #000000; stroke-width: 0.8"/>
      </g>
     </g>
     <g id="text_4">
      <!-- $\mathdefault{0.75}$ -->
      <g transform="translate(7.2 70.34889) scale(0.14 -0.14)">
       <defs>
        <path id="CMR17-37" d="M 2886 3941 
L 2886 4081 
L 1382 4081 
C 634 4081 621 4165 595 4288 
L 480 4288 
L 294 3094 
L 410 3094 
C 429 3215 474 3540 550 3661 
C 589 3712 1062 3712 1171 3712 
L 2579 3712 
L 1869 2661 
C 1395 1954 1069 999 1069 165 
C 1069 89 1069 -128 1299 -128 
C 1530 -128 1530 89 1530 171 
L 1530 465 
C 1530 1508 1709 2196 2003 2636 
L 2886 3941 
z
" transform="scale(0.015625)"/>
       </defs>
       <use xlink:href="#CMR17-30" transform="scale(0.996264)"/>
       <use xlink:href="#CMMI12-3a" transform="translate(45.690477 0) scale(0.996264)"/>
       <use xlink:href="#CMR17-37" transform="translate(72.787654 0) scale(0.996264)"/>
       <use xlink:href="#CMR17-35" transform="translate(118.478131 0) scale(0.996264)"/>
      </g>
     </g>
    </g>
    <g id="ytick_5">
     <g id="line2d_21">
      <g>
       <use xlink:href="#md2d034b686" x="38.479071" y="31.142316" style="stroke: #000000; stroke-width: 0.8"/>
      </g>
     </g>
     <g id="line2d_22">
      <g>
       <use xlink:href="#m7f4aac254b" x="169.773188" y="31.142316" style="stroke: #000000; stroke-width: 0.8"/>
      </g>
     </g>
     <g id="text_5">
      <!-- $\mathdefault{1.00}$ -->
      <g transform="translate(7.2 35.985254) scale(0.14 -0.14)">
       <defs>
        <path id="CMR17-31" d="M 1702 4058 
C 1702 4192 1696 4192 1606 4192 
C 1357 3916 979 3827 621 3827 
C 602 3827 570 3827 563 3808 
C 557 3795 557 3782 557 3648 
C 755 3648 1088 3686 1344 3839 
L 1344 461 
C 1344 236 1331 160 781 160 
L 589 160 
L 589 0 
C 896 0 1216 0 1523 0 
C 1830 0 2150 0 2458 0 
L 2458 160 
L 2266 160 
C 1715 160 1702 230 1702 458 
L 1702 4058 
z
" transform="scale(0.015625)"/>
       </defs>
       <use xlink:href="#CMR17-31" transform="scale(0.996264)"/>
       <use xlink:href="#CMMI12-3a" transform="translate(45.690477 0) scale(0.996264)"/>
       <use xlink:href="#CMR17-30" transform="translate(72.787654 0) scale(0.996264)"/>
       <use xlink:href="#CMR17-30" transform="translate(118.478131 0) scale(0.996264)"/>
      </g>
     </g>
    </g>
   </g>
   <g id="line2d_23">
    <path d="M 44.446985 168.596861 
L 45.594661 152.761552 
L 46.742337 121.127948 
L 47.890013 88.555484 
L 49.037689 61.958178 
L 50.185364 43.727024 
L 51.33304 33.842515 
L 52.480716 31.142316 
L 53.628392 34.052424 
L 54.776068 40.984267 
L 55.923744 50.529118 
L 57.07142 61.533868 
L 58.219095 73.110961 
L 59.366771 84.614863 
L 60.514447 95.604348 
L 61.662123 105.801508 
L 62.809799 115.053244 
L 63.957475 123.297891 
L 65.10515 130.537785 
L 66.252826 136.817645 
L 67.400502 142.208118 
L 68.548178 146.79367 
L 69.695854 150.664 
L 70.84353 153.908186 
L 71.991206 156.610919 
L 73.138881 158.850276 
L 74.286557 160.696592 
L 75.434233 162.212088 
L 76.581909 163.451015 
L 77.729585 164.46011 
L 78.877261 165.279225 
L 80.024937 165.942058 
L 81.172612 166.476882 
L 82.320288 166.907267 
L 83.467964 167.25275 
L 84.61564 167.529439 
L 85.763316 167.750555 
L 86.910992 167.926901 
L 88.058668 168.067276 
L 89.206343 168.178819 
L 90.354019 168.267302 
L 91.501695 168.337381 
L 92.649371 168.392801 
L 93.797047 168.436566 
L 94.944723 168.471081 
L 96.092399 168.498267 
L 97.240074 168.519652 
L 98.38775 168.536457 
L 99.535426 168.549646 
L 100.683102 168.559988 
L 101.830778 168.568088 
L 102.978454 168.574427 
L 104.126129 168.579383 
L 105.273805 168.583254 
L 106.421481 168.586275 
L 107.569157 168.588631 
L 108.716833 168.590467 
L 109.864509 168.591897 
L 111.012185 168.593009 
L 112.15986 168.593874 
L 113.307536 168.594546 
L 114.455212 168.595068 
L 115.602888 168.595473 
L 116.750564 168.595787 
L 117.89824 168.59603 
L 119.045916 168.596219 
L 120.193591 168.596365 
L 121.341267 168.596478 
L 122.488943 168.596565 
L 123.636619 168.596633 
L 124.784295 168.596685 
L 125.931971 168.596725 
L 127.079647 168.596756 
L 128.227322 168.59678 
L 129.374998 168.596799 
L 130.522674 168.596813 
L 131.67035 168.596824 
L 132.818026 168.596833 
L 133.965702 168.596839 
L 135.113378 168.596844 
L 136.261053 168.596848 
L 137.408729 168.596851 
L 138.556405 168.596853 
L 139.704081 168.596855 
L 140.851757 168.596857 
L 141.999433 168.596858 
L 143.147109 168.596858 
L 144.294784 168.596859 
L 145.44246 168.596859 
L 146.590136 168.59686 
L 147.737812 168.59686 
L 148.885488 168.59686 
L 150.033164 168.59686 
L 151.180839 168.596861 
L 152.328515 168.596861 
L 153.476191 168.596861 
L 154.623867 168.596861 
L 155.771543 168.596861 
L 156.919219 168.596861 
L 158.066895 168.596861 
L 159.21457 168.596861 
L 160.362246 168.596861 
L 161.509922 168.596861 
L 162.657598 168.596861 
L 163.805274 168.596861 
" clip-path="url(#p95200920c5)" style="fill: none; stroke: #000000; stroke-width: 0.5; stroke-linecap: square"/>
   </g>
   <g id="patch_3">
    <path d="M 38.479071 175.469588 
L 38.479071 24.269588 
" style="fill: none; stroke: #000000; stroke-width: 0.8; stroke-linejoin: miter; stroke-linecap: square"/>
   </g>
   <g id="patch_4">
    <path d="M 169.773188 175.469588 
L 169.773188 24.269588 
" style="fill: none; stroke: #000000; stroke-width: 0.8; stroke-linejoin: miter; stroke-linecap: square"/>
   </g>
   <g id="patch_5">
    <path d="M 38.479071 175.469588 
L 169.773188 175.469588 
" style="fill: none; stroke: #000000; stroke-width: 0.8; stroke-linejoin: miter; stroke-linecap: square"/>
   </g>
   <g id="patch_6">
    <path d="M 38.479071 24.269588 
L 169.773188 24.269588 
" style="fill: none; stroke: #000000; stroke-width: 0.8; stroke-linejoin: miter; stroke-linecap: square"/>
   </g>
   <g id="text_6">
    <!-- $n, l = {1,0}$ -->
    <g transform="translate(71.674033 18.269588) scale(0.16 -0.16)">
     <defs>
      <path id="CMMI12-6e" d="M 1318 1871 
C 1331 1910 1491 2229 1728 2433 
C 1894 2586 2112 2689 2362 2689 
C 2618 2689 2707 2497 2707 2242 
C 2707 1878 2445 1150 2317 805 
C 2259 651 2227 568 2227 453 
C 2227 166 2426 -64 2733 -64 
C 3328 -64 3552 875 3552 913 
C 3552 945 3526 971 3488 971 
C 3430 971 3424 952 3392 843 
C 3245 319 3002 64 2752 64 
C 2688 64 2586 64 2586 269 
C 2586 429 2656 621 2694 710 
C 2822 1063 3091 1780 3091 2145 
C 3091 2528 2867 2816 2381 2816 
C 1811 2816 1510 2415 1395 2255 
C 1376 2618 1114 2816 832 2816 
C 627 2816 486 2695 378 2478 
C 262 2248 173 1865 173 1839 
C 173 1814 198 1782 243 1782 
C 294 1782 301 1788 339 1935 
C 442 2325 557 2689 813 2689 
C 960 2689 1011 2586 1011 2395 
C 1011 2254 947 2005 902 1807 
L 723 1118 
C 698 996 627 709 595 594 
C 550 428 480 128 480 96 
C 480 6 550 -64 646 -64 
C 723 -64 813 -26 864 70 
C 877 102 934 326 966 453 
L 1107 1028 
L 1318 1871 
z
" transform="scale(0.015625)"/>
      <path id="CMMI12-3b" d="M 1248 -31 
C 1248 343 1126 619 864 619 
C 659 619 557 453 557 313 
C 557 172 653 0 870 0 
C 954 0 1024 26 1082 83 
C 1094 96 1101 96 1107 96 
C 1120 96 1120 5 1120 -27 
C 1120 -240 1082 -659 710 -1080 
C 640 -1157 640 -1170 640 -1183 
C 640 -1216 672 -1248 704 -1248 
C 755 -1248 1248 -771 1248 -31 
z
" transform="scale(0.015625)"/>
      <path id="CMMI12-6c" d="M 1626 4257 
C 1632 4282 1645 4320 1645 4352 
C 1645 4416 1581 4416 1568 4416 
C 1562 4416 1331 4393 1216 4377 
C 1107 4377 1011 4358 896 4358 
C 742 4345 698 4339 698 4224 
C 698 4160 762 4160 826 4160 
C 1152 4160 1152 4102 1152 4039 
C 1152 4014 1152 4001 1120 3887 
L 326 731 
C 307 661 294 610 294 509 
C 294 191 531 -64 858 -64 
C 1069 -64 1210 76 1312 274 
C 1421 483 1510 884 1510 909 
C 1510 941 1485 967 1446 967 
C 1389 967 1382 935 1357 840 
C 1242 401 1126 64 870 64 
C 678 64 678 267 678 357 
C 678 382 678 515 723 694 
L 1626 4257 
z
" transform="scale(0.015625)"/>
      <path id="CMR17-3d" d="M 4115 2017 
C 4211 2017 4307 2017 4307 2125 
C 4307 2240 4198 2240 4090 2240 
L 512 2240 
C 403 2240 294 2240 294 2125 
C 294 2017 390 2017 486 2017 
L 4115 2017 
z
M 4090 896 
C 4198 896 4307 896 4307 1011 
C 4307 1119 4211 1119 4115 1119 
L 486 1119 
C 390 1119 294 1119 294 1011 
C 294 896 403 896 512 896 
L 4090 896 
z
" transform="scale(0.015625)"/>
     </defs>
     <use xlink:href="#CMMI12-6e" transform="scale(0.996264)"/>
     <use xlink:href="#CMMI12-3b" transform="translate(58.230047 0) scale(0.996264)"/>
     <use xlink:href="#CMMI12-6c" transform="translate(101.93163 0) scale(0.996264)"/>
     <use xlink:href="#CMR17-3d" transform="translate(160.854042 0) scale(0.996264)"/>
     <use xlink:href="#CMR17-31" transform="translate(260.242839 0) scale(0.996264)"/>
     <use xlink:href="#CMMI12-3b" transform="translate(305.933316 0) scale(0.996264)"/>
     <use xlink:href="#CMR17-30" transform="translate(349.634899 0) scale(0.996264)"/>
    </g>
   </g>
  </g>
  <g id="axes_2">
   <g id="patch_7">
    <path d="M 196.032012 175.469588 
L 327.326129 175.469588 
L 327.326129 24.269588 
L 196.032012 24.269588 
z
" style="fill: #ffffff"/>
   </g>
   <g id="matplotlib.axis_3">
    <g id="xtick_7">
     <g id="line2d_24">
      <g>
       <use xlink:href="#m261f30a765" x="201.999926" y="175.469588" style="stroke: #000000; stroke-width: 0.8"/>
      </g>
     </g>
     <g id="line2d_25">
      <g>
       <use xlink:href="#m95c7abfd5d" x="201.999926" y="24.269588" style="stroke: #000000; stroke-width: 0.8"/>
      </g>
     </g>
    </g>
    <g id="xtick_8">
     <g id="line2d_26">
      <g>
       <use xlink:href="#m261f30a765" x="225.871584" y="175.469588" style="stroke: #000000; stroke-width: 0.8"/>
      </g>
     </g>
     <g id="line2d_27">
      <g>
       <use xlink:href="#m95c7abfd5d" x="225.871584" y="24.269588" style="stroke: #000000; stroke-width: 0.8"/>
      </g>
     </g>
    </g>
    <g id="xtick_9">
     <g id="line2d_28">
      <g>
       <use xlink:href="#m261f30a765" x="249.743242" y="175.469588" style="stroke: #000000; stroke-width: 0.8"/>
      </g>
     </g>
     <g id="line2d_29">
      <g>
       <use xlink:href="#m95c7abfd5d" x="249.743242" y="24.269588" style="stroke: #000000; stroke-width: 0.8"/>
      </g>
     </g>
    </g>
    <g id="xtick_10">
     <g id="line2d_30">
      <g>
       <use xlink:href="#m261f30a765" x="273.6149" y="175.469588" style="stroke: #000000; stroke-width: 0.8"/>
      </g>
     </g>
     <g id="line2d_31">
      <g>
       <use xlink:href="#m95c7abfd5d" x="273.6149" y="24.269588" style="stroke: #000000; stroke-width: 0.8"/>
      </g>
     </g>
    </g>
    <g id="xtick_11">
     <g id="line2d_32">
      <g>
       <use xlink:href="#m261f30a765" x="297.486557" y="175.469588" style="stroke: #000000; stroke-width: 0.8"/>
      </g>
     </g>
     <g id="line2d_33">
      <g>
       <use xlink:href="#m95c7abfd5d" x="297.486557" y="24.269588" style="stroke: #000000; stroke-width: 0.8"/>
      </g>
     </g>
    </g>
    <g id="xtick_12">
     <g id="line2d_34">
      <g>
       <use xlink:href="#m261f30a765" x="321.358215" y="175.469588" style="stroke: #000000; stroke-width: 0.8"/>
      </g>
     </g>
     <g id="line2d_35">
      <g>
       <use xlink:href="#m95c7abfd5d" x="321.358215" y="24.269588" style="stroke: #000000; stroke-width: 0.8"/>
      </g>
     </g>
    </g>
   </g>
   <g id="matplotlib.axis_4">
    <g id="ytick_6">
     <g id="line2d_36">
      <g>
       <use xlink:href="#md2d034b686" x="196.032012" y="168.596861" style="stroke: #000000; stroke-width: 0.8"/>
      </g>
     </g>
     <g id="line2d_37">
      <g>
       <use xlink:href="#m7f4aac254b" x="327.326129" y="168.596861" style="stroke: #000000; stroke-width: 0.8"/>
      </g>
     </g>
    </g>
    <g id="ytick_7">
     <g id="line2d_38">
      <g>
       <use xlink:href="#md2d034b686" x="196.032012" y="134.233225" style="stroke: #000000; stroke-width: 0.8"/>
      </g>
     </g>
     <g id="line2d_39">
      <g>
       <use xlink:href="#m7f4aac254b" x="327.326129" y="134.233225" style="stroke: #000000; stroke-width: 0.8"/>
      </g>
     </g>
    </g>
    <g id="ytick_8">
     <g id="line2d_40">
      <g>
       <use xlink:href="#md2d034b686" x="196.032012" y="99.869588" style="stroke: #000000; stroke-width: 0.8"/>
      </g>
     </g>
     <g id="line2d_41">
      <g>
       <use xlink:href="#m7f4aac254b" x="327.326129" y="99.869588" style="stroke: #000000; stroke-width: 0.8"/>
      </g>
     </g>
    </g>
    <g id="ytick_9">
     <g id="line2d_42">
      <g>
       <use xlink:href="#md2d034b686" x="196.032012" y="65.505952" style="stroke: #000000; stroke-width: 0.8"/>
      </g>
     </g>
     <g id="line2d_43">
      <g>
       <use xlink:href="#m7f4aac254b" x="327.326129" y="65.505952" style="stroke: #000000; stroke-width: 0.8"/>
      </g>
     </g>
    </g>
    <g id="ytick_10">
     <g id="line2d_44">
      <g>
       <use xlink:href="#md2d034b686" x="196.032012" y="31.142316" style="stroke: #000000; stroke-width: 0.8"/>
      </g>
     </g>
     <g id="line2d_45">
      <g>
       <use xlink:href="#m7f4aac254b" x="327.326129" y="31.142316" style="stroke: #000000; stroke-width: 0.8"/>
      </g>
     </g>
    </g>
   </g>
   <g id="line2d_46">
    <path d="M 201.999926 168.596861 
L 203.147602 163.015444 
L 204.295278 152.157261 
L 205.442954 141.74525 
L 206.59063 134.528015 
L 207.738306 131.381806 
L 208.885981 132.079173 
L 210.033657 135.812354 
L 211.181333 141.538293 
L 212.329009 148.195854 
L 213.476685 154.833065 
L 214.624361 160.67247 
L 215.772037 165.135208 
L 216.919712 167.838738 
L 218.067388 168.578846 
L 219.215064 167.303352 
L 220.36274 164.082561 
L 221.510416 159.079744 
L 222.658092 152.523688 
L 223.805768 144.684456 
L 224.953443 135.85287 
L 226.101119 126.32382 
L 227.248795 116.383249 
L 228.396471 106.29846 
L 229.544147 96.311372 
L 230.691823 86.634248 
L 231.839498 77.447489 
L 232.987174 68.899064 
L 234.13485 61.105209 
L 235.282526 54.152068 
L 236.430202 48.098 
L 237.577878 42.976306 
L 238.725554 38.798201 
L 239.873229 35.555864 
L 241.020905 33.225464 
L 242.168581 31.770059 
L 243.316257 31.142316 
L 244.463933 31.287006 
L 245.611609 32.143255 
L 246.759285 33.646525 
L 247.90696 35.730346 
L 249.054636 38.327785 
L 250.202312 41.372682 
L 251.349988 44.800656 
L 252.497664 48.549908 
L 253.64534 52.561841 
L 254.793016 56.781517 
L 255.940691 61.157966 
L 257.088367 65.644382 
L 258.236043 70.198203 
L 259.383719 74.781115 
L 260.531395 79.358975 
L 261.679071 83.90169 
L 262.826747 88.383038 
L 263.974422 92.780463 
L 265.122098 97.074848 
L 266.269774 101.250272 
L 267.41745 105.293752 
L 268.565126 109.194993 
L 269.712802 112.94613 
L 270.860478 116.541487 
L 272.008153 119.977331 
L 273.155829 123.251652 
L 274.303505 126.363944 
L 275.451181 129.315005 
L 276.598857 132.10675 
L 277.746533 134.742042 
L 278.894208 137.224533 
L 280.041884 139.558523 
L 281.18956 141.74883 
L 282.337236 143.800676 
L 283.484912 145.719584 
L 284.632588 147.511292 
L 285.780264 149.181669 
L 286.927939 150.736649 
L 288.075615 152.182171 
L 289.223291 153.524133 
L 290.370967 154.768343 
L 291.518643 155.92049 
L 292.666319 156.986111 
L 293.813995 157.970571 
L 294.96167 158.879045 
L 296.109346 159.716501 
L 297.257022 160.487696 
L 298.404698 161.197165 
L 299.552374 161.849221 
L 300.70005 162.447953 
L 301.847726 162.997226 
L 302.995401 163.500687 
L 304.143077 163.961767 
L 305.290753 164.383688 
L 306.438429 164.769469 
L 307.586105 165.121934 
L 308.733781 165.443719 
L 309.881457 165.737281 
L 311.029132 166.004907 
L 312.176808 166.24872 
L 313.324484 166.470691 
L 314.47216 166.672645 
L 315.619836 166.856271 
L 316.767512 167.023129 
L 317.915187 167.17466 
L 319.062863 167.31219 
L 320.210539 167.436943 
L 321.358215 167.550043 
" clip-path="url(#pb62ff36545)" style="fill: none; stroke: #000000; stroke-width: 0.5; stroke-linecap: square"/>
   </g>
   <g id="patch_8">
    <path d="M 196.032012 175.469588 
L 196.032012 24.269588 
" style="fill: none; stroke: #000000; stroke-width: 0.8; stroke-linejoin: miter; stroke-linecap: square"/>
   </g>
   <g id="patch_9">
    <path d="M 327.326129 175.469588 
L 327.326129 24.269588 
" style="fill: none; stroke: #000000; stroke-width: 0.8; stroke-linejoin: miter; stroke-linecap: square"/>
   </g>
   <g id="patch_10">
    <path d="M 196.032012 175.469588 
L 327.326129 175.469588 
" style="fill: none; stroke: #000000; stroke-width: 0.8; stroke-linejoin: miter; stroke-linecap: square"/>
   </g>
   <g id="patch_11">
    <path d="M 196.032012 24.269588 
L 327.326129 24.269588 
" style="fill: none; stroke: #000000; stroke-width: 0.8; stroke-linejoin: miter; stroke-linecap: square"/>
   </g>
   <g id="text_7">
    <!-- $n, l = {2,0}$ -->
    <g transform="translate(229.226975 18.269588) scale(0.16 -0.16)">
     <use xlink:href="#CMMI12-6e" transform="scale(0.996264)"/>
     <use xlink:href="#CMMI12-3b" transform="translate(58.230047 0) scale(0.996264)"/>
     <use xlink:href="#CMMI12-6c" transform="translate(101.93163 0) scale(0.996264)"/>
     <use xlink:href="#CMR17-3d" transform="translate(160.854042 0) scale(0.996264)"/>
     <use xlink:href="#CMR17-32" transform="translate(260.242839 0) scale(0.996264)"/>
     <use xlink:href="#CMMI12-3b" transform="translate(305.933316 0) scale(0.996264)"/>
     <use xlink:href="#CMR17-30" transform="translate(349.634899 0) scale(0.996264)"/>
    </g>
   </g>
  </g>
  <g id="axes_3">
   <g id="patch_12">
    <path d="M 353.584953 175.469588 
L 484.879071 175.469588 
L 484.879071 24.269588 
L 353.584953 24.269588 
z
" style="fill: #ffffff"/>
   </g>
   <g id="matplotlib.axis_5">
    <g id="xtick_13">
     <g id="line2d_47">
      <g>
       <use xlink:href="#m261f30a765" x="359.552867" y="175.469588" style="stroke: #000000; stroke-width: 0.8"/>
      </g>
     </g>
     <g id="line2d_48">
      <g>
       <use xlink:href="#m95c7abfd5d" x="359.552867" y="24.269588" style="stroke: #000000; stroke-width: 0.8"/>
      </g>
     </g>
    </g>
    <g id="xtick_14">
     <g id="line2d_49">
      <g>
       <use xlink:href="#m261f30a765" x="383.424525" y="175.469588" style="stroke: #000000; stroke-width: 0.8"/>
      </g>
     </g>
     <g id="line2d_50">
      <g>
       <use xlink:href="#m95c7abfd5d" x="383.424525" y="24.269588" style="stroke: #000000; stroke-width: 0.8"/>
      </g>
     </g>
    </g>
    <g id="xtick_15">
     <g id="line2d_51">
      <g>
       <use xlink:href="#m261f30a765" x="407.296183" y="175.469588" style="stroke: #000000; stroke-width: 0.8"/>
      </g>
     </g>
     <g id="line2d_52">
      <g>
       <use xlink:href="#m95c7abfd5d" x="407.296183" y="24.269588" style="stroke: #000000; stroke-width: 0.8"/>
      </g>
     </g>
    </g>
    <g id="xtick_16">
     <g id="line2d_53">
      <g>
       <use xlink:href="#m261f30a765" x="431.167841" y="175.469588" style="stroke: #000000; stroke-width: 0.8"/>
      </g>
     </g>
     <g id="line2d_54">
      <g>
       <use xlink:href="#m95c7abfd5d" x="431.167841" y="24.269588" style="stroke: #000000; stroke-width: 0.8"/>
      </g>
     </g>
    </g>
    <g id="xtick_17">
     <g id="line2d_55">
      <g>
       <use xlink:href="#m261f30a765" x="455.039498" y="175.469588" style="stroke: #000000; stroke-width: 0.8"/>
      </g>
     </g>
     <g id="line2d_56">
      <g>
       <use xlink:href="#m95c7abfd5d" x="455.039498" y="24.269588" style="stroke: #000000; stroke-width: 0.8"/>
      </g>
     </g>
    </g>
    <g id="xtick_18">
     <g id="line2d_57">
      <g>
       <use xlink:href="#m261f30a765" x="478.911156" y="175.469588" style="stroke: #000000; stroke-width: 0.8"/>
      </g>
     </g>
     <g id="line2d_58">
      <g>
       <use xlink:href="#m95c7abfd5d" x="478.911156" y="24.269588" style="stroke: #000000; stroke-width: 0.8"/>
      </g>
     </g>
    </g>
   </g>
   <g id="matplotlib.axis_6">
    <g id="ytick_11">
     <g id="line2d_59">
      <g>
       <use xlink:href="#md2d034b686" x="353.584953" y="168.596861" style="stroke: #000000; stroke-width: 0.8"/>
      </g>
     </g>
     <g id="line2d_60">
      <g>
       <use xlink:href="#m7f4aac254b" x="484.879071" y="168.596861" style="stroke: #000000; stroke-width: 0.8"/>
      </g>
     </g>
    </g>
    <g id="ytick_12">
     <g id="line2d_61">
      <g>
       <use xlink:href="#md2d034b686" x="353.584953" y="134.233225" style="stroke: #000000; stroke-width: 0.8"/>
      </g>
     </g>
     <g id="line2d_62">
      <g>
       <use xlink:href="#m7f4aac254b" x="484.879071" y="134.233225" style="stroke: #000000; stroke-width: 0.8"/>
      </g>
     </g>
    </g>
    <g id="ytick_13">
     <g id="line2d_63">
      <g>
       <use xlink:href="#md2d034b686" x="353.584953" y="99.869588" style="stroke: #000000; stroke-width: 0.8"/>
      </g>
     </g>
     <g id="line2d_64">
      <g>
       <use xlink:href="#m7f4aac254b" x="484.879071" y="99.869588" style="stroke: #000000; stroke-width: 0.8"/>
      </g>
     </g>
    </g>
    <g id="ytick_14">
     <g id="line2d_65">
      <g>
       <use xlink:href="#md2d034b686" x="353.584953" y="65.505952" style="stroke: #000000; stroke-width: 0.8"/>
      </g>
     </g>
     <g id="line2d_66">
      <g>
       <use xlink:href="#m7f4aac254b" x="484.879071" y="65.505952" style="stroke: #000000; stroke-width: 0.8"/>
      </g>
     </g>
    </g>
    <g id="ytick_15">
     <g id="line2d_67">
      <g>
       <use xlink:href="#md2d034b686" x="353.584953" y="31.142316" style="stroke: #000000; stroke-width: 0.8"/>
      </g>
     </g>
     <g id="line2d_68">
      <g>
       <use xlink:href="#m7f4aac254b" x="484.879071" y="31.142316" style="stroke: #000000; stroke-width: 0.8"/>
      </g>
     </g>
    </g>
   </g>
   <g id="line2d_69">
    <path d="M 359.552867 168.596861 
L 360.700543 168.585877 
L 361.848219 168.444718 
L 362.995895 167.930089 
L 364.143571 166.772571 
L 365.291247 164.74123 
L 366.438923 161.675655 
L 367.586598 157.496674 
L 368.734274 152.203822 
L 369.88195 145.865212 
L 371.029626 138.603698 
L 372.177302 130.581915 
L 373.324978 121.987838 
L 374.472654 113.021819 
L 375.620329 103.885594 
L 376.768005 94.773439 
L 377.915681 85.865449 
L 379.063357 77.32276 
L 380.211033 69.284508 
L 381.358709 61.866242 
L 382.506385 55.159535 
L 383.65406 49.232535 
L 384.801736 44.131224 
L 385.949412 39.881179 
L 387.097088 36.489671 
L 388.244764 33.947934 
L 389.39244 32.233522 
L 390.540116 31.312627 
L 391.687791 31.142316 
L 392.835467 31.672619 
L 393.983143 32.848453 
L 395.130819 34.611338 
L 396.278495 36.900921 
L 397.426171 39.656286 
L 398.573846 42.817065 
L 399.721522 46.324368 
L 400.869198 50.12152 
L 402.016874 54.154652 
L 403.16455 58.373133 
L 404.312226 62.729885 
L 405.459902 67.181575 
L 406.607577 71.688722 
L 407.755253 76.215712 
L 408.902929 80.730752 
L 410.050605 85.205771 
L 411.198281 89.616271 
L 412.345957 93.941153 
L 413.493633 98.162514 
L 414.641308 102.265427 
L 415.788984 106.237719 
L 416.93666 110.069735 
L 418.084336 113.754106 
L 419.232012 117.285527 
L 420.379688 120.660531 
L 421.527364 123.877281 
L 422.675039 126.93537 
L 423.822715 129.835633 
L 424.970391 132.579971 
L 426.118067 135.17119 
L 427.265743 137.612854 
L 428.413419 139.909149 
L 429.561095 142.064761 
L 430.70877 144.084767 
L 431.856446 145.974537 
L 433.004122 147.739647 
L 434.151798 149.385807 
L 435.299474 150.918789 
L 436.44715 152.344378 
L 437.594826 153.668314 
L 438.742501 154.89626 
L 439.890177 156.033762 
L 441.037853 157.086223 
L 442.185529 158.058881 
L 443.333205 158.956791 
L 444.480881 159.78481 
L 445.628556 160.54759 
L 446.776232 161.24957 
L 447.923908 161.894973 
L 449.071584 162.487806 
L 450.21926 163.031859 
L 451.366936 163.530708 
L 452.514612 163.987722 
L 453.662287 164.406065 
L 454.809963 164.788704 
L 455.957639 165.138415 
L 457.105315 165.457791 
L 458.252991 165.749252 
L 459.400667 166.015047 
L 460.548343 166.25727 
L 461.696018 166.477862 
L 462.843694 166.678625 
L 463.99137 166.861223 
L 465.139046 167.027199 
L 466.286722 167.177973 
L 467.434398 167.314858 
L 468.582074 167.439061 
L 469.729749 167.551695 
L 470.877425 167.653781 
L 472.025101 167.746257 
L 473.172777 167.829985 
L 474.320453 167.905753 
L 475.468129 167.974285 
L 476.615805 168.03624 
L 477.76348 168.092224 
L 478.911156 168.142789 
" clip-path="url(#p1f0e6736c6)" style="fill: none; stroke: #000000; stroke-width: 0.5; stroke-linecap: square"/>
   </g>
   <g id="patch_13">
    <path d="M 353.584953 175.469588 
L 353.584953 24.269588 
" style="fill: none; stroke: #000000; stroke-width: 0.8; stroke-linejoin: miter; stroke-linecap: square"/>
   </g>
   <g id="patch_14">
    <path d="M 484.879071 175.469588 
L 484.879071 24.269588 
" style="fill: none; stroke: #000000; stroke-width: 0.8; stroke-linejoin: miter; stroke-linecap: square"/>
   </g>
   <g id="patch_15">
    <path d="M 353.584953 175.469588 
L 484.879071 175.469588 
" style="fill: none; stroke: #000000; stroke-width: 0.8; stroke-linejoin: miter; stroke-linecap: square"/>
   </g>
   <g id="patch_16">
    <path d="M 353.584953 24.269588 
L 484.879071 24.269588 
" style="fill: none; stroke: #000000; stroke-width: 0.8; stroke-linejoin: miter; stroke-linecap: square"/>
   </g>
   <g id="text_8">
    <!-- $n, l = {2,1}$ -->
    <g transform="translate(386.779916 18.269588) scale(0.16 -0.16)">
     <use xlink:href="#CMMI12-6e" transform="scale(0.996264)"/>
     <use xlink:href="#CMMI12-3b" transform="translate(58.230047 0) scale(0.996264)"/>
     <use xlink:href="#CMMI12-6c" transform="translate(101.93163 0) scale(0.996264)"/>
     <use xlink:href="#CMR17-3d" transform="translate(160.854042 0) scale(0.996264)"/>
     <use xlink:href="#CMR17-32" transform="translate(260.242839 0) scale(0.996264)"/>
     <use xlink:href="#CMMI12-3b" transform="translate(305.933316 0) scale(0.996264)"/>
     <use xlink:href="#CMR17-31" transform="translate(349.634899 0) scale(0.996264)"/>
    </g>
   </g>
  </g>
  <g id="axes_4">
   <g id="patch_17">
    <path d="M 38.479071 356.909588 
L 169.773188 356.909588 
L 169.773188 205.709588 
L 38.479071 205.709588 
z
" style="fill: #ffffff"/>
   </g>
   <g id="matplotlib.axis_7">
    <g id="xtick_19">
     <g id="line2d_70">
      <g>
       <use xlink:href="#m261f30a765" x="44.446985" y="356.909588" style="stroke: #000000; stroke-width: 0.8"/>
      </g>
     </g>
     <g id="line2d_71">
      <g>
       <use xlink:href="#m95c7abfd5d" x="44.446985" y="205.709588" style="stroke: #000000; stroke-width: 0.8"/>
      </g>
     </g>
     <g id="text_9">
      <!-- $\mathdefault{0}$ -->
      <g transform="translate(41.032741 373.595465) scale(0.14 -0.14)">
       <use xlink:href="#CMR17-30" transform="scale(0.996264)"/>
      </g>
     </g>
    </g>
    <g id="xtick_20">
     <g id="line2d_72">
      <g>
       <use xlink:href="#m261f30a765" x="68.318643" y="356.909588" style="stroke: #000000; stroke-width: 0.8"/>
      </g>
     </g>
     <g id="line2d_73">
      <g>
       <use xlink:href="#m95c7abfd5d" x="68.318643" y="205.709588" style="stroke: #000000; stroke-width: 0.8"/>
      </g>
     </g>
     <g id="text_10">
      <!-- $\mathdefault{3}$ -->
      <g transform="translate(64.904399 373.595465) scale(0.14 -0.14)">
       <defs>
        <path id="CMR17-33" d="M 1414 2157 
C 1984 2157 2234 1662 2234 1090 
C 2234 320 1824 25 1453 25 
C 1114 25 563 194 390 693 
C 422 680 454 680 486 680 
C 640 680 755 782 755 948 
C 755 1133 614 1216 486 1216 
C 378 1216 211 1165 211 926 
C 211 335 787 -128 1466 -128 
C 2176 -128 2720 430 2720 1085 
C 2720 1707 2208 2157 1600 2227 
C 2086 2328 2554 2756 2554 3329 
C 2554 3820 2048 4179 1472 4179 
C 890 4179 378 3829 378 3329 
C 378 3110 544 3072 627 3072 
C 762 3072 877 3155 877 3321 
C 877 3486 762 3569 627 3569 
C 602 3569 570 3569 544 3557 
C 730 3959 1235 4032 1459 4032 
C 1683 4032 2106 3925 2106 3320 
C 2106 3143 2080 2828 1862 2550 
C 1670 2304 1453 2304 1242 2284 
C 1210 2284 1062 2269 1037 2269 
C 992 2263 966 2257 966 2208 
C 966 2163 973 2157 1101 2157 
L 1414 2157 
z
" transform="scale(0.015625)"/>
       </defs>
       <use xlink:href="#CMR17-33" transform="scale(0.996264)"/>
      </g>
     </g>
    </g>
    <g id="xtick_21">
     <g id="line2d_74">
      <g>
       <use xlink:href="#m261f30a765" x="92.190301" y="356.909588" style="stroke: #000000; stroke-width: 0.8"/>
      </g>
     </g>
     <g id="line2d_75">
      <g>
       <use xlink:href="#m95c7abfd5d" x="92.190301" y="205.709588" style="stroke: #000000; stroke-width: 0.8"/>
      </g>
     </g>
     <g id="text_11">
      <!-- $\mathdefault{6}$ -->
      <g transform="translate(88.776056 373.595465) scale(0.14 -0.14)">
       <defs>
        <path id="CMR17-36" d="M 678 2176 
C 678 3690 1395 4032 1811 4032 
C 1946 4032 2272 4009 2400 3776 
C 2298 3776 2106 3776 2106 3553 
C 2106 3381 2246 3323 2336 3323 
C 2394 3323 2566 3348 2566 3560 
C 2566 3954 2246 4179 1805 4179 
C 1043 4179 243 3390 243 1984 
C 243 253 966 -128 1478 -128 
C 2099 -128 2688 427 2688 1283 
C 2688 2081 2170 2662 1517 2662 
C 1126 2662 838 2407 678 1960 
L 678 2176 
z
M 1478 25 
C 691 25 691 1200 691 1436 
C 691 1896 909 2560 1504 2560 
C 1613 2560 1926 2560 2138 2120 
C 2253 1870 2253 1609 2253 1289 
C 2253 944 2253 690 2118 434 
C 1978 171 1773 25 1478 25 
z
" transform="scale(0.015625)"/>
       </defs>
       <use xlink:href="#CMR17-36" transform="scale(0.996264)"/>
      </g>
     </g>
    </g>
    <g id="xtick_22">
     <g id="line2d_76">
      <g>
       <use xlink:href="#m261f30a765" x="116.061958" y="356.909588" style="stroke: #000000; stroke-width: 0.8"/>
      </g>
     </g>
     <g id="line2d_77">
      <g>
       <use xlink:href="#m95c7abfd5d" x="116.061958" y="205.709588" style="stroke: #000000; stroke-width: 0.8"/>
      </g>
     </g>
     <g id="text_12">
      <!-- $\mathdefault{9}$ -->
      <g transform="translate(112.647714 373.595465) scale(0.14 -0.14)">
       <defs>
        <path id="CMR17-39" d="M 2253 1864 
C 2253 464 1670 31 1190 31 
C 1043 31 685 31 538 294 
C 704 268 826 357 826 518 
C 826 692 685 749 595 749 
C 538 749 365 723 365 506 
C 365 71 742 -128 1203 -128 
C 1939 -128 2688 674 2688 2073 
C 2688 3817 1971 4179 1485 4179 
C 851 4179 243 3628 243 2778 
C 243 1991 762 1408 1414 1408 
C 1952 1408 2189 1903 2253 2112 
L 2253 1864 
z
M 1427 1510 
C 1254 1510 1011 1542 813 1922 
C 678 2169 678 2461 678 2771 
C 678 3146 678 3405 858 3684 
C 947 3817 1114 4032 1485 4032 
C 2240 4032 2240 2885 2240 2632 
C 2240 2182 2035 1510 1427 1510 
z
" transform="scale(0.015625)"/>
       </defs>
       <use xlink:href="#CMR17-39" transform="scale(0.996264)"/>
      </g>
     </g>
    </g>
    <g id="xtick_23">
     <g id="line2d_78">
      <g>
       <use xlink:href="#m261f30a765" x="139.933616" y="356.909588" style="stroke: #000000; stroke-width: 0.8"/>
      </g>
     </g>
     <g id="line2d_79">
      <g>
       <use xlink:href="#m95c7abfd5d" x="139.933616" y="205.709588" style="stroke: #000000; stroke-width: 0.8"/>
      </g>
     </g>
     <g id="text_13">
      <!-- $\mathdefault{12}$ -->
      <g transform="translate(133.105128 373.595465) scale(0.14 -0.14)">
       <use xlink:href="#CMR17-31" transform="scale(0.996264)"/>
       <use xlink:href="#CMR17-32" transform="translate(45.690477 0) scale(0.996264)"/>
      </g>
     </g>
    </g>
    <g id="xtick_24">
     <g id="line2d_80">
      <g>
       <use xlink:href="#m261f30a765" x="163.805274" y="356.909588" style="stroke: #000000; stroke-width: 0.8"/>
      </g>
     </g>
     <g id="line2d_81">
      <g>
       <use xlink:href="#m95c7abfd5d" x="163.805274" y="205.709588" style="stroke: #000000; stroke-width: 0.8"/>
      </g>
     </g>
     <g id="text_14">
      <!-- $\mathdefault{15}$ -->
      <g transform="translate(156.976785 373.595465) scale(0.14 -0.14)">
       <use xlink:href="#CMR17-31" transform="scale(0.996264)"/>
       <use xlink:href="#CMR17-35" transform="translate(45.690477 0) scale(0.996264)"/>
      </g>
     </g>
    </g>
   </g>
   <g id="matplotlib.axis_8">
    <g id="ytick_16">
     <g id="line2d_82">
      <g>
       <use xlink:href="#md2d034b686" x="38.479071" y="350.036861" style="stroke: #000000; stroke-width: 0.8"/>
      </g>
     </g>
     <g id="line2d_83">
      <g>
       <use xlink:href="#m7f4aac254b" x="169.773188" y="350.036861" style="stroke: #000000; stroke-width: 0.8"/>
      </g>
     </g>
     <g id="text_15">
      <!-- $\mathdefault{0.00}$ -->
      <g transform="translate(7.2 354.879799) scale(0.14 -0.14)">
       <use xlink:href="#CMR17-30" transform="scale(0.996264)"/>
       <use xlink:href="#CMMI12-3a" transform="translate(45.690477 0) scale(0.996264)"/>
       <use xlink:href="#CMR17-30" transform="translate(72.787654 0) scale(0.996264)"/>
       <use xlink:href="#CMR17-30" transform="translate(118.478131 0) scale(0.996264)"/>
      </g>
     </g>
    </g>
    <g id="ytick_17">
     <g id="line2d_84">
      <g>
       <use xlink:href="#md2d034b686" x="38.479071" y="315.673225" style="stroke: #000000; stroke-width: 0.8"/>
      </g>
     </g>
     <g id="line2d_85">
      <g>
       <use xlink:href="#m7f4aac254b" x="169.773188" y="315.673225" style="stroke: #000000; stroke-width: 0.8"/>
      </g>
     </g>
     <g id="text_16">
      <!-- $\mathdefault{0.25}$ -->
      <g transform="translate(7.2 320.516163) scale(0.14 -0.14)">
       <use xlink:href="#CMR17-30" transform="scale(0.996264)"/>
       <use xlink:href="#CMMI12-3a" transform="translate(45.690477 0) scale(0.996264)"/>
       <use xlink:href="#CMR17-32" transform="translate(72.787654 0) scale(0.996264)"/>
       <use xlink:href="#CMR17-35" transform="translate(118.478131 0) scale(0.996264)"/>
      </g>
     </g>
    </g>
    <g id="ytick_18">
     <g id="line2d_86">
      <g>
       <use xlink:href="#md2d034b686" x="38.479071" y="281.309588" style="stroke: #000000; stroke-width: 0.8"/>
      </g>
     </g>
     <g id="line2d_87">
      <g>
       <use xlink:href="#m7f4aac254b" x="169.773188" y="281.309588" style="stroke: #000000; stroke-width: 0.8"/>
      </g>
     </g>
     <g id="text_17">
      <!-- $\mathdefault{0.50}$ -->
      <g transform="translate(7.2 286.152527) scale(0.14 -0.14)">
       <use xlink:href="#CMR17-30" transform="scale(0.996264)"/>
       <use xlink:href="#CMMI12-3a" transform="translate(45.690477 0) scale(0.996264)"/>
       <use xlink:href="#CMR17-35" transform="translate(72.787654 0) scale(0.996264)"/>
       <use xlink:href="#CMR17-30" transform="translate(118.478131 0) scale(0.996264)"/>
      </g>
     </g>
    </g>
    <g id="ytick_19">
     <g id="line2d_88">
      <g>
       <use xlink:href="#md2d034b686" x="38.479071" y="246.945952" style="stroke: #000000; stroke-width: 0.8"/>
      </g>
     </g>
     <g id="line2d_89">
      <g>
       <use xlink:href="#m7f4aac254b" x="169.773188" y="246.945952" style="stroke: #000000; stroke-width: 0.8"/>
      </g>
     </g>
     <g id="text_18">
      <!-- $\mathdefault{0.75}$ -->
      <g transform="translate(7.2 251.78889) scale(0.14 -0.14)">
       <use xlink:href="#CMR17-30" transform="scale(0.996264)"/>
       <use xlink:href="#CMMI12-3a" transform="translate(45.690477 0) scale(0.996264)"/>
       <use xlink:href="#CMR17-37" transform="translate(72.787654 0) scale(0.996264)"/>
       <use xlink:href="#CMR17-35" transform="translate(118.478131 0) scale(0.996264)"/>
      </g>
     </g>
    </g>
    <g id="ytick_20">
     <g id="line2d_90">
      <g>
       <use xlink:href="#md2d034b686" x="38.479071" y="212.582316" style="stroke: #000000; stroke-width: 0.8"/>
      </g>
     </g>
     <g id="line2d_91">
      <g>
       <use xlink:href="#m7f4aac254b" x="169.773188" y="212.582316" style="stroke: #000000; stroke-width: 0.8"/>
      </g>
     </g>
     <g id="text_19">
      <!-- $\mathdefault{1.00}$ -->
      <g transform="translate(7.2 217.425254) scale(0.14 -0.14)">
       <use xlink:href="#CMR17-31" transform="scale(0.996264)"/>
       <use xlink:href="#CMMI12-3a" transform="translate(45.690477 0) scale(0.996264)"/>
       <use xlink:href="#CMR17-30" transform="translate(72.787654 0) scale(0.996264)"/>
       <use xlink:href="#CMR17-30" transform="translate(118.478131 0) scale(0.996264)"/>
      </g>
     </g>
    </g>
   </g>
   <g id="line2d_92">
    <path d="M 44.446985 350.036861 
L 45.594661 346.93005 
L 46.742337 340.915864 
L 47.890013 335.227584 
L 49.037689 331.420171 
L 50.185364 329.972042 
L 51.33304 330.716799 
L 52.480716 333.145475 
L 53.628392 336.611386 
L 54.776068 340.462703 
L 55.923744 344.122325 
L 57.07142 347.13015 
L 58.219095 349.159292 
L 59.366771 350.014939 
L 60.514447 349.622342 
L 61.662123 348.008668 
L 62.809799 345.282088 
L 63.957475 341.610452 
L 65.10515 337.201085 
L 66.252826 332.282668 
L 67.400502 327.089724 
L 68.548178 321.84991 
L 69.695854 316.774106 
L 70.84353 312.049142 
L 71.991206 307.832912 
L 73.138881 304.251575 
L 74.286557 301.398523 
L 75.434233 299.334792 
L 76.581909 298.090621 
L 77.729585 297.667862 
L 78.877261 298.043001 
L 80.024937 299.170574 
L 81.172612 300.986781 
L 82.320288 303.413153 
L 83.467964 306.360143 
L 84.61564 309.730548 
L 85.763316 313.42269 
L 86.910992 317.333298 
L 88.058668 321.360067 
L 89.206343 325.403878 
L 90.354019 329.37066 
L 91.501695 333.172922 
L 92.649371 336.730945 
L 93.797047 339.97368 
L 94.944723 342.839347 
L 96.092399 345.275791 
L 97.240074 347.240598 
L 98.38775 348.701017 
L 99.535426 349.633714 
L 100.683102 350.024377 
L 101.830778 349.867212 
L 102.978454 349.16434 
L 104.126129 347.925137 
L 105.273805 346.165515 
L 106.421481 343.907182 
L 107.569157 341.176889 
L 108.716833 338.005675 
L 109.864509 334.42813 
L 111.012185 330.481684 
L 112.15986 326.205918 
L 113.307536 321.641927 
L 114.455212 316.831721 
L 115.602888 311.817671 
L 116.750564 306.642007 
L 117.89824 301.34637 
L 119.045916 295.97141 
L 120.193591 290.55644 
L 121.341267 285.139132 
L 122.488943 279.755269 
L 123.636619 274.438538 
L 124.784295 269.220366 
L 125.931971 264.129794 
L 127.079647 259.193398 
L 128.227322 254.435227 
L 129.374998 249.876788 
L 130.522674 245.537052 
L 131.67035 241.432478 
L 132.818026 237.577072 
L 133.965702 233.982453 
L 135.113378 230.657942 
L 136.261053 227.610659 
L 137.408729 224.845634 
L 138.556405 222.365927 
L 139.704081 220.172749 
L 140.851757 218.265597 
L 141.999433 216.642379 
L 143.147109 215.299554 
L 144.294784 214.232262 
L 145.44246 213.434453 
L 146.590136 212.899021 
L 147.737812 212.617925 
L 148.885488 212.582316 
L 150.033164 212.782646 
L 151.180839 213.208786 
L 152.328515 213.85013 
L 153.476191 214.695693 
L 154.623867 215.734205 
L 155.771543 216.9542 
L 156.919219 218.344092 
L 158.066895 219.892256 
L 159.21457 221.587091 
L 160.362246 223.417082 
L 161.509922 225.370857 
L 162.657598 227.437239 
L 163.805274 229.605284 
" clip-path="url(#p823f7ccd37)" style="fill: none; stroke: #000000; stroke-width: 0.5; stroke-linecap: square"/>
   </g>
   <g id="patch_18">
    <path d="M 38.479071 356.909588 
L 38.479071 205.709588 
" style="fill: none; stroke: #000000; stroke-width: 0.8; stroke-linejoin: miter; stroke-linecap: square"/>
   </g>
   <g id="patch_19">
    <path d="M 169.773188 356.909588 
L 169.773188 205.709588 
" style="fill: none; stroke: #000000; stroke-width: 0.8; stroke-linejoin: miter; stroke-linecap: square"/>
   </g>
   <g id="patch_20">
    <path d="M 38.479071 356.909588 
L 169.773188 356.909588 
" style="fill: none; stroke: #000000; stroke-width: 0.8; stroke-linejoin: miter; stroke-linecap: square"/>
   </g>
   <g id="patch_21">
    <path d="M 38.479071 205.709588 
L 169.773188 205.709588 
" style="fill: none; stroke: #000000; stroke-width: 0.8; stroke-linejoin: miter; stroke-linecap: square"/>
   </g>
   <g id="text_20">
    <!-- $n, l = {3,0}$ -->
    <g transform="translate(71.674033 199.709588) scale(0.16 -0.16)">
     <use xlink:href="#CMMI12-6e" transform="scale(0.996264)"/>
     <use xlink:href="#CMMI12-3b" transform="translate(58.230047 0) scale(0.996264)"/>
     <use xlink:href="#CMMI12-6c" transform="translate(101.93163 0) scale(0.996264)"/>
     <use xlink:href="#CMR17-3d" transform="translate(160.854042 0) scale(0.996264)"/>
     <use xlink:href="#CMR17-33" transform="translate(260.242839 0) scale(0.996264)"/>
     <use xlink:href="#CMMI12-3b" transform="translate(305.933316 0) scale(0.996264)"/>
     <use xlink:href="#CMR17-30" transform="translate(349.634899 0) scale(0.996264)"/>
    </g>
   </g>
  </g>
  <g id="axes_5">
   <g id="patch_22">
    <path d="M 196.032012 356.909588 
L 327.326129 356.909588 
L 327.326129 205.709588 
L 196.032012 205.709588 
z
" style="fill: #ffffff"/>
   </g>
   <g id="matplotlib.axis_9">
    <g id="xtick_25">
     <g id="line2d_93">
      <g>
       <use xlink:href="#m261f30a765" x="201.999926" y="356.909588" style="stroke: #000000; stroke-width: 0.8"/>
      </g>
     </g>
     <g id="line2d_94">
      <g>
       <use xlink:href="#m95c7abfd5d" x="201.999926" y="205.709588" style="stroke: #000000; stroke-width: 0.8"/>
      </g>
     </g>
     <g id="text_21">
      <!-- $\mathdefault{0}$ -->
      <g transform="translate(198.585682 373.595465) scale(0.14 -0.14)">
       <use xlink:href="#CMR17-30" transform="scale(0.996264)"/>
      </g>
     </g>
    </g>
    <g id="xtick_26">
     <g id="line2d_95">
      <g>
       <use xlink:href="#m261f30a765" x="225.871584" y="356.909588" style="stroke: #000000; stroke-width: 0.8"/>
      </g>
     </g>
     <g id="line2d_96">
      <g>
       <use xlink:href="#m95c7abfd5d" x="225.871584" y="205.709588" style="stroke: #000000; stroke-width: 0.8"/>
      </g>
     </g>
     <g id="text_22">
      <!-- $\mathdefault{3}$ -->
      <g transform="translate(222.45734 373.595465) scale(0.14 -0.14)">
       <use xlink:href="#CMR17-33" transform="scale(0.996264)"/>
      </g>
     </g>
    </g>
    <g id="xtick_27">
     <g id="line2d_97">
      <g>
       <use xlink:href="#m261f30a765" x="249.743242" y="356.909588" style="stroke: #000000; stroke-width: 0.8"/>
      </g>
     </g>
     <g id="line2d_98">
      <g>
       <use xlink:href="#m95c7abfd5d" x="249.743242" y="205.709588" style="stroke: #000000; stroke-width: 0.8"/>
      </g>
     </g>
     <g id="text_23">
      <!-- $\mathdefault{6}$ -->
      <g transform="translate(246.328997 373.595465) scale(0.14 -0.14)">
       <use xlink:href="#CMR17-36" transform="scale(0.996264)"/>
      </g>
     </g>
    </g>
    <g id="xtick_28">
     <g id="line2d_99">
      <g>
       <use xlink:href="#m261f30a765" x="273.6149" y="356.909588" style="stroke: #000000; stroke-width: 0.8"/>
      </g>
     </g>
     <g id="line2d_100">
      <g>
       <use xlink:href="#m95c7abfd5d" x="273.6149" y="205.709588" style="stroke: #000000; stroke-width: 0.8"/>
      </g>
     </g>
     <g id="text_24">
      <!-- $\mathdefault{9}$ -->
      <g transform="translate(270.200655 373.595465) scale(0.14 -0.14)">
       <use xlink:href="#CMR17-39" transform="scale(0.996264)"/>
      </g>
     </g>
    </g>
    <g id="xtick_29">
     <g id="line2d_101">
      <g>
       <use xlink:href="#m261f30a765" x="297.486557" y="356.909588" style="stroke: #000000; stroke-width: 0.8"/>
      </g>
     </g>
     <g id="line2d_102">
      <g>
       <use xlink:href="#m95c7abfd5d" x="297.486557" y="205.709588" style="stroke: #000000; stroke-width: 0.8"/>
      </g>
     </g>
     <g id="text_25">
      <!-- $\mathdefault{12}$ -->
      <g transform="translate(290.658069 373.595465) scale(0.14 -0.14)">
       <use xlink:href="#CMR17-31" transform="scale(0.996264)"/>
       <use xlink:href="#CMR17-32" transform="translate(45.690477 0) scale(0.996264)"/>
      </g>
     </g>
    </g>
    <g id="xtick_30">
     <g id="line2d_103">
      <g>
       <use xlink:href="#m261f30a765" x="321.358215" y="356.909588" style="stroke: #000000; stroke-width: 0.8"/>
      </g>
     </g>
     <g id="line2d_104">
      <g>
       <use xlink:href="#m95c7abfd5d" x="321.358215" y="205.709588" style="stroke: #000000; stroke-width: 0.8"/>
      </g>
     </g>
     <g id="text_26">
      <!-- $\mathdefault{15}$ -->
      <g transform="translate(314.529726 373.595465) scale(0.14 -0.14)">
       <use xlink:href="#CMR17-31" transform="scale(0.996264)"/>
       <use xlink:href="#CMR17-35" transform="translate(45.690477 0) scale(0.996264)"/>
      </g>
     </g>
    </g>
   </g>
   <g id="matplotlib.axis_10">
    <g id="ytick_21">
     <g id="line2d_105">
      <g>
       <use xlink:href="#md2d034b686" x="196.032012" y="350.036861" style="stroke: #000000; stroke-width: 0.8"/>
      </g>
     </g>
     <g id="line2d_106">
      <g>
       <use xlink:href="#m7f4aac254b" x="327.326129" y="350.036861" style="stroke: #000000; stroke-width: 0.8"/>
      </g>
     </g>
    </g>
    <g id="ytick_22">
     <g id="line2d_107">
      <g>
       <use xlink:href="#md2d034b686" x="196.032012" y="315.673225" style="stroke: #000000; stroke-width: 0.8"/>
      </g>
     </g>
     <g id="line2d_108">
      <g>
       <use xlink:href="#m7f4aac254b" x="327.326129" y="315.673225" style="stroke: #000000; stroke-width: 0.8"/>
      </g>
     </g>
    </g>
    <g id="ytick_23">
     <g id="line2d_109">
      <g>
       <use xlink:href="#md2d034b686" x="196.032012" y="281.309588" style="stroke: #000000; stroke-width: 0.8"/>
      </g>
     </g>
     <g id="line2d_110">
      <g>
       <use xlink:href="#m7f4aac254b" x="327.326129" y="281.309588" style="stroke: #000000; stroke-width: 0.8"/>
      </g>
     </g>
    </g>
    <g id="ytick_24">
     <g id="line2d_111">
      <g>
       <use xlink:href="#md2d034b686" x="196.032012" y="246.945952" style="stroke: #000000; stroke-width: 0.8"/>
      </g>
     </g>
     <g id="line2d_112">
      <g>
       <use xlink:href="#m7f4aac254b" x="327.326129" y="246.945952" style="stroke: #000000; stroke-width: 0.8"/>
      </g>
     </g>
    </g>
    <g id="ytick_25">
     <g id="line2d_113">
      <g>
       <use xlink:href="#md2d034b686" x="196.032012" y="212.582316" style="stroke: #000000; stroke-width: 0.8"/>
      </g>
     </g>
     <g id="line2d_114">
      <g>
       <use xlink:href="#m7f4aac254b" x="327.326129" y="212.582316" style="stroke: #000000; stroke-width: 0.8"/>
      </g>
     </g>
    </g>
   </g>
   <g id="line2d_115">
    <path d="M 201.999926 350.036861 
L 203.147602 350.029463 
L 204.295278 349.934569 
L 205.442954 349.589938 
L 206.59063 348.819472 
L 207.738306 347.478883 
L 208.885981 345.478585 
L 210.033657 342.791153 
L 211.181333 339.448813 
L 212.329009 335.535006 
L 213.476685 331.172877 
L 214.624361 326.512721 
L 215.772037 321.719715 
L 216.919712 316.962804 
L 218.067388 312.405215 
L 219.215064 308.196817 
L 220.36274 304.468375 
L 221.510416 301.327599 
L 222.658092 298.856824 
L 223.805768 297.112117 
L 224.953443 296.123565 
L 226.101119 295.896527 
L 227.248795 296.413616 
L 228.396471 297.637212 
L 229.544147 299.512322 
L 230.691823 301.969621 
L 231.839498 304.928559 
L 232.987174 308.300405 
L 234.13485 311.991154 
L 235.282526 315.904234 
L 236.430202 319.942956 
L 237.577878 324.012686 
L 238.725554 328.022719 
L 239.873229 331.88785 
L 241.020905 335.529646 
L 242.168581 338.877427 
L 243.316257 341.868986 
L 244.463933 344.451046 
L 245.611609 346.579504 
L 246.759285 348.219459 
L 247.90696 349.345083 
L 249.054636 349.939325 
L 250.202312 349.993501 
L 251.349988 349.506784 
L 252.497664 348.485605 
L 253.64534 346.943012 
L 254.793016 344.897976 
L 255.940691 342.374686 
L 257.088367 339.401826 
L 258.236043 336.011867 
L 259.383719 332.240367 
L 260.531395 328.125307 
L 261.679071 323.706444 
L 262.826747 319.024718 
L 263.974422 314.121691 
L 265.122098 309.039039 
L 266.269774 303.818085 
L 267.41745 298.499388 
L 268.565126 293.122372 
L 269.712802 287.725013 
L 270.860478 282.343566 
L 272.008153 277.01234 
L 273.155829 271.76351 
L 274.303505 266.626981 
L 275.451181 261.630279 
L 276.598857 256.79848 
L 277.746533 252.154172 
L 278.894208 247.717444 
L 280.041884 243.505903 
L 281.18956 239.534711 
L 282.337236 235.81664 
L 283.484912 232.362153 
L 284.632588 229.179491 
L 285.780264 226.27477 
L 286.927939 223.652098 
L 288.075615 221.313693 
L 289.223291 219.260002 
L 290.370967 217.489835 
L 291.518643 216.000491 
L 292.666319 214.787892 
L 293.813995 213.846709 
L 294.96167 213.170493 
L 296.109346 212.751801 
L 297.257022 212.582316 
L 298.404698 212.652965 
L 299.552374 212.954036 
L 300.70005 213.475277 
L 301.847726 214.206007 
L 302.995401 215.135205 
L 304.143077 216.251605 
L 305.290753 217.543773 
L 306.438429 219.000193 
L 307.586105 220.609328 
L 308.733781 222.359694 
L 309.881457 224.239912 
L 311.029132 226.238763 
L 312.176808 228.345238 
L 313.324484 230.548574 
L 314.47216 232.838296 
L 315.619836 235.204244 
L 316.767512 237.636603 
L 317.915187 240.125923 
L 319.062863 242.663139 
L 320.210539 245.239584 
L 321.358215 247.847 
" clip-path="url(#pc8efd37132)" style="fill: none; stroke: #000000; stroke-width: 0.5; stroke-linecap: square"/>
   </g>
   <g id="patch_23">
    <path d="M 196.032012 356.909588 
L 196.032012 205.709588 
" style="fill: none; stroke: #000000; stroke-width: 0.8; stroke-linejoin: miter; stroke-linecap: square"/>
   </g>
   <g id="patch_24">
    <path d="M 327.326129 356.909588 
L 327.326129 205.709588 
" style="fill: none; stroke: #000000; stroke-width: 0.8; stroke-linejoin: miter; stroke-linecap: square"/>
   </g>
   <g id="patch_25">
    <path d="M 196.032012 356.909588 
L 327.326129 356.909588 
" style="fill: none; stroke: #000000; stroke-width: 0.8; stroke-linejoin: miter; stroke-linecap: square"/>
   </g>
   <g id="patch_26">
    <path d="M 196.032012 205.709588 
L 327.326129 205.709588 
" style="fill: none; stroke: #000000; stroke-width: 0.8; stroke-linejoin: miter; stroke-linecap: square"/>
   </g>
   <g id="text_27">
    <!-- $n, l = {3,1}$ -->
    <g transform="translate(229.226975 199.709588) scale(0.16 -0.16)">
     <use xlink:href="#CMMI12-6e" transform="scale(0.996264)"/>
     <use xlink:href="#CMMI12-3b" transform="translate(58.230047 0) scale(0.996264)"/>
     <use xlink:href="#CMMI12-6c" transform="translate(101.93163 0) scale(0.996264)"/>
     <use xlink:href="#CMR17-3d" transform="translate(160.854042 0) scale(0.996264)"/>
     <use xlink:href="#CMR17-33" transform="translate(260.242839 0) scale(0.996264)"/>
     <use xlink:href="#CMMI12-3b" transform="translate(305.933316 0) scale(0.996264)"/>
     <use xlink:href="#CMR17-31" transform="translate(349.634899 0) scale(0.996264)"/>
    </g>
   </g>
  </g>
  <g id="axes_6">
   <g id="patch_27">
    <path d="M 353.584953 356.909588 
L 484.879071 356.909588 
L 484.879071 205.709588 
L 353.584953 205.709588 
z
" style="fill: #ffffff"/>
   </g>
   <g id="matplotlib.axis_11">
    <g id="xtick_31">
     <g id="line2d_116">
      <g>
       <use xlink:href="#m261f30a765" x="359.552867" y="356.909588" style="stroke: #000000; stroke-width: 0.8"/>
      </g>
     </g>
     <g id="line2d_117">
      <g>
       <use xlink:href="#m95c7abfd5d" x="359.552867" y="205.709588" style="stroke: #000000; stroke-width: 0.8"/>
      </g>
     </g>
     <g id="text_28">
      <!-- $\mathdefault{0}$ -->
      <g transform="translate(356.138623 373.595465) scale(0.14 -0.14)">
       <use xlink:href="#CMR17-30" transform="scale(0.996264)"/>
      </g>
     </g>
    </g>
    <g id="xtick_32">
     <g id="line2d_118">
      <g>
       <use xlink:href="#m261f30a765" x="383.424525" y="356.909588" style="stroke: #000000; stroke-width: 0.8"/>
      </g>
     </g>
     <g id="line2d_119">
      <g>
       <use xlink:href="#m95c7abfd5d" x="383.424525" y="205.709588" style="stroke: #000000; stroke-width: 0.8"/>
      </g>
     </g>
     <g id="text_29">
      <!-- $\mathdefault{3}$ -->
      <g transform="translate(380.010281 373.595465) scale(0.14 -0.14)">
       <use xlink:href="#CMR17-33" transform="scale(0.996264)"/>
      </g>
     </g>
    </g>
    <g id="xtick_33">
     <g id="line2d_120">
      <g>
       <use xlink:href="#m261f30a765" x="407.296183" y="356.909588" style="stroke: #000000; stroke-width: 0.8"/>
      </g>
     </g>
     <g id="line2d_121">
      <g>
       <use xlink:href="#m95c7abfd5d" x="407.296183" y="205.709588" style="stroke: #000000; stroke-width: 0.8"/>
      </g>
     </g>
     <g id="text_30">
      <!-- $\mathdefault{6}$ -->
      <g transform="translate(403.881939 373.595465) scale(0.14 -0.14)">
       <use xlink:href="#CMR17-36" transform="scale(0.996264)"/>
      </g>
     </g>
    </g>
    <g id="xtick_34">
     <g id="line2d_122">
      <g>
       <use xlink:href="#m261f30a765" x="431.167841" y="356.909588" style="stroke: #000000; stroke-width: 0.8"/>
      </g>
     </g>
     <g id="line2d_123">
      <g>
       <use xlink:href="#m95c7abfd5d" x="431.167841" y="205.709588" style="stroke: #000000; stroke-width: 0.8"/>
      </g>
     </g>
     <g id="text_31">
      <!-- $\mathdefault{9}$ -->
      <g transform="translate(427.753596 373.595465) scale(0.14 -0.14)">
       <use xlink:href="#CMR17-39" transform="scale(0.996264)"/>
      </g>
     </g>
    </g>
    <g id="xtick_35">
     <g id="line2d_124">
      <g>
       <use xlink:href="#m261f30a765" x="455.039498" y="356.909588" style="stroke: #000000; stroke-width: 0.8"/>
      </g>
     </g>
     <g id="line2d_125">
      <g>
       <use xlink:href="#m95c7abfd5d" x="455.039498" y="205.709588" style="stroke: #000000; stroke-width: 0.8"/>
      </g>
     </g>
     <g id="text_32">
      <!-- $\mathdefault{12}$ -->
      <g transform="translate(448.21101 373.595465) scale(0.14 -0.14)">
       <use xlink:href="#CMR17-31" transform="scale(0.996264)"/>
       <use xlink:href="#CMR17-32" transform="translate(45.690477 0) scale(0.996264)"/>
      </g>
     </g>
    </g>
    <g id="xtick_36">
     <g id="line2d_126">
      <g>
       <use xlink:href="#m261f30a765" x="478.911156" y="356.909588" style="stroke: #000000; stroke-width: 0.8"/>
      </g>
     </g>
     <g id="line2d_127">
      <g>
       <use xlink:href="#m95c7abfd5d" x="478.911156" y="205.709588" style="stroke: #000000; stroke-width: 0.8"/>
      </g>
     </g>
     <g id="text_33">
      <!-- $\mathdefault{15}$ -->
      <g transform="translate(472.082668 373.595465) scale(0.14 -0.14)">
       <use xlink:href="#CMR17-31" transform="scale(0.996264)"/>
       <use xlink:href="#CMR17-35" transform="translate(45.690477 0) scale(0.996264)"/>
      </g>
     </g>
    </g>
   </g>
   <g id="matplotlib.axis_12">
    <g id="ytick_26">
     <g id="line2d_128">
      <g>
       <use xlink:href="#md2d034b686" x="353.584953" y="350.036861" style="stroke: #000000; stroke-width: 0.8"/>
      </g>
     </g>
     <g id="line2d_129">
      <g>
       <use xlink:href="#m7f4aac254b" x="484.879071" y="350.036861" style="stroke: #000000; stroke-width: 0.8"/>
      </g>
     </g>
    </g>
    <g id="ytick_27">
     <g id="line2d_130">
      <g>
       <use xlink:href="#md2d034b686" x="353.584953" y="315.673225" style="stroke: #000000; stroke-width: 0.8"/>
      </g>
     </g>
     <g id="line2d_131">
      <g>
       <use xlink:href="#m7f4aac254b" x="484.879071" y="315.673225" style="stroke: #000000; stroke-width: 0.8"/>
      </g>
     </g>
    </g>
    <g id="ytick_28">
     <g id="line2d_132">
      <g>
       <use xlink:href="#md2d034b686" x="353.584953" y="281.309588" style="stroke: #000000; stroke-width: 0.8"/>
      </g>
     </g>
     <g id="line2d_133">
      <g>
       <use xlink:href="#m7f4aac254b" x="484.879071" y="281.309588" style="stroke: #000000; stroke-width: 0.8"/>
      </g>
     </g>
    </g>
    <g id="ytick_29">
     <g id="line2d_134">
      <g>
       <use xlink:href="#md2d034b686" x="353.584953" y="246.945952" style="stroke: #000000; stroke-width: 0.8"/>
      </g>
     </g>
     <g id="line2d_135">
      <g>
       <use xlink:href="#m7f4aac254b" x="484.879071" y="246.945952" style="stroke: #000000; stroke-width: 0.8"/>
      </g>
     </g>
    </g>
    <g id="ytick_30">
     <g id="line2d_136">
      <g>
       <use xlink:href="#md2d034b686" x="353.584953" y="212.582316" style="stroke: #000000; stroke-width: 0.8"/>
      </g>
     </g>
     <g id="line2d_137">
      <g>
       <use xlink:href="#m7f4aac254b" x="484.879071" y="212.582316" style="stroke: #000000; stroke-width: 0.8"/>
      </g>
     </g>
    </g>
   </g>
   <g id="line2d_138">
    <path d="M 359.552867 350.036861 
L 360.700543 350.03686 
L 361.848219 350.036811 
L 362.995895 350.036348 
L 364.143571 350.034242 
L 365.291247 350.027785 
L 366.438923 350.012245 
L 367.586598 349.980478 
L 368.734274 349.922747 
L 369.88195 349.826727 
L 371.029626 349.677706 
L 372.177302 349.458927 
L 373.324978 349.15205 
L 374.472654 348.737696 
L 375.620329 348.196033 
L 376.768005 347.507368 
L 377.915681 346.652733 
L 379.063357 345.614427 
L 380.211033 344.376505 
L 381.358709 342.925197 
L 382.506385 341.249256 
L 383.65406 339.340225 
L 384.801736 337.19262 
L 385.949412 334.804042 
L 387.097088 332.175208 
L 388.244764 329.309923 
L 389.39244 326.214977 
L 390.540116 322.900006 
L 391.687791 319.377292 
L 392.835467 315.661541 
L 393.983143 311.769615 
L 395.130819 307.720262 
L 396.278495 303.533817 
L 397.426171 299.231906 
L 398.573846 294.837145 
L 399.721522 290.372839 
L 400.869198 285.862703 
L 402.016874 281.330581 
L 403.16455 276.800192 
L 404.312226 272.294887 
L 405.459902 267.837435 
L 406.607577 263.449822 
L 407.755253 259.153076 
L 408.902929 254.967119 
L 410.050605 250.910639 
L 411.198281 247.000979 
L 412.345957 243.254058 
L 413.493633 239.684307 
L 414.641308 236.304624 
L 415.788984 233.126352 
L 416.93666 230.159268 
L 418.084336 227.411596 
L 419.232012 224.890024 
L 420.379688 222.599741 
L 421.527364 220.544483 
L 422.675039 218.726589 
L 423.822715 217.147063 
L 424.970391 215.805644 
L 426.118067 214.700882 
L 427.265743 213.830217 
L 428.413419 213.190063 
L 429.561095 212.775891 
L 430.70877 212.582316 
L 431.856446 212.603179 
L 433.004122 212.831638 
L 434.151798 213.260245 
L 435.299474 213.881031 
L 436.44715 214.685583 
L 437.594826 215.665122 
L 438.742501 216.810575 
L 439.890177 218.112642 
L 441.037853 219.561863 
L 442.185529 221.148679 
L 443.333205 222.863486 
L 444.480881 224.696694 
L 445.628556 226.638768 
L 446.776232 228.680279 
L 447.923908 230.811939 
L 449.071584 233.024638 
L 450.21926 235.309481 
L 451.366936 237.657809 
L 452.514612 240.061228 
L 453.662287 242.511629 
L 454.809963 245.001207 
L 455.957639 247.522474 
L 457.105315 250.06827 
L 458.252991 252.631773 
L 459.400667 255.206509 
L 460.548343 257.786346 
L 461.696018 260.365509 
L 462.843694 262.938566 
L 463.99137 265.500439 
L 465.139046 268.046389 
L 466.286722 270.572018 
L 467.434398 273.07326 
L 468.582074 275.546376 
L 469.729749 277.98794 
L 470.877425 280.394833 
L 472.025101 282.764237 
L 473.172777 285.093614 
L 474.320453 287.380705 
L 475.468129 289.623513 
L 476.615805 291.820292 
L 477.76348 293.969535 
L 478.911156 296.069965 
" clip-path="url(#p94fb95475f)" style="fill: none; stroke: #000000; stroke-width: 0.5; stroke-linecap: square"/>
   </g>
   <g id="patch_28">
    <path d="M 353.584953 356.909588 
L 353.584953 205.709588 
" style="fill: none; stroke: #000000; stroke-width: 0.8; stroke-linejoin: miter; stroke-linecap: square"/>
   </g>
   <g id="patch_29">
    <path d="M 484.879071 356.909588 
L 484.879071 205.709588 
" style="fill: none; stroke: #000000; stroke-width: 0.8; stroke-linejoin: miter; stroke-linecap: square"/>
   </g>
   <g id="patch_30">
    <path d="M 353.584953 356.909588 
L 484.879071 356.909588 
" style="fill: none; stroke: #000000; stroke-width: 0.8; stroke-linejoin: miter; stroke-linecap: square"/>
   </g>
   <g id="patch_31">
    <path d="M 353.584953 205.709588 
L 484.879071 205.709588 
" style="fill: none; stroke: #000000; stroke-width: 0.8; stroke-linejoin: miter; stroke-linecap: square"/>
   </g>
   <g id="text_34">
    <!-- $n, l = {3,2}$ -->
    <g transform="translate(386.779916 199.709588) scale(0.16 -0.16)">
     <use xlink:href="#CMMI12-6e" transform="scale(0.996264)"/>
     <use xlink:href="#CMMI12-3b" transform="translate(58.230047 0) scale(0.996264)"/>
     <use xlink:href="#CMMI12-6c" transform="translate(101.93163 0) scale(0.996264)"/>
     <use xlink:href="#CMR17-3d" transform="translate(160.854042 0) scale(0.996264)"/>
     <use xlink:href="#CMR17-33" transform="translate(260.242839 0) scale(0.996264)"/>
     <use xlink:href="#CMMI12-3b" transform="translate(305.933316 0) scale(0.996264)"/>
     <use xlink:href="#CMR17-32" transform="translate(349.634899 0) scale(0.996264)"/>
    </g>
   </g>
  </g>
 </g>
 <defs>
  <clipPath id="p95200920c5">
   <rect x="38.479071" y="24.269588" width="131.294118" height="151.2"/>
  </clipPath>
  <clipPath id="pb62ff36545">
   <rect x="196.032012" y="24.269588" width="131.294118" height="151.2"/>
  </clipPath>
  <clipPath id="p1f0e6736c6">
   <rect x="353.584953" y="24.269588" width="131.294118" height="151.2"/>
  </clipPath>
  <clipPath id="p823f7ccd37">
   <rect x="38.479071" y="205.709588" width="131.294118" height="151.2"/>
  </clipPath>
  <clipPath id="pc8efd37132">
   <rect x="196.032012" y="205.709588" width="131.294118" height="151.2"/>
  </clipPath>
  <clipPath id="p94fb95475f">
   <rect x="353.584953" y="205.709588" width="131.294118" height="151.2"/>
  </clipPath>
 </defs>
</svg>
