<?xml version="1.0" encoding="utf-8" standalone="no"?>
<!DOCTYPE svg PUBLIC "-//W3C//DTD SVG 1.1//EN"
  "http://www.w3.org/Graphics/SVG/1.1/DTD/svg11.dtd">
<!-- Created with matplotlib (https://matplotlib.org/) -->
<svg height="307.173995pt" version="1.1" viewBox="0 0 416.686436 307.173995" width="416.686436pt" xmlns="http://www.w3.org/2000/svg" xmlns:xlink="http://www.w3.org/1999/xlink">
 <defs>
  <style type="text/css">
*{stroke-linecap:butt;stroke-linejoin:round;}
  </style>
 </defs>
 <g id="figure_1">
  <g id="patch_1">
   <path d="M 0 307.173995 
L 416.686436 307.173995 
L 416.686436 0 
L 0 0 
z
" style="fill:#ffffff;"/>
  </g>
  <g id="axes_1">
   <g id="patch_2">
    <path d="M 71.186436 255.32 
L 405.986436 255.32 
L 405.986436 10.7 
L 71.186436 10.7 
z
" style="fill:#ffffff;"/>
   </g>
   <g id="matplotlib.axis_1">
    <g id="xtick_1">
     <g id="line2d_1">
      <defs>
       <path d="M 0 0 
L 0 3.5 
" id="m1434105cb7" style="stroke:#000000;stroke-width:0.8;"/>
      </defs>
      <g>
       <use style="stroke:#000000;stroke-width:0.8;" x="85.919436" xlink:href="#m1434105cb7" y="255.32"/>
      </g>
     </g>
     <g id="line2d_2">
      <defs>
       <path d="M 0 0 
L 0 -3.5 
" id="ma44f656ed6" style="stroke:#000000;stroke-width:0.8;"/>
      </defs>
      <g>
       <use style="stroke:#000000;stroke-width:0.8;" x="85.919436" xlink:href="#ma44f656ed6" y="10.7"/>
      </g>
     </g>
     <g id="text_1">
      <!-- 0 -->
      <defs>
       <path d="M 42 31.84375 
C 42 37.96875 41.90625 48.421875 37.703125 56.453125 
C 34 63.484375 28.09375 66 22.90625 66 
C 18.09375 66 12 63.78125 8.203125 56.5625 
C 4.203125 49.015625 3.796875 39.671875 3.796875 31.84375 
C 3.796875 26.109375 3.90625 17.375 7 9.734375 
C 11.296875 -0.609375 19 -2 22.90625 -2 
C 27.5 -2 34.5 -0.109375 38.59375 9.4375 
C 41.59375 16.375 42 24.5 42 31.84375 
z
M 22.90625 -0.40625 
C 16.5 -0.40625 12.703125 5.125 11.296875 12.75 
C 10.203125 18.6875 10.203125 27.328125 10.203125 32.953125 
C 10.203125 40.6875 10.203125 47.109375 11.5 53.234375 
C 13.40625 61.78125 19 64.390625 22.90625 64.390625 
C 27 64.390625 32.296875 61.671875 34.203125 53.4375 
C 35.5 47.71875 35.59375 40.984375 35.59375 32.953125 
C 35.59375 26.421875 35.59375 18.375 34.40625 12.453125 
C 32.296875 1.5 26.40625 -0.40625 22.90625 -0.40625 
z
" id="CMR17-48"/>
      </defs>
      <g transform="translate(81.807293 274.7733)scale(0.18 -0.18)">
       <use transform="scale(0.996264)" xlink:href="#CMR17-48"/>
      </g>
     </g>
    </g>
    <g id="xtick_2">
     <g id="line2d_3">
      <g>
       <use style="stroke:#000000;stroke-width:0.8;" x="162.13164" xlink:href="#m1434105cb7" y="255.32"/>
      </g>
     </g>
     <g id="line2d_4">
      <g>
       <use style="stroke:#000000;stroke-width:0.8;" x="162.13164" xlink:href="#ma44f656ed6" y="10.7"/>
      </g>
     </g>
     <g id="text_2">
      <!-- $\pi$ -->
      <defs>
       <path d="M 25.90625 37.59375 
L 37.203125 37.59375 
C 34.5 26.421875 32.796875 19.140625 32.796875 11.171875 
C 32.796875 9.765625 32.796875 -1 36.90625 -1 
C 39 -1 40.796875 0.890625 40.796875 2.59375 
C 40.796875 3.09375 40.796875 3.28125 40.09375 4.78125 
C 37.40625 11.65625 37.40625 20.234375 37.40625 20.9375 
C 37.40625 21.53125 37.40625 28.625 39.5 37.59375 
L 50.703125 37.59375 
C 52 37.59375 55.296875 37.59375 55.296875 40.796875 
C 55.296875 43 53.40625 43 51.59375 43 
L 18.703125 43 
C 16.40625 43 13 43 8.40625 38.09375 
C 5.796875 35.203125 2.59375 29.921875 2.59375 29.3125 
C 2.59375 28.71875 3.09375 28.515625 3.703125 28.515625 
C 4.40625 28.515625 4.5 28.8125 5 29.421875 
C 10.203125 37.59375 15.40625 37.59375 17.90625 37.59375 
L 23.59375 37.59375 
C 21.40625 30.109375 18.90625 21.4375 10.703125 3.984375 
C 9.90625 2.390625 9.90625 2.1875 9.90625 1.59375 
C 9.90625 -0.5 11.703125 -1 12.59375 -1 
C 15.5 -1 16.296875 1.59375 17.5 5.78125 
C 19.09375 10.859375 19.09375 11.0625 20.09375 15.0625 
z
" id="CMMI12-25"/>
      </defs>
      <g transform="translate(157.151399 274.7733)scale(0.18 -0.18)">
       <use transform="scale(0.996264)" xlink:href="#CMMI12-25"/>
      </g>
     </g>
    </g>
    <g id="xtick_3">
     <g id="line2d_5">
      <g>
       <use style="stroke:#000000;stroke-width:0.8;" x="238.343845" xlink:href="#m1434105cb7" y="255.32"/>
      </g>
     </g>
     <g id="line2d_6">
      <g>
       <use style="stroke:#000000;stroke-width:0.8;" x="238.343845" xlink:href="#ma44f656ed6" y="10.7"/>
      </g>
     </g>
     <g id="text_3">
      <!-- $2\pi$ -->
      <defs>
       <path d="M 41.703125 15.46875 
L 39.90625 15.46875 
C 38.90625 8.390625 38.09375 7.1875 37.703125 6.59375 
C 37.203125 5.796875 30 5.796875 28.59375 5.796875 
L 9.40625 5.796875 
C 13 9.6875 20 16.765625 28.5 24.9375 
C 34.59375 30.71875 41.703125 37.5 41.703125 47.390625 
C 41.703125 59.1875 32.296875 66 21.796875 66 
C 10.796875 66 4.09375 56.296875 4.09375 47.296875 
C 4.09375 43.390625 7 42.890625 8.203125 42.890625 
C 9.203125 42.890625 12.203125 43.484375 12.203125 46.984375 
C 12.203125 50.09375 9.59375 51 8.203125 51 
C 7.59375 51 7 50.890625 6.59375 50.6875 
C 8.5 59.1875 14.296875 63.390625 20.40625 63.390625 
C 29.09375 63.390625 34.796875 56.5 34.796875 47.390625 
C 34.796875 38.703125 29.703125 31.21875 24 24.734375 
L 4.09375 2.296875 
L 4.09375 0 
L 39.296875 0 
z
" id="CMR17-50"/>
      </defs>
      <g transform="translate(229.251461 274.7733)scale(0.18 -0.18)">
       <use transform="scale(0.996264)" xlink:href="#CMR17-50"/>
       <use transform="translate(45.690477 0)scale(0.996264)" xlink:href="#CMMI12-25"/>
      </g>
     </g>
    </g>
    <g id="xtick_4">
     <g id="line2d_7">
      <g>
       <use style="stroke:#000000;stroke-width:0.8;" x="314.556049" xlink:href="#m1434105cb7" y="255.32"/>
      </g>
     </g>
     <g id="line2d_8">
      <g>
       <use style="stroke:#000000;stroke-width:0.8;" x="314.556049" xlink:href="#ma44f656ed6" y="10.7"/>
      </g>
     </g>
     <g id="text_4">
      <!-- $3\pi$ -->
      <defs>
       <path d="M 22.09375 34 
C 31 34 34.90625 26.140625 34.90625 17.09375 
C 34.90625 5.03125 28.5 0.390625 22.703125 0.390625 
C 17.40625 0.390625 8.796875 3.015625 6.09375 10.796875 
C 6.59375 10.59375 7.09375 10.59375 7.59375 10.59375 
C 10 10.59375 11.796875 12.1875 11.796875 14.796875 
C 11.796875 17.6875 9.59375 19 7.59375 19 
C 5.90625 19 3.296875 18.1875 3.296875 14.484375 
C 3.296875 5.234375 12.296875 -2 22.90625 -2 
C 34 -2 42.5 6.75 42.5 16.984375 
C 42.5 26.84375 34.5 34 25 35.09375 
C 32.59375 36.671875 39.90625 43.375 39.90625 52.390625 
C 39.90625 60.25 32 66 23 66 
C 13.90625 66 5.90625 60.34375 5.90625 52.296875 
C 5.90625 48.796875 8.5 48.1875 9.796875 48.1875 
C 11.90625 48.1875 13.703125 49.484375 13.703125 52.09375 
C 13.703125 54.6875 11.90625 56 9.796875 56 
C 9.40625 56 8.90625 56 8.5 55.796875 
C 11.40625 62.484375 19.296875 63.6875 22.796875 63.6875 
C 26.296875 63.6875 32.90625 61.96875 32.90625 52.296875 
C 32.90625 49.484375 32.5 44.546875 29.09375 40.21875 
C 26.09375 36.390625 22.703125 36.1875 19.40625 35.890625 
C 18.90625 35.890625 16.59375 35.6875 16.203125 35.6875 
C 15.5 35.59375 15.09375 35.5 15.09375 34.796875 
C 15.09375 34.09375 15.203125 34 17.203125 34 
z
" id="CMR17-51"/>
      </defs>
      <g transform="translate(305.463666 274.7733)scale(0.18 -0.18)">
       <use transform="scale(0.996264)" xlink:href="#CMR17-51"/>
       <use transform="translate(45.690477 0)scale(0.996264)" xlink:href="#CMMI12-25"/>
      </g>
     </g>
    </g>
    <g id="xtick_5">
     <g id="line2d_9">
      <g>
       <use style="stroke:#000000;stroke-width:0.8;" x="390.768254" xlink:href="#m1434105cb7" y="255.32"/>
      </g>
     </g>
     <g id="line2d_10">
      <g>
       <use style="stroke:#000000;stroke-width:0.8;" x="390.768254" xlink:href="#ma44f656ed6" y="10.7"/>
      </g>
     </g>
     <g id="text_5">
      <!-- $4\pi$ -->
      <defs>
       <path d="M 33.59375 64.796875 
C 33.59375 66.890625 33.5 67 31.703125 67 
L 2 19.59375 
L 2 17 
L 27.796875 17 
L 27.796875 7.1875 
C 27.796875 3.59375 27.59375 2.59375 20.59375 2.59375 
L 18.703125 2.59375 
L 18.703125 0 
C 21.90625 0.1875 27.296875 0.1875 30.703125 0.1875 
C 34.09375 0.1875 39.5 0.1875 42.703125 0 
L 42.703125 2.59375 
L 40.796875 2.59375 
C 33.796875 2.59375 33.59375 3.59375 33.59375 7.1875 
L 33.59375 17 
L 43.796875 17 
L 43.796875 19.59375 
L 33.59375 19.59375 
z
M 28.09375 58.171875 
L 28.09375 19.59375 
L 4 19.59375 
z
" id="CMR17-52"/>
      </defs>
      <g transform="translate(381.67587 274.7733)scale(0.18 -0.18)">
       <use transform="scale(0.996264)" xlink:href="#CMR17-52"/>
       <use transform="translate(45.690477 0)scale(0.996264)" xlink:href="#CMMI12-25"/>
      </g>
     </g>
    </g>
    <g id="text_6">
     <!-- $kr$ -->
     <defs>
      <path d="M 28.09375 66.484375 
C 28.203125 66.890625 28.40625 67.484375 28.40625 67.984375 
C 28.40625 69 27.40625 69 27.203125 69 
C 27.09375 69 23.5 68.6875 21.703125 68.484375 
C 20 68.390625 18.5 68.1875 16.703125 68.09375 
C 14.296875 67.890625 13.59375 67.796875 13.59375 65.984375 
C 13.59375 64.984375 14.59375 64.984375 15.59375 64.984375 
C 20.703125 64.984375 20.703125 64.109375 20.703125 63.125 
C 20.703125 62.71875 20.703125 62.53125 20.203125 60.75 
L 5.90625 3.90625 
C 5.5 2.390625 5.5 2.203125 5.5 1.59375 
C 5.5 -0.609375 7.203125 -1 8.203125 -1 
C 11 -1 11.59375 1.1875 12.40625 4.296875 
L 17.09375 23.0625 
C 24.296875 22.265625 28.59375 19.25 28.59375 14.4375 
C 28.59375 13.828125 28.59375 13.4375 28.296875 11.921875 
C 27.90625 10.421875 27.90625 9.21875 27.90625 8.71875 
C 27.90625 2.890625 31.703125 -1 36.796875 -1 
C 41.40625 -1 43.796875 3.203125 44.59375 4.609375 
C 46.703125 8.3125 48 13.9375 48 14.328125 
C 48 14.828125 47.59375 15.234375 47 15.234375 
C 46.09375 15.234375 46 14.828125 45.59375 13.234375 
C 44.203125 8.015625 42.09375 1 37 1 
C 35 1 33.703125 2 33.703125 5.8125 
C 33.703125 7.71875 34.09375 9.921875 34.5 11.421875 
C 34.90625 13.234375 34.90625 13.328125 34.90625 14.53125 
C 34.90625 20.453125 29.59375 23.765625 20.40625 24.96875 
C 24 27.171875 27.59375 31.078125 29 32.59375 
C 34.703125 38.984375 38.59375 41.984375 43.203125 41.984375 
C 45.5 41.984375 46.09375 41.484375 46.796875 41 
C 43.09375 40.59375 41.703125 37.984375 41.703125 35.984375 
C 41.703125 33.59375 43.59375 32.796875 45 32.796875 
C 47.703125 32.796875 50.09375 35.09375 50.09375 38.296875 
C 50.09375 41.15625 47.796875 44 43.296875 44 
C 37.796875 44 33.296875 40.296875 26.203125 32.296875 
C 25.203125 31.078125 21.5 27.28125 17.796875 25.875 
z
" id="CMMI12-107"/>
      <path d="M 38.90625 41.140625 
C 35.796875 40.59375 34.203125 38.390625 34.203125 36.1875 
C 34.203125 33.796875 36.09375 32.984375 37.5 32.984375 
C 40.296875 32.984375 42.59375 35.390625 42.59375 38.390625 
C 42.59375 41.421875 39.5 44 34.5 44 
C 30.5 44 25.90625 42.1875 21.703125 36.484375 
C 21 41.5625 17 44 13 44 
C 9.09375 44 7.09375 41.28125 5.90625 39.1875 
C 4.203125 35.59375 2.703125 29.5625 2.703125 29.0625 
C 2.703125 28.65625 3.09375 28.140625 3.796875 28.140625 
C 4.59375 28.140625 4.703125 28.25 5.296875 30.578125 
C 6.796875 36.59375 8.703125 41.984375 12.703125 41.984375 
C 15.09375 41.984375 15.796875 40.6875 15.796875 37.796875 
C 15.796875 35.59375 14.796875 31.6875 14.09375 28.546875 
L 11.296875 17.65625 
C 10.90625 15.734375 9.796875 11.1875 9.296875 9.375 
C 8.59375 6.75 7.5 2 7.5 1.5 
C 7.5 0.09375 8.59375 -1 10.09375 -1 
C 11.203125 -1 13.09375 -0.3125 13.703125 1.703125 
C 14 2.5 17.703125 17.75 18.296875 20.078125 
C 18.796875 22.296875 19.40625 24.40625 19.90625 26.640625 
C 20.296875 28.046875 20.703125 29.65625 21 30.96875 
C 21.296875 31.875 24 36.796875 26.5 38.984375 
C 27.703125 40.09375 30.296875 41.984375 34.40625 41.984375 
C 36 41.984375 37.59375 41.78125 38.90625 41.140625 
z
" id="CMMI12-114"/>
     </defs>
     <g transform="translate(228.782426 296.098361)scale(0.2 -0.2)">
      <use transform="scale(0.996264)" xlink:href="#CMMI12-107"/>
      <use transform="translate(54.079201 0)scale(0.996264)" xlink:href="#CMMI12-114"/>
     </g>
    </g>
   </g>
   <g id="matplotlib.axis_2">
    <g id="ytick_1">
     <g id="line2d_11">
      <defs>
       <path d="M 0 0 
L -3.5 0 
" id="m3b6a996d5d" style="stroke:#000000;stroke-width:0.8;"/>
      </defs>
      <g>
       <use style="stroke:#000000;stroke-width:0.8;" x="71.186436" xlink:href="#m3b6a996d5d" y="232.61803"/>
      </g>
     </g>
     <g id="line2d_12">
      <defs>
       <path d="M 0 0 
L 3.5 0 
" id="m49997144c1" style="stroke:#000000;stroke-width:0.8;"/>
      </defs>
      <g>
       <use style="stroke:#000000;stroke-width:0.8;" x="405.986436" xlink:href="#m49997144c1" y="232.61803"/>
      </g>
     </g>
     <g id="text_7">
      <!-- $-1.0$ -->
      <defs>
       <path d="M 65.90625 23 
C 67.59375 23 69.40625 23 69.40625 25 
C 69.40625 27 67.59375 27 65.90625 27 
L 11.796875 27 
C 10.09375 27 8.296875 27 8.296875 25 
C 8.296875 23 10.09375 23 11.796875 23 
z
" id="CMSY10-0"/>
       <path d="M 26.59375 63.796875 
C 26.59375 65.890625 26.5 66 25.09375 66 
C 21.203125 61.359375 15.296875 59.890625 9.703125 59.6875 
C 9.40625 59.6875 8.90625 59.6875 8.796875 59.5 
C 8.703125 59.296875 8.703125 59.09375 8.703125 57 
C 11.796875 57 17 57.59375 21 59.984375 
L 21 7.296875 
C 21 3.796875 20.796875 2.59375 12.203125 2.59375 
L 9.203125 2.59375 
L 9.203125 0 
C 14 0.09375 19 0.1875 23.796875 0.1875 
C 28.59375 0.1875 33.59375 0.09375 38.40625 0 
L 38.40625 2.59375 
L 35.40625 2.59375 
C 26.796875 2.59375 26.59375 3.6875 26.59375 7.296875 
z
" id="CMR17-49"/>
       <path d="M 18.40625 4.796875 
C 18.40625 7.6875 16 9.6875 13.59375 9.6875 
C 10.703125 9.6875 8.703125 7.296875 8.703125 4.890625 
C 8.703125 2 11.09375 0 13.5 0 
C 16.40625 0 18.40625 2.390625 18.40625 4.796875 
z
" id="CMMI12-58"/>
      </defs>
      <g transform="translate(28.91263 238.84468)scale(0.18 -0.18)">
       <use transform="scale(0.996264)" xlink:href="#CMSY10-0"/>
       <use transform="translate(77.487468 0)scale(0.996264)" xlink:href="#CMR17-49"/>
       <use transform="translate(123.177945 0)scale(0.996264)" xlink:href="#CMMI12-58"/>
       <use transform="translate(150.275122 0)scale(0.996264)" xlink:href="#CMR17-48"/>
      </g>
     </g>
    </g>
    <g id="ytick_2">
     <g id="line2d_13">
      <g>
       <use style="stroke:#000000;stroke-width:0.8;" x="71.186436" xlink:href="#m3b6a996d5d" y="189.237404"/>
      </g>
     </g>
     <g id="line2d_14">
      <g>
       <use style="stroke:#000000;stroke-width:0.8;" x="405.986436" xlink:href="#m49997144c1" y="189.237404"/>
      </g>
     </g>
     <g id="text_8">
      <!-- $-0.5$ -->
      <defs>
       <path d="M 11.40625 58.59375 
C 12.40625 58.1875 16.5 56.890625 20.703125 56.890625 
C 30 56.890625 35.09375 61.890625 38 64.6875 
C 38 65.484375 38 66 37.40625 66 
C 37.296875 66 37.09375 66 36.296875 65.59375 
C 32.796875 64.09375 28.703125 63 23.703125 63 
C 20.703125 63 16.203125 63.359375 11.296875 65.484375 
C 10.203125 66 10 66 9.90625 66 
C 9.40625 66 9.296875 65.890625 9.296875 63.90625 
L 9.296875 34.859375 
C 9.296875 33.015625 9.296875 32.5 10.296875 32.5 
C 10.796875 32.5 11 32.703125 11.5 33.421875 
C 14.703125 38.046875 19.09375 40 24.09375 40 
C 27.59375 40 35.09375 37.734375 35.09375 20.203125 
C 35.09375 16.984375 35.09375 11.1875 32.09375 6.59375 
C 29.59375 2.484375 25.703125 0.390625 21.40625 0.390625 
C 14.796875 0.390625 8.09375 4.984375 6.296875 12.6875 
C 6.703125 12.59375 7.5 12.390625 7.90625 12.390625 
C 9.203125 12.390625 11.703125 13.09375 11.703125 16.1875 
C 11.703125 18.890625 9.796875 20 7.90625 20 
C 5.59375 20 4.09375 18.59375 4.09375 15.796875 
C 4.09375 7.09375 11 -2 21.59375 -2 
C 31.90625 -2 41.703125 6.890625 41.703125 19.796875 
C 41.703125 32.09375 33.90625 41.59375 24.203125 41.59375 
C 19.09375 41.59375 14.796875 39.6875 11.40625 36 
z
" id="CMR17-53"/>
      </defs>
      <g transform="translate(28.91263 195.464054)scale(0.18 -0.18)">
       <use transform="scale(0.996264)" xlink:href="#CMSY10-0"/>
       <use transform="translate(77.487468 0)scale(0.996264)" xlink:href="#CMR17-48"/>
       <use transform="translate(123.177945 0)scale(0.996264)" xlink:href="#CMMI12-58"/>
       <use transform="translate(150.275122 0)scale(0.996264)" xlink:href="#CMR17-53"/>
      </g>
     </g>
    </g>
    <g id="ytick_3">
     <g id="line2d_15">
      <g>
       <use style="stroke:#000000;stroke-width:0.8;" x="71.186436" xlink:href="#m3b6a996d5d" y="145.856777"/>
      </g>
     </g>
     <g id="line2d_16">
      <g>
       <use style="stroke:#000000;stroke-width:0.8;" x="405.986436" xlink:href="#m49997144c1" y="145.856777"/>
      </g>
     </g>
     <g id="text_9">
      <!-- $0.0$ -->
      <g transform="translate(42.860372 152.083428)scale(0.18 -0.18)">
       <use transform="scale(0.996264)" xlink:href="#CMR17-48"/>
       <use transform="translate(45.690477 0)scale(0.996264)" xlink:href="#CMMI12-58"/>
       <use transform="translate(72.787654 0)scale(0.996264)" xlink:href="#CMR17-48"/>
      </g>
     </g>
    </g>
    <g id="ytick_4">
     <g id="line2d_17">
      <g>
       <use style="stroke:#000000;stroke-width:0.8;" x="71.186436" xlink:href="#m3b6a996d5d" y="102.476151"/>
      </g>
     </g>
     <g id="line2d_18">
      <g>
       <use style="stroke:#000000;stroke-width:0.8;" x="405.986436" xlink:href="#m49997144c1" y="102.476151"/>
      </g>
     </g>
     <g id="text_10">
      <!-- $0.5$ -->
      <g transform="translate(42.860372 108.702801)scale(0.18 -0.18)">
       <use transform="scale(0.996264)" xlink:href="#CMR17-48"/>
       <use transform="translate(45.690477 0)scale(0.996264)" xlink:href="#CMMI12-58"/>
       <use transform="translate(72.787654 0)scale(0.996264)" xlink:href="#CMR17-53"/>
      </g>
     </g>
    </g>
    <g id="ytick_5">
     <g id="line2d_19">
      <g>
       <use style="stroke:#000000;stroke-width:0.8;" x="71.186436" xlink:href="#m3b6a996d5d" y="59.095525"/>
      </g>
     </g>
     <g id="line2d_20">
      <g>
       <use style="stroke:#000000;stroke-width:0.8;" x="405.986436" xlink:href="#m49997144c1" y="59.095525"/>
      </g>
     </g>
     <g id="text_11">
      <!-- $1.0$ -->
      <g transform="translate(42.860372 65.322175)scale(0.18 -0.18)">
       <use transform="scale(0.996264)" xlink:href="#CMR17-49"/>
       <use transform="translate(45.690477 0)scale(0.996264)" xlink:href="#CMMI12-58"/>
       <use transform="translate(72.787654 0)scale(0.996264)" xlink:href="#CMR17-48"/>
      </g>
     </g>
    </g>
    <g id="ytick_6">
     <g id="line2d_21">
      <g>
       <use style="stroke:#000000;stroke-width:0.8;" x="71.186436" xlink:href="#m3b6a996d5d" y="15.714899"/>
      </g>
     </g>
     <g id="line2d_22">
      <g>
       <use style="stroke:#000000;stroke-width:0.8;" x="405.986436" xlink:href="#m49997144c1" y="15.714899"/>
      </g>
     </g>
     <g id="text_12">
      <!-- $1.5$ -->
      <g transform="translate(42.860372 21.941549)scale(0.18 -0.18)">
       <use transform="scale(0.996264)" xlink:href="#CMR17-49"/>
       <use transform="translate(45.690477 0)scale(0.996264)" xlink:href="#CMMI12-58"/>
       <use transform="translate(72.787654 0)scale(0.996264)" xlink:href="#CMR17-53"/>
      </g>
     </g>
    </g>
    <g id="text_13">
     <!-- $r R_0$ -->
     <defs>
      <path d="M 36.796875 61.203125 
C 37.703125 64.890625 38.09375 65.09375 42 65.09375 
L 49.203125 65.09375 
C 57.796875 65.09375 64.203125 62.5 64.203125 54.734375 
C 64.203125 49.640625 61.59375 35 41.5 35 
L 30.203125 35 
z
M 50.703125 33.796875 
C 63.09375 36.484375 72.796875 44.46875 72.796875 53.03125 
C 72.796875 60.8125 64.90625 68 51 68 
L 23.90625 68 
C 21.90625 68 21 68 21 66.09375 
C 21 65.09375 21.703125 65.09375 23.59375 65.09375 
C 29.59375 65.09375 29.59375 64.296875 29.59375 63.203125 
C 29.59375 63 29.59375 62.40625 29.203125 60.90625 
L 15.703125 7.421875 
C 14.796875 3.953125 14.59375 2.96875 7.703125 2.96875 
C 5.40625 2.96875 4.703125 2.96875 4.703125 1.078125 
C 4.703125 0.09375 5.796875 0.09375 6.09375 0.09375 
C 7.90625 0.09375 10 0.296875 11.90625 0.296875 
L 23.703125 0.296875 
C 25.5 0.296875 27.59375 0.09375 29.40625 0.09375 
C 30.203125 0.09375 31.296875 0.09375 31.296875 1.96875 
C 31.296875 2.96875 30.40625 2.96875 28.90625 2.96875 
C 22.796875 2.96875 22.796875 3.765625 22.796875 4.75 
C 22.796875 4.84375 22.796875 5.546875 23 6.328125 
L 29.703125 33 
L 41.703125 33 
C 51.203125 33 53 27.046875 53 23.78125 
C 53 22.28125 52 18.421875 51.296875 15.84375 
C 50.203125 11.296875 49.90625 10.203125 49.90625 8.3125 
C 49.90625 1.28125 55.703125 -2 62.40625 -2 
C 70.5 -2 74 7.828125 74 9.203125 
C 74 9.90625 73.5 10.203125 72.90625 10.203125 
C 72.09375 10.203125 71.90625 9.609375 71.703125 8.8125 
C 69.296875 1.78125 65.203125 0 62.703125 0 
C 60.203125 0 58.59375 1.078125 58.59375 5.546875 
C 58.59375 7.921875 59.796875 16.9375 59.90625 17.4375 
C 60.40625 21.09375 60.40625 21.5 60.40625 22.28125 
C 60.40625 29.515625 54.5 32.59375 50.703125 33.796875 
z
" id="CMMI12-82"/>
     </defs>
     <g transform="translate(21.036997 148.516373)rotate(-90)scale(0.2 -0.2)">
      <use transform="translate(0 14.943915)scale(0.996264)" xlink:href="#CMMI12-114"/>
      <use transform="translate(46.670612 14.943915)scale(0.996264)" xlink:href="#CMMI12-82"/>
      <use transform="translate(120.921438 0)scale(0.697382)" xlink:href="#CMR17-48"/>
     </g>
    </g>
   </g>
   <g id="line2d_23">
    <path clip-path="url(#p11588b1acc)" d="M 86.404618 144.240581 
L 89.985366 132.80264 
L 92.372532 125.733457 
L 94.759698 119.183219 
L 97.146864 113.209181 
L 99.534029 107.862479 
L 101.921195 103.187663 
L 104.308361 99.222296 
L 106.695527 95.996619 
L 107.88911 94.668548 
L 109.082692 93.533293 
L 110.276275 92.592473 
L 111.469858 91.847212 
L 112.663441 91.298141 
L 113.857024 90.945395 
L 115.050607 90.788616 
L 116.24419 90.826954 
L 117.437773 91.059069 
L 118.631356 91.483139 
L 119.824938 92.096861 
L 121.018521 92.897461 
L 122.212104 93.881702 
L 123.405687 95.045891 
L 124.59927 96.385891 
L 126.986436 99.574618 
L 129.373602 103.40634 
L 131.760767 107.833224 
L 134.147933 112.801648 
L 136.535099 118.252755 
L 140.115848 127.194472 
L 143.696596 136.848153 
L 148.470928 150.402127 
L 156.826008 174.296226 
L 160.406757 183.944406 
L 163.987505 192.886742 
L 166.374671 198.345825 
L 168.761837 203.331798 
L 171.149003 207.789228 
L 173.536168 211.668208 
L 175.923334 214.924851 
L 178.3105 217.521722 
L 179.504083 218.562901 
L 180.697666 219.428207 
L 181.891249 220.114927 
L 183.084831 220.620808 
L 184.278414 220.944064 
L 185.471997 221.083375 
L 186.66558 221.037896 
L 187.859163 220.807257 
L 189.052746 220.391561 
L 190.246329 219.791386 
L 191.439912 219.007785 
L 192.633495 218.04228 
L 193.827077 216.896858 
L 195.02066 215.573969 
L 197.407826 212.407857 
L 199.794992 208.572497 
L 202.182158 204.103305 
L 204.569323 199.042203 
L 206.956489 193.437196 
L 209.343655 187.341894 
L 212.924404 177.409226 
L 216.505152 166.722714 
L 221.279484 151.707782 
L 230.828147 121.27326 
L 234.408896 110.494653 
L 237.989644 100.442084 
L 240.37681 94.255651 
L 242.763976 88.554173 
L 245.151142 83.394812 
L 247.538307 78.829493 
L 249.925473 74.904383 
L 252.312639 71.659429 
L 253.506222 70.302692 
L 254.699805 69.127953 
L 255.893388 68.138288 
L 257.086971 67.336319 
L 258.280553 66.72421 
L 259.474136 66.30366 
L 260.667719 66.075899 
L 261.861302 66.041684 
L 263.054885 66.201298 
L 264.248468 66.554548 
L 265.442051 67.100766 
L 266.635634 67.838809 
L 267.829217 68.767063 
L 269.022799 69.883447 
L 270.216382 71.185416 
L 271.409965 72.669968 
L 273.797131 76.172574 
L 276.184297 80.35841 
L 278.571462 85.187876 
L 280.958628 90.615012 
L 283.345794 96.587939 
L 285.73296 103.049364 
L 289.313708 113.520288 
L 292.894457 124.722441 
L 298.862372 144.350843 
L 306.023869 168.016207 
L 309.604618 179.289772 
L 313.185366 189.857481 
L 315.572532 196.394936 
L 317.959698 202.450889 
L 320.346864 207.96588 
L 322.734029 212.88565 
L 325.121195 217.16168 
L 327.508361 220.751669 
L 328.701944 222.277982 
L 329.895527 223.619949 
L 331.08911 224.774206 
L 332.282692 225.737844 
L 333.476275 226.508417 
L 334.669858 227.083949 
L 335.863441 227.462936 
L 337.057024 227.644353 
L 338.250607 227.627652 
L 339.44419 227.412772 
L 340.637773 227.00013 
L 341.831356 226.390625 
L 343.024938 225.585637 
L 344.218521 224.587022 
L 345.412104 223.397105 
L 346.605687 222.01868 
L 348.992853 218.709773 
L 351.380019 214.691693 
L 353.767184 210.00276 
L 356.15435 204.687848 
L 358.541516 198.797952 
L 360.928682 192.389704 
L 364.50943 181.941665 
L 368.090179 170.693789 
L 372.864511 154.876562 
L 383.606757 118.869127 
L 387.187505 107.669353 
L 390.768254 97.288221 
L 390.768254 97.288221 
" style="fill:none;stroke:#800000;stroke-linecap:square;"/>
   </g>
   <g id="line2d_24">
    <path clip-path="url(#p11588b1acc)" d="M 86.404618 144.121668 
L 92.372532 123.048872 
L 95.953281 110.98578 
L 99.534029 99.681046 
L 101.921195 92.688117 
L 104.308361 86.209611 
L 106.695527 80.308211 
L 109.082692 75.041015 
L 111.469858 70.458984 
L 113.857024 66.60645 
L 115.050607 64.96568 
L 116.24419 63.520689 
L 117.437773 62.274977 
L 118.631356 61.231556 
L 119.824938 60.392954 
L 121.018521 59.7612 
L 122.212104 59.337822 
L 123.405687 59.123845 
L 124.59927 59.119788 
L 125.792853 59.32566 
L 126.986436 59.740962 
L 128.180019 60.364691 
L 129.373602 61.195335 
L 130.567184 62.230885 
L 131.760767 63.468834 
L 132.95435 64.906187 
L 134.147933 66.539463 
L 136.535099 70.377513 
L 138.922265 74.945848 
L 141.30943 80.20027 
L 143.696596 86.089939 
L 146.083762 92.557872 
L 148.470928 99.541489 
L 152.051676 110.834811 
L 155.632425 122.889773 
L 161.600339 143.956763 
L 168.761837 169.275181 
L 172.342585 181.306819 
L 175.923334 192.567506 
L 178.3105 199.524537 
L 180.697666 205.962315 
L 183.084831 211.818553 
L 185.471997 217.03659 
L 187.859163 221.565939 
L 190.246329 225.362777 
L 191.439912 226.974738 
L 192.633495 228.39037 
L 193.827077 229.606245 
L 195.02066 230.619423 
L 196.214243 231.42745 
L 197.407826 232.028371 
L 198.601409 232.420731 
L 199.794992 232.60358 
L 200.988575 232.576477 
L 202.182158 232.339487 
L 203.375741 231.893183 
L 204.569323 231.238646 
L 205.762906 230.377459 
L 206.956489 229.311707 
L 208.150072 228.04397 
L 209.343655 226.577316 
L 210.537238 224.915294 
L 212.924404 221.021701 
L 215.311569 216.400864 
L 217.698735 211.097489 
L 220.085901 205.16289 
L 222.473067 198.654486 
L 224.860233 191.635246 
L 228.440981 180.298323 
L 232.02173 168.212381 
L 237.989644 147.12351 
L 245.151142 121.829124 
L 248.73189 109.829581 
L 252.312639 98.613541 
L 254.699805 91.692779 
L 257.086971 85.296071 
L 259.474136 79.485308 
L 261.861302 74.316709 
L 264.248468 69.840284 
L 266.635634 66.099343 
L 267.829217 64.516277 
L 269.022799 63.13008 
L 270.216382 61.944106 
L 271.409965 60.961225 
L 272.603548 60.183816 
L 273.797131 59.613761 
L 274.990714 59.25244 
L 276.184297 59.100727 
L 277.37788 59.158989 
L 278.571462 59.427085 
L 279.765045 59.904366 
L 280.958628 60.589678 
L 282.152211 61.481361 
L 283.345794 62.577258 
L 284.539377 63.874715 
L 285.73296 65.370593 
L 288.120126 68.942659 
L 290.507291 73.258893 
L 292.894457 78.277535 
L 295.281623 83.950028 
L 297.668789 90.221488 
L 300.055954 97.031238 
L 303.636703 108.109761 
L 307.217452 120.009187 
L 311.991783 136.702898 
L 321.540446 170.492401 
L 325.121195 182.459208 
L 328.701944 193.630004 
L 331.08911 200.514128 
L 333.476275 206.869424 
L 335.863441 212.634404 
L 338.250607 217.753289 
L 340.637773 222.176552 
L 343.024938 225.861397 
L 344.218521 227.415482 
L 345.412104 228.772171 
L 346.605687 229.928181 
L 347.79927 230.880713 
L 348.992853 231.627461 
L 350.186436 232.16662 
L 351.380019 232.496883 
L 352.573602 232.617452 
L 353.767184 232.528034 
L 354.960767 232.228847 
L 356.15435 231.720613 
L 357.347933 231.004564 
L 358.541516 230.082432 
L 359.735099 228.956449 
L 360.928682 227.62934 
L 362.122265 226.104318 
L 364.50943 222.475766 
L 366.896596 218.105901 
L 369.283762 213.037002 
L 371.670928 207.318114 
L 374.058094 201.004567 
L 376.445259 194.157447 
L 380.026008 183.032492 
L 383.606757 171.099057 
L 388.381088 154.380565 
L 390.768254 145.856777 
L 390.768254 145.856777 
" style="fill:none;stroke:#808080;stroke-dasharray:3.7,1.6;stroke-dashoffset:0;"/>
   </g>
   <g id="line2d_25">
    <path clip-path="url(#p11588b1acc)" d="M 86.404618 144.22661 
L 91.178949 127.572856 
L 105.501944 76.194084 
L 109.082692 64.478851 
L 111.469858 57.202229 
L 113.857024 50.438104 
L 116.24419 44.255151 
L 118.631356 38.717058 
L 121.018521 33.881901 
L 123.405687 29.801563 
L 124.59927 28.05884 
L 125.792853 26.521207 
L 126.986436 25.193185 
L 128.180019 24.07882 
L 129.373602 23.181675 
L 130.567184 22.504819 
L 131.760767 22.050817 
L 132.95435 21.821727 
L 134.147933 21.819091 
L 135.341516 22.04393 
L 136.535099 22.496743 
L 137.728682 23.177502 
L 138.922265 24.085654 
L 140.115848 25.220118 
L 141.30943 26.579288 
L 142.503013 28.161038 
L 143.696596 29.962721 
L 146.083762 34.212747 
L 148.470928 39.29807 
L 150.858094 45.179564 
L 153.245259 51.810618 
L 155.632425 59.137546 
L 158.019591 67.100066 
L 161.600339 80.088978 
L 165.181088 94.111301 
L 169.95542 113.948458 
L 184.278414 174.685172 
L 187.859163 188.58887 
L 191.439912 201.416295 
L 193.827077 209.245377 
L 196.214243 216.4167 
L 198.601409 222.86858 
L 200.988575 228.545897 
L 203.375741 233.400612 
L 205.762906 237.392226 
L 206.956489 239.053872 
L 208.150072 240.488163 
L 209.343655 241.692315 
L 210.537238 242.664074 
L 211.730821 243.401722 
L 212.924404 243.904079 
L 214.117987 244.170506 
L 215.311569 244.200909 
L 216.505152 243.995738 
L 217.698735 243.555986 
L 218.892318 242.883185 
L 220.085901 241.979406 
L 221.279484 240.847251 
L 222.473067 239.48985 
L 223.66665 237.91085 
L 224.860233 236.11441 
L 227.247398 231.888333 
L 229.634564 226.854695 
L 232.02173 221.063993 
L 234.408896 214.573672 
L 236.796061 207.447587 
L 239.183227 199.755395 
L 242.763976 187.320539 
L 246.344725 174.051757 
L 252.312639 150.868948 
L 259.474136 122.99776 
L 263.054885 109.738187 
L 266.635634 97.310265 
L 269.022799 89.61833 
L 271.409965 82.486345 
L 273.797131 75.981334 
L 276.184297 70.164234 
L 278.571462 65.089321 
L 280.958628 60.803705 
L 282.152211 58.969535 
L 283.345794 57.346889 
L 284.539377 55.939455 
L 285.73296 54.750404 
L 286.926543 53.782386 
L 288.120126 53.037518 
L 289.313708 52.517382 
L 290.507291 52.223021 
L 291.700874 52.15494 
L 292.894457 52.313099 
L 294.08804 52.696918 
L 295.281623 53.30528 
L 296.475206 54.136526 
L 297.668789 55.188471 
L 298.862372 56.458397 
L 300.055954 57.943071 
L 301.249537 59.638746 
L 303.636703 63.645604 
L 306.023869 68.439135 
L 308.411035 73.972025 
L 310.7982 80.189937 
L 313.185366 87.032045 
L 315.572532 94.431617 
L 319.153281 106.41747 
L 322.734029 119.233114 
L 328.701944 141.673759 
L 335.863441 168.716532 
L 339.44419 181.601278 
L 343.024938 193.687008 
L 345.412104 201.170817 
L 347.79927 208.111744 
L 350.186436 214.443493 
L 352.573602 220.105694 
L 354.960767 225.044476 
L 357.347933 229.212984 
L 358.541516 230.99577 
L 359.735099 232.571818 
L 360.928682 233.937427 
L 362.122265 235.089409 
L 363.315848 236.025089 
L 364.50943 236.742315 
L 365.703013 237.239464 
L 366.896596 237.51544 
L 368.090179 237.569685 
L 369.283762 237.402172 
L 370.477345 237.01341 
L 371.670928 236.40444 
L 372.864511 235.576834 
L 374.058094 234.53269 
L 375.251676 233.274627 
L 376.445259 231.805777 
L 377.638842 230.129781 
L 380.026008 226.173391 
L 382.413174 221.44434 
L 384.800339 215.988929 
L 387.187505 209.860417 
L 389.574671 203.118511 
L 390.768254 199.537814 
L 390.768254 199.537814 
" style="fill:none;stroke:#000080;stroke-linecap:square;"/>
   </g>
   <g id="patch_3">
    <path d="M 71.186436 255.32 
L 71.186436 10.7 
" style="fill:none;stroke:#000000;stroke-linecap:square;stroke-linejoin:miter;stroke-width:0.8;"/>
   </g>
   <g id="patch_4">
    <path d="M 405.986436 255.32 
L 405.986436 10.7 
" style="fill:none;stroke:#000000;stroke-linecap:square;stroke-linejoin:miter;stroke-width:0.8;"/>
   </g>
   <g id="patch_5">
    <path d="M 71.186436 255.32 
L 405.986436 255.32 
" style="fill:none;stroke:#000000;stroke-linecap:square;stroke-linejoin:miter;stroke-width:0.8;"/>
   </g>
   <g id="patch_6">
    <path d="M 71.186436 10.7 
L 405.986436 10.7 
" style="fill:none;stroke:#000000;stroke-linecap:square;stroke-linejoin:miter;stroke-width:0.8;"/>
   </g>
   <g id="text_14">
    <!-- $V &lt; 0$ -->
    <defs>
     <path d="M 61.90625 56.9375 
C 65.296875 62.296875 68.40625 64.6875 73.5 65.09375 
C 74.5 65.1875 75.296875 65.1875 75.296875 66.984375 
C 75.296875 67.390625 75.09375 68 74.203125 68 
C 72.40625 68 68.09375 67.796875 66.296875 67.796875 
C 63.40625 67.796875 60.40625 68 57.59375 68 
C 56.796875 68 55.796875 68 55.796875 66.09375 
C 55.796875 65.1875 56.703125 65.09375 57.09375 65.09375 
C 60.796875 64.78125 61.203125 63 61.203125 61.8125 
C 61.203125 60.3125 59.796875 58.03125 59.703125 57.9375 
L 28.296875 8.4375 
L 21.296875 62 
C 21.296875 64.890625 26.5 65.09375 27.59375 65.09375 
C 29.09375 65.09375 30 65.09375 30 66.984375 
C 30 68 28.90625 68 28.59375 68 
C 26.90625 68 24.90625 67.796875 23.203125 67.796875 
L 17.59375 67.796875 
C 10.296875 67.796875 7.296875 68 7.203125 68 
C 6.59375 68 5.40625 68 5.40625 66.1875 
C 5.40625 65.09375 6.09375 65.09375 7.703125 65.09375 
C 12.796875 65.09375 13.09375 64.1875 13.40625 61.703125 
L 21.40625 0.390625 
C 21.703125 -1.703125 21.703125 -2 23.09375 -2 
C 24.296875 -2 24.796875 -1.703125 25.796875 -0.109375 
z
" id="CMMI12-86"/>
     <path d="M 65.90625 48.96875 
C 67.703125 49.78125 67.90625 50.484375 67.90625 51.09375 
C 67.90625 52.1875 67.09375 53 66 53 
C 65.796875 53 65.703125 52.890625 64.296875 52.296875 
L 10.203125 27.15625 
C 8.40625 26.359375 8.203125 25.640625 8.203125 25.046875 
C 8.203125 24.328125 8.296875 23.734375 10.203125 22.8125 
L 64.296875 -2.3125 
C 65.59375 -2.90625 65.796875 -3 66 -3 
C 67.09375 -3 67.90625 -2.203125 67.90625 -1.109375 
C 67.90625 -0.5 67.703125 0.203125 65.90625 1.015625 
L 14.40625 24.9375 
z
" id="CMMI12-60"/>
    </defs>
    <g style="fill:#800000;" transform="translate(98.048985 171.885153)scale(0.18 -0.18)">
     <use transform="scale(0.996264)" xlink:href="#CMMI12-86"/>
     <use transform="translate(106.221329 0)scale(0.996264)" xlink:href="#CMMI12-60"/>
     <use transform="translate(209.767434 0)scale(0.996264)" xlink:href="#CMR17-48"/>
    </g>
   </g>
   <g id="text_15">
    <!-- $0$ -->
    <g transform="translate(163.54855 137.180652)scale(0.18 -0.18)">
     <use transform="scale(0.996264)" xlink:href="#CMR17-48"/>
    </g>
   </g>
   <g id="text_16">
    <!-- $&gt; 0$ -->
    <defs>
     <path d="M 65.90625 22.8125 
C 67.796875 23.734375 67.90625 24.328125 67.90625 25.046875 
C 67.90625 25.640625 67.703125 26.359375 65.90625 27.15625 
L 11.796875 52.296875 
C 10.5 52.890625 10.296875 53 10.09375 53 
C 8.90625 53 8.203125 51.984375 8.203125 51.1875 
C 8.203125 49.984375 9 49.578125 10.296875 48.96875 
L 61.703125 25.046875 
L 10.203125 1.015625 
C 8.203125 0.109375 8.203125 -0.609375 8.203125 -1.203125 
C 8.203125 -2 8.90625 -3 10.09375 -3 
C 10.296875 -3 10.40625 -2.90625 11.796875 -2.3125 
z
" id="CMMI12-62"/>
    </defs>
    <g style="fill:#000080;" transform="translate(168.400369 76.447775)scale(0.18 -0.18)">
     <use transform="scale(0.996264)" xlink:href="#CMMI12-62"/>
     <use transform="translate(103.546105 0)scale(0.996264)" xlink:href="#CMR17-48"/>
    </g>
   </g>
   <g id="legend_1">
    <g id="patch_7">
     <path d="M 289.521818 100.364193 
L 393.386436 100.364193 
Q 396.986436 100.364193 396.986436 96.764193 
L 396.986436 23.3 
Q 396.986436 19.7 393.386436 19.7 
L 289.521818 19.7 
Q 285.921818 19.7 285.921818 23.3 
L 285.921818 96.764193 
Q 285.921818 100.364193 289.521818 100.364193 
z
" style="fill:#ffffff;opacity:0.8;stroke:#cccccc;stroke-linejoin:miter;"/>
    </g>
    <g id="line2d_26">
     <path d="M 293.121818 33.2 
L 329.121818 33.2 
" style="fill:none;stroke:#800000;stroke-linecap:square;"/>
    </g>
    <g id="line2d_27"/>
    <g id="text_17">
     <!-- $\delta_0 &gt; 0$ -->
     <defs>
      <path d="M 26 43.671875 
C 13.203125 40.578125 4 27.3125 4 15.640625 
C 4 4.984375 11.203125 -1 19.203125 -1 
C 31 -1 39 15.15625 39 28.40625 
C 39 37.390625 34.796875 42.859375 32.296875 46.15625 
C 28.59375 50.84375 22.59375 58.515625 22.59375 63.3125 
C 22.59375 65 23.90625 68 28.296875 68 
C 31.40625 68 33.296875 66.890625 36.296875 65.203125 
C 37.203125 64.59375 39.5 63.3125 40.796875 63.3125 
C 42.90625 63.3125 44.40625 65.40625 44.40625 67 
C 44.40625 68.890625 42.90625 69.1875 39.40625 70 
C 34.703125 71 33.296875 71 31.59375 71 
C 29.90625 71 20.09375 71 20.09375 60.8125 
C 20.09375 55.921875 22.59375 50.25 26 43.671875 
z
M 27.09375 41.765625 
C 30.90625 33.890625 32.40625 30.90625 32.40625 24.421875 
C 32.40625 16.640625 28.203125 1 19.296875 1 
C 15.40625 1 9.796875 3.578125 9.796875 12.859375 
C 9.796875 19.34375 13.5 38.1875 27.09375 41.765625 
z
" id="CMMI12-14"/>
     </defs>
     <g transform="translate(343.521818 39.5)scale(0.18 -0.18)">
      <use transform="translate(0 14.943915)scale(0.996264)" xlink:href="#CMMI12-14"/>
      <use transform="translate(43.205457 0)scale(0.697382)" xlink:href="#CMR17-48"/>
      <use transform="translate(103.36078 14.943915)scale(0.996264)" xlink:href="#CMMI12-62"/>
      <use transform="translate(206.906884 14.943915)scale(0.996264)" xlink:href="#CMR17-48"/>
     </g>
    </g>
    <g id="line2d_28">
     <path d="M 293.121818 58.288064 
L 329.121818 58.288064 
" style="fill:none;stroke:#808080;stroke-dasharray:3.7,1.6;stroke-dashoffset:0;"/>
    </g>
    <g id="line2d_29"/>
    <g id="text_18">
     <!-- $\delta_0 = 0$ -->
     <defs>
      <path d="M 64.296875 32 
C 65.796875 32 67.296875 32 67.296875 33.6875 
C 67.296875 35.5 65.59375 35.5 63.90625 35.5 
L 8 35.5 
C 6.296875 35.5 4.59375 35.5 4.59375 33.6875 
C 4.59375 32 6.09375 32 7.59375 32 
z
M 63.90625 14.484375 
C 65.59375 14.484375 67.296875 14.484375 67.296875 16.296875 
C 67.296875 18 65.796875 18 64.296875 18 
L 7.59375 18 
C 6.09375 18 4.59375 18 4.59375 16.296875 
C 4.59375 14.484375 6.296875 14.484375 8 14.484375 
z
" id="CMR17-61"/>
     </defs>
     <g transform="translate(343.521818 64.588064)scale(0.18 -0.18)">
      <use transform="translate(0 14.943915)scale(0.996264)" xlink:href="#CMMI12-14"/>
      <use transform="translate(43.205457 0)scale(0.697382)" xlink:href="#CMR17-48"/>
      <use transform="translate(103.36078 14.943915)scale(0.996264)" xlink:href="#CMR17-61"/>
      <use transform="translate(202.749577 14.943915)scale(0.996264)" xlink:href="#CMR17-48"/>
     </g>
    </g>
    <g id="line2d_30">
     <path d="M 293.121818 83.376128 
L 329.121818 83.376128 
" style="fill:none;stroke:#000080;stroke-linecap:square;"/>
    </g>
    <g id="line2d_31"/>
    <g id="text_19">
     <!-- $\delta_0 &lt; 0$ -->
     <g transform="translate(343.521818 89.676128)scale(0.18 -0.18)">
      <use transform="translate(0 14.943915)scale(0.996264)" xlink:href="#CMMI12-14"/>
      <use transform="translate(43.205457 0)scale(0.697382)" xlink:href="#CMR17-48"/>
      <use transform="translate(103.36078 14.943915)scale(0.996264)" xlink:href="#CMMI12-60"/>
      <use transform="translate(206.906884 14.943915)scale(0.996264)" xlink:href="#CMR17-48"/>
     </g>
    </g>
   </g>
  </g>
 </g>
 <defs>
  <clipPath id="p11588b1acc">
   <rect height="244.62" width="334.8" x="71.186436" y="10.7"/>
  </clipPath>
 </defs>
</svg>
