<?xml version="1.0" encoding="utf-8" standalone="no"?>
<!DOCTYPE svg PUBLIC "-//W3C//DTD SVG 1.1//EN"
  "http://www.w3.org/Graphics/SVG/1.1/DTD/svg11.dtd">
<svg xmlns:xlink="http://www.w3.org/1999/xlink" width="411.889483pt" height="308.490535pt" viewBox="0 0 411.889483 308.490535" xmlns="http://www.w3.org/2000/svg" version="1.1">
 <metadata>
  <rdf:RDF xmlns:dc="http://purl.org/dc/elements/1.1/" xmlns:cc="http://creativecommons.org/ns#" xmlns:rdf="http://www.w3.org/1999/02/22-rdf-syntax-ns#">
   <cc:Work>
    <dc:type rdf:resource="http://purl.org/dc/dcmitype/StillImage"/>
    <dc:date>2023-11-25T19:25:59.694612</dc:date>
    <dc:format>image/svg+xml</dc:format>
    <dc:creator>
     <cc:Agent>
      <dc:title>Matplotlib v3.6.3, https://matplotlib.org/</dc:title>
     </cc:Agent>
    </dc:creator>
   </cc:Work>
  </rdf:RDF>
 </metadata>
 <defs>
  <style type="text/css">*{stroke-linejoin: round; stroke-linecap: butt}</style>
 </defs>
 <g id="figure_1">
  <g id="patch_1">
   <path d="M 0 308.490535 
L 411.889483 308.490535 
L 411.889483 0 
L 0 0 
z
" style="fill: #ffffff"/>
  </g>
  <g id="axes_1">
   <g id="patch_2">
    <path d="M 66.389483 260.18 
L 401.189483 260.18 
L 401.189483 10.7 
L 66.389483 10.7 
z
" style="fill: #ffffff"/>
   </g>
   <g id="matplotlib.axis_1">
    <g id="xtick_1">
     <g id="line2d_1">
      <defs>
       <path id="m58fae62b4f" d="M 0 0 
L 0 3.5 
" style="stroke: #000000; stroke-width: 0.8"/>
      </defs>
      <g>
       <use xlink:href="#m58fae62b4f" x="144.270766" y="260.18" style="stroke: #000000; stroke-width: 0.8"/>
      </g>
     </g>
     <g id="line2d_2">
      <defs>
       <path id="m0f51a306cf" d="M 0 0 
L 0 -3.5 
" style="stroke: #000000; stroke-width: 0.8"/>
      </defs>
      <g>
       <use xlink:href="#m0f51a306cf" x="144.270766" y="10.7" style="stroke: #000000; stroke-width: 0.8"/>
      </g>
     </g>
     <g id="text_1">
      <!-- $\mathdefault{−1}$ -->
      <g transform="translate(135.432404 276.865876) scale(0.14 -0.14)">
       <defs>
        <path id="CMSY10-0" d="M 4218 1472 
C 4326 1472 4442 1472 4442 1600 
C 4442 1728 4326 1728 4218 1728 
L 755 1728 
C 646 1728 531 1728 531 1600 
C 531 1472 646 1472 755 1472 
L 4218 1472 
z
" transform="scale(0.015625)"/>
        <path id="CMR17-31" d="M 1702 4058 
C 1702 4192 1696 4192 1606 4192 
C 1357 3916 979 3827 621 3827 
C 602 3827 570 3827 563 3808 
C 557 3795 557 3782 557 3648 
C 755 3648 1088 3686 1344 3839 
L 1344 461 
C 1344 236 1331 160 781 160 
L 589 160 
L 589 0 
C 896 0 1216 0 1523 0 
C 1830 0 2150 0 2458 0 
L 2458 160 
L 2266 160 
C 1715 160 1702 230 1702 458 
L 1702 4058 
z
" transform="scale(0.015625)"/>
       </defs>
       <use xlink:href="#CMSY10-0" transform="scale(0.996264)"/>
       <use xlink:href="#CMR17-31" transform="translate(77.487468 0) scale(0.996264)"/>
      </g>
     </g>
    </g>
    <g id="xtick_2">
     <g id="line2d_3">
      <g>
       <use xlink:href="#m58fae62b4f" x="233.789483" y="260.18" style="stroke: #000000; stroke-width: 0.8"/>
      </g>
     </g>
     <g id="line2d_4">
      <g>
       <use xlink:href="#m0f51a306cf" x="233.789483" y="10.7" style="stroke: #000000; stroke-width: 0.8"/>
      </g>
     </g>
     <g id="text_2">
      <!-- $\mathdefault{0}$ -->
      <g transform="translate(230.375239 276.865876) scale(0.14 -0.14)">
       <defs>
        <path id="CMR17-30" d="M 2688 2025 
C 2688 2416 2682 3080 2413 3591 
C 2176 4039 1798 4198 1466 4198 
C 1158 4198 768 4058 525 3597 
C 269 3118 243 2524 243 2025 
C 243 1661 250 1106 448 619 
C 723 -39 1216 -128 1466 -128 
C 1760 -128 2208 -7 2470 600 
C 2662 1042 2688 1559 2688 2025 
z
M 1466 -26 
C 1056 -26 813 325 723 812 
C 653 1188 653 1738 653 2096 
C 653 2588 653 2997 736 3387 
C 858 3929 1216 4096 1466 4096 
C 1728 4096 2067 3923 2189 3400 
C 2272 3036 2278 2607 2278 2096 
C 2278 1680 2278 1169 2202 792 
C 2067 95 1690 -26 1466 -26 
z
" transform="scale(0.015625)"/>
       </defs>
       <use xlink:href="#CMR17-30" transform="scale(0.996264)"/>
      </g>
     </g>
    </g>
    <g id="xtick_3">
     <g id="line2d_5">
      <g>
       <use xlink:href="#m58fae62b4f" x="323.308199" y="260.18" style="stroke: #000000; stroke-width: 0.8"/>
      </g>
     </g>
     <g id="line2d_6">
      <g>
       <use xlink:href="#m0f51a306cf" x="323.308199" y="10.7" style="stroke: #000000; stroke-width: 0.8"/>
      </g>
     </g>
     <g id="text_3">
      <!-- $\mathdefault{1}$ -->
      <g transform="translate(319.893955 276.865876) scale(0.14 -0.14)">
       <use xlink:href="#CMR17-31" transform="scale(0.996264)"/>
      </g>
     </g>
    </g>
    <g id="text_4">
     <!-- $m$ -->
     <g transform="translate(225.25676 297.414902) scale(0.2 -0.2)">
      <defs>
       <path id="CMMI12-6d" d="M 1318 1871 
C 1331 1910 1491 2229 1728 2433 
C 1894 2586 2112 2689 2362 2689 
C 2618 2689 2707 2497 2707 2242 
C 2707 2203 2707 2076 2630 1775 
L 2470 1118 
C 2419 926 2298 453 2285 383 
C 2259 287 2221 121 2221 96 
C 2221 6 2291 -64 2387 -64 
C 2579 -64 2611 83 2669 313 
L 3053 1839 
C 3066 1890 3398 2689 4102 2689 
C 4358 2689 4448 2497 4448 2242 
C 4448 1884 4198 1188 4058 805 
C 4000 651 3968 568 3968 453 
C 3968 166 4166 -64 4474 -64 
C 5069 -64 5293 875 5293 913 
C 5293 945 5267 971 5229 971 
C 5171 971 5165 952 5133 843 
C 4986 332 4749 64 4493 64 
C 4429 64 4326 64 4326 269 
C 4326 436 4403 640 4429 710 
C 4544 1018 4832 1773 4832 2145 
C 4832 2528 4608 2816 4122 2816 
C 3693 2816 3347 2574 3091 2197 
C 3072 2542 2861 2816 2381 2816 
C 1811 2816 1510 2415 1395 2255 
C 1376 2618 1114 2816 832 2816 
C 646 2816 499 2727 378 2484 
C 262 2254 173 1865 173 1839 
C 173 1814 198 1782 243 1782 
C 294 1782 301 1788 339 1935 
C 435 2312 557 2689 813 2689 
C 960 2689 1011 2586 1011 2395 
C 1011 2254 947 2005 902 1807 
L 723 1118 
C 698 996 627 709 595 594 
C 550 428 480 128 480 96 
C 480 6 550 -64 646 -64 
C 723 -64 813 -26 864 70 
C 877 102 934 326 966 453 
L 1107 1028 
L 1318 1871 
z
" transform="scale(0.015625)"/>
      </defs>
      <use xlink:href="#CMMI12-6d" transform="scale(0.996264)"/>
     </g>
    </g>
   </g>
   <g id="matplotlib.axis_2">
    <g id="ytick_1">
     <g id="line2d_7">
      <defs>
       <path id="m97c3706ef4" d="M 0 0 
L -3.5 0 
" style="stroke: #000000; stroke-width: 0.8"/>
      </defs>
      <g>
       <use xlink:href="#m97c3706ef4" x="66.389483" y="231.393846" style="stroke: #000000; stroke-width: 0.8"/>
      </g>
     </g>
     <g id="line2d_8">
      <defs>
       <path id="mc2f03e0233" d="M 0 0 
L 3.5 0 
" style="stroke: #000000; stroke-width: 0.8"/>
      </defs>
      <g>
       <use xlink:href="#mc2f03e0233" x="401.189483" y="231.393846" style="stroke: #000000; stroke-width: 0.8"/>
      </g>
     </g>
     <g id="text_5">
      <!-- $\mathdefault{−0.4}$ -->
      <g transform="translate(31.090666 236.236784) scale(0.14 -0.14)">
       <defs>
        <path id="CMMI12-3a" d="M 1178 307 
C 1178 492 1024 619 870 619 
C 685 619 557 466 557 313 
C 557 128 710 0 864 0 
C 1050 0 1178 153 1178 307 
z
" transform="scale(0.015625)"/>
        <path id="CMR17-34" d="M 2150 4122 
C 2150 4256 2144 4256 2029 4256 
L 128 1254 
L 128 1088 
L 1779 1088 
L 1779 457 
C 1779 224 1766 160 1318 160 
L 1197 160 
L 1197 0 
C 1402 0 1747 0 1965 0 
C 2182 0 2528 0 2733 0 
L 2733 160 
L 2611 160 
C 2163 160 2150 224 2150 457 
L 2150 1088 
L 2803 1088 
L 2803 1254 
L 2150 1254 
L 2150 4122 
z
M 1798 3703 
L 1798 1254 
L 256 1254 
L 1798 3703 
z
" transform="scale(0.015625)"/>
       </defs>
       <use xlink:href="#CMSY10-0" transform="scale(0.996264)"/>
       <use xlink:href="#CMR17-30" transform="translate(77.487468 0) scale(0.996264)"/>
       <use xlink:href="#CMMI12-3a" transform="translate(123.177945 0) scale(0.996264)"/>
       <use xlink:href="#CMR17-34" transform="translate(150.275122 0) scale(0.996264)"/>
      </g>
     </g>
    </g>
    <g id="ytick_2">
     <g id="line2d_9">
      <g>
       <use xlink:href="#m97c3706ef4" x="66.389483" y="183.416923" style="stroke: #000000; stroke-width: 0.8"/>
      </g>
     </g>
     <g id="line2d_10">
      <g>
       <use xlink:href="#mc2f03e0233" x="401.189483" y="183.416923" style="stroke: #000000; stroke-width: 0.8"/>
      </g>
     </g>
     <g id="text_6">
      <!-- $\mathdefault{−0.2}$ -->
      <g transform="translate(31.090666 188.259861) scale(0.14 -0.14)">
       <defs>
        <path id="CMR17-32" d="M 2669 989 
L 2554 989 
C 2490 536 2438 459 2413 420 
C 2381 369 1920 369 1830 369 
L 602 369 
C 832 619 1280 1072 1824 1597 
C 2214 1967 2669 2402 2669 3035 
C 2669 3790 2067 4224 1395 4224 
C 691 4224 262 3604 262 3030 
C 262 2780 448 2748 525 2748 
C 589 2748 781 2787 781 3010 
C 781 3207 614 3264 525 3264 
C 486 3264 448 3258 422 3245 
C 544 3790 915 4058 1306 4058 
C 1862 4058 2227 3617 2227 3035 
C 2227 2479 1901 2000 1536 1584 
L 262 146 
L 262 0 
L 2515 0 
L 2669 989 
z
" transform="scale(0.015625)"/>
       </defs>
       <use xlink:href="#CMSY10-0" transform="scale(0.996264)"/>
       <use xlink:href="#CMR17-30" transform="translate(77.487468 0) scale(0.996264)"/>
       <use xlink:href="#CMMI12-3a" transform="translate(123.177945 0) scale(0.996264)"/>
       <use xlink:href="#CMR17-32" transform="translate(150.275122 0) scale(0.996264)"/>
      </g>
     </g>
    </g>
    <g id="ytick_3">
     <g id="line2d_11">
      <g>
       <use xlink:href="#m97c3706ef4" x="66.389483" y="135.44" style="stroke: #000000; stroke-width: 0.8"/>
      </g>
     </g>
     <g id="line2d_12">
      <g>
       <use xlink:href="#mc2f03e0233" x="401.189483" y="135.44" style="stroke: #000000; stroke-width: 0.8"/>
      </g>
     </g>
     <g id="text_7">
      <!-- $\mathdefault{0.0}$ -->
      <g transform="translate(41.938901 140.282938) scale(0.14 -0.14)">
       <use xlink:href="#CMR17-30" transform="scale(0.996264)"/>
       <use xlink:href="#CMMI12-3a" transform="translate(45.690477 0) scale(0.996264)"/>
       <use xlink:href="#CMR17-30" transform="translate(72.787654 0) scale(0.996264)"/>
      </g>
     </g>
    </g>
    <g id="ytick_4">
     <g id="line2d_13">
      <g>
       <use xlink:href="#m97c3706ef4" x="66.389483" y="87.463077" style="stroke: #000000; stroke-width: 0.8"/>
      </g>
     </g>
     <g id="line2d_14">
      <g>
       <use xlink:href="#mc2f03e0233" x="401.189483" y="87.463077" style="stroke: #000000; stroke-width: 0.8"/>
      </g>
     </g>
     <g id="text_8">
      <!-- $\mathdefault{0.2}$ -->
      <g transform="translate(41.938901 92.306015) scale(0.14 -0.14)">
       <use xlink:href="#CMR17-30" transform="scale(0.996264)"/>
       <use xlink:href="#CMMI12-3a" transform="translate(45.690477 0) scale(0.996264)"/>
       <use xlink:href="#CMR17-32" transform="translate(72.787654 0) scale(0.996264)"/>
      </g>
     </g>
    </g>
    <g id="ytick_5">
     <g id="line2d_15">
      <g>
       <use xlink:href="#m97c3706ef4" x="66.389483" y="39.486154" style="stroke: #000000; stroke-width: 0.8"/>
      </g>
     </g>
     <g id="line2d_16">
      <g>
       <use xlink:href="#mc2f03e0233" x="401.189483" y="39.486154" style="stroke: #000000; stroke-width: 0.8"/>
      </g>
     </g>
     <g id="text_9">
      <!-- $\mathdefault{0.4}$ -->
      <g transform="translate(41.938901 44.329092) scale(0.14 -0.14)">
       <use xlink:href="#CMR17-30" transform="scale(0.996264)"/>
       <use xlink:href="#CMMI12-3a" transform="translate(45.690477 0) scale(0.996264)"/>
       <use xlink:href="#CMR17-34" transform="translate(72.787654 0) scale(0.996264)"/>
      </g>
     </g>
    </g>
    <g id="text_10">
     <!-- $f(m,x)$ -->
     <g transform="translate(22.126022 166.814449) rotate(-90) scale(0.2 -0.2)">
      <defs>
       <path id="CMMI12-66" d="M 2854 2566 
C 2982 2566 3034 2566 3034 2688 
C 3034 2752 2982 2752 2867 2752 
L 2349 2752 
C 2470 3429 2560 3897 2611 4107 
C 2650 4265 2784 4416 2950 4416 
C 3085 4416 3219 4358 3283 4298 
C 3034 4272 2957 4082 2957 3969 
C 2957 3837 3053 3759 3174 3759 
C 3302 3759 3494 3870 3494 4119 
C 3494 4393 3226 4544 2944 4544 
C 2669 4544 2400 4334 2272 4078 
C 2157 3848 2093 3611 1946 2752 
L 1517 2752 
C 1395 2752 1331 2752 1331 2637 
C 1331 2566 1370 2566 1498 2566 
L 1907 2566 
C 1792 1976 1530 542 1382 -137 
C 1274 -689 1178 -1152 858 -1152 
C 838 -1152 653 -1152 538 -1031 
C 864 -1005 864 -726 864 -720 
C 864 -593 768 -517 646 -517 
C 518 -517 326 -625 326 -867 
C 326 -1140 608 -1280 858 -1280 
C 1510 -1280 1779 -118 1850 199 
C 1965 688 2278 2376 2310 2566 
L 2854 2566 
z
" transform="scale(0.015625)"/>
       <path id="CMR17-28" d="M 1958 -1561 
C 1958 -1555 1958 -1542 1939 -1523 
C 1645 -1224 858 -407 858 1581 
C 858 3569 1632 4379 1946 4697 
C 1946 4704 1958 4717 1958 4736 
C 1958 4755 1939 4768 1914 4768 
C 1843 4768 1299 4296 986 3594 
C 666 2887 576 2199 576 1588 
C 576 1128 621 351 1005 -471 
C 1312 -1135 1837 -1600 1914 -1600 
C 1946 -1600 1958 -1587 1958 -1561 
z
" transform="scale(0.015625)"/>
       <path id="CMMI12-3b" d="M 1248 -31 
C 1248 343 1126 619 864 619 
C 659 619 557 453 557 313 
C 557 172 653 0 870 0 
C 954 0 1024 26 1082 83 
C 1094 96 1101 96 1107 96 
C 1120 96 1120 5 1120 -27 
C 1120 -240 1082 -659 710 -1080 
C 640 -1157 640 -1170 640 -1183 
C 640 -1216 672 -1248 704 -1248 
C 755 -1248 1248 -771 1248 -31 
z
" transform="scale(0.015625)"/>
       <path id="CMMI12-78" d="M 3034 2606 
C 2829 2567 2752 2414 2752 2293 
C 2752 2139 2874 2088 2963 2088 
C 3155 2088 3290 2254 3290 2427 
C 3290 2695 2982 2816 2714 2816 
C 2323 2816 2106 2433 2048 2312 
C 1901 2816 1504 2816 1389 2816 
C 736 2816 390 1980 390 1839 
C 390 1814 416 1782 461 1782 
C 512 1782 525 1820 538 1846 
C 755 2555 1184 2689 1370 2689 
C 1658 2689 1715 2420 1715 2267 
C 1715 2127 1677 1980 1600 1673 
L 1382 798 
C 1286 415 1101 64 762 64 
C 730 64 570 64 435 147 
C 666 192 717 383 717 460 
C 717 588 621 664 499 664 
C 346 664 179 530 179 326 
C 179 57 480 -64 755 -64 
C 1062 -64 1280 179 1414 441 
C 1517 64 1837 -64 2074 -64 
C 2726 -64 3072 773 3072 913 
C 3072 945 3046 971 3008 971 
C 2950 971 2944 939 2925 888 
C 2752 326 2381 64 2093 64 
C 1869 64 1747 230 1747 492 
C 1747 632 1773 734 1875 1156 
L 2099 2024 
C 2195 2408 2413 2689 2707 2689 
C 2720 2689 2899 2689 3034 2606 
z
" transform="scale(0.015625)"/>
       <path id="CMR17-29" d="M 1683 1581 
C 1683 2040 1638 2817 1254 3639 
C 947 4303 422 4768 346 4768 
C 326 4768 301 4761 301 4729 
C 301 4717 307 4710 314 4697 
C 621 4378 1402 3568 1402 1584 
C 1402 -407 627 -1217 314 -1537 
C 307 -1549 301 -1556 301 -1568 
C 301 -1600 326 -1600 346 -1600 
C 416 -1600 960 -1128 1274 -426 
C 1594 281 1683 969 1683 1581 
z
" transform="scale(0.015625)"/>
      </defs>
      <use xlink:href="#CMMI12-66" transform="scale(0.996264)"/>
      <use xlink:href="#CMR17-28" transform="translate(58.720305 0) scale(0.996264)"/>
      <use xlink:href="#CMMI12-6d" transform="translate(94.001073 0) scale(0.996264)"/>
      <use xlink:href="#CMMI12-3b" transform="translate(179.328297 0) scale(0.996264)"/>
      <use xlink:href="#CMMI12-78" transform="translate(223.029879 0) scale(0.996264)"/>
      <use xlink:href="#CMR17-29" transform="translate(278.463939 0) scale(0.996264)"/>
     </g>
    </g>
   </g>
   <g id="line2d_17">
    <path d="M 81.607665 174.440533 
L 86.363347 183.022735 
L 91.119028 190.92792 
L 95.87471 198.156089 
L 100.630392 204.707244 
L 105.386074 210.581386 
L 107.763915 213.264579 
L 110.141756 215.778521 
L 112.519597 218.123212 
L 114.897437 220.298654 
L 117.275278 222.30485 
L 119.653119 224.1418 
L 122.03096 225.809508 
L 124.408801 227.307978 
L 126.786642 228.637215 
L 129.164483 229.797225 
L 131.542324 230.788016 
L 133.920165 231.6096 
L 136.298006 232.26199 
L 138.675847 232.745206 
L 141.053687 233.059272 
L 143.431528 233.204219 
L 145.809369 233.180088 
L 148.18721 232.986935 
L 150.565051 232.624828 
L 152.942892 232.093861 
L 155.320733 231.394152 
L 157.698574 230.525857 
L 160.076415 229.48918 
L 162.454256 228.284385 
L 164.832097 226.91182 
L 167.209937 225.371933 
L 169.587778 223.665312 
L 171.965619 221.792723 
L 174.34346 219.75516 
L 176.721301 217.553921 
L 179.099142 215.190692 
L 183.854824 209.987695 
L 188.610506 204.172779 
L 193.366187 197.790515 
L 198.121869 190.914775 
L 205.255392 179.957392 
L 212.388915 168.905985 
L 217.144597 162.084024 
L 219.522437 159.017702 
L 221.900278 156.271868 
L 224.278119 153.914169 
L 226.65596 152.0071 
L 229.033801 150.603912 
L 231.411642 149.745121 
L 233.789483 149.455998 
L 236.167324 149.745121 
L 238.545165 150.603912 
L 240.923006 152.0071 
L 243.300847 153.914169 
L 245.678687 156.271868 
L 248.056528 159.017702 
L 250.434369 162.084024 
L 255.190051 168.905985 
L 262.323574 179.957392 
L 269.457097 190.914775 
L 274.212778 197.790515 
L 278.96846 204.172779 
L 283.724142 209.987695 
L 288.479824 215.190692 
L 290.857665 217.553921 
L 293.235506 219.75516 
L 295.613347 221.792723 
L 297.991187 223.665312 
L 300.369028 225.371933 
L 302.746869 226.91182 
L 305.12471 228.284385 
L 307.502551 229.48918 
L 309.880392 230.525857 
L 312.258233 231.394152 
L 314.636074 232.093861 
L 317.013915 232.624828 
L 319.391756 232.986935 
L 321.769597 233.180088 
L 324.147437 233.204219 
L 326.525278 233.059272 
L 328.903119 232.745206 
L 331.28096 232.26199 
L 333.658801 231.6096 
L 336.036642 230.788016 
L 338.414483 229.797225 
L 340.792324 228.637215 
L 343.170165 227.307978 
L 345.548006 225.809508 
L 347.925847 224.1418 
L 350.303687 222.30485 
L 352.681528 220.298654 
L 355.059369 218.123212 
L 357.43721 215.778521 
L 359.815051 213.264579 
L 362.192892 210.581386 
L 366.948574 204.707244 
L 371.704256 198.156089 
L 376.459937 190.92792 
L 381.215619 183.022735 
L 385.971301 174.440533 
L 385.971301 174.440533 
" clip-path="url(#pcfc120cbe4)" style="fill: none; stroke: #000088; stroke-width: 0.5; stroke-linecap: square"/>
   </g>
   <g id="line2d_18">
    <path d="M 81.607665 87.689871 
L 86.363347 96.601369 
L 91.119028 104.891242 
L 95.87471 112.568518 
L 100.630392 119.643586 
L 105.386074 126.128375 
L 110.141756 132.036522 
L 114.897437 137.383562 
L 119.653119 142.187097 
L 124.408801 146.466965 
L 129.164483 150.245374 
L 133.920165 153.547004 
L 138.675847 156.399045 
L 143.431528 158.831154 
L 148.18721 160.875315 
L 152.942892 162.565581 
L 157.698574 163.937675 
L 162.454256 165.028449 
L 167.209937 165.875211 
L 171.965619 166.514933 
L 179.099142 167.164 
L 186.232665 167.538192 
L 195.744028 167.769818 
L 212.388915 167.858406 
L 269.457097 167.798204 
L 278.96846 167.618731 
L 286.101983 167.314218 
L 293.235506 166.768402 
L 297.991187 166.218678 
L 302.746869 165.480003 
L 307.502551 164.515897 
L 312.258233 163.289116 
L 317.013915 161.762486 
L 321.769597 159.899644 
L 326.525278 157.665644 
L 331.28096 155.027427 
L 336.036642 151.954146 
L 340.792324 148.417368 
L 345.548006 144.391158 
L 350.303687 139.852082 
L 355.059369 134.779131 
L 359.815051 129.153604 
L 364.570733 122.958955 
L 369.326415 116.18062 
L 374.082097 108.805839 
L 378.837778 100.823475 
L 383.59346 92.223838 
L 385.971301 87.689871 
L 385.971301 87.689871 
" clip-path="url(#pcfc120cbe4)" style="fill: none; stroke: #bbbbbb; stroke-width: 3; stroke-linecap: square"/>
   </g>
   <g id="line2d_19">
    <path d="M 81.607665 63.590555 
L 86.363347 72.172934 
L 91.119028 80.078419 
L 95.87471 87.307098 
L 100.630392 93.859121 
L 105.386074 99.734741 
L 107.763915 102.419025 
L 110.141756 104.934389 
L 112.519597 107.280935 
L 114.897437 109.458797 
L 117.275278 111.468147 
L 119.653119 113.309211 
L 122.03096 114.982284 
L 124.408801 116.487749 
L 126.786642 117.826106 
L 129.164483 118.998005 
L 131.542324 120.004294 
L 133.920165 120.846076 
L 136.298006 121.524783 
L 138.675847 122.042277 
L 141.053687 122.400976 
L 143.431528 122.604009 
L 145.809369 122.655423 
L 148.18721 122.560433 
L 150.565051 122.325744 
L 152.942892 121.959928 
L 157.698574 120.881385 
L 162.454256 119.449782 
L 171.965619 116.35713 
L 174.34346 115.746145 
L 176.721301 115.283527 
L 179.099142 115.009004 
L 181.476983 114.955524 
L 183.854824 115.145521 
L 186.232665 115.588073 
L 188.610506 116.277693 
L 190.988347 117.195063 
L 193.366187 118.309535 
L 198.121869 120.972352 
L 210.011074 128.282319 
L 214.766756 130.806714 
L 217.144597 131.90164 
L 219.522437 132.868943 
L 221.900278 133.699832 
L 224.278119 134.387587 
L 226.65596 134.927189 
L 229.033801 135.315022 
L 231.411642 135.548652 
L 233.789483 135.626682 
L 236.167324 135.548652 
L 238.545165 135.315022 
L 240.923006 134.927189 
L 243.300847 134.387587 
L 245.678687 133.699832 
L 248.056528 132.868943 
L 250.434369 131.90164 
L 255.190051 129.595484 
L 259.945733 126.885218 
L 271.834937 119.582715 
L 274.212778 118.309535 
L 276.590619 117.195063 
L 278.96846 116.277693 
L 281.346301 115.588073 
L 283.724142 115.145521 
L 286.101983 114.955524 
L 288.479824 115.009004 
L 290.857665 115.283527 
L 293.235506 115.746145 
L 297.991187 117.073811 
L 309.880392 120.881385 
L 314.636074 121.959928 
L 317.013915 122.325744 
L 319.391756 122.560433 
L 321.769597 122.655423 
L 324.147437 122.604009 
L 326.525278 122.400976 
L 328.903119 122.042277 
L 331.28096 121.524783 
L 333.658801 120.846076 
L 336.036642 120.004294 
L 338.414483 118.998005 
L 340.792324 117.826106 
L 343.170165 116.487749 
L 345.548006 114.982284 
L 347.925847 113.309211 
L 350.303687 111.468147 
L 352.681528 109.458797 
L 355.059369 107.280935 
L 357.43721 104.934389 
L 359.815051 102.419025 
L 362.192892 99.734741 
L 366.948574 93.859121 
L 371.704256 87.307098 
L 376.459937 80.078419 
L 381.215619 72.172934 
L 385.971301 63.590555 
L 385.971301 63.590555 
" clip-path="url(#pcfc120cbe4)" style="fill: none; stroke: #880000; stroke-width: 0.5; stroke-linecap: square"/>
   </g>
   <g id="patch_3">
    <path d="M 66.389483 260.18 
L 66.389483 10.7 
" style="fill: none; stroke: #000000; stroke-width: 0.8; stroke-linejoin: miter; stroke-linecap: square"/>
   </g>
   <g id="patch_4">
    <path d="M 401.189483 260.18 
L 401.189483 10.7 
" style="fill: none; stroke: #000000; stroke-width: 0.8; stroke-linejoin: miter; stroke-linecap: square"/>
   </g>
   <g id="patch_5">
    <path d="M 66.389483 260.18 
L 401.189483 260.18 
" style="fill: none; stroke: #000000; stroke-width: 0.8; stroke-linejoin: miter; stroke-linecap: square"/>
   </g>
   <g id="patch_6">
    <path d="M 66.389483 10.7 
L 401.189483 10.7 
" style="fill: none; stroke: #000000; stroke-width: 0.8; stroke-linejoin: miter; stroke-linecap: square"/>
   </g>
   <g id="legend_1">
    <g id="patch_7">
     <path d="M 243.665496 80.436085 
L 391.389483 80.436085 
Q 394.189483 80.436085 394.189483 77.636085 
L 394.189483 20.5 
Q 394.189483 17.7 391.389483 17.7 
L 243.665496 17.7 
Q 240.865496 17.7 240.865496 20.5 
L 240.865496 77.636085 
Q 240.865496 80.436085 243.665496 80.436085 
z
" style="fill: #ffffff; opacity: 0.8; stroke: #cccccc; stroke-linejoin: miter"/>
    </g>
    <g id="line2d_20">
     <path d="M 246.465496 28.2 
L 260.465496 28.2 
L 274.465496 28.2 
" style="fill: none; stroke: #000088; stroke-width: 0.5; stroke-linecap: square"/>
    </g>
    <g id="text_11">
     <!-- $x&lt;x_c, T = 0.3T_c$ -->
     <g transform="translate(285.665496 33.1) scale(0.14 -0.14)">
      <defs>
       <path id="CMMI12-3c" d="M 4218 3104 
C 4333 3155 4346 3200 4346 3238 
C 4346 3309 4294 3360 4224 3360 
C 4211 3360 4205 3353 4115 3315 
L 653 1719 
C 538 1667 525 1622 525 1584 
C 525 1539 531 1501 653 1442 
L 4115 -154 
C 4198 -192 4211 -192 4224 -192 
C 4294 -192 4346 -141 4346 -70 
C 4346 -32 4333 13 4218 64 
L 922 1581 
L 4218 3104 
z
" transform="scale(0.015625)"/>
       <path id="CMMI12-63" d="M 2502 2431 
C 2381 2431 2323 2431 2234 2355 
C 2195 2323 2125 2227 2125 2125 
C 2125 1997 2221 1920 2342 1920 
C 2496 1920 2669 2044 2669 2292 
C 2669 2588 2374 2816 1933 2816 
C 1094 2816 256 1903 256 996 
C 256 441 602 -64 1254 -64 
C 2125 -64 2675 622 2675 706 
C 2675 744 2637 776 2611 776 
C 2592 776 2586 770 2528 713 
C 2118 162 1510 64 1267 64 
C 826 64 685 446 685 764 
C 685 988 794 1605 1024 2039 
C 1190 2338 1536 2682 1939 2682 
C 2022 2682 2374 2682 2502 2431 
z
" transform="scale(0.015625)"/>
       <path id="CMMI12-54" d="M 2669 3910 
C 2707 4064 2720 4121 2816 4147 
C 2867 4160 3078 4160 3213 4160 
C 3853 4160 4154 4134 4154 3634 
C 4154 3537 4128 3295 4090 3057 
L 4083 2980 
C 4083 2954 4109 2916 4147 2916 
C 4211 2916 4211 2948 4230 3050 
L 4416 4184 
C 4429 4243 4429 4256 4429 4275 
C 4429 4345 4390 4345 4262 4345 
L 762 4345 
C 614 4345 608 4339 570 4224 
L 179 3070 
C 173 3056 154 2986 154 2980 
C 154 2948 179 2916 218 2916 
C 269 2916 282 2941 307 3024 
C 576 3801 710 4160 1562 4160 
L 1990 4160 
C 2144 4160 2208 4160 2208 4089 
C 2208 4069 2208 4057 2176 3941 
L 1318 499 
C 1254 249 1242 185 563 185 
C 403 185 358 185 358 64 
C 358 0 429 0 461 0 
C 621 0 787 0 947 0 
L 1946 0 
C 2106 0 2278 0 2438 0 
C 2509 0 2573 0 2573 121 
C 2573 185 2528 185 2362 185 
C 1786 185 1786 243 1786 339 
C 1786 346 1786 391 1811 494 
L 2669 3910 
z
" transform="scale(0.015625)"/>
       <path id="CMR17-3d" d="M 4115 2017 
C 4211 2017 4307 2017 4307 2125 
C 4307 2240 4198 2240 4090 2240 
L 512 2240 
C 403 2240 294 2240 294 2125 
C 294 2017 390 2017 486 2017 
L 4115 2017 
z
M 4090 896 
C 4198 896 4307 896 4307 1011 
C 4307 1119 4211 1119 4115 1119 
L 486 1119 
C 390 1119 294 1119 294 1011 
C 294 896 403 896 512 896 
L 4090 896 
z
" transform="scale(0.015625)"/>
       <path id="CMR17-33" d="M 1414 2157 
C 1984 2157 2234 1662 2234 1090 
C 2234 320 1824 25 1453 25 
C 1114 25 563 194 390 693 
C 422 680 454 680 486 680 
C 640 680 755 782 755 948 
C 755 1133 614 1216 486 1216 
C 378 1216 211 1165 211 926 
C 211 335 787 -128 1466 -128 
C 2176 -128 2720 430 2720 1085 
C 2720 1707 2208 2157 1600 2227 
C 2086 2328 2554 2756 2554 3329 
C 2554 3820 2048 4179 1472 4179 
C 890 4179 378 3829 378 3329 
C 378 3110 544 3072 627 3072 
C 762 3072 877 3155 877 3321 
C 877 3486 762 3569 627 3569 
C 602 3569 570 3569 544 3557 
C 730 3959 1235 4032 1459 4032 
C 1683 4032 2106 3925 2106 3320 
C 2106 3143 2080 2828 1862 2550 
C 1670 2304 1453 2304 1242 2284 
C 1210 2284 1062 2269 1037 2269 
C 992 2263 966 2257 966 2208 
C 966 2163 973 2157 1101 2157 
L 1414 2157 
z
" transform="scale(0.015625)"/>
      </defs>
      <use xlink:href="#CMMI12-78" transform="scale(0.996264)"/>
      <use xlink:href="#CMMI12-3c" transform="translate(83.108068 0) scale(0.996264)"/>
      <use xlink:href="#CMMI12-78" transform="translate(186.654173 0) scale(0.996264)"/>
      <use xlink:href="#CMMI12-63" transform="translate(242.088232 -14.943915) scale(0.697382)"/>
      <use xlink:href="#CMMI12-3b" transform="translate(271.974496 0) scale(0.996264)"/>
      <use xlink:href="#CMMI12-54" transform="translate(315.676078 0) scale(0.996264)"/>
      <use xlink:href="#CMR17-3d" transform="translate(414.073719 0) scale(0.996264)"/>
      <use xlink:href="#CMR17-30" transform="translate(513.462516 0) scale(0.996264)"/>
      <use xlink:href="#CMMI12-3a" transform="translate(559.152993 0) scale(0.996264)"/>
      <use xlink:href="#CMR17-33" transform="translate(586.25017 0) scale(0.996264)"/>
      <use xlink:href="#CMMI12-54" transform="translate(631.940647 0) scale(0.996264)"/>
      <use xlink:href="#CMMI12-63" transform="translate(689.115691 -14.943915) scale(0.697382)"/>
     </g>
    </g>
    <g id="line2d_21">
     <path d="M 246.465496 47.712028 
L 260.465496 47.712028 
L 274.465496 47.712028 
" style="fill: none; stroke: #bbbbbb; stroke-width: 3; stroke-linecap: square"/>
    </g>
    <g id="text_12">
     <!-- $x=x_c, T = T_c$ -->
     <g transform="translate(285.665496 52.612028) scale(0.14 -0.14)">
      <use xlink:href="#CMMI12-78" transform="scale(0.996264)"/>
      <use xlink:href="#CMR17-3d" transform="translate(83.108068 0) scale(0.996264)"/>
      <use xlink:href="#CMMI12-78" transform="translate(182.496865 0) scale(0.996264)"/>
      <use xlink:href="#CMMI12-63" transform="translate(237.930925 -14.943915) scale(0.697382)"/>
      <use xlink:href="#CMMI12-3b" transform="translate(267.817188 0) scale(0.996264)"/>
      <use xlink:href="#CMMI12-54" transform="translate(311.518771 0) scale(0.996264)"/>
      <use xlink:href="#CMR17-3d" transform="translate(409.916411 0) scale(0.996264)"/>
      <use xlink:href="#CMMI12-54" transform="translate(509.305209 0) scale(0.996264)"/>
      <use xlink:href="#CMMI12-63" transform="translate(566.480252 -14.943915) scale(0.697382)"/>
     </g>
    </g>
    <g id="line2d_22">
     <path d="M 246.465496 67.224057 
L 260.465496 67.224057 
L 274.465496 67.224057 
" style="fill: none; stroke: #880000; stroke-width: 0.5; stroke-linecap: square"/>
    </g>
    <g id="text_13">
     <!-- $x&gt;x_c, T = 0.3T_c$ -->
     <g transform="translate(285.665496 72.124057) scale(0.14 -0.14)">
      <defs>
       <path id="CMMI12-3e" d="M 4218 1449 
C 4339 1507 4346 1545 4346 1590 
C 4346 1628 4333 1673 4218 1725 
L 755 3322 
C 672 3360 659 3360 646 3360 
C 570 3360 525 3296 525 3245 
C 525 3168 576 3142 659 3104 
L 3949 1590 
L 653 65 
C 525 6 525 -39 525 -77 
C 525 -128 570 -192 646 -192 
C 659 -192 666 -185 755 -147 
L 4218 1449 
z
" transform="scale(0.015625)"/>
      </defs>
      <use xlink:href="#CMMI12-78" transform="scale(0.996264)"/>
      <use xlink:href="#CMMI12-3e" transform="translate(83.108068 0) scale(0.996264)"/>
      <use xlink:href="#CMMI12-78" transform="translate(186.654173 0) scale(0.996264)"/>
      <use xlink:href="#CMMI12-63" transform="translate(242.088232 -14.943915) scale(0.697382)"/>
      <use xlink:href="#CMMI12-3b" transform="translate(271.974496 0) scale(0.996264)"/>
      <use xlink:href="#CMMI12-54" transform="translate(315.676078 0) scale(0.996264)"/>
      <use xlink:href="#CMR17-3d" transform="translate(414.073719 0) scale(0.996264)"/>
      <use xlink:href="#CMR17-30" transform="translate(513.462516 0) scale(0.996264)"/>
      <use xlink:href="#CMMI12-3a" transform="translate(559.152993 0) scale(0.996264)"/>
      <use xlink:href="#CMR17-33" transform="translate(586.25017 0) scale(0.996264)"/>
      <use xlink:href="#CMMI12-54" transform="translate(631.940647 0) scale(0.996264)"/>
      <use xlink:href="#CMMI12-63" transform="translate(689.115691 -14.943915) scale(0.697382)"/>
     </g>
    </g>
   </g>
  </g>
 </g>
 <defs>
  <clipPath id="pcfc120cbe4">
   <rect x="66.389483" y="10.7" width="334.8" height="249.48"/>
  </clipPath>
 </defs>
</svg>
