<?xml version="1.0" encoding="utf-8" standalone="no"?>
<!DOCTYPE svg PUBLIC "-//W3C//DTD SVG 1.1//EN"
  "http://www.w3.org/Graphics/SVG/1.1/DTD/svg11.dtd">
<!-- Created with matplotlib (https://matplotlib.org/) -->
<svg height="340.56pt" version="1.1" viewBox="0 0 349.2 340.56" width="349.2pt" xmlns="http://www.w3.org/2000/svg" xmlns:xlink="http://www.w3.org/1999/xlink">
 <metadata>
  <rdf:RDF xmlns:cc="http://creativecommons.org/ns#" xmlns:dc="http://purl.org/dc/elements/1.1/" xmlns:rdf="http://www.w3.org/1999/02/22-rdf-syntax-ns#">
   <cc:Work>
    <dc:type rdf:resource="http://purl.org/dc/dcmitype/StillImage"/>
    <dc:date>2020-10-25T19:35:37.034022</dc:date>
    <dc:format>image/svg+xml</dc:format>
    <dc:creator>
     <cc:Agent>
      <dc:title>Matplotlib v3.3.0, https://matplotlib.org/</dc:title>
     </cc:Agent>
    </dc:creator>
   </cc:Work>
  </rdf:RDF>
 </metadata>
 <defs>
  <style type="text/css">*{stroke-linecap:butt;stroke-linejoin:round;}</style>
 </defs>
 <g id="figure_1">
  <g id="patch_1">
   <path d="M 0 340.56 
L 349.2 340.56 
L 349.2 0 
L 0 0 
z
" style="fill:none;"/>
  </g>
  <g id="axes_1">
   <g id="Quiver_1">
    <path clip-path="url(#pa707e0ee57)" d="M 23.04591 318.539782 
L 22.996067 324.514824 
L 24.25676 323.897569 
L 22.321212 330.159141 
L 20.490391 323.86615 
L 21.740611 324.504351 
L 21.790454 318.529309 
L 23.04591 318.539782 
"/>
    <path clip-path="url(#pa707e0ee57)" d="M 42.058048 318.419613 
L 43.152034 324.293863 
L 44.27138 323.446859 
L 43.569286 329.963047 
L 40.568545 324.136453 
L 41.917756 324.523727 
L 40.82377 318.649478 
L 42.058048 318.419613 
"/>
    <path clip-path="url(#pa707e0ee57)" d="M 60.981872 318.180283 
L 64.353926 323.113119 
L 65.036134 321.886358 
L 67.024052 328.131502 
L 61.926721 324.011933 
L 63.317454 323.821644 
L 59.945401 318.888808 
L 60.981872 318.180283 
"/>
    <path clip-path="url(#pa707e0ee57)" d="M 78.981197 318.161884 
L 82.528383 313.353445 
L 81.145388 313.113289 
L 86.387505 309.179607 
L 84.176389 315.349258 
L 83.538717 314.098769 
L 79.99153 318.907207 
L 78.981197 318.161884 
"/>
    <path clip-path="url(#pa707e0ee57)" d="M 98.288609 317.946789 
L 103.883179 315.848124 
L 102.854458 314.893094 
L 109.393469 314.45154 
L 104.177352 318.419632 
L 104.324144 317.023637 
L 98.729573 319.122302 
L 98.288609 317.946789 
"/>
    <path clip-path="url(#pa707e0ee57)" d="M 117.072402 318.106753 
L 121.144355 313.733789 
L 119.797729 313.33762 
L 125.453906 310.026834 
L 122.554228 315.904376 
L 122.063188 314.589375 
L 117.991235 318.962338 
L 117.072402 318.106753 
"/>
    <path clip-path="url(#pa707e0ee57)" d="M 136.172853 319.032924 
L 131.42903 315.399777 
L 131.164023 316.778226 
L 127.325317 311.466167 
L 133.454178 313.787956 
L 132.192415 314.403021 
L 136.936238 318.036167 
L 136.172853 319.032924 
"/>
    <path clip-path="url(#pa707e0ee57)" d="M 154.990509 318.757656 
L 152.866825 313.172535 
L 151.916408 314.20552 
L 151.445591 307.668551 
L 155.43699 312.866856 
L 154.040352 312.726314 
L 156.164036 318.311435 
L 154.990509 318.757656 
"/>
    <path clip-path="url(#pa707e0ee57)" d="M 174.866983 317.966399 
L 180.274894 320.50768 
L 180.240713 319.104405 
L 185.121228 323.478672 
L 178.638816 322.513283 
L 179.740928 321.643973 
L 174.333017 319.102692 
L 174.866983 317.966399 
"/>
    <path clip-path="url(#pa707e0ee57)" d="M 194.123231 318.155644 
L 197.72981 322.919697 
L 198.351916 321.661391 
L 200.639417 327.803131 
L 195.348894 323.934799 
L 196.728802 323.6775 
L 193.122224 318.913447 
L 194.123231 318.155644 
"/>
    <path clip-path="url(#pa707e0ee57)" d="M 213.014309 318.026593 
L 217.849268 321.537545 
L 218.079025 320.152784 
L 222.05199 325.365191 
L 215.865896 323.200501 
L 217.111559 322.55345 
L 212.2766 319.042498 
L 213.014309 318.026593 
"/>
    <path clip-path="url(#pa707e0ee57)" d="M 231.809751 319.146124 
L 225.988431 320.493657 
L 226.883149 321.575244 
L 220.342657 321.156206 
L 226.033731 317.905774 
L 225.705292 319.270501 
L 231.526612 317.922967 
L 231.809751 319.146124 
"/>
    <path clip-path="url(#pa707e0ee57)" d="M 250.063773 318.50678 
L 250.328057 312.537378 
L 249.04602 313.108983 
L 251.205079 306.920922 
L 252.808834 313.275574 
L 251.582328 312.592908 
L 251.318045 318.562311 
L 250.063773 318.50678 
"/>
    <path clip-path="url(#pa707e0ee57)" d="M 269.103737 318.38591 
L 270.518529 312.580569 
L 269.150094 312.893197 
L 272.466151 307.240109 
L 272.809492 313.785012 
L 271.738328 312.877841 
L 270.323536 318.683181 
L 269.103737 318.38591 
"/>
    <path clip-path="url(#pa707e0ee57)" d="M 288.650842 317.912648 
L 294.570383 317.098612 
L 293.777443 315.940339 
L 300.252979 316.950818 
L 294.290571 319.671722 
L 294.741425 318.342407 
L 288.821885 319.156443 
L 288.650842 317.912648 
"/>
    <path clip-path="url(#pa707e0ee57)" d="M 307.851375 317.913616 
L 313.761706 318.792027 
L 313.325345 317.457883 
L 319.257788 320.243516 
L 312.771639 321.183461 
L 313.577137 320.033886 
L 307.666807 319.155475 
L 307.851375 317.913616 
"/>
    <path clip-path="url(#pa707e0ee57)" d="M 22.942165 299.657023 
L 26.232756 304.64457 
L 26.935019 303.429178 
L 28.82011 309.706126 
L 23.791118 305.503403 
L 25.184789 305.335978 
L 21.894198 300.348431 
L 22.942165 299.657023 
"/>
    <path clip-path="url(#pa707e0ee57)" d="M 41.460321 299.375277 
L 47.432713 299.560049 
L 46.844087 298.285738 
L 53.06035 300.362205 
L 46.727616 302.050436 
L 47.39389 300.814949 
L 41.421497 300.630177 
L 41.460321 299.375277 
"/>
    <path clip-path="url(#pa707e0ee57)" d="M 60.433456 299.375703 
L 66.401796 299.088427 
L 65.71441 297.86456 
L 72.075193 299.443824 
L 65.895495 301.626704 
L 66.462157 300.342475 
L 60.493817 300.629751 
L 60.433456 299.375703 
"/>
    <path clip-path="url(#pa707e0ee57)" d="M 79.935481 299.564135 
L 84.110234 303.839068 
L 84.569876 302.512765 
L 87.60845 308.319718 
L 81.875171 305.144321 
L 83.211999 304.716253 
L 79.037246 300.44132 
L 79.935481 299.564135 
"/>
    <path clip-path="url(#pa707e0ee57)" d="M 98.221889 299.444529 
L 103.535106 296.710789 
L 102.402504 295.881596 
L 108.84609 294.684167 
L 104.125717 299.230783 
L 104.109511 297.827185 
L 98.796293 300.560925 
L 98.221889 299.444529 
"/>
    <path clip-path="url(#pa707e0ee57)" d="M 116.908359 299.929455 
L 117.605801 293.995048 
L 116.28561 294.471963 
L 118.888708 288.457188 
L 120.026365 294.911595 
L 118.852719 294.141592 
L 118.155277 300.075999 
L 116.908359 299.929455 
"/>
    <path clip-path="url(#pa707e0ee57)" d="M 137.077038 300.350681 
L 133.765035 305.324035 
L 135.157974 305.49745 
L 130.110961 309.678514 
L 132.023019 303.409728 
L 132.720051 304.628128 
L 136.032053 299.654774 
L 137.077038 300.350681 
"/>
    <path clip-path="url(#pa707e0ee57)" d="M 154.967997 300.153902 
L 153.52904 294.354504 
L 152.461664 295.266129 
L 152.777744 288.719852 
L 156.117315 294.359081 
L 154.74759 294.052155 
L 156.186548 299.851553 
L 154.967997 300.153902 
"/>
    <path clip-path="url(#pa707e0ee57)" d="M 174.111537 299.608425 
L 177.864709 294.958983 
L 176.493482 294.658842 
L 181.901892 290.95712 
L 179.424258 297.024655 
L 178.841635 295.747587 
L 175.088463 300.397029 
L 174.111537 299.608425 
"/>
    <path clip-path="url(#pa707e0ee57)" d="M 193.011509 299.859611 
L 194.373762 294.041718 
L 193.00821 294.366704 
L 196.273026 288.683869 
L 196.67552 295.225401 
L 195.596199 294.32795 
L 194.233946 300.145843 
L 193.011509 299.859611 
"/>
    <path clip-path="url(#pa707e0ee57)" d="M 213.210275 299.728778 
L 215.817868 305.105028 
L 216.673559 303.992309 
L 217.718593 310.462359 
L 213.284638 305.636006 
L 214.688228 305.652927 
L 212.080634 300.276677 
L 213.210275 299.728778 
"/>
    <path clip-path="url(#pa707e0ee57)" d="M 231.673789 299.375002 
L 237.648801 299.428377 
L 237.032291 298.16732 
L 243.292718 300.106569 
L 236.998646 301.933669 
L 237.637586 300.683827 
L 231.662574 300.630452 
L 231.673789 299.375002 
"/>
    <path clip-path="url(#pa707e0ee57)" d="M 251.08991 299.518095 
L 255.702889 303.315995 
L 256.016259 301.94773 
L 259.665576 307.391637 
L 253.622252 304.855522 
L 254.904887 304.285259 
L 250.291908 300.487359 
L 251.08991 299.518095 
"/>
    <path clip-path="url(#pa707e0ee57)" d="M 269.594448 299.386396 
L 275.461008 298.251899 
L 274.6063 297.138425 
L 281.127178 297.795535 
L 275.321431 300.836412 
L 275.699385 299.484561 
L 269.832825 300.619059 
L 269.594448 299.386396 
"/>
    <path clip-path="url(#pa707e0ee57)" d="M 289.175632 299.554271 
L 293.444275 303.735455 
L 293.874355 302.399273 
L 297.041116 308.137327 
L 291.238745 305.090013 
L 292.565738 304.632368 
L 288.297095 300.451184 
L 289.175632 299.554271 
"/>
    <path clip-path="url(#pa707e0ee57)" d="M 308.334608 300.253427 
L 305.948313 305.731494 
L 307.350047 305.657378 
L 303.116495 310.660444 
L 303.896947 304.153176 
L 304.79728 305.230094 
L 307.183574 299.752027 
L 308.334608 300.253427 
"/>
    <path clip-path="url(#pa707e0ee57)" d="M 22.820226 280.988798 
L 27.409206 284.81566 
L 27.731183 283.449394 
L 31.34616 288.916165 
L 25.31892 286.342059 
L 26.605119 285.779881 
L 22.016138 281.95302 
L 22.820226 280.988798 
"/>
    <path clip-path="url(#pa707e0ee57)" d="M 41.454166 282.098519 
L 35.480249 282.224708 
L 36.134373 283.466671 
L 29.818502 281.716412 
L 36.05483 279.701011 
L 35.453735 280.969488 
L 41.427652 280.843299 
L 41.454166 282.098519 
"/>
    <path clip-path="url(#pa707e0ee57)" d="M 60.710336 280.893666 
L 66.204833 283.241881 
L 66.12099 281.840695 
L 71.15332 286.03942 
L 64.640792 285.304153 
L 65.711434 284.396367 
L 60.216937 282.048152 
L 60.710336 280.893666 
"/>
    <path clip-path="url(#pa707e0ee57)" d="M 80.104948 281.364029 
L 81.122288 287.252037 
L 82.252576 286.419692 
L 81.465623 292.926177 
L 78.54107 287.060972 
L 79.885119 287.465797 
L 78.867779 281.577789 
L 80.104948 281.364029 
"/>
    <path clip-path="url(#pa707e0ee57)" d="M 98.920828 280.997049 
L 103.431269 284.916173 
L 103.780883 283.556717 
L 107.284269 289.095663 
L 101.310463 286.399875 
L 102.607796 285.863892 
L 98.097354 281.944769 
L 98.920828 280.997049 
"/>
    <path clip-path="url(#pa707e0ee57)" d="M 118.044162 281.83364 
L 114.591505 286.710398 
L 115.978924 286.923515 
L 110.814586 290.958766 
L 112.904859 284.747132 
L 113.566817 285.984937 
L 117.019474 281.108179 
L 118.044162 281.83364 
"/>
    <path clip-path="url(#pa707e0ee57)" d="M 137.154654 281.655138 
L 135.401066 287.367278 
L 136.785511 287.135628 
L 133.142896 292.584022 
L 133.184862 286.030254 
L 134.200849 286.99882 
L 135.954437 281.28668 
L 137.154654 281.655138 
"/>
    <path clip-path="url(#pa707e0ee57)" d="M 155.048686 281.809533 
L 151.825491 276.778168 
L 151.106941 277.984003 
L 149.306465 271.682263 
L 154.278462 275.952261 
L 152.882665 276.100921 
L 156.10586 281.132285 
L 155.048686 281.809533 
"/>
    <path clip-path="url(#pa707e0ee57)" d="M 174.291455 280.924219 
L 179.495133 277.987326 
L 178.331353 277.202491 
L 184.723888 275.757109 
L 180.182624 280.482631 
L 180.112224 279.080706 
L 174.908545 282.017599 
L 174.291455 280.924219 
"/>
    <path clip-path="url(#pa707e0ee57)" d="M 193.358522 280.901466 
L 198.778779 278.386624 
L 197.680925 277.511942 
L 204.167974 276.57822 
L 199.266156 280.928602 
L 199.307189 279.52551 
L 193.886932 282.040352 
L 193.358522 280.901466 
"/>
    <path clip-path="url(#pa707e0ee57)" d="M 213.171109 281.127751 
L 216.437465 286.131203 
L 217.145616 284.919233 
L 219.000232 291.205252 
L 213.991689 286.978181 
L 215.386156 286.817519 
L 212.1198 281.814067 
L 213.171109 281.127751 
"/>
    <path clip-path="url(#pa707e0ee57)" d="M 232.238505 281.733209 
L 229.741797 287.161843 
L 231.144744 287.116119 
L 226.810773 292.032453 
L 227.722804 285.542319 
L 228.60115 286.637242 
L 231.097858 281.208609 
L 232.238505 281.733209 
"/>
    <path clip-path="url(#pa707e0ee57)" d="M 250.883305 280.873369 
L 256.571 282.70469 
L 256.358251 281.317214 
L 261.756464 285.03379 
L 255.203878 284.902454 
L 256.186209 283.89977 
L 250.498514 282.068449 
L 250.883305 280.873369 
"/>
    <path clip-path="url(#pa707e0ee57)" d="M 270.293517 281.230474 
L 272.582099 286.750076 
L 273.501425 285.689326 
L 274.166131 292.209434 
L 270.022143 287.131935 
L 271.422338 287.230946 
L 269.133756 281.711344 
L 270.293517 281.230474 
"/>
    <path clip-path="url(#pa707e0ee57)" d="M 288.883317 280.860602 
L 294.692537 282.259376 
L 294.376136 280.891808 
L 300.038349 284.192259 
L 293.494418 284.553652 
L 294.398631 283.47999 
L 288.589411 282.081216 
L 288.883317 280.860602 
"/>
    <path clip-path="url(#pa707e0ee57)" d="M 308.348764 281.255604 
L 310.398145 286.868416 
L 311.362186 285.848133 
L 311.746214 292.390775 
L 307.824149 287.139961 
L 309.2188 287.299025 
L 307.169418 281.686214 
L 308.348764 281.255604 
"/>
    <path clip-path="url(#pa707e0ee57)" d="M 22.320478 262.318991 
L 28.222911 261.388992 
L 27.407402 260.246496 
L 33.901514 261.129755 
L 27.993627 263.967096 
L 28.418319 262.629192 
L 22.515886 263.559191 
L 22.320478 262.318991 
"/>
    <path clip-path="url(#pa707e0ee57)" d="M 42.06426 263.013279 
L 41.358103 268.946655 
L 42.678992 268.47168 
L 40.067063 274.482625 
L 38.938887 268.026553 
L 40.111401 268.79828 
L 40.817558 262.864903 
L 42.06426 263.013279 
"/>
    <path clip-path="url(#pa707e0ee57)" d="M 60.061325 262.457204 
L 64.648179 258.627793 
L 63.361668 258.06633 
L 69.387477 255.488877 
L 65.775538 260.957655 
L 65.452802 259.591568 
L 60.865948 263.420978 
L 60.061325 262.457204 
"/>
    <path clip-path="url(#pa707e0ee57)" d="M 79.529084 262.312796 
L 85.490481 262.719428 
L 84.949627 261.424119 
L 91.084414 263.730204 
L 84.693306 265.181887 
L 85.405041 263.972018 
L 79.443644 263.565386 
L 79.529084 262.312796 
"/>
    <path clip-path="url(#pa707e0ee57)" d="M 99.132561 262.865916 
L 99.829079 268.800432 
L 101.002845 268.030611 
L 99.864183 274.484841 
L 97.262022 268.469661 
L 98.582138 268.946782 
L 97.88562 263.012266 
L 99.132561 262.865916 
"/>
    <path clip-path="url(#pa707e0ee57)" d="M 118.148404 262.821227 
L 119.27029 268.690212 
L 120.385598 267.837899 
L 119.714475 274.35735 
L 116.686083 268.54508 
L 118.037118 268.925939 
L 116.915232 263.056954 
L 118.148404 262.821227 
"/>
    <path clip-path="url(#pa707e0ee57)" d="M 135.935188 262.836783 
L 136.90901 256.941422 
L 135.567988 257.356162 
L 138.449141 251.469517 
L 139.28413 257.970011 
L 138.147724 257.146038 
L 137.173902 263.041399 
L 135.935188 262.836783 
"/>
    <path clip-path="url(#pa707e0ee57)" d="M 155.74548 262.334297 
L 161.502227 263.935384 
L 161.233848 262.557588 
L 166.777169 266.054047 
L 160.224602 266.186354 
L 161.165812 265.144973 
L 155.409065 263.543885 
L 155.74548 262.334297 
"/>
    <path clip-path="url(#pa707e0ee57)" d="M 174.437013 262.332869 
L 180.207351 260.781477 
L 179.275156 259.73202 
L 185.826338 259.92082 
L 180.253075 263.369353 
L 180.533324 261.993922 
L 174.762987 263.545313 
L 174.437013 262.332869 
"/>
    <path clip-path="url(#pa707e0ee57)" d="M 194.215177 262.731549 
L 196.190669 268.37079 
L 197.168026 267.363257 
L 197.466097 273.910378 
L 193.613329 268.608509 
L 195.00577 268.785874 
L 193.030278 263.146633 
L 194.215177 262.731549 
"/>
    <path clip-path="url(#pa707e0ee57)" d="M 213.173919 262.600277 
L 216.39893 267.630477 
L 217.117045 266.424383 
L 218.919795 272.725473 
L 213.946257 268.45727 
L 215.342001 268.308106 
L 212.11699 263.277905 
L 213.173919 262.600277 
"/>
    <path clip-path="url(#pa707e0ee57)" d="M 231.839085 263.543129 
L 226.089534 265.16987 
L 227.035378 266.207044 
L 220.482287 266.103956 
L 226.009962 262.582814 
L 225.747729 263.961793 
L 231.497279 262.335053 
L 231.839085 263.543129 
"/>
    <path clip-path="url(#pa707e0ee57)" d="M 250.191907 263.319968 
L 246.566525 258.570208 
L 245.949398 259.830964 
L 243.637636 253.698314 
L 248.94341 257.545703 
L 247.564529 257.808455 
L 251.189911 262.558214 
L 250.191907 263.319968 
"/>
    <path clip-path="url(#pa707e0ee57)" d="M 269.477495 263.520733 
L 263.941127 261.273012 
L 264.050485 262.672438 
L 258.942493 258.566094 
L 265.467336 259.182587 
L 264.413411 260.109729 
L 269.949778 262.357449 
L 269.477495 263.520733 
"/>
    <path clip-path="url(#pa707e0ee57)" d="M 288.327866 262.462436 
L 292.864912 258.574143 
L 291.571262 258.029332 
L 297.563302 255.374319 
L 294.022249 260.88926 
L 293.681908 259.527453 
L 289.144861 263.415746 
L 288.327866 262.462436 
"/>
    <path clip-path="url(#pa707e0ee57)" d="M 307.17946 263.180127 
L 304.885155 257.662902 
L 303.966929 258.724604 
L 303.295462 252.20519 
L 307.444713 257.278388 
L 306.044416 257.18083 
L 308.338722 262.698055 
L 307.17946 263.180127 
"/>
    <path clip-path="url(#pa707e0ee57)" d="M 23.007696 244.191534 
L 25.061207 249.802836 
L 26.024497 248.781844 
L 26.41334 255.324202 
L 22.487412 250.076276 
L 23.882179 250.234313 
L 21.828668 244.623011 
L 23.007696 244.191534 
"/>
    <path clip-path="url(#pa707e0ee57)" d="M 41.776176 243.876551 
L 46.827865 247.067798 
L 46.967677 245.671086 
L 51.269096 250.615925 
L 44.956074 248.855419 
L 46.15733 248.129242 
L 41.105642 244.937995 
L 41.776176 243.876551 
"/>
    <path clip-path="url(#pa707e0ee57)" d="M 60.390856 243.783756 
L 66.325812 243.090999 
L 65.556735 241.916745 
L 72.010243 243.059496 
L 65.993415 245.657846 
L 66.471372 244.338032 
L 60.536416 245.030789 
L 60.390856 243.783756 
"/>
    <path clip-path="url(#pa707e0ee57)" d="M 78.905044 244.170338 
L 81.160312 238.637041 
L 79.760739 238.74449 
L 83.874044 233.642103 
L 83.248654 240.166099 
L 82.322951 239.11091 
L 80.067683 244.644207 
L 78.905044 244.170338 
"/>
    <path clip-path="url(#pa707e0ee57)" d="M 98.205095 243.85804 
L 103.432977 240.96445 
L 102.275752 240.16998 
L 108.680067 238.77772 
L 104.099728 243.465376 
L 104.040969 242.062915 
L 98.813087 244.956505 
L 98.205095 243.85804 
"/>
    <path clip-path="url(#pa707e0ee57)" d="M 117.901928 243.900233 
L 122.728193 247.423126 
L 122.961372 246.038937 
L 126.92144 251.261149 
L 120.740716 249.081175 
L 121.987975 248.437205 
L 117.161709 244.914312 
L 117.901928 243.900233 
"/>
    <path clip-path="url(#pa707e0ee57)" d="M 137.056757 244.783908 
L 133.471748 249.564214 
L 134.852806 249.815273 
L 129.579821 253.70748 
L 131.839539 247.555463 
L 132.467326 248.810944 
L 136.052334 244.030638 
L 137.056757 244.783908 
"/>
    <path clip-path="url(#pa707e0ee57)" d="M 155.540907 243.780577 
L 161.506123 243.43443 
L 160.806695 242.217404 
L 167.18275 243.733835 
L 161.024889 245.977579 
L 161.578854 244.687822 
L 155.613638 245.033969 
L 155.540907 243.780577 
"/>
    <path clip-path="url(#pa707e0ee57)" d="M 174.595653 243.779538 
L 180.57076 243.738164 
L 179.934332 242.487041 
L 186.224721 244.32678 
L 179.960412 246.253451 
L 180.579453 244.993634 
L 174.604347 245.035008 
L 174.595653 243.779538 
"/>
    <path clip-path="url(#pa707e0ee57)" d="M 193.929304 243.859476 
L 199.143514 246.777631 
L 199.208871 245.375462 
L 203.767105 250.084617 
L 197.369411 248.66224 
L 198.530361 247.873224 
L 193.316151 244.955069 
L 193.929304 243.859476 
"/>
    <path clip-path="url(#pa707e0ee57)" d="M 213.028432 243.909881 
L 217.762861 247.555262 
L 218.031425 246.177501 
L 221.856405 251.499452 
L 215.733559 249.161849 
L 216.996906 248.550044 
L 212.262477 244.904664 
L 213.028432 243.909881 
"/>
    <path clip-path="url(#pa707e0ee57)" d="M 232.287375 244.303978 
L 233.270591 250.197779 
L 234.405682 249.371996 
L 233.581053 255.873813 
L 230.690523 249.991766 
L 232.032204 250.40437 
L 231.048989 244.510568 
L 232.287375 244.303978 
"/>
    <path clip-path="url(#pa707e0ee57)" d="M 250.710635 243.779833 
L 256.682934 243.96759 
L 256.094945 242.692984 
L 262.310169 244.772559 
L 255.976592 246.457624 
L 256.643483 245.22247 
L 250.671184 245.034713 
L 250.710635 243.779833 
"/>
    <path clip-path="url(#pa707e0ee57)" d="M 270.322399 244.560498 
L 268.863925 250.355018 
L 270.234676 250.052705 
L 266.876139 255.680659 
L 266.582099 249.133356 
L 267.6464 250.048568 
L 269.104874 244.254048 
L 270.322399 244.560498 
"/>
    <path clip-path="url(#pa707e0ee57)" d="M 289.219969 244.807518 
L 285.41023 249.410723 
L 286.777686 249.727608 
L 281.324421 253.362926 
L 283.876054 247.326138 
L 284.44302 248.610234 
L 288.252758 244.007028 
L 289.219969 244.807518 
"/>
    <path clip-path="url(#pa707e0ee57)" d="M 308.363454 244.237523 
L 309.979219 249.990167 
L 311.018196 249.046305 
L 310.902603 255.599188 
L 307.392016 250.064802 
L 308.770493 250.329667 
L 307.154728 244.577022 
L 308.363454 244.237523 
"/>
    <path clip-path="url(#pa707e0ee57)" d="M 22.22674 226.473301 
L 16.536129 224.651061 
L 16.751092 226.038195 
L 11.346954 222.33024 
L 17.899742 222.451117 
L 16.919012 223.455368 
L 22.609623 225.277608 
L 22.22674 226.473301 
"/>
    <path clip-path="url(#pa707e0ee57)" d="M 40.813162 225.873605 
L 40.830768 219.898381 
L 39.573423 220.522429 
L 41.475162 214.250505 
L 43.339907 220.533527 
L 42.086262 219.90208 
L 42.068656 225.877304 
L 40.813162 225.873605 
"/>
    <path clip-path="url(#pa707e0ee57)" d="M 60.00765 225.444008 
L 64.114385 221.103692 
L 62.770965 220.696785 
L 68.453393 217.43126 
L 65.506884 223.285466 
L 65.026358 221.966585 
L 60.919623 226.306901 
L 60.00765 225.444008 
"/>
    <path clip-path="url(#pa707e0ee57)" d="M 79.102172 225.379 
L 83.827681 221.722065 
L 82.562843 221.113348 
L 88.679961 218.760794 
L 84.867993 224.092074 
L 84.596064 222.714973 
L 79.870555 226.371909 
L 79.102172 225.379 
"/>
    <path clip-path="url(#pa707e0ee57)" d="M 98.22299 225.316691 
L 103.541587 222.593433 
L 102.410622 221.762008 
L 108.856556 220.577286 
L 104.127228 225.114587 
L 104.113789 223.710959 
L 98.795192 226.434218 
L 98.22299 225.316691 
"/>
    <path clip-path="url(#pa707e0ee57)" d="M 118.139965 226.031107 
L 116.658388 231.819763 
L 118.030334 231.52292 
L 114.649373 237.137432 
L 114.381453 230.589008 
L 115.442095 231.508459 
L 116.923671 225.719803 
L 118.139965 226.031107 
"/>
    <path clip-path="url(#pa707e0ee57)" d="M 137.141838 226.097171 
L 135.031429 231.687322 
L 136.427729 231.543462 
L 132.448692 236.751235 
L 132.903977 230.213165 
L 133.856845 231.24389 
L 135.967253 225.653738 
L 137.141838 226.097171 
"/>
    <path clip-path="url(#pa707e0ee57)" d="M 156.203182 225.827417 
L 156.660429 231.785146 
L 157.86421 231.063162 
L 156.466858 237.466367 
L 154.108754 231.351387 
L 155.40861 231.881221 
L 154.951363 225.923492 
L 156.203182 225.827417 
"/>
    <path clip-path="url(#pa707e0ee57)" d="M 174.863007 225.305457 
L 180.288542 227.80889 
L 180.244557 226.405888 
L 185.155516 230.745947 
L 178.666518 229.825875 
L 179.762529 228.948886 
L 174.336993 226.445452 
L 174.863007 225.305457 
"/>
    <path clip-path="url(#pa707e0ee57)" d="M 193.878551 225.302197 
L 199.335114 227.73726 
L 199.273504 226.334921 
L 204.238609 230.612931 
L 197.738562 229.774467 
L 198.823467 228.883775 
L 193.366904 226.448712 
L 193.878551 225.302197 
"/>
    <path clip-path="url(#pa707e0ee57)" d="M 213.272836 225.896957 
L 213.068164 231.868701 
L 214.344429 231.284324 
L 212.247259 237.493633 
L 210.58014 231.155309 
L 211.8134 231.825696 
L 212.018073 225.853952 
L 213.272836 225.896957 
"/>
    <path clip-path="url(#pa707e0ee57)" d="M 232.023866 226.392716 
L 227.100306 229.778299 
L 228.328935 230.457138 
L 222.089273 232.462193 
L 226.194832 227.353571 
L 226.388939 228.743777 
L 231.312498 225.358193 
L 232.023866 226.392716 
"/>
    <path clip-path="url(#pa707e0ee57)" d="M 251.225264 225.546007 
L 254.361112 230.63227 
L 255.100374 229.439021 
L 256.791782 235.770907 
L 251.894248 231.415704 
L 253.292403 231.291164 
L 250.156555 226.204902 
L 251.225264 225.546007 
"/>
    <path clip-path="url(#pa707e0ee57)" d="M 270.323531 226.024109 
L 268.908558 231.829405 
L 270.277003 231.51682 
L 266.96077 237.169805 
L 266.617633 230.624892 
L 267.688768 231.532096 
L 269.103741 225.7268 
L 270.323531 226.024109 
"/>
    <path clip-path="url(#pa707e0ee57)" d="M 288.406402 226.409492 
L 283.323161 223.268749 
L 283.197275 224.666784 
L 278.846788 219.76506 
L 285.177043 221.462562 
L 283.983083 222.200675 
L 289.066325 225.341417 
L 288.406402 226.409492 
"/>
    <path clip-path="url(#pa707e0ee57)" d="M 308.040568 226.436561 
L 302.699664 229.115806 
L 303.823724 229.956542 
L 297.368226 231.087993 
L 302.134862 226.589902 
L 302.136709 227.993593 
L 307.477614 225.314348 
L 308.040568 226.436561 
"/>
    <path clip-path="url(#pa707e0ee57)" d="M 21.806617 207.485264 
L 20.458528 201.664073 
L 19.377026 202.558894 
L 19.795441 196.018361 
L 23.046416 201.709126 
L 21.681658 201.380817 
L 23.029747 207.202008 
L 21.806617 207.485264 
"/>
    <path clip-path="url(#pa707e0ee57)" d="M 40.902204 207.021352 
L 43.969871 201.893679 
L 42.570177 201.787816 
L 47.409132 197.367618 
L 45.802406 203.72152 
L 45.047281 202.538247 
L 41.979614 207.66592 
L 40.902204 207.021352 
"/>
    <path clip-path="url(#pa707e0ee57)" d="M 60.550911 206.721983 
L 66.468132 207.552707 
L 66.021028 206.222126 
L 71.97574 208.959832 
L 65.49738 209.952047 
L 66.293583 208.796015 
L 60.376362 207.96529 
L 60.550911 206.721983 
"/>
    <path clip-path="url(#pa707e0ee57)" d="M 78.946424 207.663847 
L 75.898491 202.52442 
L 75.138822 203.704781 
L 73.556533 197.34475 
L 78.378461 201.783516 
L 76.978371 201.883998 
L 80.026304 207.023426 
L 78.946424 207.663847 
"/>
    <path clip-path="url(#pa707e0ee57)" d="M 97.906624 207.167273 
L 99.585345 201.432684 
L 98.204048 201.682423 
L 101.775084 196.186849 
L 101.818847 202.740605 
L 100.790278 201.785411 
L 99.111557 207.52 
L 97.906624 207.167273 
"/>
    <path clip-path="url(#pa707e0ee57)" d="M 117.343903 207.9426 
L 111.642653 206.153924 
L 111.865786 207.539767 
L 106.439893 203.863721 
L 112.993279 203.945983 
L 112.018484 204.955996 
L 117.719734 206.744672 
L 117.343903 207.9426 
"/>
    <path clip-path="url(#pa707e0ee57)" d="M 135.936906 207.455848 
L 134.868821 201.576834 
L 133.745753 202.418896 
L 134.476559 195.905866 
L 137.451591 201.745628 
L 136.1041 201.352411 
L 137.172185 207.231425 
L 135.936906 207.455848 
"/>
    <path clip-path="url(#pa707e0ee57)" d="M 156.204686 207.323089 
L 156.400265 213.295138 
L 157.634545 212.62663 
L 155.957775 218.962407 
L 153.870063 212.749913 
L 155.145437 213.336232 
L 154.949859 207.364184 
L 156.204686 207.323089 
"/>
    <path clip-path="url(#pa707e0ee57)" d="M 174.620775 206.71623 
L 180.592752 206.913979 
L 180.006896 205.638391 
L 186.218632 207.728361 
L 179.882245 209.402828 
L 180.551202 208.168791 
L 174.579225 207.971042 
L 174.620775 206.71623 
"/>
    <path clip-path="url(#pa707e0ee57)" d="M 193.961467 206.815124 
L 198.992124 210.039422 
L 199.141091 208.643657 
L 203.409999 213.616589 
L 197.108654 211.814733 
L 198.314645 211.096447 
L 193.283988 207.872149 
L 193.961467 206.815124 
"/>
    <path clip-path="url(#pa707e0ee57)" d="M 213.152237 206.973174 
L 216.678485 211.796988 
L 217.321587 210.549283 
L 219.505861 216.728489 
L 214.280895 212.772054 
L 215.664921 212.537912 
L 212.138673 207.714098 
L 213.152237 206.973174 
"/>
    <path clip-path="url(#pa707e0ee57)" d="M 232.284359 207.223655 
L 233.426403 213.088751 
L 234.538777 212.232611 
L 233.890058 218.754328 
L 230.841713 212.952499 
L 232.194049 213.328713 
L 231.052004 207.463618 
L 232.284359 207.223655 
"/>
    <path clip-path="url(#pa707e0ee57)" d="M 251.250166 207.058501 
L 253.96423 212.381796 
L 254.797608 211.252269 
L 255.97119 217.700241 
L 251.442068 212.96308 
L 252.845717 212.952066 
L 250.131652 207.628772 
L 251.250166 207.058501 
"/>
    <path clip-path="url(#pa707e0ee57)" d="M 269.673046 207.970073 
L 263.7103 207.583715 
L 264.255556 208.877178 
L 258.112963 206.591967 
L 264.499097 205.118559 
L 263.79148 206.330842 
L 269.754227 206.7172 
L 269.673046 207.970073 
"/>
    <path clip-path="url(#pa707e0ee57)" d="M 289.204069 207.762351 
L 285.218523 212.214209 
L 286.572648 212.583934 
L 280.982384 216.004839 
L 283.766418 210.071645 
L 284.283113 211.37678 
L 288.268659 206.924921 
L 289.204069 207.762351 
"/>
    <path clip-path="url(#pa707e0ee57)" d="M 307.740318 207.971106 
L 301.767741 207.792417 
L 302.357664 209.066128 
L 296.13929 206.995993 
L 302.470301 205.301313 
L 301.805286 206.537478 
L 307.777864 206.716167 
L 307.740318 207.971106 
"/>
    <path clip-path="url(#pa707e0ee57)" d="M 21.817514 188.994215 
L 20.081365 183.276751 
L 19.062427 184.242212 
L 19.040459 177.688347 
L 22.666432 183.14783 
L 21.2827 182.911957 
L 23.018849 188.629421 
L 21.817514 188.994215 
"/>
    <path clip-path="url(#pa707e0ee57)" d="M 41.141647 189.363644 
L 35.88908 186.515108 
L 35.842381 187.918023 
L 31.221908 183.269919 
L 37.637956 184.607067 
L 36.487605 185.411456 
L 41.740172 188.259992 
L 41.141647 189.363644 
"/>
    <path clip-path="url(#pa707e0ee57)" d="M 60.070002 189.300819 
L 55.415437 185.554002 
L 55.117169 186.925638 
L 51.408063 181.52229 
L 57.478976 183.991632 
L 56.202706 184.576 
L 60.857271 188.322817 
L 60.070002 189.300819 
"/>
    <path clip-path="url(#pa707e0ee57)" d="M 79.094101 189.301921 
L 74.429053 185.568165 
L 74.13463 186.940632 
L 70.410394 181.547701 
L 76.488204 184.000017 
L 75.213577 184.58796 
L 79.878626 188.321716 
L 79.094101 189.301921 
"/>
    <path clip-path="url(#pa707e0ee57)" d="M 98.064267 189.254765 
L 93.848068 185.020703 
L 93.401368 186.351421 
L 90.306369 180.574344 
L 96.07031 183.693739 
L 94.737716 184.134809 
L 98.953915 188.368871 
L 98.064267 189.254765 
"/>
    <path clip-path="url(#pa707e0ee57)" d="M 117.386087 189.422418 
L 111.574079 188.035274 
L 111.893216 189.402205 
L 106.224409 186.113094 
L 112.767603 185.738605 
L 111.865541 186.814074 
L 117.677549 188.201218 
L 117.386087 189.422418 
"/>
    <path clip-path="url(#pa707e0ee57)" d="M 135.99305 189.092519 
L 133.32119 183.747917 
L 132.478901 184.870815 
L 131.356374 178.413759 
L 135.847872 183.186607 
L 134.44418 183.186514 
L 137.116041 188.531117 
L 135.99305 189.092519 
"/>
    <path clip-path="url(#pa707e0ee57)" d="M 155.958152 188.312818 
L 160.707895 191.938221 
L 160.970653 190.559342 
L 164.818018 195.865132 
L 158.685379 193.553344 
L 159.946137 192.936222 
L 155.196394 189.310818 
L 155.958152 188.312818 
"/>
    <path clip-path="url(#pa707e0ee57)" d="M 175.089674 188.419022 
L 178.828516 193.079995 
L 179.415068 191.804727 
L 181.874012 197.87986 
L 176.477023 194.161507 
L 177.849168 193.865588 
L 174.110326 189.204615 
L 175.089674 188.419022 
"/>
    <path clip-path="url(#pa707e0ee57)" d="M 194.197981 188.560515 
L 196.590012 194.036079 
L 197.489217 192.95822 
L 198.276484 199.464666 
L 194.037694 194.466037 
L 195.439504 194.538685 
L 193.047473 189.063121 
L 194.197981 188.560515 
"/>
    <path clip-path="url(#pa707e0ee57)" d="M 213.144783 189.192267 
L 209.523474 193.945133 
L 210.902579 194.206702 
L 205.600106 198.058639 
L 207.906609 191.924009 
L 208.524817 193.184235 
L 212.146126 188.431369 
L 213.144783 189.192267 
"/>
    <path clip-path="url(#pa707e0ee57)" d="M 232.251225 189.044478 
L 230.036643 194.594185 
L 231.43539 194.476462 
L 227.359657 199.608912 
L 227.937131 193.080501 
L 228.870557 194.128864 
L 231.085139 188.579158 
L 232.251225 189.044478 
"/>
    <path clip-path="url(#pa707e0ee57)" d="M 250.463017 188.226895 
L 256.030619 186.057698 
L 254.989912 185.115744 
L 261.522821 184.591591 
L 256.357265 188.625283 
L 256.486404 187.227545 
L 250.918801 189.396741 
L 250.463017 188.226895 
"/>
    <path clip-path="url(#pa707e0ee57)" d="M 270.13105 189.280685 
L 265.668131 193.253842 
L 266.971825 193.774162 
L 261.030916 196.541695 
L 264.467345 190.960961 
L 264.833305 192.316108 
L 269.296223 188.342951 
L 270.13105 189.280685 
"/>
    <path clip-path="url(#pa707e0ee57)" d="M 289.002808 189.380217 
L 283.592494 191.916377 
L 284.693782 192.78673 
L 278.21046 193.745982 
L 283.095113 189.376337 
L 283.059604 190.77958 
L 288.469919 188.243419 
L 289.002808 189.380217 
"/>
    <path clip-path="url(#pa707e0ee57)" d="M 307.199624 189.096541 
L 304.489489 183.771244 
L 303.655277 184.900156 
L 302.486454 178.45132 
L 307.012079 183.191822 
L 305.608422 183.2018 
L 308.318558 188.527096 
L 307.199624 189.096541 
"/>
    <path clip-path="url(#pa707e0ee57)" d="M 22.001548 169.810441 
L 26.471058 165.844701 
L 25.168231 165.322216 
L 31.113728 162.564554 
L 27.668035 168.139573 
L 27.304327 166.78382 
L 22.834816 170.749559 
L 22.001548 169.810441 
"/>
    <path clip-path="url(#pa707e0ee57)" d="M 40.813171 170.283854 
L 40.776491 164.308716 
L 39.524868 164.944161 
L 41.369548 158.655219 
L 43.291297 164.92104 
L 42.031967 164.301009 
L 42.068647 170.276146 
L 40.813171 170.283854 
"/>
    <path clip-path="url(#pa707e0ee57)" d="M 59.898136 170.007458 
L 62.492328 164.624729 
L 61.088785 164.645146 
L 65.510703 159.807763 
L 64.481789 166.280396 
L 63.623329 165.169812 
L 61.029137 170.552542 
L 59.898136 170.007458 
"/>
    <path clip-path="url(#pa707e0ee57)" d="M 79.01041 170.689315 
L 75.114341 166.158944 
L 74.571749 167.453527 
L 71.906462 161.46605 
L 77.427469 164.997639 
L 76.066247 165.340315 
L 79.962317 169.870685 
L 79.01041 170.689315 
"/>
    <path clip-path="url(#pa707e0ee57)" d="M 98.63173 170.895654 
L 92.771617 172.062996 
L 93.632549 173.171665 
L 87.108093 172.551094 
L 92.896715 169.477742 
L 92.526339 170.831688 
L 98.386452 169.664346 
L 98.63173 170.895654 
"/>
    <path clip-path="url(#pa707e0ee57)" d="M 117.937762 169.801169 
L 122.495526 173.665156 
L 122.828584 172.30155 
L 126.399063 177.797486 
L 120.392918 175.174537 
L 121.683638 174.622819 
L 117.125874 170.758831 
L 117.937762 169.801169 
"/>
    <path clip-path="url(#pa707e0ee57)" d="M 136.566454 169.652363 
L 142.540628 169.765711 
L 141.936808 168.498529 
L 148.177454 170.500522 
L 141.865359 172.264351 
L 142.516812 171.020985 
L 136.542637 170.907637 
L 136.566454 169.652363 
"/>
    <path clip-path="url(#pa707e0ee57)" d="M 156.200617 170.354246 
L 155.4939 176.287556 
L 156.814835 175.812705 
L 154.202339 181.823404 
L 153.074772 175.367227 
L 154.247213 176.139063 
L 154.953929 170.205754 
L 156.200617 170.354246 
"/>
    <path clip-path="url(#pa707e0ee57)" d="M 174.727046 169.66524 
L 180.578647 170.874528 
L 180.217979 169.517963 
L 185.984438 172.632701 
L 179.455704 173.206521 
L 180.324555 172.104048 
L 174.472954 170.89476 
L 174.727046 169.66524 
"/>
    <path clip-path="url(#pa707e0ee57)" d="M 193.85581 170.862874 
L 188.307712 173.081481 
L 189.356753 174.014146 
L 182.828761 174.596356 
L 187.958253 170.516901 
L 187.841546 171.915733 
L 193.389644 169.697126 
L 193.85581 170.862874 
"/>
    <path clip-path="url(#pa707e0ee57)" d="M 213.134918 170.673059 
L 209.393579 175.332028 
L 210.765565 175.628682 
L 205.366584 179.344142 
L 207.828783 173.270328 
L 208.414652 174.54591 
L 212.155991 169.886941 
L 213.134918 170.673059 
"/>
    <path clip-path="url(#pa707e0ee57)" d="M 232.21952 169.97984 
L 235.076602 175.227763 
L 235.879118 174.076104 
L 237.226707 180.489967 
L 232.571089 175.877066 
L 233.973925 175.828083 
L 231.116844 170.58016 
L 232.21952 169.97984 
"/>
    <path clip-path="url(#pa707e0ee57)" d="M 250.666919 170.907291 
L 244.696034 170.678938 
L 245.275344 171.957512 
L 239.074401 169.835733 
L 245.419287 168.193763 
L 244.744015 169.424356 
L 250.714899 169.652709 
L 250.666919 170.907291 
"/>
    <path clip-path="url(#pa707e0ee57)" d="M 269.729393 170.907552 
L 263.756025 171.057528 
L 264.41509 172.296876 
L 258.092299 170.571782 
L 264.320552 168.531563 
L 263.724513 169.802424 
L 269.69788 169.652448 
L 269.729393 170.907552 
"/>
    <path clip-path="url(#pa707e0ee57)" d="M 288.875775 170.892074 
L 283.049739 172.219067 
L 283.940636 173.303803 
L 277.401662 172.861699 
L 283.104166 169.63136 
L 282.770915 170.994919 
L 288.596952 169.667926 
L 288.875775 170.892074 
"/>
    <path clip-path="url(#pa707e0ee57)" d="M 307.292544 170.700004 
L 303.294724 166.259166 
L 302.781634 167.565722 
L 299.981231 161.640236 
L 305.580917 165.045695 
L 304.227818 165.419157 
L 308.225638 169.859996 
L 307.292544 170.700004 
"/>
    <path clip-path="url(#pa707e0ee57)" d="M 22.206819 151.157085 
L 27.833189 149.145226 
L 26.819367 148.174394 
L 33.364427 147.83406 
L 28.087542 151.720978 
L 28.255914 150.327421 
L 22.629544 152.339279 
L 22.206819 151.157085 
"/>
    <path clip-path="url(#pa707e0ee57)" d="M 40.921556 152.100804 
L 37.565113 147.157333 
L 36.87903 148.381931 
L 34.910865 142.130534 
L 39.995148 146.266197 
L 38.603819 146.452089 
L 41.960262 151.395559 
L 40.921556 152.100804 
"/>
    <path clip-path="url(#pa707e0ee57)" d="M 60.043528 151.281728 
L 64.483479 147.282922 
L 63.176809 146.770122 
L 69.101673 143.968404 
L 65.697457 149.568846 
L 65.323695 148.21583 
L 60.883744 152.214636 
L 60.043528 151.281728 
"/>
    <path clip-path="url(#pa707e0ee57)" d="M 79.568423 152.370545 
L 73.644444 153.151627 
L 74.430926 154.314294 
L 67.961113 153.267795 
L 73.938571 150.580113 
L 73.480326 151.906899 
L 79.404305 151.125818 
L 79.568423 152.370545 
"/>
    <path clip-path="url(#pa707e0ee57)" d="M 97.888314 151.841491 
L 97.000146 145.932619 
L 95.851903 146.740015 
L 96.781137 140.252322 
L 99.576561 146.180158 
L 98.241699 145.746 
L 99.129867 151.654872 
L 97.888314 151.841491 
"/>
    <path clip-path="url(#pa707e0ee57)" d="M 116.90412 151.740089 
L 116.981148 145.765336 
L 115.71766 146.376849 
L 117.681677 140.124148 
L 119.483847 146.425403 
L 118.236543 145.781521 
L 118.159516 151.756274 
L 116.90412 151.740089 
"/>
    <path clip-path="url(#pa707e0ee57)" d="M 137.136875 151.982622 
L 134.905353 157.525538 
L 136.304452 157.412089 
L 132.213062 162.532066 
L 132.810474 156.005448 
L 133.740693 157.056658 
L 135.972216 151.513742 
L 137.136875 151.982622 
"/>
    <path clip-path="url(#pa707e0ee57)" d="M 156.204894 151.760871 
L 156.084111 157.7349 
L 157.352044 157.132657 
L 155.342285 163.370807 
L 153.586313 157.056521 
L 154.828867 157.709522 
L 154.949651 151.735492 
L 156.204894 151.760871 
"/>
    <path clip-path="url(#pa707e0ee57)" d="M 174.192258 152.225483 
L 169.649058 148.344381 
L 169.310875 149.706726 
L 165.76109 144.197401 
L 171.757328 146.842919 
L 170.464542 147.389779 
L 175.007742 151.270881 
L 174.192258 152.225483 
"/>
    <path clip-path="url(#pa707e0ee57)" d="M 193.843284 152.33591 
L 188.248978 154.435282 
L 189.27782 155.390182 
L 182.738865 155.832562 
L 187.954481 151.863811 
L 187.807865 153.259825 
L 193.402171 151.160453 
L 193.843284 152.33591 
"/>
    <path clip-path="url(#pa707e0ee57)" d="M 213.249839 151.578506 
L 214.864897 157.331349 
L 215.90399 156.387614 
L 215.78759 162.940483 
L 212.277684 157.405666 
L 213.656128 157.6707 
L 212.04107 151.917857 
L 213.249839 151.578506 
"/>
    <path clip-path="url(#pa707e0ee57)" d="M 231.890735 152.335157 
L 226.303599 154.453535 
L 227.335681 155.404932 
L 220.798267 155.869539 
L 226.000361 151.88308 
L 225.858492 153.279584 
L 231.445629 151.161206 
L 231.890735 152.335157 
"/>
    <path clip-path="url(#pa707e0ee57)" d="M 251.070302 152.248313 
L 246.309794 155.85957 
L 247.568711 156.48044 
L 241.429221 158.773974 
L 245.292354 153.479652 
L 245.551008 154.859308 
L 250.311516 151.248051 
L 251.070302 152.248313 
"/>
    <path clip-path="url(#pa707e0ee57)" d="M 270.235044 152.097759 
L 266.907586 157.060786 
L 268.299978 157.238533 
L 263.239982 161.403876 
L 265.171533 155.141069 
L 265.864771 156.361631 
L 269.192229 151.398604 
L 270.235044 152.097759 
"/>
    <path clip-path="url(#pa707e0ee57)" d="M 289.316414 151.988206 
L 287.031741 157.509427 
L 288.431866 157.409424 
L 284.291474 162.489857 
L 284.951563 155.96928 
L 285.87164 157.029379 
L 288.156313 151.508158 
L 289.316414 151.988206 
"/>
    <path clip-path="url(#pa707e0ee57)" d="M 307.669512 152.369508 
L 301.755411 151.516853 
L 302.19758 152.849083 
L 296.253057 150.089321 
L 302.735051 149.121129 
L 301.934568 150.274202 
L 307.848669 151.126856 
L 307.669512 152.369508 
"/>
    <path clip-path="url(#pa707e0ee57)" d="M 22.68947 132.65026 
L 28.077934 135.23252 
L 28.054407 133.829025 
L 32.901576 138.240214 
L 26.426679 137.225645 
L 27.535358 136.364726 
L 22.146894 133.782467 
L 22.68947 132.65026 
"/>
    <path clip-path="url(#pa707e0ee57)" d="M 41.882186 132.769884 
L 46.132016 136.970189 
L 46.56809 135.635951 
L 49.709059 141.388164 
L 43.920427 138.314832 
L 45.249461 137.863149 
L 40.999632 133.662844 
L 41.882186 132.769884 
"/>
    <path clip-path="url(#pa707e0ee57)" d="M 60.861283 132.730619 
L 65.484848 136.515624 
L 65.794396 135.146489 
L 69.458899 140.580186 
L 63.408518 138.060954 
L 64.689555 137.487113 
L 60.06599 133.702108 
L 60.861283 132.730619 
"/>
    <path clip-path="url(#pa707e0ee57)" d="M 79.809921 132.678422 
L 84.930326 135.758205 
L 85.039498 134.358765 
L 89.448242 139.208159 
L 83.098157 137.586414 
L 84.283212 136.834088 
L 79.162807 133.754305 
L 79.809921 132.678422 
"/>
    <path clip-path="url(#pa707e0ee57)" d="M 97.883359 133.166062 
L 98.362155 127.210026 
L 97.060391 127.735154 
L 99.440601 121.628745 
L 100.81478 128.036963 
L 99.613618 127.310629 
L 99.134822 133.266665 
L 97.883359 133.166062 
"/>
    <path clip-path="url(#pa707e0ee57)" d="M 116.904406 133.195757 
L 117.100553 127.223727 
L 115.825123 127.809925 
L 117.913426 121.597629 
L 119.589593 127.933566 
L 118.355377 127.264941 
L 118.15923 133.23697 
L 116.904406 133.195757 
"/>
    <path clip-path="url(#pa707e0ee57)" d="M 136.489409 133.840725 
L 130.546412 133.220722 
L 131.040501 134.534581 
L 124.992295 132.010131 
L 131.43132 130.788412 
L 130.676685 131.971999 
L 136.619682 132.592002 
L 136.489409 133.840725 
"/>
    <path clip-path="url(#pa707e0ee57)" d="M 155.778404 133.81102 
L 150.118154 135.725488 
L 151.115072 136.71367 
L 144.565114 136.941009 
L 149.908287 133.145731 
L 149.715892 134.536175 
L 155.376142 132.621707 
L 155.778404 133.81102 
"/>
    <path clip-path="url(#pa707e0ee57)" d="M 174.081496 132.862495 
L 177.449803 127.9271 
L 176.058925 127.737867 
L 181.153127 123.614429 
L 179.169952 129.86108 
L 178.486812 128.634838 
L 175.118504 133.570232 
L 174.081496 132.862495 
"/>
    <path clip-path="url(#pa707e0ee57)" d="M 194.178637 132.924757 
L 196.954296 138.216197 
L 197.77451 137.077074 
L 199.022842 143.510992 
L 194.43905 138.826712 
L 195.842476 138.799409 
L 193.066817 133.50797 
L 194.178637 132.924757 
"/>
    <path clip-path="url(#pa707e0ee57)" d="M 212.698776 133.841845 
L 206.74512 134.349385 
L 207.477244 135.547027 
L 201.062467 134.203796 
L 207.157316 131.794139 
L 206.638478 133.098423 
L 212.592133 132.590882 
L 212.698776 133.841845 
"/>
    <path clip-path="url(#pa707e0ee57)" d="M 231.486419 133.817223 
L 225.767124 132.087114 
L 226.004459 133.470596 
L 220.541149 129.850392 
L 227.095034 129.865438 
L 226.130649 130.885395 
L 231.849944 132.615504 
L 231.486419 133.817223 
"/>
    <path clip-path="url(#pa707e0ee57)" d="M 250.196666 133.603396 
L 246.512692 128.898935 
L 245.911239 130.167243 
L 243.523645 124.063717 
L 248.876696 127.845049 
L 247.501178 128.124871 
L 251.185152 132.829331 
L 250.196666 133.603396 
"/>
    <path clip-path="url(#pa707e0ee57)" d="M 269.840392 133.831183 
L 263.988221 135.03771 
L 264.856552 136.140593 
L 258.328089 135.563691 
L 264.096018 132.451676 
L 263.73471 133.80807 
L 269.586881 132.601544 
L 269.840392 133.831183 
"/>
    <path clip-path="url(#pa707e0ee57)" d="M 288.295105 133.662862 
L 284.045105 129.462729 
L 283.609085 130.796984 
L 280.467882 125.044899 
L 286.256639 128.117996 
L 284.927623 128.569733 
L 289.177623 132.769866 
L 288.295105 133.662862 
"/>
    <path clip-path="url(#pa707e0ee57)" d="M 307.171658 133.437706 
L 305.064806 127.846214 
L 304.111282 128.876332 
L 303.660157 122.337974 
L 307.63588 127.548277 
L 306.239672 127.403529 
L 308.346524 132.995021 
L 307.171658 133.437706 
"/>
    <path clip-path="url(#pa707e0ee57)" d="M 22.181281 114.103212 
L 27.71471 111.848268 
L 26.659575 110.922503 
L 33.183608 110.297494 
L 28.08098 114.410501 
L 28.188512 113.010934 
L 22.655083 115.265878 
L 22.181281 114.103212 
"/>
    <path clip-path="url(#pa707e0ee57)" d="M 41.887906 115.125299 
L 37.692586 119.380049 
L 39.027333 119.814559 
L 33.278807 122.962269 
L 36.345351 117.170038 
L 36.798591 118.498542 
L 40.993912 114.243792 
L 41.887906 115.125299 
"/>
    <path clip-path="url(#pa707e0ee57)" d="M 60.797069 115.216422 
L 55.734394 118.39021 
L 56.933136 119.12053 
L 50.614073 120.85923 
L 54.932538 115.929271 
L 55.067528 117.326457 
L 60.130203 114.152669 
L 60.797069 115.216422 
"/>
    <path clip-path="url(#pa707e0ee57)" d="M 79.39849 115.306115 
L 73.482072 114.469685 
L 73.927893 115.800697 
L 67.975824 113.05725 
L 74.455137 112.071282 
L 73.65782 113.226546 
L 79.574238 114.062976 
L 79.39849 115.306115 
"/>
    <path clip-path="url(#pa707e0ee57)" d="M 98.502048 115.312256 
L 92.527174 115.245215 
L 93.140798 116.507679 
L 86.884823 114.554116 
L 93.183057 112.741416 
L 92.54126 113.989794 
L 98.516134 114.056835 
L 98.502048 115.312256 
"/>
    <path clip-path="url(#pa707e0ee57)" d="M 117.737161 115.277761 
L 112.090631 117.232322 
L 113.094532 118.213409 
L 106.546351 118.487193 
L 111.862474 114.654118 
L 111.679945 116.045891 
L 117.326475 114.09133 
L 117.737161 115.277761 
"/>
    <path clip-path="url(#pa707e0ee57)" d="M 136.453177 115.304057 
L 130.556345 114.339183 
L 130.973121 115.679574 
L 125.082109 112.807359 
L 131.581329 111.962505 
L 130.759081 113.10016 
L 136.655914 114.065034 
L 136.453177 115.304057 
"/>
    <path clip-path="url(#pa707e0ee57)" d="M 154.951502 114.63473 
L 155.425672 108.678324 
L 154.124316 109.204463 
L 156.499782 103.096206 
L 157.878938 109.503356 
L 156.677213 108.777955 
L 156.203043 114.734361 
L 154.951502 114.63473 
"/>
    <path clip-path="url(#pa707e0ee57)" d="M 173.976397 114.612512 
L 174.662045 108.676731 
L 173.342805 109.156268 
L 175.933947 103.136333 
L 177.084426 109.588467 
L 175.909252 108.820797 
L 175.223603 114.756579 
L 173.976397 114.612512 
"/>
    <path clip-path="url(#pa707e0ee57)" d="M 193.15006 115.097651 
L 189.217909 110.598562 
L 188.685681 111.89744 
L 185.972627 105.931455 
L 191.521682 109.418808 
L 190.163243 109.772352 
L 194.095394 114.27144 
L 193.15006 115.097651 
"/>
    <path clip-path="url(#pa707e0ee57)" d="M 212.126693 115.038037 
L 208.761978 110.100192 
L 208.077946 111.325937 
L 206.099317 105.077844 
L 211.190517 109.204989 
L 209.799502 109.39321 
L 213.164216 114.331054 
L 212.126693 115.038037 
"/>
    <path clip-path="url(#pa707e0ee57)" d="M 231.115271 114.981799 
L 228.285857 109.718907 
L 227.477289 110.866325 
L 226.163486 104.445456 
L 230.794754 109.082804 
L 229.391679 109.1244 
L 232.221093 114.387292 
L 231.115271 114.981799 
"/>
    <path clip-path="url(#pa707e0ee57)" d="M 250.59209 115.304469 
L 244.691339 114.363855 
L 245.113624 115.702521 
L 239.210849 112.854559 
L 245.706539 111.982982 
L 244.888978 113.124009 
L 250.789728 114.064622 
L 250.59209 115.304469 
"/>
    <path clip-path="url(#pa707e0ee57)" d="M 269.807443 115.305247 
L 263.899285 116.198151 
L 264.7076 117.345746 
L 258.219165 116.421712 
L 264.144758 113.621538 
L 263.711671 114.956748 
L 269.619829 114.063844 
L 269.807443 115.305247 
"/>
    <path clip-path="url(#pa707e0ee57)" d="M 289.219379 115.085502 
L 285.402863 119.683091 
L 286.76985 120.001989 
L 281.311235 123.62927 
L 283.871759 117.596248 
L 284.436833 118.881177 
L 288.253349 114.283589 
L 289.219379 115.085502 
"/>
    <path clip-path="url(#pa707e0ee57)" d="M 307.289028 115.100611 
L 303.328697 110.626308 
L 302.804637 111.928503 
L 300.054167 105.979675 
L 305.625015 109.432107 
L 304.268823 109.794176 
L 308.229154 114.26848 
L 307.289028 115.100611 
"/>
    <path clip-path="url(#pa707e0ee57)" d="M 21.886723 96.486825 
L 18.706609 91.428121 
L 17.977788 92.627775 
L 16.23119 86.31089 
L 21.166543 90.62319 
L 19.769527 90.759926 
L 22.949641 95.81863 
L 21.886723 96.486825 
"/>
    <path clip-path="url(#pa707e0ee57)" d="M 40.888504 96.450919 
L 38.050162 91.192836 
L 37.243542 92.341625 
L 35.918844 85.922995 
L 40.557976 90.552476 
L 39.154973 90.596453 
L 41.993315 95.854536 
L 40.888504 96.450919 
"/>
    <path clip-path="url(#pa707e0ee57)" d="M 60.511953 96.778615 
L 54.554428 97.238518 
L 55.276949 98.441977 
L 48.873121 97.047479 
L 54.98705 94.68665 
L 54.457795 95.986742 
L 60.41532 95.526839 
L 60.511953 96.778615 
"/>
    <path clip-path="url(#pa707e0ee57)" d="M 79.216355 96.719442 
L 73.822072 94.149361 
L 73.848769 95.552798 
L 68.991649 91.152569 
L 75.46882 92.152511 
L 74.362089 93.015931 
L 79.756372 95.586013 
L 79.216355 96.719442 
"/>
    <path clip-path="url(#pa707e0ee57)" d="M 98.713404 96.746298 
L 93.063491 98.691058 
L 94.065688 99.673886 
L 87.517042 99.936307 
L 92.839808 96.112462 
L 92.654864 97.503917 
L 98.304778 95.559157 
L 98.713404 96.746298 
"/>
    <path clip-path="url(#pa707e0ee57)" d="M 117.319592 96.743515 
L 111.696169 94.723435 
L 111.862504 96.117236 
L 106.591306 92.22261 
L 113.135862 92.572511 
L 112.120621 93.54186 
L 117.744044 95.56194 
L 117.319592 96.743515 
"/>
    <path clip-path="url(#pa707e0ee57)" d="M 137.11972 96.425945 
L 134.519092 101.805568 
L 135.922658 101.786829 
L 131.494958 106.61892 
L 132.531612 100.147523 
L 133.388743 101.259133 
L 135.989371 95.87951 
L 137.11972 96.425945 
"/>
    <path clip-path="url(#pa707e0ee57)" d="M 155.084953 95.763251 
L 158.792186 91.077098 
L 157.418071 90.790466 
L 162.789789 87.035697 
L 160.371989 93.127321 
L 159.776826 91.85605 
L 156.069592 96.542203 
L 155.084953 95.763251 
"/>
    <path clip-path="url(#pa707e0ee57)" d="M 173.990684 96.303737 
L 172.553299 90.503949 
L 171.485676 91.415284 
L 171.803532 84.869094 
L 175.141573 90.509228 
L 173.771931 90.20193 
L 175.209316 96.001718 
L 173.990684 96.303737 
"/>
    <path clip-path="url(#pa707e0ee57)" d="M 193.0244 96.34266 
L 191.216519 90.647471 
L 190.209797 91.625665 
L 190.105448 85.072593 
L 193.799761 90.486066 
L 192.413173 90.267605 
L 194.221055 95.962794 
L 193.0244 96.34266 
"/>
    <path clip-path="url(#pa707e0ee57)" d="M 212.031939 96.285652 
L 210.766691 90.445895 
L 209.672585 91.325261 
L 210.183882 84.791333 
L 213.353677 90.527711 
L 211.993721 90.180046 
L 213.25897 96.019802 
L 212.031939 96.285652 
"/>
    <path clip-path="url(#pa707e0ee57)" d="M 231.040442 96.149178 
L 231.074227 90.174023 
L 229.815198 90.794665 
L 231.733912 84.527913 
L 233.581637 90.815961 
L 232.329707 90.181122 
L 232.295922 96.156277 
L 231.040442 96.149178 
"/>
    <path clip-path="url(#pa707e0ee57)" d="M 250.094635 95.956443 
L 251.962975 90.2808 
L 250.574142 90.484504 
L 254.32581 85.110621 
L 254.151785 91.662212 
L 253.155522 90.673369 
L 251.287183 96.349012 
L 250.094635 95.956443 
"/>
    <path clip-path="url(#pa707e0ee57)" d="M 269.103109 96.298765 
L 267.713049 90.487453 
L 266.638032 91.390055 
L 267.009238 84.846673 
L 270.301194 90.51383 
L 268.934103 90.195378 
L 270.324163 96.00669 
L 269.103109 96.298765 
"/>
    <path clip-path="url(#pa707e0ee57)" d="M 289.1009 96.663788 
L 284.236356 100.133634 
L 285.47649 100.791219 
L 279.272271 102.903399 
L 283.289272 97.724853 
L 283.507284 99.111511 
L 288.371827 95.641666 
L 289.1009 96.663788 
"/>
    <path clip-path="url(#pa707e0ee57)" d="M 308.100227 96.679696 
L 303.084261 99.926804 
L 304.293502 100.639606 
L 298.000404 102.470057 
L 302.246687 97.477791 
L 302.40199 98.872865 
L 307.417955 95.625758 
L 308.100227 96.679696 
"/>
    <path clip-path="url(#pa707e0ee57)" d="M 21.79414 77.689041 
L 21.145627 71.749088 
L 19.965675 72.509393 
L 21.156483 66.06458 
L 23.709926 72.100603 
L 22.393711 71.612824 
L 23.042224 77.552777 
L 21.79414 77.689041 
"/>
    <path clip-path="url(#pa707e0ee57)" d="M 41.521774 78.243429 
L 35.596308 79.013144 
L 36.380558 80.177319 
L 29.912765 79.11841 
L 35.895367 76.4422 
L 35.434578 77.768105 
L 41.360044 76.998389 
L 41.521774 78.243429 
"/>
    <path clip-path="url(#pa707e0ee57)" d="M 60.821671 78.136546 
L 55.913572 81.544504 
L 57.145278 82.217744 
L 50.914807 84.251179 
L 54.997071 79.123923 
L 55.197503 80.513231 
L 60.105602 77.105272 
L 60.821671 78.136546 
"/>
    <path clip-path="url(#pa707e0ee57)" d="M 79.562953 78.243969 
L 73.632342 78.972987 
L 74.408581 80.142518 
L 67.94821 79.039231 
L 73.949045 76.404156 
L 73.479163 77.726866 
L 79.409774 76.997849 
L 79.562953 78.243969 
"/>
    <path clip-path="url(#pa707e0ee57)" d="M 98.385059 78.236284 
L 92.527602 77.055686 
L 92.894914 78.410467 
L 87.11326 75.324026 
L 93.639104 74.718218 
L 92.775666 75.824936 
L 98.633123 77.005534 
L 98.385059 78.236284 
"/>
    <path clip-path="url(#pa707e0ee57)" d="M 117.841769 78.166804 
L 112.645662 81.117072 
L 113.811457 81.898911 
L 107.42266 83.360731 
L 111.951754 78.623544 
L 112.025761 80.025283 
L 117.221868 77.075015 
L 117.841769 78.166804 
"/>
    <path clip-path="url(#pa707e0ee57)" d="M 137.153572 77.808624 
L 135.366808 83.510473 
L 136.752576 83.286875 
L 133.07835 88.714001 
L 133.158415 82.160588 
L 134.168754 83.135044 
L 135.955518 77.433195 
L 137.153572 77.808624 
"/>
    <path clip-path="url(#pa707e0ee57)" d="M 154.962359 77.747205 
L 153.760206 71.894134 
L 152.656674 72.761641 
L 153.238454 66.233611 
L 156.346158 72.003863 
L 154.990034 71.641542 
L 156.192187 77.494613 
L 154.962359 77.747205 
"/>
    <path clip-path="url(#pa707e0ee57)" d="M 174.110079 78.013398 
L 170.374166 73.350076 
L 169.786813 74.624975 
L 167.331687 68.548299 
L 172.726339 72.270042 
L 171.354008 72.565099 
L 175.089921 77.22842 
L 174.110079 78.013398 
"/>
    <path clip-path="url(#pa707e0ee57)" d="M 193.014723 77.777116 
L 191.527862 71.989815 
L 190.46806 72.910234 
L 190.730002 66.361568 
L 194.116087 71.972991 
L 192.743871 71.677401 
L 194.230732 77.464702 
L 193.014723 77.777116 
"/>
    <path clip-path="url(#pa707e0ee57)" d="M 212.287484 78.13659 
L 207.378965 74.729237 
L 207.178704 76.11857 
L 203.095807 70.991818 
L 209.326529 73.024484 
L 208.094907 73.697875 
L 213.003425 77.105228 
L 212.287484 78.13659 
"/>
    <path clip-path="url(#pa707e0ee57)" d="M 231.101234 77.890428 
L 228.535809 72.493929 
L 227.671434 73.599915 
L 226.677083 67.121883 
L 231.073118 71.982799 
L 229.669704 71.95489 
L 232.235129 77.35139 
L 231.101234 77.890428 
"/>
    <path clip-path="url(#pa707e0ee57)" d="M 250.090082 77.802781 
L 248.35893 72.083802 
L 247.339149 73.048373 
L 247.322908 66.49449 
L 250.944109 71.95714 
L 249.560583 71.720058 
L 251.291736 77.439037 
L 250.090082 77.802781 
"/>
    <path clip-path="url(#pa707e0ee57)" d="M 270.33801 77.555886 
L 270.95693 83.498996 
L 272.140654 82.744577 
L 270.917761 89.183379 
L 268.394414 83.134713 
L 269.708183 83.629041 
L 269.089263 77.685932 
L 270.33801 77.555886 
"/>
    <path clip-path="url(#pa707e0ee57)" d="M 289.361129 77.559767 
L 289.943113 83.506607 
L 291.131502 82.759557 
L 289.868629 89.190637 
L 287.38291 83.126411 
L 288.693583 83.628891 
L 288.111598 77.682051 
L 289.361129 77.559767 
"/>
    <path clip-path="url(#pa707e0ee57)" d="M 308.178456 77.153787 
L 312.624762 81.145526 
L 312.996372 79.791917 
L 316.409491 85.386937 
L 310.480179 82.594647 
L 311.786031 82.079769 
L 307.339725 78.088031 
L 308.178456 77.153787 
"/>
    <path clip-path="url(#pa707e0ee57)" d="M 21.80913 59.241164 
L 20.361618 53.443896 
L 19.295588 54.357094 
L 19.602009 47.810359 
L 22.949897 53.444654 
L 21.579721 53.139749 
L 23.027233 58.937018 
L 21.80913 59.241164 
"/>
    <path clip-path="url(#pa707e0ee57)" d="M 40.871371 59.353092 
L 38.358472 53.931934 
L 37.483397 55.029474 
L 36.552001 48.542091 
L 40.900625 53.445468 
L 39.497548 53.403932 
L 42.010447 58.82509 
L 40.871371 59.353092 
"/>
    <path clip-path="url(#pa707e0ee57)" d="M 60.379465 59.711172 
L 54.458172 58.909981 
L 54.91191 60.238315 
L 48.943612 57.530353 
L 55.416941 56.505828 
L 54.626516 57.665818 
L 60.547808 58.46701 
L 60.379465 59.711172 
"/>
    <path clip-path="url(#pa707e0ee57)" d="M 79.6128 59.703976 
L 73.760003 60.907463 
L 74.627761 62.010797 
L 68.099599 61.430504 
L 73.869143 58.321485 
L 73.50713 59.677692 
L 79.359927 58.474206 
L 79.6128 59.703976 
"/>
    <path clip-path="url(#pa707e0ee57)" d="M 98.954133 59.531819 
L 94.740021 63.767958 
L 96.072832 64.208371 
L 90.31043 67.330606 
L 93.402581 61.552005 
L 93.849937 62.882502 
L 98.064049 58.646363 
L 98.954133 59.531819 
"/>
    <path clip-path="url(#pa707e0ee57)" d="M 118.150081 59.197814 
L 117.115196 65.082763 
L 118.460445 64.681947 
L 115.518422 70.538408 
L 114.750867 64.029607 
L 115.878669 64.865316 
L 116.913555 58.980368 
L 118.150081 59.197814 
"/>
    <path clip-path="url(#pa707e0ee57)" d="M 137.161911 59.247765 
L 135.651568 65.028983 
L 137.024973 64.738966 
L 133.616136 70.336596 
L 133.380781 63.786921 
L 134.436837 64.711634 
L 135.94718 58.930417 
L 137.161911 59.247765 
"/>
    <path clip-path="url(#pa707e0ee57)" d="M 155.720844 59.700203 
L 149.903966 61.066785 
L 150.80222 62.145437 
L 144.26039 61.747812 
L 149.940794 58.478767 
L 149.616824 59.844562 
L 155.433702 58.477979 
L 155.720844 59.700203 
"/>
    <path clip-path="url(#pa707e0ee57)" d="M 174.161717 59.538511 
L 169.883906 55.366707 
L 169.45676 56.70383 
L 166.27741 50.972742 
L 172.086457 54.007311 
L 170.760472 54.467868 
L 175.038283 58.639671 
L 174.161717 59.538511 
"/>
    <path clip-path="url(#pa707e0ee57)" d="M 193.611682 59.716744 
L 187.637357 59.611605 
L 188.242918 60.877956 
L 181.999527 58.884541 
L 188.309192 57.112039 
L 187.659448 58.356299 
L 193.633773 58.461438 
L 193.611682 59.716744 
"/>
    <path clip-path="url(#pa707e0ee57)" d="M 213.163788 58.734972 
L 216.534475 63.668742 
L 217.217024 62.442171 
L 219.20321 68.687865 
L 214.107021 64.566883 
L 215.497807 64.37698 
L 212.127121 59.44321 
L 213.163788 58.734972 
"/>
    <path clip-path="url(#pa707e0ee57)" d="M 232.254698 59.312852 
L 230.124825 64.895616 
L 231.521618 64.756622 
L 227.52446 69.950499 
L 228.002521 63.414056 
L 228.951793 64.448094 
L 231.081666 58.86533 
L 232.254698 59.312852 
"/>
    <path clip-path="url(#pa707e0ee57)" d="M 250.873755 59.689622 
L 245.15759 61.430045 
L 246.123813 62.448261 
L 239.569966 62.475129 
L 245.026737 58.845076 
L 244.791898 60.228983 
L 250.508063 58.48856 
L 250.873755 59.689622 
"/>
    <path clip-path="url(#pa707e0ee57)" d="M 270.30443 59.301302 
L 268.284496 64.924778 
L 269.678294 64.758406 
L 265.783805 70.029706 
L 266.133534 63.485141 
L 267.10291 64.500356 
L 269.122843 58.87688 
L 270.30443 59.301302 
"/>
    <path clip-path="url(#pa707e0ee57)" d="M 289.103395 58.579819 
L 293.950911 62.073413 
L 294.175701 60.687838 
L 298.167328 65.885967 
L 291.973513 63.74347 
L 293.216848 63.091958 
L 288.369332 59.598363 
L 289.103395 58.579819 
"/>
    <path clip-path="url(#pa707e0ee57)" d="M 308.163127 59.569533 
L 303.590028 63.41536 
L 304.878543 63.972208 
L 298.862012 66.571243 
L 302.454326 61.089554 
L 302.781956 62.454475 
L 307.355055 58.608649 
L 308.163127 59.569533 
"/>
    <path clip-path="url(#pa707e0ee57)" d="M 22.361635 41.182471 
L 16.410676 40.644231 
L 16.922781 41.951173 
L 10.840441 39.510113 
L 17.262061 38.199985 
L 16.52377 39.393835 
L 22.474728 39.932075 
L 22.361635 41.182471 
"/>
    <path clip-path="url(#pa707e0ee57)" d="M 41.139506 41.107932 
L 35.898041 38.239019 
L 35.845894 39.641742 
L 31.243508 34.975729 
L 37.654315 36.337784 
L 36.500848 37.1377 
L 41.742312 40.006613 
L 41.139506 41.107932 
"/>
    <path clip-path="url(#pa707e0ee57)" d="M 60.828103 41.068384 
L 55.963085 44.537564 
L 57.203128 45.195319 
L 50.998621 47.306651 
L 55.01633 42.128654 
L 55.234152 43.515342 
L 60.09917 40.046162 
L 60.828103 41.068384 
"/>
    <path clip-path="url(#pa707e0ee57)" d="M 79.373498 41.174793 
L 73.495619 40.100482 
L 73.887408 41.448388 
L 68.0508 38.467173 
L 74.564601 37.743265 
L 73.72135 38.865441 
L 79.599229 39.939752 
L 79.373498 41.174793 
"/>
    <path clip-path="url(#pa707e0ee57)" d="M 98.008076 40.935498 
L 94.407935 36.166578 
L 93.78413 37.424043 
L 91.504925 31.279219 
L 96.790219 35.154693 
L 95.409964 35.410128 
L 99.010106 40.179048 
L 98.008076 40.935498 
"/>
    <path clip-path="url(#pa707e0ee57)" d="M 117.981733 40.995048 
L 113.814765 45.277569 
L 115.152369 45.703204 
L 109.424876 48.889026 
L 112.452881 43.076555 
L 112.914935 44.402019 
L 117.081903 40.119498 
L 117.981733 40.995048 
"/>
    <path clip-path="url(#pa707e0ee57)" d="M 137.161809 40.716335 
L 135.647769 46.496586 
L 137.021359 46.207447 
L 133.608943 51.802896 
L 133.377777 45.253072 
L 134.433242 46.178461 
L 135.947282 40.39821 
L 137.161809 40.716335 
"/>
    <path clip-path="url(#pa707e0ee57)" d="M 154.963224 40.687714 
L 153.721621 34.842884 
L 152.623965 35.717814 
L 153.161701 29.186009 
L 156.308254 34.935169 
L 154.949717 34.582002 
L 156.191321 40.426832 
L 154.963224 40.687714 
"/>
    <path clip-path="url(#pa707e0ee57)" d="M 174.228164 41.063048 
L 169.413937 37.523721 
L 169.17604 38.907107 
L 165.2338 33.671424 
L 171.407055 35.872458 
L 170.157609 36.512172 
L 174.971836 40.051498 
L 174.228164 41.063048 
"/>
    <path clip-path="url(#pa707e0ee57)" d="M 194.140979 40.911512 
L 190.769148 45.8445 
L 192.159891 46.034726 
L 187.062746 50.154526 
L 189.050381 43.909292 
L 189.732645 45.136022 
L 193.104476 40.203034 
L 194.140979 40.911512 
"/>
    <path clip-path="url(#pa707e0ee57)" d="M 213.190136 40.86935 
L 210.219621 46.053909 
L 211.621061 46.133383 
L 206.866243 50.643964 
L 208.352973 44.260918 
L 209.130258 45.429755 
L 212.100773 40.245195 
L 213.190136 40.86935 
"/>
    <path clip-path="url(#pa707e0ee57)" d="M 232.269305 40.376383 
L 233.991104 46.098186 
L 235.012461 45.135284 
L 235.017985 51.689184 
L 231.405722 46.22062 
L 232.788857 46.459964 
L 231.067059 40.738162 
L 232.269305 40.376383 
"/>
    <path clip-path="url(#pa707e0ee57)" d="M 251.09053 41.041394 
L 246.482414 44.845192 
L 247.765776 45.413813 
L 241.725703 47.957658 
L 245.368052 42.509086 
L 245.683172 43.876949 
L 250.291288 40.073152 
L 251.09053 41.041394 
"/>
    <path clip-path="url(#pa707e0ee57)" d="M 270.258336 40.869318 
L 267.288128 46.054053 
L 268.689573 46.133444 
L 263.935022 50.644306 
L 265.421374 44.261172 
L 266.198729 45.429963 
L 269.168937 40.245228 
L 270.258336 40.869318 
"/>
    <path clip-path="url(#pa707e0ee57)" d="M 289.002656 39.988803 
L 294.41365 42.523513 
L 294.377765 41.120281 
L 299.263589 45.488617 
L 292.780009 44.531102 
L 293.881065 43.660454 
L 288.470071 41.125743 
L 289.002656 39.988803 
"/>
    <path clip-path="url(#pa707e0ee57)" d="M 308.208482 40.11896 
L 312.380569 44.396494 
L 312.841038 43.070478 
L 315.875993 48.879323 
L 310.144694 45.700354 
L 311.481788 45.273119 
L 307.3097 40.995585 
L 308.208482 40.11896 
"/>
   </g>
   <g id="line2d_1">
    <defs>
     <path d="M -3 0 
L 3 0 
M 0 3 
L 0 -3 
" id="mbd64e83e2c" style="stroke:#ff0000;"/>
    </defs>
    <g clip-path="url(#pa707e0ee57)">
     <use style="fill:#ff0000;stroke:#ff0000;" x="41.440909" xlink:href="#mbd64e83e2c" y="96.152727"/>
     <use style="fill:#ff0000;stroke:#ff0000;" x="79.486364" xlink:href="#mbd64e83e2c" y="207.343636"/>
     <use style="fill:#ff0000;stroke:#ff0000;" x="79.486364" xlink:href="#mbd64e83e2c" y="77.620909"/>
     <use style="fill:#ff0000;stroke:#ff0000;" x="79.486364" xlink:href="#mbd64e83e2c" y="40.557273"/>
     <use style="fill:#ff0000;stroke:#ff0000;" x="98.509091" xlink:href="#mbd64e83e2c" y="188.811818"/>
     <use style="fill:#ff0000;stroke:#ff0000;" x="98.509091" xlink:href="#mbd64e83e2c" y="96.152727"/>
     <use style="fill:#ff0000;stroke:#ff0000;" x="98.509091" xlink:href="#mbd64e83e2c" y="59.089091"/>
     <use style="fill:#ff0000;stroke:#ff0000;" x="117.531818" xlink:href="#mbd64e83e2c" y="318.534545"/>
     <use style="fill:#ff0000;stroke:#ff0000;" x="136.554545" xlink:href="#mbd64e83e2c" y="225.875455"/>
     <use style="fill:#ff0000;stroke:#ff0000;" x="174.6" xlink:href="#mbd64e83e2c" y="207.343636"/>
     <use style="fill:#ff0000;stroke:#ff0000;" x="174.6" xlink:href="#mbd64e83e2c" y="77.620909"/>
     <use style="fill:#ff0000;stroke:#ff0000;" x="193.622727" xlink:href="#mbd64e83e2c" y="207.343636"/>
     <use style="fill:#ff0000;stroke:#ff0000;" x="193.622727" xlink:href="#mbd64e83e2c" y="151.748182"/>
     <use style="fill:#ff0000;stroke:#ff0000;" x="212.645455" xlink:href="#mbd64e83e2c" y="244.407273"/>
     <use style="fill:#ff0000;stroke:#ff0000;" x="231.668182" xlink:href="#mbd64e83e2c" y="151.748182"/>
     <use style="fill:#ff0000;stroke:#ff0000;" x="250.690909" xlink:href="#mbd64e83e2c" y="300.002727"/>
     <use style="fill:#ff0000;stroke:#ff0000;" x="250.690909" xlink:href="#mbd64e83e2c" y="188.811818"/>
    </g>
   </g>
   <g id="line2d_2">
    <defs>
     <path d="M -3 3 
L 3 -3 
M -3 -3 
L 3 3 
" id="m415cf06db3" style="stroke:#0000ff;"/>
    </defs>
    <g clip-path="url(#pa707e0ee57)">
     <use style="fill:#0000ff;stroke:#0000ff;" x="22.418182" xlink:href="#m415cf06db3" y="170.28"/>
     <use style="fill:#0000ff;stroke:#0000ff;" x="22.418182" xlink:href="#m415cf06db3" y="59.089091"/>
     <use style="fill:#0000ff;stroke:#0000ff;" x="60.463636" xlink:href="#m415cf06db3" y="225.875455"/>
     <use style="fill:#0000ff;stroke:#0000ff;" x="79.486364" xlink:href="#m415cf06db3" y="96.152727"/>
     <use style="fill:#0000ff;stroke:#0000ff;" x="79.486364" xlink:href="#m415cf06db3" y="59.089091"/>
     <use style="fill:#0000ff;stroke:#0000ff;" x="98.509091" xlink:href="#m415cf06db3" y="207.343636"/>
     <use style="fill:#0000ff;stroke:#0000ff;" x="98.509091" xlink:href="#m415cf06db3" y="77.620909"/>
     <use style="fill:#0000ff;stroke:#0000ff;" x="98.509091" xlink:href="#m415cf06db3" y="40.557273"/>
     <use style="fill:#0000ff;stroke:#0000ff;" x="117.531818" xlink:href="#m415cf06db3" y="300.002727"/>
     <use style="fill:#0000ff;stroke:#0000ff;" x="155.577273" xlink:href="#m415cf06db3" y="188.811818"/>
     <use style="fill:#0000ff;stroke:#0000ff;" x="174.6" xlink:href="#m415cf06db3" y="96.152727"/>
     <use style="fill:#0000ff;stroke:#0000ff;" x="193.622727" xlink:href="#m415cf06db3" y="225.875455"/>
     <use style="fill:#0000ff;stroke:#0000ff;" x="193.622727" xlink:href="#m415cf06db3" y="170.28"/>
     <use style="fill:#0000ff;stroke:#0000ff;" x="212.645455" xlink:href="#m415cf06db3" y="262.939091"/>
     <use style="fill:#0000ff;stroke:#0000ff;" x="212.645455" xlink:href="#m415cf06db3" y="151.748182"/>
     <use style="fill:#0000ff;stroke:#0000ff;" x="231.668182" xlink:href="#m415cf06db3" y="244.407273"/>
     <use style="fill:#0000ff;stroke:#0000ff;" x="269.713636" xlink:href="#m415cf06db3" y="188.811818"/>
    </g>
   </g>
   <g id="line2d_3">
    <path clip-path="url(#pa707e0ee57)" d="M 22.418182 318.534545 
L 22.418182 22.025455 
" style="fill:none;stroke:#bfbfbf;stroke-linecap:square;stroke-width:0.5;"/>
   </g>
   <g id="line2d_4">
    <path clip-path="url(#pa707e0ee57)" d="M 22.418182 318.534545 
L 326.781818 318.534545 
" style="fill:none;stroke:#bfbfbf;stroke-linecap:square;stroke-width:0.5;"/>
   </g>
   <g id="line2d_5">
    <path clip-path="url(#pa707e0ee57)" d="M 41.440909 318.534545 
L 41.440909 22.025455 
" style="fill:none;stroke:#bfbfbf;stroke-linecap:square;stroke-width:0.5;"/>
   </g>
   <g id="line2d_6">
    <path clip-path="url(#pa707e0ee57)" d="M 22.418182 300.002727 
L 326.781818 300.002727 
" style="fill:none;stroke:#bfbfbf;stroke-linecap:square;stroke-width:0.5;"/>
   </g>
   <g id="line2d_7">
    <path clip-path="url(#pa707e0ee57)" d="M 60.463636 318.534545 
L 60.463636 22.025455 
" style="fill:none;stroke:#bfbfbf;stroke-linecap:square;stroke-width:0.5;"/>
   </g>
   <g id="line2d_8">
    <path clip-path="url(#pa707e0ee57)" d="M 22.418182 281.470909 
L 326.781818 281.470909 
" style="fill:none;stroke:#bfbfbf;stroke-linecap:square;stroke-width:0.5;"/>
   </g>
   <g id="line2d_9">
    <path clip-path="url(#pa707e0ee57)" d="M 79.486364 318.534545 
L 79.486364 22.025455 
" style="fill:none;stroke:#bfbfbf;stroke-linecap:square;stroke-width:0.5;"/>
   </g>
   <g id="line2d_10">
    <path clip-path="url(#pa707e0ee57)" d="M 22.418182 262.939091 
L 326.781818 262.939091 
" style="fill:none;stroke:#bfbfbf;stroke-linecap:square;stroke-width:0.5;"/>
   </g>
   <g id="line2d_11">
    <path clip-path="url(#pa707e0ee57)" d="M 98.509091 318.534545 
L 98.509091 22.025455 
" style="fill:none;stroke:#bfbfbf;stroke-linecap:square;stroke-width:0.5;"/>
   </g>
   <g id="line2d_12">
    <path clip-path="url(#pa707e0ee57)" d="M 22.418182 244.407273 
L 326.781818 244.407273 
" style="fill:none;stroke:#bfbfbf;stroke-linecap:square;stroke-width:0.5;"/>
   </g>
   <g id="line2d_13">
    <path clip-path="url(#pa707e0ee57)" d="M 117.531818 318.534545 
L 117.531818 22.025455 
" style="fill:none;stroke:#bfbfbf;stroke-linecap:square;stroke-width:0.5;"/>
   </g>
   <g id="line2d_14">
    <path clip-path="url(#pa707e0ee57)" d="M 22.418182 225.875455 
L 326.781818 225.875455 
" style="fill:none;stroke:#bfbfbf;stroke-linecap:square;stroke-width:0.5;"/>
   </g>
   <g id="line2d_15">
    <path clip-path="url(#pa707e0ee57)" d="M 136.554545 318.534545 
L 136.554545 22.025455 
" style="fill:none;stroke:#bfbfbf;stroke-linecap:square;stroke-width:0.5;"/>
   </g>
   <g id="line2d_16">
    <path clip-path="url(#pa707e0ee57)" d="M 22.418182 207.343636 
L 326.781818 207.343636 
" style="fill:none;stroke:#bfbfbf;stroke-linecap:square;stroke-width:0.5;"/>
   </g>
   <g id="line2d_17">
    <path clip-path="url(#pa707e0ee57)" d="M 155.577273 318.534545 
L 155.577273 22.025455 
" style="fill:none;stroke:#bfbfbf;stroke-linecap:square;stroke-width:0.5;"/>
   </g>
   <g id="line2d_18">
    <path clip-path="url(#pa707e0ee57)" d="M 22.418182 188.811818 
L 326.781818 188.811818 
" style="fill:none;stroke:#bfbfbf;stroke-linecap:square;stroke-width:0.5;"/>
   </g>
   <g id="line2d_19">
    <path clip-path="url(#pa707e0ee57)" d="M 174.6 318.534545 
L 174.6 22.025455 
" style="fill:none;stroke:#bfbfbf;stroke-linecap:square;stroke-width:0.5;"/>
   </g>
   <g id="line2d_20">
    <path clip-path="url(#pa707e0ee57)" d="M 22.418182 170.28 
L 326.781818 170.28 
" style="fill:none;stroke:#bfbfbf;stroke-linecap:square;stroke-width:0.5;"/>
   </g>
   <g id="line2d_21">
    <path clip-path="url(#pa707e0ee57)" d="M 193.622727 318.534545 
L 193.622727 22.025455 
" style="fill:none;stroke:#bfbfbf;stroke-linecap:square;stroke-width:0.5;"/>
   </g>
   <g id="line2d_22">
    <path clip-path="url(#pa707e0ee57)" d="M 22.418182 151.748182 
L 326.781818 151.748182 
" style="fill:none;stroke:#bfbfbf;stroke-linecap:square;stroke-width:0.5;"/>
   </g>
   <g id="line2d_23">
    <path clip-path="url(#pa707e0ee57)" d="M 212.645455 318.534545 
L 212.645455 22.025455 
" style="fill:none;stroke:#bfbfbf;stroke-linecap:square;stroke-width:0.5;"/>
   </g>
   <g id="line2d_24">
    <path clip-path="url(#pa707e0ee57)" d="M 22.418182 133.216364 
L 326.781818 133.216364 
" style="fill:none;stroke:#bfbfbf;stroke-linecap:square;stroke-width:0.5;"/>
   </g>
   <g id="line2d_25">
    <path clip-path="url(#pa707e0ee57)" d="M 231.668182 318.534545 
L 231.668182 22.025455 
" style="fill:none;stroke:#bfbfbf;stroke-linecap:square;stroke-width:0.5;"/>
   </g>
   <g id="line2d_26">
    <path clip-path="url(#pa707e0ee57)" d="M 22.418182 114.684545 
L 326.781818 114.684545 
" style="fill:none;stroke:#bfbfbf;stroke-linecap:square;stroke-width:0.5;"/>
   </g>
   <g id="line2d_27">
    <path clip-path="url(#pa707e0ee57)" d="M 250.690909 318.534545 
L 250.690909 22.025455 
" style="fill:none;stroke:#bfbfbf;stroke-linecap:square;stroke-width:0.5;"/>
   </g>
   <g id="line2d_28">
    <path clip-path="url(#pa707e0ee57)" d="M 22.418182 96.152727 
L 326.781818 96.152727 
" style="fill:none;stroke:#bfbfbf;stroke-linecap:square;stroke-width:0.5;"/>
   </g>
   <g id="line2d_29">
    <path clip-path="url(#pa707e0ee57)" d="M 269.713636 318.534545 
L 269.713636 22.025455 
" style="fill:none;stroke:#bfbfbf;stroke-linecap:square;stroke-width:0.5;"/>
   </g>
   <g id="line2d_30">
    <path clip-path="url(#pa707e0ee57)" d="M 22.418182 77.620909 
L 326.781818 77.620909 
" style="fill:none;stroke:#bfbfbf;stroke-linecap:square;stroke-width:0.5;"/>
   </g>
   <g id="line2d_31">
    <path clip-path="url(#pa707e0ee57)" d="M 288.736364 318.534545 
L 288.736364 22.025455 
" style="fill:none;stroke:#bfbfbf;stroke-linecap:square;stroke-width:0.5;"/>
   </g>
   <g id="line2d_32">
    <path clip-path="url(#pa707e0ee57)" d="M 22.418182 59.089091 
L 326.781818 59.089091 
" style="fill:none;stroke:#bfbfbf;stroke-linecap:square;stroke-width:0.5;"/>
   </g>
   <g id="line2d_33">
    <path clip-path="url(#pa707e0ee57)" d="M 307.759091 318.534545 
L 307.759091 22.025455 
" style="fill:none;stroke:#bfbfbf;stroke-linecap:square;stroke-width:0.5;"/>
   </g>
   <g id="line2d_34">
    <path clip-path="url(#pa707e0ee57)" d="M 22.418182 40.557273 
L 326.781818 40.557273 
" style="fill:none;stroke:#bfbfbf;stroke-linecap:square;stroke-width:0.5;"/>
   </g>
   <g id="line2d_35">
    <defs>
     <path d="M 0 7 
C 1.856422 7 3.637059 6.262436 4.949747 4.949747 
C 6.262436 3.637059 7 1.856422 7 0 
C 7 -1.856422 6.262436 -3.637059 4.949747 -4.949747 
C 3.637059 -6.262436 1.856422 -7 0 -7 
C -1.856422 -7 -3.637059 -6.262436 -4.949747 -4.949747 
C -6.262436 -3.637059 -7 -1.856422 -7 0 
C -7 1.856422 -6.262436 3.637059 -4.949747 4.949747 
C -3.637059 6.262436 -1.856422 7 0 7 
z
" id="m5f27c8792f" style="stroke:#000000;stroke-opacity:0.2;"/>
    </defs>
    <g clip-path="url(#pa707e0ee57)">
     <use style="fill-opacity:0.2;stroke:#000000;stroke-opacity:0.2;" x="136.554545" xlink:href="#m5f27c8792f" y="225.875455"/>
    </g>
   </g>
   <g id="line2d_36">
    <g clip-path="url(#pa707e0ee57)">
     <use style="fill-opacity:0.2;stroke:#000000;stroke-opacity:0.2;" x="41.440909" xlink:href="#m5f27c8792f" y="96.152727"/>
    </g>
   </g>
   <g id="line2d_37">
    <g clip-path="url(#pa707e0ee57)">
     <use style="fill-opacity:0.2;stroke:#000000;stroke-opacity:0.2;" x="250.690909" xlink:href="#m5f27c8792f" y="300.002727"/>
    </g>
   </g>
  </g>
 </g>
 <defs>
  <clipPath id="pa707e0ee57">
   <rect height="326.16" width="334.8" x="7.2" y="7.2"/>
  </clipPath>
 </defs>
</svg>
