<?xml version="1.0" encoding="utf-8" standalone="no"?>
<!DOCTYPE svg PUBLIC "-//W3C//DTD SVG 1.1//EN"
  "http://www.w3.org/Graphics/SVG/1.1/DTD/svg11.dtd">
<!-- Created with matplotlib (https://matplotlib.org/) -->
<svg height="305.401695pt" version="1.1" viewBox="0 0 404.842423 305.401695" width="404.842423pt" xmlns="http://www.w3.org/2000/svg" xmlns:xlink="http://www.w3.org/1999/xlink">
 <defs>
  <style type="text/css">
*{stroke-linecap:butt;stroke-linejoin:round;}
  </style>
 </defs>
 <g id="figure_1">
  <g id="patch_1">
   <path d="M 0 305.401695 
L 404.842423 305.401695 
L 404.842423 0 
L 0 0 
z
" style="fill:#ffffff;"/>
  </g>
  <g id="axes_1">
   <g id="patch_2">
    <path d="M 59.342423 255.32 
L 394.142423 255.32 
L 394.142423 10.7 
L 59.342423 10.7 
z
" style="fill:#ffffff;"/>
   </g>
   <g id="matplotlib.axis_1">
    <g id="xtick_1">
     <g id="line2d_1">
      <defs>
       <path d="M 0 0 
L 0 3.5 
" id="mb203c40742" style="stroke:#000000;stroke-width:0.8;"/>
      </defs>
      <g>
       <use style="stroke:#000000;stroke-width:0.8;" x="74.560605" xlink:href="#mb203c40742" y="255.32"/>
      </g>
     </g>
     <g id="line2d_2">
      <defs>
       <path d="M 0 0 
L 0 -3.5 
" id="m4439fac89a" style="stroke:#000000;stroke-width:0.8;"/>
      </defs>
      <g>
       <use style="stroke:#000000;stroke-width:0.8;" x="74.560605" xlink:href="#m4439fac89a" y="10.7"/>
      </g>
     </g>
     <g id="text_1">
      <!-- $-\pi$ -->
      <defs>
       <path d="M 65.90625 23 
C 67.59375 23 69.40625 23 69.40625 25 
C 69.40625 27 67.59375 27 65.90625 27 
L 11.796875 27 
C 10.09375 27 8.296875 27 8.296875 25 
C 8.296875 23 10.09375 23 11.796875 23 
z
" id="CMSY10-0"/>
       <path d="M 25.90625 37.625 
L 37.203125 37.625 
C 34.5 26.4375 32.796875 19.15625 32.796875 11.1875 
C 32.796875 9.78125 32.796875 -1 36.90625 -1 
C 39 -1 40.796875 0.890625 40.796875 2.59375 
C 40.796875 3.078125 40.796875 3.28125 40.09375 4.78125 
C 37.40625 11.671875 37.40625 20.25 37.40625 20.953125 
C 37.40625 21.546875 37.40625 28.625 39.5 37.625 
L 50.703125 37.625 
C 52 37.625 55.296875 37.625 55.296875 40.8125 
C 55.296875 43 53.40625 43 51.59375 43 
L 18.703125 43 
C 16.40625 43 13 43 8.40625 38.125 
C 5.796875 35.21875 2.59375 29.9375 2.59375 29.34375 
C 2.59375 28.75 3.09375 28.546875 3.703125 28.546875 
C 4.40625 28.546875 4.5 28.84375 5 29.4375 
C 10.203125 37.625 15.40625 37.625 17.90625 37.625 
L 23.59375 37.625 
C 21.40625 30.140625 18.90625 21.453125 10.703125 4 
C 9.90625 2.40625 9.90625 2.1875 9.90625 1.59375 
C 9.90625 -0.5 11.703125 -1 12.59375 -1 
C 15.5 -1 16.296875 1.59375 17.5 5.78125 
C 19.09375 10.875 19.09375 11.078125 20.09375 15.0625 
z
" id="CMMI12-25"/>
      </defs>
      <g transform="translate(63.934726 273.389588)scale(0.16 -0.16)">
       <use transform="scale(0.996264)" xlink:href="#CMSY10-0"/>
       <use transform="translate(77.487468 0)scale(0.996264)" xlink:href="#CMMI12-25"/>
      </g>
     </g>
    </g>
    <g id="xtick_2">
     <g id="line2d_3">
      <g>
       <use style="stroke:#000000;stroke-width:0.8;" x="226.742423" xlink:href="#mb203c40742" y="255.32"/>
      </g>
     </g>
     <g id="line2d_4">
      <g>
       <use style="stroke:#000000;stroke-width:0.8;" x="226.742423" xlink:href="#m4439fac89a" y="10.7"/>
      </g>
     </g>
     <g id="text_2">
      <!-- $0$ -->
      <defs>
       <path d="M 42 31.640625 
C 42 37.75 41.90625 48.125 37.703125 56.109375 
C 34 63.109375 28.09375 65.59375 22.90625 65.59375 
C 18.09375 65.59375 12 63.40625 8.203125 56.203125 
C 4.203125 48.71875 3.796875 39.4375 3.796875 31.640625 
C 3.796875 25.953125 3.90625 17.28125 7 9.671875 
C 11.296875 -0.609375 19 -2 22.90625 -2 
C 27.5 -2 34.5 -0.109375 38.59375 9.375 
C 41.59375 16.28125 42 24.359375 42 31.640625 
z
M 22.90625 -0.40625 
C 16.5 -0.40625 12.703125 5.078125 11.296875 12.6875 
C 10.203125 18.5625 10.203125 27.15625 10.203125 32.75 
C 10.203125 40.4375 10.203125 46.828125 11.5 52.921875 
C 13.40625 61.390625 19 64 22.90625 64 
C 27 64 32.296875 61.296875 34.203125 53.125 
C 35.5 47.4375 35.59375 40.734375 35.59375 32.75 
C 35.59375 26.25 35.59375 18.265625 34.40625 12.375 
C 32.296875 1.484375 26.40625 -0.40625 22.90625 -0.40625 
z
" id="CMR17-48"/>
      </defs>
      <g transform="translate(222.84043 273.389588)scale(0.16 -0.16)">
       <use transform="scale(0.996264)" xlink:href="#CMR17-48"/>
      </g>
     </g>
    </g>
    <g id="xtick_3">
     <g id="line2d_5">
      <g>
       <use style="stroke:#000000;stroke-width:0.8;" x="378.924241" xlink:href="#mb203c40742" y="255.32"/>
      </g>
     </g>
     <g id="line2d_6">
      <g>
       <use style="stroke:#000000;stroke-width:0.8;" x="378.924241" xlink:href="#m4439fac89a" y="10.7"/>
      </g>
     </g>
     <g id="text_3">
      <!-- $\pi$ -->
      <g transform="translate(374.497361 273.389588)scale(0.16 -0.16)">
       <use transform="scale(0.996264)" xlink:href="#CMMI12-25"/>
      </g>
     </g>
    </g>
    <g id="text_4">
     <!-- $k$ -->
     <defs>
      <path d="M 28.09375 66.515625 
C 28.203125 66.921875 28.40625 67.515625 28.40625 68 
C 28.40625 69 27.40625 69 27.203125 69 
C 27.09375 69 23.5 68.640625 21.703125 68.390625 
C 20 68.390625 18.5 68.09375 16.703125 68.09375 
C 14.296875 67.890625 13.59375 67.796875 13.59375 66 
C 13.59375 65 14.59375 65 15.59375 65 
C 20.703125 65 20.703125 64.109375 20.703125 63.125 
C 20.703125 62.734375 20.703125 62.53125 20.203125 60.75 
L 5.90625 3.875 
C 5.5 2.375 5.5 2.1875 5.5 1.578125 
C 5.5 -0.59375 7.203125 -1 8.203125 -1 
C 11 -1 11.59375 1.203125 12.40625 4.296875 
L 17.09375 22.953125 
C 24.296875 22.15625 28.59375 19.15625 28.59375 14.375 
C 28.59375 13.765625 28.59375 13.375 28.296875 11.875 
C 27.90625 10.375 27.90625 9.1875 27.90625 8.6875 
C 27.90625 2.890625 31.703125 -1 36.796875 -1 
C 41.40625 -1 43.796875 3.1875 44.59375 4.59375 
C 46.703125 8.28125 48 13.875 48 14.265625 
C 48 14.765625 47.59375 15.171875 47 15.171875 
C 46.09375 15.171875 46 14.765625 45.59375 13.171875 
C 44.203125 7.984375 42.09375 1 37 1 
C 35 1 33.703125 2 33.703125 5.78125 
C 33.703125 7.6875 34.09375 9.875 34.5 11.375 
C 34.90625 13.171875 34.90625 13.265625 34.90625 14.46875 
C 34.90625 20.359375 29.59375 23.65625 20.40625 24.84375 
C 24 27.046875 27.59375 30.9375 29 32.4375 
C 34.703125 38.8125 38.59375 42.015625 43.203125 42.015625 
C 45.5 42.015625 46.09375 41.40625 46.796875 40.8125 
C 43.09375 40.40625 41.703125 37.8125 41.703125 35.828125 
C 41.703125 33.421875 43.59375 32.625 45 32.625 
C 47.703125 32.625 50.09375 34.921875 50.09375 38.125 
C 50.09375 41.015625 47.796875 44 43.296875 44 
C 37.796875 44 33.296875 40.109375 26.203125 32.125 
C 25.203125 30.9375 21.5 27.140625 17.796875 25.75 
z
" id="CMMI12-107"/>
     </defs>
     <g transform="translate(221.668904 294.326061)scale(0.2 -0.2)">
      <use transform="scale(0.996264)" xlink:href="#CMMI12-107"/>
     </g>
    </g>
   </g>
   <g id="matplotlib.axis_2">
    <g id="ytick_1">
     <g id="line2d_7">
      <defs>
       <path d="M 0 0 
L -3.5 0 
" id="m3f2edc57c8" style="stroke:#000000;stroke-width:0.8;"/>
      </defs>
      <g>
       <use style="stroke:#000000;stroke-width:0.8;" x="59.342423" xlink:href="#m3f2edc57c8" y="244.200909"/>
      </g>
     </g>
     <g id="line2d_8">
      <defs>
       <path d="M 0 0 
L 3.5 0 
" id="m5ad1c4e192" style="stroke:#000000;stroke-width:0.8;"/>
      </defs>
      <g>
       <use style="stroke:#000000;stroke-width:0.8;" x="394.142423" xlink:href="#m5ad1c4e192" y="244.200909"/>
      </g>
     </g>
     <g id="text_5">
      <!-- $-\pi$ -->
      <g transform="translate(31.090666 249.735703)scale(0.16 -0.16)">
       <use transform="scale(0.996264)" xlink:href="#CMSY10-0"/>
       <use transform="translate(77.487468 0)scale(0.996264)" xlink:href="#CMMI12-25"/>
      </g>
     </g>
    </g>
    <g id="ytick_2">
     <g id="line2d_9">
      <g>
       <use style="stroke:#000000;stroke-width:0.8;" x="59.342423" xlink:href="#m3f2edc57c8" y="133.01"/>
      </g>
     </g>
     <g id="line2d_10">
      <g>
       <use style="stroke:#000000;stroke-width:0.8;" x="394.142423" xlink:href="#m5ad1c4e192" y="133.01"/>
      </g>
     </g>
     <g id="text_6">
      <!-- $0$ -->
      <g transform="translate(44.538436 138.544794)scale(0.16 -0.16)">
       <use transform="scale(0.996264)" xlink:href="#CMR17-48"/>
      </g>
     </g>
    </g>
    <g id="ytick_3">
     <g id="line2d_11">
      <g>
       <use style="stroke:#000000;stroke-width:0.8;" x="59.342423" xlink:href="#m3f2edc57c8" y="21.819091"/>
      </g>
     </g>
     <g id="line2d_12">
      <g>
       <use style="stroke:#000000;stroke-width:0.8;" x="394.142423" xlink:href="#m5ad1c4e192" y="21.819091"/>
      </g>
     </g>
     <g id="text_7">
      <!-- $\pi$ -->
      <g transform="translate(43.488662 27.353885)scale(0.16 -0.16)">
       <use transform="scale(0.996264)" xlink:href="#CMMI12-25"/>
      </g>
     </g>
    </g>
    <g id="text_8">
     <!-- $E_\theta(k)$ -->
     <defs>
      <path d="M 69.5 23.265625 
C 69.59375 23.5625 69.90625 24.28125 69.90625 24.671875 
C 69.90625 25.171875 69.5 25.671875 68.90625 25.671875 
C 68.5 25.671875 68.296875 25.578125 68 25.265625 
C 67.796875 25.171875 67.796875 24.96875 66.90625 22.953125 
C 61 8.90625 56.703125 2.890625 40.703125 2.890625 
L 26.09375 2.890625 
C 24.703125 2.890625 24.5 2.890625 23.90625 3 
C 22.796875 3.09375 22.703125 3.296875 22.703125 4.09375 
C 22.703125 4.796875 22.90625 5.390625 23.09375 6.296875 
L 30 34 
L 39.90625 34 
C 47.703125 34 48.296875 32.28125 48.296875 29.28125 
C 48.296875 28.28125 48.296875 27.375 47.59375 24.375 
C 47.40625 23.96875 47.296875 23.5625 47.296875 23.265625 
C 47.296875 22.5625 47.796875 22.265625 48.40625 22.265625 
C 49.296875 22.265625 49.40625 22.953125 49.796875 24.359375 
L 55.5 47.53125 
C 55.5 48.015625 55.09375 48.515625 54.5 48.515625 
C 53.59375 48.515625 53.5 48.125 53.09375 46.71875 
C 51.09375 39.078125 49.09375 36.890625 40.203125 36.890625 
L 30.703125 36.890625 
L 36.90625 61.40625 
C 37.796875 64.90625 38 64.90625 42.09375 64.90625 
L 56.40625 64.90625 
C 68.703125 64.90625 71.203125 61.609375 71.203125 54.03125 
C 71.203125 53.921875 71.203125 51.140625 70.796875 47.84375 
C 70.703125 47.4375 70.59375 46.84375 70.59375 46.640625 
C 70.59375 45.84375 71.09375 45.546875 71.703125 45.546875 
C 72.40625 45.546875 72.796875 45.953125 73 47.734375 
L 75.09375 65.21875 
C 75.09375 65.546875 75.296875 66.609375 75.296875 66.828125 
C 75.296875 68 74.40625 68 72.59375 68 
L 23.796875 68 
C 21.90625 68 20.90625 68 20.90625 66.078125 
C 20.90625 64.90625 21.59375 64.90625 23.296875 64.90625 
C 29.5 64.90625 29.5 64.28125 29.5 63.3125 
C 29.5 62.8125 29.40625 62.40625 29.09375 61.3125 
L 15.59375 7.390625 
C 14.703125 3.890625 14.5 2.890625 7.5 2.890625 
C 5.59375 2.890625 4.59375 2.890625 4.59375 1.09375 
C 4.59375 0 5.203125 0 7.203125 0 
L 57.40625 0 
C 59.59375 0 59.703125 0.09375 60.40625 1.71875 
z
" id="CMMI12-69"/>
      <path d="M 44.296875 50 
C 44.296875 60.15625 41.09375 70 32.90625 70 
C 18.90625 70 4 40.859375 4 19 
C 4 14.421875 5 -1 15.5 -1 
C 29.09375 -1 44.296875 27.4375 44.296875 50 
z
M 14 36 
C 15.5 41.859375 17.59375 50.21875 21.59375 57.265625 
C 24.90625 63.234375 28.40625 68 32.796875 68 
C 36.09375 68 38.296875 65.21875 38.296875 55.6875 
C 38.296875 52.09375 38 47.140625 35.09375 36 
z
M 34.40625 33.015625 
C 31.90625 23.28125 29.796875 17 26.203125 10.734375 
C 23.296875 5.671875 19.796875 1 15.59375 1 
C 12.5 1 10 3.390625 10 13.21875 
C 10 19.6875 11.59375 26.453125 13.203125 33.015625 
z
" id="CMMI12-18"/>
      <path d="M 30.59375 -24.390625 
C 30.59375 -24.296875 30.59375 -24.09375 30.296875 -23.796875 
C 25.703125 -19.125 13.40625 -6.359375 13.40625 24.703125 
C 13.40625 55.765625 25.5 68.421875 30.40625 73.390625 
C 30.40625 73.5 30.59375 73.703125 30.59375 74 
C 30.59375 74.296875 30.296875 74.5 29.90625 74.5 
C 28.796875 74.5 20.296875 67.125 15.40625 56.15625 
C 10.40625 45.109375 9 34.359375 9 24.8125 
C 9 17.625 9.703125 5.484375 15.703125 -7.359375 
C 20.5 -17.734375 28.703125 -25 29.90625 -25 
C 30.40625 -25 30.59375 -24.796875 30.59375 -24.390625 
z
" id="CMR17-40"/>
      <path d="M 26.296875 24.703125 
C 26.296875 31.875 25.59375 44.015625 19.59375 56.859375 
C 14.796875 67.234375 6.59375 74.5 5.40625 74.5 
C 5.09375 74.5 4.703125 74.390625 4.703125 73.890625 
C 4.703125 73.703125 4.796875 73.59375 4.90625 73.390625 
C 9.703125 68.40625 21.90625 55.75 21.90625 24.75 
C 21.90625 -6.359375 9.796875 -19.015625 4.90625 -24.015625 
C 4.796875 -24.203125 4.703125 -24.3125 4.703125 -24.5 
C 4.703125 -25 5.09375 -25 5.40625 -25 
C 6.5 -25 15 -17.625 19.90625 -6.65625 
C 24.90625 4.390625 26.296875 15.140625 26.296875 24.703125 
z
" id="CMR17-41"/>
     </defs>
     <g transform="translate(23.215032 156.316096)rotate(-90)scale(0.2 -0.2)">
      <use transform="translate(0 14.943915)scale(0.996264)" xlink:href="#CMMI12-69"/>
      <use transform="translate(72.211218 0)scale(0.697382)" xlink:href="#CMMI12-18"/>
      <use transform="translate(106.427846 14.943915)scale(0.996264)" xlink:href="#CMR17-40"/>
      <use transform="translate(141.708613 14.943915)scale(0.996264)" xlink:href="#CMMI12-107"/>
      <use transform="translate(195.787814 14.943915)scale(0.996264)" xlink:href="#CMR17-41"/>
     </g>
    </g>
   </g>
   <g id="line2d_13">
    <path clip-path="url(#pe45f90a202)" d="M 74.560605 21.819091 
L 77.604241 24.042909 
L 80.647878 26.266727 
L 83.691514 28.490545 
L 86.73515 30.714364 
L 89.778787 32.938182 
L 92.822423 35.162 
L 95.866059 37.385818 
L 98.909696 39.609636 
L 101.953332 41.833455 
L 104.996969 44.057273 
L 108.040605 46.281091 
L 111.084241 48.504909 
L 114.127878 50.728727 
L 117.171514 52.952545 
L 120.21515 55.176364 
L 123.258787 57.400182 
L 126.302423 59.624 
L 129.346059 61.847818 
L 132.389696 64.071636 
L 135.433332 66.295455 
L 138.476969 68.519273 
L 141.520605 70.743091 
L 144.564241 72.966909 
L 147.607878 75.190727 
L 150.651514 77.414545 
L 153.69515 79.638364 
L 156.738787 81.862182 
L 159.782423 84.086 
L 162.826059 86.309818 
L 165.869696 88.533636 
L 168.913332 90.757455 
L 171.956969 92.981273 
L 175.000605 95.205091 
L 178.044241 97.428909 
L 181.087878 99.652727 
L 184.131514 101.876545 
L 187.17515 104.100364 
L 190.218787 106.324182 
L 193.262423 108.548 
L 196.306059 110.771818 
L 199.349696 112.995636 
L 202.393332 115.219455 
L 205.436969 117.443273 
L 208.480605 119.667091 
L 211.524241 121.890909 
L 214.567878 124.114727 
L 217.611514 126.338545 
L 220.65515 128.562364 
L 223.698787 130.786182 
L 226.742423 133.01 
L 229.786059 130.786182 
L 232.829696 128.562364 
L 235.873332 126.338545 
L 238.916969 124.114727 
L 241.960605 121.890909 
L 245.004241 119.667091 
L 248.047878 117.443273 
L 251.091514 115.219455 
L 254.13515 112.995636 
L 257.178787 110.771818 
L 260.222423 108.548 
L 263.266059 106.324182 
L 266.309696 104.100364 
L 269.353332 101.876545 
L 272.396969 99.652727 
L 275.440605 97.428909 
L 278.484241 95.205091 
L 281.527878 92.981273 
L 284.571514 90.757455 
L 287.61515 88.533636 
L 290.658787 86.309818 
L 293.702423 84.086 
L 296.746059 81.862182 
L 299.789696 79.638364 
L 302.833332 77.414545 
L 305.876969 75.190727 
L 308.920605 72.966909 
L 311.964241 70.743091 
L 315.007878 68.519273 
L 318.051514 66.295455 
L 321.09515 64.071636 
L 324.138787 61.847818 
L 327.182423 59.624 
L 330.226059 57.400182 
L 333.269696 55.176364 
L 336.313332 52.952545 
L 339.356969 50.728727 
L 342.400605 48.504909 
L 345.444241 46.281091 
L 348.487878 44.057273 
L 351.531514 41.833455 
L 354.57515 39.609636 
L 357.618787 37.385818 
L 360.662423 35.162 
L 363.706059 32.938182 
L 366.749696 30.714364 
L 369.793332 28.490545 
L 372.836969 26.266727 
L 375.880605 24.042909 
L 378.924241 21.819091 
" style="fill:none;stroke:#000000;stroke-linecap:square;"/>
   </g>
   <g id="line2d_14">
    <path clip-path="url(#pe45f90a202)" d="M 74.560605 244.200909 
L 77.604241 241.977091 
L 80.647878 239.753273 
L 83.691514 237.529455 
L 86.73515 235.305636 
L 89.778787 233.081818 
L 92.822423 230.858 
L 95.866059 228.634182 
L 98.909696 226.410364 
L 101.953332 224.186545 
L 104.996969 221.962727 
L 108.040605 219.738909 
L 111.084241 217.515091 
L 114.127878 215.291273 
L 117.171514 213.067455 
L 120.21515 210.843636 
L 123.258787 208.619818 
L 126.302423 206.396 
L 129.346059 204.172182 
L 132.389696 201.948364 
L 135.433332 199.724545 
L 138.476969 197.500727 
L 141.520605 195.276909 
L 144.564241 193.053091 
L 147.607878 190.829273 
L 150.651514 188.605455 
L 153.69515 186.381636 
L 156.738787 184.157818 
L 159.782423 181.934 
L 162.826059 179.710182 
L 165.869696 177.486364 
L 168.913332 175.262545 
L 171.956969 173.038727 
L 175.000605 170.814909 
L 178.044241 168.591091 
L 181.087878 166.367273 
L 184.131514 164.143455 
L 187.17515 161.919636 
L 190.218787 159.695818 
L 193.262423 157.472 
L 196.306059 155.248182 
L 199.349696 153.024364 
L 202.393332 150.800545 
L 205.436969 148.576727 
L 208.480605 146.352909 
L 211.524241 144.129091 
L 214.567878 141.905273 
L 217.611514 139.681455 
L 220.65515 137.457636 
L 223.698787 135.233818 
L 226.742423 133.01 
L 229.786059 135.233818 
L 232.829696 137.457636 
L 235.873332 139.681455 
L 238.916969 141.905273 
L 241.960605 144.129091 
L 245.004241 146.352909 
L 248.047878 148.576727 
L 251.091514 150.800545 
L 254.13515 153.024364 
L 257.178787 155.248182 
L 260.222423 157.472 
L 263.266059 159.695818 
L 266.309696 161.919636 
L 269.353332 164.143455 
L 272.396969 166.367273 
L 275.440605 168.591091 
L 278.484241 170.814909 
L 281.527878 173.038727 
L 284.571514 175.262545 
L 287.61515 177.486364 
L 290.658787 179.710182 
L 293.702423 181.934 
L 296.746059 184.157818 
L 299.789696 186.381636 
L 302.833332 188.605455 
L 305.876969 190.829273 
L 308.920605 193.053091 
L 311.964241 195.276909 
L 315.007878 197.500727 
L 318.051514 199.724545 
L 321.09515 201.948364 
L 324.138787 204.172182 
L 327.182423 206.396 
L 330.226059 208.619818 
L 333.269696 210.843636 
L 336.313332 213.067455 
L 339.356969 215.291273 
L 342.400605 217.515091 
L 345.444241 219.738909 
L 348.487878 221.962727 
L 351.531514 224.186545 
L 354.57515 226.410364 
L 357.618787 228.634182 
L 360.662423 230.858 
L 363.706059 233.081818 
L 366.749696 235.305636 
L 369.793332 237.529455 
L 372.836969 239.753273 
L 375.880605 241.977091 
L 378.924241 244.200909 
" style="fill:none;stroke:#000000;stroke-linecap:square;"/>
   </g>
   <g id="line2d_15">
    <path clip-path="url(#pe45f90a202)" d="M 74.560605 40.350909 
L 77.604241 40.47152 
L 80.647878 40.828728 
L 83.691514 41.40949 
L 86.73515 42.194533 
L 89.778787 43.161099 
L 92.822423 44.285494 
L 95.866059 45.54496 
L 98.909696 46.918796 
L 101.953332 48.38885 
L 104.996969 49.939573 
L 108.040605 51.557847 
L 111.084241 53.232688 
L 114.127878 54.954933 
L 117.171514 56.71693 
L 120.21515 58.512274 
L 123.258787 60.335569 
L 126.302423 62.18224 
L 129.346059 64.04837 
L 132.389696 65.930572 
L 135.433332 67.825881 
L 138.476969 69.731662 
L 141.520605 71.645538 
L 144.564241 73.565325 
L 147.607878 75.48898 
L 150.651514 77.414545 
L 153.69515 79.340111 
L 156.738787 81.263766 
L 159.782423 83.183553 
L 162.826059 85.097429 
L 165.869696 87.00321 
L 168.913332 88.898518 
L 171.956969 90.780721 
L 175.000605 92.646851 
L 178.044241 94.493522 
L 181.087878 96.316817 
L 184.131514 98.112161 
L 187.17515 99.874158 
L 190.218787 101.596403 
L 193.262423 103.271244 
L 196.306059 104.889518 
L 199.349696 106.440241 
L 202.393332 107.910294 
L 205.436969 109.284131 
L 208.480605 110.543597 
L 211.524241 111.667992 
L 214.567878 112.634558 
L 217.611514 113.419601 
L 220.65515 114.000363 
L 223.698787 114.357571 
L 226.742423 114.478182 
L 229.786059 114.357571 
L 232.829696 114.000363 
L 235.873332 113.419601 
L 238.916969 112.634558 
L 241.960605 111.667992 
L 245.004241 110.543597 
L 248.047878 109.284131 
L 251.091514 107.910294 
L 254.13515 106.440241 
L 257.178787 104.889518 
L 260.222423 103.271244 
L 263.266059 101.596403 
L 266.309696 99.874158 
L 269.353332 98.112161 
L 272.396969 96.316817 
L 275.440605 94.493522 
L 278.484241 92.646851 
L 281.527878 90.780721 
L 284.571514 88.898518 
L 287.61515 87.00321 
L 290.658787 85.097429 
L 293.702423 83.183553 
L 296.746059 81.263766 
L 299.789696 79.340111 
L 302.833332 77.414545 
L 305.876969 75.48898 
L 308.920605 73.565325 
L 311.964241 71.645538 
L 315.007878 69.731662 
L 318.051514 67.825881 
L 321.09515 65.930572 
L 324.138787 64.04837 
L 327.182423 62.18224 
L 330.226059 60.335569 
L 333.269696 58.512274 
L 336.313332 56.71693 
L 339.356969 54.954933 
L 342.400605 53.232688 
L 345.444241 51.557847 
L 348.487878 49.939573 
L 351.531514 48.38885 
L 354.57515 46.918796 
L 357.618787 45.54496 
L 360.662423 44.285494 
L 363.706059 43.161099 
L 366.749696 42.194533 
L 369.793332 41.40949 
L 372.836969 40.828728 
L 375.880605 40.47152 
L 378.924241 40.350909 
" style="fill:none;stroke:#ff0000;stroke-linecap:square;"/>
   </g>
   <g id="line2d_16">
    <path clip-path="url(#pe45f90a202)" d="M 74.560605 225.669091 
L 77.604241 225.54848 
L 80.647878 225.191272 
L 83.691514 224.61051 
L 86.73515 223.825467 
L 89.778787 222.858901 
L 92.822423 221.734506 
L 95.866059 220.47504 
L 98.909696 219.101204 
L 101.953332 217.63115 
L 104.996969 216.080427 
L 108.040605 214.462153 
L 111.084241 212.787312 
L 114.127878 211.065067 
L 117.171514 209.30307 
L 120.21515 207.507726 
L 123.258787 205.684431 
L 126.302423 203.83776 
L 129.346059 201.97163 
L 132.389696 200.089428 
L 135.433332 198.194119 
L 138.476969 196.288338 
L 141.520605 194.374462 
L 144.564241 192.454675 
L 147.607878 190.53102 
L 150.651514 188.605455 
L 153.69515 186.679889 
L 156.738787 184.756234 
L 159.782423 182.836447 
L 162.826059 180.922571 
L 165.869696 179.01679 
L 168.913332 177.121482 
L 171.956969 175.239279 
L 175.000605 173.373149 
L 178.044241 171.526478 
L 181.087878 169.703183 
L 184.131514 167.907839 
L 187.17515 166.145842 
L 190.218787 164.423597 
L 193.262423 162.748756 
L 196.306059 161.130482 
L 199.349696 159.579759 
L 202.393332 158.109706 
L 205.436969 156.735869 
L 208.480605 155.476403 
L 211.524241 154.352008 
L 214.567878 153.385442 
L 217.611514 152.600399 
L 220.65515 152.019637 
L 223.698787 151.662429 
L 226.742423 151.541818 
L 229.786059 151.662429 
L 232.829696 152.019637 
L 235.873332 152.600399 
L 238.916969 153.385442 
L 241.960605 154.352008 
L 245.004241 155.476403 
L 248.047878 156.735869 
L 251.091514 158.109706 
L 254.13515 159.579759 
L 257.178787 161.130482 
L 260.222423 162.748756 
L 263.266059 164.423597 
L 266.309696 166.145842 
L 269.353332 167.907839 
L 272.396969 169.703183 
L 275.440605 171.526478 
L 278.484241 173.373149 
L 281.527878 175.239279 
L 284.571514 177.121482 
L 287.61515 179.01679 
L 290.658787 180.922571 
L 293.702423 182.836447 
L 296.746059 184.756234 
L 299.789696 186.679889 
L 302.833332 188.605455 
L 305.876969 190.53102 
L 308.920605 192.454675 
L 311.964241 194.374462 
L 315.007878 196.288338 
L 318.051514 198.194119 
L 321.09515 200.089428 
L 324.138787 201.97163 
L 327.182423 203.83776 
L 330.226059 205.684431 
L 333.269696 207.507726 
L 336.313332 209.30307 
L 339.356969 211.065067 
L 342.400605 212.787312 
L 345.444241 214.462153 
L 348.487878 216.080427 
L 351.531514 217.63115 
L 354.57515 219.101204 
L 357.618787 220.47504 
L 360.662423 221.734506 
L 363.706059 222.858901 
L 366.749696 223.825467 
L 369.793332 224.61051 
L 372.836969 225.191272 
L 375.880605 225.54848 
L 378.924241 225.669091 
" style="fill:none;stroke:#ff0000;stroke-linecap:square;"/>
   </g>
   <g id="line2d_17">
    <path clip-path="url(#pe45f90a202)" d="M 74.560605 77.414545 
L 77.604241 77.414545 
L 80.647878 77.414545 
L 83.691514 77.414545 
L 86.73515 77.414545 
L 89.778787 77.414545 
L 92.822423 77.414545 
L 95.866059 77.414545 
L 98.909696 77.414545 
L 101.953332 77.414545 
L 104.996969 77.414545 
L 108.040605 77.414545 
L 111.084241 77.414545 
L 114.127878 77.414545 
L 117.171514 77.414545 
L 120.21515 77.414545 
L 123.258787 77.414545 
L 126.302423 77.414545 
L 129.346059 77.414545 
L 132.389696 77.414545 
L 135.433332 77.414545 
L 138.476969 77.414545 
L 141.520605 77.414545 
L 144.564241 77.414545 
L 147.607878 77.414545 
L 150.651514 77.414545 
L 153.69515 77.414545 
L 156.738787 77.414545 
L 159.782423 77.414545 
L 162.826059 77.414545 
L 165.869696 77.414545 
L 168.913332 77.414545 
L 171.956969 77.414545 
L 175.000605 77.414545 
L 178.044241 77.414545 
L 181.087878 77.414545 
L 184.131514 77.414545 
L 187.17515 77.414545 
L 190.218787 77.414545 
L 193.262423 77.414545 
L 196.306059 77.414545 
L 199.349696 77.414545 
L 202.393332 77.414545 
L 205.436969 77.414545 
L 208.480605 77.414545 
L 211.524241 77.414545 
L 214.567878 77.414545 
L 217.611514 77.414545 
L 220.65515 77.414545 
L 223.698787 77.414545 
L 226.742423 77.414545 
L 229.786059 77.414545 
L 232.829696 77.414545 
L 235.873332 77.414545 
L 238.916969 77.414545 
L 241.960605 77.414545 
L 245.004241 77.414545 
L 248.047878 77.414545 
L 251.091514 77.414545 
L 254.13515 77.414545 
L 257.178787 77.414545 
L 260.222423 77.414545 
L 263.266059 77.414545 
L 266.309696 77.414545 
L 269.353332 77.414545 
L 272.396969 77.414545 
L 275.440605 77.414545 
L 278.484241 77.414545 
L 281.527878 77.414545 
L 284.571514 77.414545 
L 287.61515 77.414545 
L 290.658787 77.414545 
L 293.702423 77.414545 
L 296.746059 77.414545 
L 299.789696 77.414545 
L 302.833332 77.414545 
L 305.876969 77.414545 
L 308.920605 77.414545 
L 311.964241 77.414545 
L 315.007878 77.414545 
L 318.051514 77.414545 
L 321.09515 77.414545 
L 324.138787 77.414545 
L 327.182423 77.414545 
L 330.226059 77.414545 
L 333.269696 77.414545 
L 336.313332 77.414545 
L 339.356969 77.414545 
L 342.400605 77.414545 
L 345.444241 77.414545 
L 348.487878 77.414545 
L 351.531514 77.414545 
L 354.57515 77.414545 
L 357.618787 77.414545 
L 360.662423 77.414545 
L 363.706059 77.414545 
L 366.749696 77.414545 
L 369.793332 77.414545 
L 372.836969 77.414545 
L 375.880605 77.414545 
L 378.924241 77.414545 
" style="fill:none;stroke:#0000ff;stroke-dasharray:1,1.65;stroke-dashoffset:0;"/>
   </g>
   <g id="line2d_18">
    <path clip-path="url(#pe45f90a202)" d="M 74.560605 188.605455 
L 77.604241 188.605455 
L 80.647878 188.605455 
L 83.691514 188.605455 
L 86.73515 188.605455 
L 89.778787 188.605455 
L 92.822423 188.605455 
L 95.866059 188.605455 
L 98.909696 188.605455 
L 101.953332 188.605455 
L 104.996969 188.605455 
L 108.040605 188.605455 
L 111.084241 188.605455 
L 114.127878 188.605455 
L 117.171514 188.605455 
L 120.21515 188.605455 
L 123.258787 188.605455 
L 126.302423 188.605455 
L 129.346059 188.605455 
L 132.389696 188.605455 
L 135.433332 188.605455 
L 138.476969 188.605455 
L 141.520605 188.605455 
L 144.564241 188.605455 
L 147.607878 188.605455 
L 150.651514 188.605455 
L 153.69515 188.605455 
L 156.738787 188.605455 
L 159.782423 188.605455 
L 162.826059 188.605455 
L 165.869696 188.605455 
L 168.913332 188.605455 
L 171.956969 188.605455 
L 175.000605 188.605455 
L 178.044241 188.605455 
L 181.087878 188.605455 
L 184.131514 188.605455 
L 187.17515 188.605455 
L 190.218787 188.605455 
L 193.262423 188.605455 
L 196.306059 188.605455 
L 199.349696 188.605455 
L 202.393332 188.605455 
L 205.436969 188.605455 
L 208.480605 188.605455 
L 211.524241 188.605455 
L 214.567878 188.605455 
L 217.611514 188.605455 
L 220.65515 188.605455 
L 223.698787 188.605455 
L 226.742423 188.605455 
L 229.786059 188.605455 
L 232.829696 188.605455 
L 235.873332 188.605455 
L 238.916969 188.605455 
L 241.960605 188.605455 
L 245.004241 188.605455 
L 248.047878 188.605455 
L 251.091514 188.605455 
L 254.13515 188.605455 
L 257.178787 188.605455 
L 260.222423 188.605455 
L 263.266059 188.605455 
L 266.309696 188.605455 
L 269.353332 188.605455 
L 272.396969 188.605455 
L 275.440605 188.605455 
L 278.484241 188.605455 
L 281.527878 188.605455 
L 284.571514 188.605455 
L 287.61515 188.605455 
L 290.658787 188.605455 
L 293.702423 188.605455 
L 296.746059 188.605455 
L 299.789696 188.605455 
L 302.833332 188.605455 
L 305.876969 188.605455 
L 308.920605 188.605455 
L 311.964241 188.605455 
L 315.007878 188.605455 
L 318.051514 188.605455 
L 321.09515 188.605455 
L 324.138787 188.605455 
L 327.182423 188.605455 
L 330.226059 188.605455 
L 333.269696 188.605455 
L 336.313332 188.605455 
L 339.356969 188.605455 
L 342.400605 188.605455 
L 345.444241 188.605455 
L 348.487878 188.605455 
L 351.531514 188.605455 
L 354.57515 188.605455 
L 357.618787 188.605455 
L 360.662423 188.605455 
L 363.706059 188.605455 
L 366.749696 188.605455 
L 369.793332 188.605455 
L 372.836969 188.605455 
L 375.880605 188.605455 
L 378.924241 188.605455 
" style="fill:none;stroke:#0000ff;stroke-dasharray:1,1.65;stroke-dashoffset:0;"/>
   </g>
   <g id="line2d_19">
    <path clip-path="url(#pe45f90a202)" d="M 74.560605 114.478182 
L 77.604241 114.357571 
L 80.647878 114.000363 
L 83.691514 113.419601 
L 86.73515 112.634558 
L 89.778787 111.667992 
L 92.822423 110.543597 
L 95.866059 109.284131 
L 98.909696 107.910294 
L 101.953332 106.440241 
L 104.996969 104.889518 
L 108.040605 103.271244 
L 111.084241 101.596403 
L 114.127878 99.874158 
L 117.171514 98.112161 
L 120.21515 96.316817 
L 123.258787 94.493522 
L 126.302423 92.646851 
L 129.346059 90.780721 
L 132.389696 88.898518 
L 135.433332 87.00321 
L 138.476969 85.097429 
L 141.520605 83.183553 
L 144.564241 81.263766 
L 147.607878 79.340111 
L 150.651514 77.414545 
L 153.69515 75.48898 
L 156.738787 73.565325 
L 159.782423 71.645538 
L 162.826059 69.731662 
L 165.869696 67.825881 
L 168.913332 65.930572 
L 171.956969 64.04837 
L 175.000605 62.18224 
L 178.044241 60.335569 
L 181.087878 58.512274 
L 184.131514 56.71693 
L 187.17515 54.954933 
L 190.218787 53.232688 
L 193.262423 51.557847 
L 196.306059 49.939573 
L 199.349696 48.38885 
L 202.393332 46.918796 
L 205.436969 45.54496 
L 208.480605 44.285494 
L 211.524241 43.161099 
L 214.567878 42.194533 
L 217.611514 41.40949 
L 220.65515 40.828728 
L 223.698787 40.47152 
L 226.742423 40.350909 
L 229.786059 40.47152 
L 232.829696 40.828728 
L 235.873332 41.40949 
L 238.916969 42.194533 
L 241.960605 43.161099 
L 245.004241 44.285494 
L 248.047878 45.54496 
L 251.091514 46.918796 
L 254.13515 48.38885 
L 257.178787 49.939573 
L 260.222423 51.557847 
L 263.266059 53.232688 
L 266.309696 54.954933 
L 269.353332 56.71693 
L 272.396969 58.512274 
L 275.440605 60.335569 
L 278.484241 62.18224 
L 281.527878 64.04837 
L 284.571514 65.930572 
L 287.61515 67.825881 
L 290.658787 69.731662 
L 293.702423 71.645538 
L 296.746059 73.565325 
L 299.789696 75.48898 
L 302.833332 77.414545 
L 305.876969 79.340111 
L 308.920605 81.263766 
L 311.964241 83.183553 
L 315.007878 85.097429 
L 318.051514 87.00321 
L 321.09515 88.898518 
L 324.138787 90.780721 
L 327.182423 92.646851 
L 330.226059 94.493522 
L 333.269696 96.316817 
L 336.313332 98.112161 
L 339.356969 99.874158 
L 342.400605 101.596403 
L 345.444241 103.271244 
L 348.487878 104.889518 
L 351.531514 106.440241 
L 354.57515 107.910294 
L 357.618787 109.284131 
L 360.662423 110.543597 
L 363.706059 111.667992 
L 366.749696 112.634558 
L 369.793332 113.419601 
L 372.836969 114.000363 
L 375.880605 114.357571 
L 378.924241 114.478182 
" style="fill:none;stroke:#ff0000;stroke-dasharray:1,1.65;stroke-dashoffset:0;"/>
   </g>
   <g id="line2d_20">
    <path clip-path="url(#pe45f90a202)" d="M 74.560605 151.541818 
L 77.604241 151.662429 
L 80.647878 152.019637 
L 83.691514 152.600399 
L 86.73515 153.385442 
L 89.778787 154.352008 
L 92.822423 155.476403 
L 95.866059 156.735869 
L 98.909696 158.109706 
L 101.953332 159.579759 
L 104.996969 161.130482 
L 108.040605 162.748756 
L 111.084241 164.423597 
L 114.127878 166.145842 
L 117.171514 167.907839 
L 120.21515 169.703183 
L 123.258787 171.526478 
L 126.302423 173.373149 
L 129.346059 175.239279 
L 132.389696 177.121482 
L 135.433332 179.01679 
L 138.476969 180.922571 
L 141.520605 182.836447 
L 144.564241 184.756234 
L 147.607878 186.679889 
L 150.651514 188.605455 
L 153.69515 190.53102 
L 156.738787 192.454675 
L 159.782423 194.374462 
L 162.826059 196.288338 
L 165.869696 198.194119 
L 168.913332 200.089428 
L 171.956969 201.97163 
L 175.000605 203.83776 
L 178.044241 205.684431 
L 181.087878 207.507726 
L 184.131514 209.30307 
L 187.17515 211.065067 
L 190.218787 212.787312 
L 193.262423 214.462153 
L 196.306059 216.080427 
L 199.349696 217.63115 
L 202.393332 219.101204 
L 205.436969 220.47504 
L 208.480605 221.734506 
L 211.524241 222.858901 
L 214.567878 223.825467 
L 217.611514 224.61051 
L 220.65515 225.191272 
L 223.698787 225.54848 
L 226.742423 225.669091 
L 229.786059 225.54848 
L 232.829696 225.191272 
L 235.873332 224.61051 
L 238.916969 223.825467 
L 241.960605 222.858901 
L 245.004241 221.734506 
L 248.047878 220.47504 
L 251.091514 219.101204 
L 254.13515 217.63115 
L 257.178787 216.080427 
L 260.222423 214.462153 
L 263.266059 212.787312 
L 266.309696 211.065067 
L 269.353332 209.30307 
L 272.396969 207.507726 
L 275.440605 205.684431 
L 278.484241 203.83776 
L 281.527878 201.97163 
L 284.571514 200.089428 
L 287.61515 198.194119 
L 290.658787 196.288338 
L 293.702423 194.374462 
L 296.746059 192.454675 
L 299.789696 190.53102 
L 302.833332 188.605455 
L 305.876969 186.679889 
L 308.920605 184.756234 
L 311.964241 182.836447 
L 315.007878 180.922571 
L 318.051514 179.01679 
L 321.09515 177.121482 
L 324.138787 175.239279 
L 327.182423 173.373149 
L 330.226059 171.526478 
L 333.269696 169.703183 
L 336.313332 167.907839 
L 339.356969 166.145842 
L 342.400605 164.423597 
L 345.444241 162.748756 
L 348.487878 161.130482 
L 351.531514 159.579759 
L 354.57515 158.109706 
L 357.618787 156.735869 
L 360.662423 155.476403 
L 363.706059 154.352008 
L 366.749696 153.385442 
L 369.793332 152.600399 
L 372.836969 152.019637 
L 375.880605 151.662429 
L 378.924241 151.541818 
" style="fill:none;stroke:#ff0000;stroke-dasharray:1,1.65;stroke-dashoffset:0;"/>
   </g>
   <g id="patch_3">
    <path d="M 59.342423 255.32 
L 59.342423 10.7 
" style="fill:none;stroke:#000000;stroke-linecap:square;stroke-linejoin:miter;stroke-width:0.8;"/>
   </g>
   <g id="patch_4">
    <path d="M 394.142423 255.32 
L 394.142423 10.7 
" style="fill:none;stroke:#000000;stroke-linecap:square;stroke-linejoin:miter;stroke-width:0.8;"/>
   </g>
   <g id="patch_5">
    <path d="M 59.342423 255.32 
L 394.142423 255.32 
" style="fill:none;stroke:#000000;stroke-linecap:square;stroke-linejoin:miter;stroke-width:0.8;"/>
   </g>
   <g id="patch_6">
    <path d="M 59.342423 10.7 
L 394.142423 10.7 
" style="fill:none;stroke:#000000;stroke-linecap:square;stroke-linejoin:miter;stroke-width:0.8;"/>
   </g>
   <g id="legend_1">
    <g id="patch_7">
     <path d="M 270.202461 182.470074 
L 382.942423 182.470074 
Q 386.142423 182.470074 386.142423 179.270074 
L 386.142423 86.749926 
Q 386.142423 83.549926 382.942423 83.549926 
L 270.202461 83.549926 
Q 267.002461 83.549926 267.002461 86.749926 
L 267.002461 179.270074 
Q 267.002461 182.470074 270.202461 182.470074 
z
" style="fill:#ffffff;opacity:0.8;stroke:#cccccc;stroke-linejoin:miter;"/>
    </g>
    <g id="line2d_21">
     <path d="M 273.402461 95.549926 
L 305.402461 95.549926 
" style="fill:none;stroke:#000000;stroke-linecap:square;"/>
    </g>
    <g id="line2d_22"/>
    <g id="text_9">
     <!-- $\theta=0$ -->
     <defs>
      <path d="M 64.296875 31.515625 
C 65.796875 31.515625 67.296875 31.515625 67.296875 33.203125 
C 67.296875 35 65.59375 35 63.90625 35 
L 8 35 
C 6.296875 35 4.59375 35 4.59375 33.203125 
C 4.59375 31.515625 6.09375 31.515625 7.59375 31.515625 
z
M 63.90625 14 
C 65.59375 14 67.296875 14 67.296875 15.796875 
C 67.296875 17.484375 65.796875 17.484375 64.296875 17.484375 
L 7.59375 17.484375 
C 6.09375 17.484375 4.59375 17.484375 4.59375 15.796875 
C 4.59375 14 6.296875 14 8 14 
z
" id="CMR17-61"/>
     </defs>
     <g transform="translate(318.202461 101.149926)scale(0.16 -0.16)">
      <use transform="scale(0.996264)" xlink:href="#CMMI12-18"/>
      <use transform="translate(75.843517 0)scale(0.996264)" xlink:href="#CMR17-61"/>
      <use transform="translate(175.232314 0)scale(0.996264)" xlink:href="#CMR17-48"/>
     </g>
    </g>
    <g id="line2d_23">
     <path d="M 273.402461 118.60457 
L 305.402461 118.60457 
" style="fill:none;stroke:#ff0000;stroke-linecap:square;"/>
    </g>
    <g id="line2d_24"/>
    <g id="text_10">
     <!-- $\theta=\pi/6$ -->
     <defs>
      <path d="M 42.90625 71.28125 
C 42.90625 71.390625 43.5 72.90625 43.5 73.09375 
C 43.5 74.296875 42.5 75 41.703125 75 
C 41.203125 75 40.296875 75 39.5 72.796875 
L 6 -21.296875 
C 6 -21.40625 5.40625 -22.890625 5.40625 -23.09375 
C 5.40625 -24.296875 6.40625 -25 7.203125 -25 
C 7.796875 -25 8.703125 -24.890625 9.40625 -22.796875 
z
" id="CMMI12-61"/>
      <path d="M 10.59375 34 
C 10.59375 57.65625 21.796875 63 28.296875 63 
C 30.40625 63 35.5 62.640625 37.5 59 
C 35.90625 59 32.90625 59 32.90625 55.515625 
C 32.90625 52.828125 35.09375 51.921875 36.5 51.921875 
C 37.40625 51.921875 40.09375 52.3125 40.09375 55.625 
C 40.09375 61.78125 35.09375 65.296875 28.203125 65.296875 
C 16.296875 65.296875 3.796875 52.96875 3.796875 31 
C 3.796875 3.953125 15.09375 -2 23.09375 -2 
C 32.796875 -2 42 6.671875 42 20.046875 
C 42 32.515625 33.90625 41.59375 23.703125 41.59375 
C 17.59375 41.59375 13.09375 37.609375 10.59375 30.625 
z
M 23.09375 0.390625 
C 10.796875 0.390625 10.796875 18.75 10.796875 22.4375 
C 10.796875 29.625 14.203125 40 23.5 40 
C 25.203125 40 30.09375 40 33.40625 33.125 
C 35.203125 29.21875 35.203125 25.140625 35.203125 20.140625 
C 35.203125 14.75 35.203125 10.78125 33.09375 6.78125 
C 30.90625 2.671875 27.703125 0.390625 23.09375 0.390625 
z
" id="CMR17-54"/>
     </defs>
     <g transform="translate(318.202461 124.20457)scale(0.16 -0.16)">
      <use transform="scale(0.996264)" xlink:href="#CMMI12-18"/>
      <use transform="translate(75.843517 0)scale(0.996264)" xlink:href="#CMR17-61"/>
      <use transform="translate(175.232314 0)scale(0.996264)" xlink:href="#CMMI12-25"/>
      <use transform="translate(234.142914 0)scale(0.996264)" xlink:href="#CMMI12-61"/>
      <use transform="translate(282.917833 0)scale(0.996264)" xlink:href="#CMR17-54"/>
     </g>
    </g>
    <g id="line2d_25">
     <path d="M 273.402461 142.544794 
L 305.402461 142.544794 
" style="fill:none;stroke:#0000ff;stroke-dasharray:1,1.65;stroke-dashoffset:0;"/>
    </g>
    <g id="line2d_26"/>
    <g id="text_11">
     <!-- $\theta=\pi/2$ -->
     <defs>
      <path d="M 41.703125 15.453125 
L 39.90625 15.453125 
C 38.90625 8.375 38.09375 7.171875 37.703125 6.5625 
C 37.203125 5.765625 30 5.765625 28.59375 5.765625 
L 9.40625 5.765625 
C 13 9.671875 20 16.75 28.5 24.953125 
C 34.59375 30.734375 41.703125 37.53125 41.703125 47.421875 
C 41.703125 59.21875 32.296875 66 21.796875 66 
C 10.796875 66 4.09375 56.3125 4.09375 47.34375 
C 4.09375 43.4375 7 42.9375 8.203125 42.9375 
C 9.203125 42.9375 12.203125 43.546875 12.203125 47.03125 
C 12.203125 50.109375 9.59375 51 8.203125 51 
C 7.59375 51 7 50.90625 6.59375 50.703125 
C 8.5 59.21875 14.296875 63.40625 20.40625 63.40625 
C 29.09375 63.40625 34.796875 56.515625 34.796875 47.421875 
C 34.796875 38.734375 29.703125 31.25 24 24.75 
L 4.09375 2.28125 
L 4.09375 0 
L 39.296875 0 
z
" id="CMR17-50"/>
     </defs>
     <g transform="translate(318.202461 148.144794)scale(0.16 -0.16)">
      <use transform="scale(0.996264)" xlink:href="#CMMI12-18"/>
      <use transform="translate(75.843517 0)scale(0.996264)" xlink:href="#CMR17-61"/>
      <use transform="translate(175.232314 0)scale(0.996264)" xlink:href="#CMMI12-25"/>
      <use transform="translate(234.142914 0)scale(0.996264)" xlink:href="#CMMI12-61"/>
      <use transform="translate(282.917833 0)scale(0.996264)" xlink:href="#CMR17-50"/>
     </g>
    </g>
    <g id="line2d_27">
     <path d="M 273.402461 166.485018 
L 305.402461 166.485018 
" style="fill:none;stroke:#ff0000;stroke-dasharray:1,1.65;stroke-dashoffset:0;"/>
    </g>
    <g id="line2d_28"/>
    <g id="text_12">
     <!-- $\theta=5\pi/6$ -->
     <defs>
      <path d="M 11.40625 57.6875 
C 12.40625 57.28125 16.5 56 20.703125 56 
C 30 56 35.09375 61.109375 38 64.0625 
C 38 64.953125 38 65.5 37.40625 65.5 
C 37.296875 65.5 37.09375 65.5 36.296875 65.046875 
C 32.796875 63.40625 28.703125 62.078125 23.703125 62.078125 
C 20.703125 62.078125 16.203125 62.484375 11.296875 64.671875 
C 10.203125 65.171875 10 65.171875 9.90625 65.171875 
C 9.40625 65.171875 9.296875 65.0625 9.296875 63.078125 
L 9.296875 34.421875 
C 9.296875 32.640625 9.296875 32.140625 10.296875 32.140625 
C 10.796875 32.140625 11 32.34375 11.5 33.03125 
C 14.703125 37.515625 19.09375 39.40625 24.09375 39.40625 
C 27.59375 39.40625 35.09375 37.21875 35.09375 20.140625 
C 35.09375 16.953125 35.09375 11.171875 32.09375 6.578125 
C 29.59375 2.484375 25.703125 0.390625 21.40625 0.390625 
C 14.796875 0.390625 8.09375 5 6.296875 12.71875 
C 6.703125 12.609375 7.5 12.421875 7.90625 12.421875 
C 9.203125 12.421875 11.703125 13.125 11.703125 16.21875 
C 11.703125 18.90625 9.796875 20 7.90625 20 
C 5.59375 20 4.09375 18.59375 4.09375 15.796875 
C 4.09375 7.09375 11 -2 21.59375 -2 
C 31.90625 -2 41.703125 6.875 41.703125 19.75 
C 41.703125 31.71875 33.90625 41 24.203125 41 
C 19.09375 41 14.796875 39.109375 11.40625 35.53125 
z
" id="CMR17-53"/>
     </defs>
     <g transform="translate(318.202461 172.085018)scale(0.16 -0.16)">
      <use transform="scale(0.996264)" xlink:href="#CMMI12-18"/>
      <use transform="translate(75.843517 0)scale(0.996264)" xlink:href="#CMR17-61"/>
      <use transform="translate(175.232314 0)scale(0.996264)" xlink:href="#CMR17-53"/>
      <use transform="translate(220.922791 0)scale(0.996264)" xlink:href="#CMMI12-25"/>
      <use transform="translate(279.833392 0)scale(0.996264)" xlink:href="#CMMI12-61"/>
      <use transform="translate(328.60831 0)scale(0.996264)" xlink:href="#CMR17-54"/>
     </g>
    </g>
   </g>
  </g>
 </g>
 <defs>
  <clipPath id="pe45f90a202">
   <rect height="244.62" width="334.8" x="59.342423" y="10.7"/>
  </clipPath>
 </defs>
</svg>
