<?xml version="1.0" encoding="utf-8" standalone="no"?>
<!DOCTYPE svg PUBLIC "-//W3C//DTD SVG 1.1//EN"
  "http://www.w3.org/Graphics/SVG/1.1/DTD/svg11.dtd">
<!-- Created with matplotlib (https://matplotlib.org/) -->
<svg height="307.173995pt" version="1.1" viewBox="0 0 413.141015 307.173995" width="413.141015pt" xmlns="http://www.w3.org/2000/svg" xmlns:xlink="http://www.w3.org/1999/xlink">
 <defs>
  <style type="text/css">
*{stroke-linecap:butt;stroke-linejoin:round;}
  </style>
 </defs>
 <g id="figure_1">
  <g id="patch_1">
   <path d="M -0 307.173995 
L 413.141015 307.173995 
L 413.141015 0 
L -0 0 
z
" style="fill:#ffffff;"/>
  </g>
  <g id="axes_1">
   <g id="patch_2">
    <path d="M 67.641015 255.32 
L 402.441015 255.32 
L 402.441015 10.7 
L 67.641015 10.7 
z
" style="fill:#ffffff;"/>
   </g>
   <g id="patch_3">
    <path clip-path="url(#pdb0ce17101)" d="M 82.859197 255.32 
L 88.827112 255.32 
L 88.827112 255.32 
L 82.859197 255.32 
z
" style="fill:#595959;"/>
   </g>
   <g id="patch_4">
    <path clip-path="url(#pdb0ce17101)" d="M 90.31909 255.32 
L 96.287005 255.32 
L 96.287005 255.32 
L 90.31909 255.32 
z
" style="fill:#595959;"/>
   </g>
   <g id="patch_5">
    <path clip-path="url(#pdb0ce17101)" d="M 97.778983 255.32 
L 103.746898 255.32 
L 103.746898 255.318119 
L 97.778983 255.318119 
z
" style="fill:#595959;"/>
   </g>
   <g id="patch_6">
    <path clip-path="url(#pdb0ce17101)" d="M 105.238876 255.32 
L 111.206791 255.32 
L 111.206791 255.32 
L 105.238876 255.32 
z
" style="fill:#595959;"/>
   </g>
   <g id="patch_7">
    <path clip-path="url(#pdb0ce17101)" d="M 112.698769 255.32 
L 118.666684 255.32 
L 118.666684 254.836587 
L 112.698769 254.836587 
z
" style="fill:#595959;"/>
   </g>
   <g id="patch_8">
    <path clip-path="url(#pdb0ce17101)" d="M 120.158662 255.32 
L 126.126577 255.32 
L 126.126577 255.32 
L 120.158662 255.32 
z
" style="fill:#595959;"/>
   </g>
   <g id="patch_9">
    <path clip-path="url(#pdb0ce17101)" d="M 127.618555 255.32 
L 133.58647 255.32 
L 133.58647 240.052035 
L 127.618555 240.052035 
z
" style="fill:#595959;"/>
   </g>
   <g id="patch_10">
    <path clip-path="url(#pdb0ce17101)" d="M 135.078448 255.32 
L 141.046363 255.32 
L 141.046363 255.32 
L 135.078448 255.32 
z
" style="fill:#595959;"/>
   </g>
   <g id="patch_11">
    <path clip-path="url(#pdb0ce17101)" d="M 142.538341 255.32 
L 148.506256 255.32 
L 148.506256 184.171696 
L 142.538341 184.171696 
z
" style="fill:#595959;"/>
   </g>
   <g id="patch_12">
    <path clip-path="url(#pdb0ce17101)" d="M 149.998235 255.32 
L 155.966149 255.32 
L 155.966149 255.32 
L 149.998235 255.32 
z
" style="fill:#595959;"/>
   </g>
   <g id="patch_13">
    <path clip-path="url(#pdb0ce17101)" d="M 157.458128 255.32 
L 163.426042 255.32 
L 163.426042 240.84393 
L 157.458128 240.84393 
z
" style="fill:#595959;"/>
   </g>
   <g id="patch_14">
    <path clip-path="url(#pdb0ce17101)" d="M 164.918021 255.32 
L 170.885935 255.32 
L 170.885935 255.32 
L 164.918021 255.32 
z
" style="fill:#595959;"/>
   </g>
   <g id="patch_15">
    <path clip-path="url(#pdb0ce17101)" d="M 172.377914 255.32 
L 178.345828 255.32 
L 178.345828 209.544319 
L 172.377914 209.544319 
z
" style="fill:#595959;"/>
   </g>
   <g id="patch_16">
    <path clip-path="url(#pdb0ce17101)" d="M 179.837807 255.32 
L 185.805721 255.32 
L 185.805721 255.32 
L 179.837807 255.32 
z
" style="fill:#595959;"/>
   </g>
   <g id="patch_17">
    <path clip-path="url(#pdb0ce17101)" d="M 187.2977 255.32 
L 193.265614 255.32 
L 193.265614 228.926001 
L 187.2977 228.926001 
z
" style="fill:#595959;"/>
   </g>
   <g id="patch_18">
    <path clip-path="url(#pdb0ce17101)" d="M 194.757593 255.32 
L 200.725507 255.32 
L 200.725507 255.32 
L 194.757593 255.32 
z
" style="fill:#595959;"/>
   </g>
   <g id="patch_19">
    <path clip-path="url(#pdb0ce17101)" d="M 202.217486 255.32 
L 208.1854 255.32 
L 208.1854 236.148989 
L 202.217486 236.148989 
z
" style="fill:#595959;"/>
   </g>
   <g id="patch_20">
    <path clip-path="url(#pdb0ce17101)" d="M 209.677379 255.32 
L 215.645293 255.32 
L 215.645293 255.32 
L 209.677379 255.32 
z
" style="fill:#595959;"/>
   </g>
   <g id="patch_21">
    <path clip-path="url(#pdb0ce17101)" d="M 217.137272 255.32 
L 223.105186 255.32 
L 223.105186 231.356236 
L 217.137272 231.356236 
z
" style="fill:#595959;"/>
   </g>
   <g id="patch_22">
    <path clip-path="url(#pdb0ce17101)" d="M 224.597165 255.32 
L 230.565079 255.32 
L 230.565079 255.32 
L 224.597165 255.32 
z
" style="fill:#595959;"/>
   </g>
   <g id="patch_23">
    <path clip-path="url(#pdb0ce17101)" d="M 232.057058 255.32 
L 238.024972 255.32 
L 238.024972 225.457463 
L 232.057058 225.457463 
z
" style="fill:#595959;"/>
   </g>
   <g id="patch_24">
    <path clip-path="url(#pdb0ce17101)" d="M 239.516951 255.32 
L 245.484866 255.32 
L 245.484866 255.32 
L 239.516951 255.32 
z
" style="fill:#595959;"/>
   </g>
   <g id="patch_25">
    <path clip-path="url(#pdb0ce17101)" d="M 246.976844 255.32 
L 252.944759 255.32 
L 252.944759 218.083997 
L 246.976844 218.083997 
z
" style="fill:#595959;"/>
   </g>
   <g id="patch_26">
    <path clip-path="url(#pdb0ce17101)" d="M 254.436737 255.32 
L 260.404652 255.32 
L 260.404652 255.32 
L 254.436737 255.32 
z
" style="fill:#595959;"/>
   </g>
   <g id="patch_27">
    <path clip-path="url(#pdb0ce17101)" d="M 261.89663 255.32 
L 267.864545 255.32 
L 267.864545 204.811758 
L 261.89663 204.811758 
z
" style="fill:#595959;"/>
   </g>
   <g id="patch_28">
    <path clip-path="url(#pdb0ce17101)" d="M 269.356523 255.32 
L 275.324438 255.32 
L 275.324438 255.32 
L 269.356523 255.32 
z
" style="fill:#595959;"/>
   </g>
   <g id="patch_29">
    <path clip-path="url(#pdb0ce17101)" d="M 276.816416 255.32 
L 282.784331 255.32 
L 282.784331 191.005319 
L 276.816416 191.005319 
z
" style="fill:#595959;"/>
   </g>
   <g id="patch_30">
    <path clip-path="url(#pdb0ce17101)" d="M 284.276309 255.32 
L 290.244224 255.32 
L 290.244224 255.32 
L 284.276309 255.32 
z
" style="fill:#595959;"/>
   </g>
   <g id="patch_31">
    <path clip-path="url(#pdb0ce17101)" d="M 291.736202 255.32 
L 297.704117 255.32 
L 297.704117 211.229683 
L 291.736202 211.229683 
z
" style="fill:#595959;"/>
   </g>
   <g id="patch_32">
    <path clip-path="url(#pdb0ce17101)" d="M 299.196095 255.32 
L 305.16401 255.32 
L 305.16401 255.32 
L 299.196095 255.32 
z
" style="fill:#595959;"/>
   </g>
   <g id="patch_33">
    <path clip-path="url(#pdb0ce17101)" d="M 306.655989 255.32 
L 312.623903 255.32 
L 312.623903 199.793287 
L 306.655989 199.793287 
z
" style="fill:#595959;"/>
   </g>
   <g id="patch_34">
    <path clip-path="url(#pdb0ce17101)" d="M 314.115882 255.32 
L 320.083796 255.32 
L 320.083796 255.32 
L 314.115882 255.32 
z
" style="fill:#595959;"/>
   </g>
   <g id="patch_35">
    <path clip-path="url(#pdb0ce17101)" d="M 321.575775 255.32 
L 327.543689 255.32 
L 327.543689 22.348571 
L 321.575775 22.348571 
z
" style="fill:#595959;"/>
   </g>
   <g id="patch_36">
    <path clip-path="url(#pdb0ce17101)" d="M 329.035668 255.32 
L 335.003582 255.32 
L 335.003582 255.32 
L 329.035668 255.32 
z
" style="fill:#595959;"/>
   </g>
   <g id="patch_37">
    <path clip-path="url(#pdb0ce17101)" d="M 336.495561 255.32 
L 342.463475 255.32 
L 342.463475 28.064889 
L 336.495561 28.064889 
z
" style="fill:#595959;"/>
   </g>
   <g id="patch_38">
    <path clip-path="url(#pdb0ce17101)" d="M 343.955454 255.32 
L 349.923368 255.32 
L 349.923368 255.32 
L 343.955454 255.32 
z
" style="fill:#595959;"/>
   </g>
   <g id="patch_39">
    <path clip-path="url(#pdb0ce17101)" d="M 351.415347 255.32 
L 357.383261 255.32 
L 357.383261 228.201822 
L 351.415347 228.201822 
z
" style="fill:#595959;"/>
   </g>
   <g id="patch_40">
    <path clip-path="url(#pdb0ce17101)" d="M 358.87524 255.32 
L 364.843154 255.32 
L 364.843154 255.32 
L 358.87524 255.32 
z
" style="fill:#595959;"/>
   </g>
   <g id="patch_41">
    <path clip-path="url(#pdb0ce17101)" d="M 366.335133 255.32 
L 372.303047 255.32 
L 372.303047 254.708679 
L 366.335133 254.708679 
z
" style="fill:#595959;"/>
   </g>
   <g id="patch_42">
    <path clip-path="url(#pdb0ce17101)" d="M 373.795026 255.32 
L 379.76294 255.32 
L 379.76294 255.32 
L 373.795026 255.32 
z
" style="fill:#595959;"/>
   </g>
   <g id="patch_43">
    <path clip-path="url(#pdb0ce17101)" d="M 381.254919 255.32 
L 387.222833 255.32 
L 387.222833 255.318119 
L 381.254919 255.318119 
z
" style="fill:#595959;"/>
   </g>
   <g id="matplotlib.axis_1">
    <g id="xtick_1">
     <g id="line2d_1">
      <defs>
       <path d="M 0 0 
L 0 3.5 
" id="mb66628bba3" style="stroke:#000000;stroke-width:0.8;"/>
      </defs>
      <g>
       <use style="stroke:#000000;stroke-width:0.8;" x="85.843154" xlink:href="#mb66628bba3" y="255.32"/>
      </g>
     </g>
     <g id="line2d_2">
      <defs>
       <path d="M 0 0 
L 0 -3.5 
" id="m985ec1a29e" style="stroke:#000000;stroke-width:0.8;"/>
      </defs>
      <g>
       <use style="stroke:#000000;stroke-width:0.8;" x="85.843154" xlink:href="#m985ec1a29e" y="10.7"/>
      </g>
     </g>
     <g id="text_1">
      <!-- $-20$ -->
      <defs>
       <path d="M 65.90625 23 
C 67.59375 23 69.40625 23 69.40625 25 
C 69.40625 27 67.59375 27 65.90625 27 
L 11.796875 27 
C 10.09375 27 8.296875 27 8.296875 25 
C 8.296875 23 10.09375 23 11.796875 23 
z
" id="CMSY10-0"/>
       <path d="M 41.703125 15.46875 
L 39.90625 15.46875 
C 38.90625 8.390625 38.09375 7.1875 37.703125 6.59375 
C 37.203125 5.796875 30 5.796875 28.59375 5.796875 
L 9.40625 5.796875 
C 13 9.6875 20 16.765625 28.5 24.9375 
C 34.59375 30.71875 41.703125 37.5 41.703125 47.390625 
C 41.703125 59.1875 32.296875 66 21.796875 66 
C 10.796875 66 4.09375 56.296875 4.09375 47.296875 
C 4.09375 43.390625 7 42.890625 8.203125 42.890625 
C 9.203125 42.890625 12.203125 43.484375 12.203125 46.984375 
C 12.203125 50.09375 9.59375 51 8.203125 51 
C 7.59375 51 7 50.890625 6.59375 50.6875 
C 8.5 59.1875 14.296875 63.390625 20.40625 63.390625 
C 29.09375 63.390625 34.796875 56.5 34.796875 47.390625 
C 34.796875 38.703125 29.703125 31.21875 24 24.734375 
L 4.09375 2.296875 
L 4.09375 0 
L 39.296875 0 
z
" id="CMR17-50"/>
       <path d="M 42 31.84375 
C 42 37.96875 41.90625 48.421875 37.703125 56.453125 
C 34 63.484375 28.09375 66 22.90625 66 
C 18.09375 66 12 63.78125 8.203125 56.5625 
C 4.203125 49.015625 3.796875 39.671875 3.796875 31.84375 
C 3.796875 26.109375 3.90625 17.375 7 9.734375 
C 11.296875 -0.609375 19 -2 22.90625 -2 
C 27.5 -2 34.5 -0.109375 38.59375 9.4375 
C 41.59375 16.375 42 24.5 42 31.84375 
z
M 22.90625 -0.40625 
C 16.5 -0.40625 12.703125 5.125 11.296875 12.75 
C 10.203125 18.6875 10.203125 27.328125 10.203125 32.953125 
C 10.203125 40.6875 10.203125 47.109375 11.5 53.234375 
C 13.40625 61.78125 19 64.390625 22.90625 64.390625 
C 27 64.390625 32.296875 61.671875 34.203125 53.4375 
C 35.5 47.71875 35.59375 40.984375 35.59375 32.953125 
C 35.59375 26.421875 35.59375 18.375 34.40625 12.453125 
C 32.296875 1.5 26.40625 -0.40625 22.90625 -0.40625 
z
" id="CMR17-48"/>
      </defs>
      <g transform="translate(70.644998 274.7733)scale(0.18 -0.18)">
       <use transform="scale(0.996264)" xlink:href="#CMSY10-0"/>
       <use transform="translate(77.487468 0)scale(0.996264)" xlink:href="#CMR17-50"/>
       <use transform="translate(123.177945 0)scale(0.996264)" xlink:href="#CMR17-48"/>
      </g>
     </g>
    </g>
    <g id="xtick_2">
     <g id="line2d_3">
      <g>
       <use style="stroke:#000000;stroke-width:0.8;" x="160.442085" xlink:href="#mb66628bba3" y="255.32"/>
      </g>
     </g>
     <g id="line2d_4">
      <g>
       <use style="stroke:#000000;stroke-width:0.8;" x="160.442085" xlink:href="#m985ec1a29e" y="10.7"/>
      </g>
     </g>
     <g id="text_2">
      <!-- $-10$ -->
      <defs>
       <path d="M 26.59375 63.796875 
C 26.59375 65.890625 26.5 66 25.09375 66 
C 21.203125 61.359375 15.296875 59.890625 9.703125 59.6875 
C 9.40625 59.6875 8.90625 59.6875 8.796875 59.5 
C 8.703125 59.296875 8.703125 59.09375 8.703125 57 
C 11.796875 57 17 57.59375 21 59.984375 
L 21 7.296875 
C 21 3.796875 20.796875 2.59375 12.203125 2.59375 
L 9.203125 2.59375 
L 9.203125 0 
C 14 0.09375 19 0.1875 23.796875 0.1875 
C 28.59375 0.1875 33.59375 0.09375 38.40625 0 
L 38.40625 2.59375 
L 35.40625 2.59375 
C 26.796875 2.59375 26.59375 3.6875 26.59375 7.296875 
z
" id="CMR17-49"/>
      </defs>
      <g transform="translate(145.243928 274.7733)scale(0.18 -0.18)">
       <use transform="scale(0.996264)" xlink:href="#CMSY10-0"/>
       <use transform="translate(77.487468 0)scale(0.996264)" xlink:href="#CMR17-49"/>
       <use transform="translate(123.177945 0)scale(0.996264)" xlink:href="#CMR17-48"/>
      </g>
     </g>
    </g>
    <g id="xtick_3">
     <g id="line2d_5">
      <g>
       <use style="stroke:#000000;stroke-width:0.8;" x="235.041015" xlink:href="#mb66628bba3" y="255.32"/>
      </g>
     </g>
     <g id="line2d_6">
      <g>
       <use style="stroke:#000000;stroke-width:0.8;" x="235.041015" xlink:href="#m985ec1a29e" y="10.7"/>
      </g>
     </g>
     <g id="text_3">
      <!-- $0$ -->
      <g transform="translate(230.928872 274.7733)scale(0.18 -0.18)">
       <use transform="scale(0.996264)" xlink:href="#CMR17-48"/>
      </g>
     </g>
    </g>
    <g id="xtick_4">
     <g id="line2d_7">
      <g>
       <use style="stroke:#000000;stroke-width:0.8;" x="309.639946" xlink:href="#mb66628bba3" y="255.32"/>
      </g>
     </g>
     <g id="line2d_8">
      <g>
       <use style="stroke:#000000;stroke-width:0.8;" x="309.639946" xlink:href="#m985ec1a29e" y="10.7"/>
      </g>
     </g>
     <g id="text_4">
      <!-- $10$ -->
      <g transform="translate(301.41566 274.7733)scale(0.18 -0.18)">
       <use transform="scale(0.996264)" xlink:href="#CMR17-49"/>
       <use transform="translate(45.690477 0)scale(0.996264)" xlink:href="#CMR17-48"/>
      </g>
     </g>
    </g>
    <g id="xtick_5">
     <g id="line2d_9">
      <g>
       <use style="stroke:#000000;stroke-width:0.8;" x="384.238876" xlink:href="#mb66628bba3" y="255.32"/>
      </g>
     </g>
     <g id="line2d_10">
      <g>
       <use style="stroke:#000000;stroke-width:0.8;" x="384.238876" xlink:href="#m985ec1a29e" y="10.7"/>
      </g>
     </g>
     <g id="text_5">
      <!-- $20$ -->
      <g transform="translate(376.01459 274.7733)scale(0.18 -0.18)">
       <use transform="scale(0.996264)" xlink:href="#CMR17-50"/>
       <use transform="translate(45.690477 0)scale(0.996264)" xlink:href="#CMR17-48"/>
      </g>
     </g>
    </g>
    <g id="text_6">
     <!-- $x$ -->
     <defs>
      <path d="M 47.40625 41 
C 44.203125 40.390625 43 37.984375 43 36.09375 
C 43 33.6875 44.90625 32.890625 46.296875 32.890625 
C 49.296875 32.890625 51.40625 35.484375 51.40625 38.1875 
C 51.40625 42.09375 46.59375 44 42.40625 44 
C 36.296875 44 32.90625 38.296875 32 36.390625 
C 29.703125 43.59375 23.5 44 21.703125 44 
C 11.5 44 6.09375 31.140625 6.09375 28.890625 
C 6.09375 28.484375 6.5 27.96875 7.203125 27.96875 
C 8 27.96875 8.203125 28.578125 8.40625 28.984375 
C 11.796875 40.1875 18.5 41.984375 21.40625 41.984375 
C 25.90625 41.984375 26.796875 38.09375 26.796875 35.6875 
C 26.796875 33.484375 26.203125 31.140625 25 26.21875 
L 21.59375 12.15625 
C 20.09375 6.09375 17.203125 1 11.90625 1 
C 11.40625 1 8.90625 1 6.796875 1.96875 
C 10.40625 2.59375 11.203125 5.59375 11.203125 6.796875 
C 11.203125 8.796875 9.703125 10 7.796875 10 
C 5.40625 10 2.796875 7.890625 2.796875 4.6875 
C 2.796875 0.890625 7.5 -1 11.796875 -1 
C 16.59375 -1 20 2.390625 22.09375 6.484375 
C 23.703125 1 28.703125 -1 32.40625 -1 
C 42.59375 -1 48 11.734375 48 14 
C 48 14.515625 47.59375 14.921875 47 14.921875 
C 46.09375 14.921875 46 14.40625 45.703125 13.59375 
C 43 4.6875 37.203125 1 32.703125 1 
C 29.203125 1 27.296875 3.1875 27.296875 7.296875 
C 27.296875 9.484375 27.703125 11.125 29.296875 17.90625 
L 32.796875 31.859375 
C 34.296875 37.890625 37.703125 41.984375 42.296875 41.984375 
C 42.5 41.984375 45.296875 41.984375 47.40625 41 
z
" id="CMMI12-120"/>
     </defs>
     <g transform="translate(229.497609 296.098361)scale(0.2 -0.2)">
      <use transform="scale(0.996264)" xlink:href="#CMMI12-120"/>
     </g>
    </g>
   </g>
   <g id="matplotlib.axis_2">
    <g id="ytick_1">
     <g id="line2d_11">
      <defs>
       <path d="M 0 0 
L -3.5 0 
" id="m33474f7b48" style="stroke:#000000;stroke-width:0.8;"/>
      </defs>
      <g>
       <use style="stroke:#000000;stroke-width:0.8;" x="67.641015" xlink:href="#m33474f7b48" y="255.32"/>
      </g>
     </g>
     <g id="line2d_12">
      <defs>
       <path d="M 0 0 
L 3.5 0 
" id="mc1523d32e4" style="stroke:#000000;stroke-width:0.8;"/>
      </defs>
      <g>
       <use style="stroke:#000000;stroke-width:0.8;" x="402.441015" xlink:href="#mc1523d32e4" y="255.32"/>
      </g>
     </g>
     <g id="text_7">
      <!-- $0.00$ -->
      <defs>
       <path d="M 18.40625 4.796875 
C 18.40625 7.6875 16 9.6875 13.59375 9.6875 
C 10.703125 9.6875 8.703125 7.296875 8.703125 4.890625 
C 8.703125 2 11.09375 0 13.5 0 
C 16.40625 0 18.40625 2.390625 18.40625 4.796875 
z
" id="CMMI12-58"/>
      </defs>
      <g transform="translate(31.090666 261.54665)scale(0.18 -0.18)">
       <use transform="scale(0.996264)" xlink:href="#CMR17-48"/>
       <use transform="translate(45.690477 0)scale(0.996264)" xlink:href="#CMMI12-58"/>
       <use transform="translate(72.787654 0)scale(0.996264)" xlink:href="#CMR17-48"/>
       <use transform="translate(118.478131 0)scale(0.996264)" xlink:href="#CMR17-48"/>
      </g>
     </g>
    </g>
    <g id="ytick_2">
     <g id="line2d_13">
      <g>
       <use style="stroke:#000000;stroke-width:0.8;" x="67.641015" xlink:href="#m33474f7b48" y="206.011075"/>
      </g>
     </g>
     <g id="line2d_14">
      <g>
       <use style="stroke:#000000;stroke-width:0.8;" x="402.441015" xlink:href="#mc1523d32e4" y="206.011075"/>
      </g>
     </g>
     <g id="text_8">
      <!-- $0.05$ -->
      <defs>
       <path d="M 11.40625 58.59375 
C 12.40625 58.1875 16.5 56.890625 20.703125 56.890625 
C 30 56.890625 35.09375 61.890625 38 64.6875 
C 38 65.484375 38 66 37.40625 66 
C 37.296875 66 37.09375 66 36.296875 65.59375 
C 32.796875 64.09375 28.703125 63 23.703125 63 
C 20.703125 63 16.203125 63.359375 11.296875 65.484375 
C 10.203125 66 10 66 9.90625 66 
C 9.40625 66 9.296875 65.890625 9.296875 63.90625 
L 9.296875 34.859375 
C 9.296875 33.015625 9.296875 32.5 10.296875 32.5 
C 10.796875 32.5 11 32.703125 11.5 33.421875 
C 14.703125 38.046875 19.09375 40 24.09375 40 
C 27.59375 40 35.09375 37.734375 35.09375 20.203125 
C 35.09375 16.984375 35.09375 11.1875 32.09375 6.59375 
C 29.59375 2.484375 25.703125 0.390625 21.40625 0.390625 
C 14.796875 0.390625 8.09375 4.984375 6.296875 12.6875 
C 6.703125 12.59375 7.5 12.390625 7.90625 12.390625 
C 9.203125 12.390625 11.703125 13.09375 11.703125 16.1875 
C 11.703125 18.890625 9.796875 20 7.90625 20 
C 5.59375 20 4.09375 18.59375 4.09375 15.796875 
C 4.09375 7.09375 11 -2 21.59375 -2 
C 31.90625 -2 41.703125 6.890625 41.703125 19.796875 
C 41.703125 32.09375 33.90625 41.59375 24.203125 41.59375 
C 19.09375 41.59375 14.796875 39.6875 11.40625 36 
z
" id="CMR17-53"/>
      </defs>
      <g transform="translate(31.090666 212.237725)scale(0.18 -0.18)">
       <use transform="scale(0.996264)" xlink:href="#CMR17-48"/>
       <use transform="translate(45.690477 0)scale(0.996264)" xlink:href="#CMMI12-58"/>
       <use transform="translate(72.787654 0)scale(0.996264)" xlink:href="#CMR17-48"/>
       <use transform="translate(118.478131 0)scale(0.996264)" xlink:href="#CMR17-53"/>
      </g>
     </g>
    </g>
    <g id="ytick_3">
     <g id="line2d_15">
      <g>
       <use style="stroke:#000000;stroke-width:0.8;" x="67.641015" xlink:href="#m33474f7b48" y="156.70215"/>
      </g>
     </g>
     <g id="line2d_16">
      <g>
       <use style="stroke:#000000;stroke-width:0.8;" x="402.441015" xlink:href="#mc1523d32e4" y="156.70215"/>
      </g>
     </g>
     <g id="text_9">
      <!-- $0.10$ -->
      <g transform="translate(31.090666 162.9288)scale(0.18 -0.18)">
       <use transform="scale(0.996264)" xlink:href="#CMR17-48"/>
       <use transform="translate(45.690477 0)scale(0.996264)" xlink:href="#CMMI12-58"/>
       <use transform="translate(72.787654 0)scale(0.996264)" xlink:href="#CMR17-49"/>
       <use transform="translate(118.478131 0)scale(0.996264)" xlink:href="#CMR17-48"/>
      </g>
     </g>
    </g>
    <g id="ytick_4">
     <g id="line2d_17">
      <g>
       <use style="stroke:#000000;stroke-width:0.8;" x="67.641015" xlink:href="#m33474f7b48" y="107.393225"/>
      </g>
     </g>
     <g id="line2d_18">
      <g>
       <use style="stroke:#000000;stroke-width:0.8;" x="402.441015" xlink:href="#mc1523d32e4" y="107.393225"/>
      </g>
     </g>
     <g id="text_10">
      <!-- $0.15$ -->
      <g transform="translate(31.090666 113.619875)scale(0.18 -0.18)">
       <use transform="scale(0.996264)" xlink:href="#CMR17-48"/>
       <use transform="translate(45.690477 0)scale(0.996264)" xlink:href="#CMMI12-58"/>
       <use transform="translate(72.787654 0)scale(0.996264)" xlink:href="#CMR17-49"/>
       <use transform="translate(118.478131 0)scale(0.996264)" xlink:href="#CMR17-53"/>
      </g>
     </g>
    </g>
    <g id="ytick_5">
     <g id="line2d_19">
      <g>
       <use style="stroke:#000000;stroke-width:0.8;" x="67.641015" xlink:href="#m33474f7b48" y="58.0843"/>
      </g>
     </g>
     <g id="line2d_20">
      <g>
       <use style="stroke:#000000;stroke-width:0.8;" x="402.441015" xlink:href="#mc1523d32e4" y="58.0843"/>
      </g>
     </g>
     <g id="text_11">
      <!-- $0.20$ -->
      <g transform="translate(31.090666 64.31095)scale(0.18 -0.18)">
       <use transform="scale(0.996264)" xlink:href="#CMR17-48"/>
       <use transform="translate(45.690477 0)scale(0.996264)" xlink:href="#CMMI12-58"/>
       <use transform="translate(72.787654 0)scale(0.996264)" xlink:href="#CMR17-50"/>
       <use transform="translate(118.478131 0)scale(0.996264)" xlink:href="#CMR17-48"/>
      </g>
     </g>
    </g>
    <g id="text_12">
     <!-- $P(x,t=20)$ -->
     <defs>
      <path d="M 29.59375 31.59375 
L 46.40625 31.59375 
C 60.203125 31.59375 74 41.765625 74 53.125 
C 74 60.90625 67.40625 68 54.796875 68 
L 23.90625 68 
C 22 68 21.09375 68 21.09375 66.09375 
C 21.09375 65.09375 22 65.09375 23.5 65.09375 
C 29.59375 65.09375 29.59375 64.296875 29.59375 63.203125 
C 29.59375 63 29.59375 62.40625 29.203125 60.90625 
L 15.703125 7.359375 
C 14.796875 3.890625 14.59375 2.890625 7.59375 2.890625 
C 5.703125 2.890625 4.703125 2.890625 4.703125 1.09375 
C 4.703125 0 5.59375 0 6.203125 0 
C 8.09375 0 10.09375 0.1875 12 0.1875 
L 23.703125 0.1875 
C 25.59375 0.1875 27.703125 0 29.59375 0 
C 30.40625 0 31.5 0 31.5 1.890625 
C 31.5 2.890625 30.59375 2.890625 29.09375 2.890625 
C 23.09375 2.890625 23 3.59375 23 4.578125 
C 23 5.078125 23.09375 5.765625 23.203125 6.265625 
z
M 36.796875 61.203125 
C 37.703125 64.890625 38.09375 65.09375 42 65.09375 
L 51.90625 65.09375 
C 59.40625 65.09375 65.59375 62.703125 65.59375 55.21875 
C 65.59375 52.640625 64.296875 44.15625 59.703125 39.578125 
C 58 37.78125 53.203125 34 44.09375 34 
L 30 34 
z
" id="CMMI12-80"/>
      <path d="M 30.59375 -24.40625 
C 30.59375 -24.3125 30.59375 -24.109375 30.296875 -23.8125 
C 25.703125 -19.109375 13.40625 -6.296875 13.40625 24.9375 
C 13.40625 56.171875 25.5 68.875 30.40625 73.890625 
C 30.40625 73.984375 30.59375 74.1875 30.59375 74.484375 
C 30.59375 74.796875 30.296875 75 29.90625 75 
C 28.796875 75 20.296875 67.578125 15.40625 56.5625 
C 10.40625 45.453125 9 34.65625 9 25.046875 
C 9 17.828125 9.703125 5.625 15.703125 -7.296875 
C 20.5 -17.703125 28.703125 -25 29.90625 -25 
C 30.40625 -25 30.59375 -24.8125 30.59375 -24.40625 
z
" id="CMR17-40"/>
      <path d="M 19.5 -0.40625 
C 19.5 5.390625 17.59375 9.6875 13.5 9.6875 
C 10.296875 9.6875 8.703125 7.09375 8.703125 4.890625 
C 8.703125 2.6875 10.203125 0 13.59375 0 
C 14.90625 0 16 0.390625 16.90625 1.296875 
C 17.09375 1.5 17.203125 1.5 17.296875 1.5 
C 17.5 1.5 17.5 0.09375 17.5 -0.40625 
C 17.5 -3.640625 16.90625 -10.03125 11.09375 -16.421875 
C 10 -17.609375 10 -17.8125 10 -18 
C 10 -18.5 10.5 -19 11 -19 
C 11.796875 -19 19.5 -11.703125 19.5 -0.40625 
z
" id="CMMI12-59"/>
      <path d="M 20.09375 40.09375 
L 29.296875 40.09375 
C 31.203125 40.09375 32.203125 40.09375 32.203125 41.890625 
C 32.203125 43 31.59375 43 29.59375 43 
L 20.796875 43 
L 24.5 57.25 
C 24.90625 58.625 24.90625 58.8125 24.90625 59.5 
C 24.90625 61.09375 23.59375 62 22.296875 62 
C 21.5 62 19.203125 61.6875 18.40625 58.53125 
L 14.5 43 
L 5.09375 43 
C 3.09375 43 2.203125 43 2.203125 41.09375 
C 2.203125 40.09375 2.90625 40.09375 4.796875 40.09375 
L 13.703125 40.09375 
L 7.09375 13.765625 
C 6.296875 10.265625 6 9.265625 6 7.96875 
C 6 3.28125 9.296875 -1 14.90625 -1 
C 25 -1 30.40625 13.5625 30.40625 14.265625 
C 30.40625 14.859375 30 15.15625 29.40625 15.15625 
C 29.203125 15.15625 28.796875 15.15625 28.59375 14.75 
C 28.5 14.65625 28.40625 14.5625 27.703125 12.96875 
C 25.59375 7.96875 21 1 15.203125 1 
C 12.203125 1 12 3.484375 12 5.6875 
C 12 5.78125 12 7.671875 12.296875 8.875 
z
" id="CMMI12-116"/>
      <path d="M 64.296875 32 
C 65.796875 32 67.296875 32 67.296875 33.6875 
C 67.296875 35.5 65.59375 35.5 63.90625 35.5 
L 8 35.5 
C 6.296875 35.5 4.59375 35.5 4.59375 33.6875 
C 4.59375 32 6.09375 32 7.59375 32 
z
M 63.90625 14.484375 
C 65.59375 14.484375 67.296875 14.484375 67.296875 16.296875 
C 67.296875 18 65.796875 18 64.296875 18 
L 7.59375 18 
C 6.09375 18 4.59375 18 4.59375 16.296875 
C 4.59375 14.484375 6.296875 14.484375 8 14.484375 
z
" id="CMR17-61"/>
      <path d="M 26.296875 24.9375 
C 26.296875 32.140625 25.59375 44.359375 19.59375 57.265625 
C 14.796875 67.6875 6.59375 75 5.40625 75 
C 5.09375 75 4.703125 74.890625 4.703125 74.390625 
C 4.703125 74.1875 4.796875 74.09375 4.90625 73.890625 
C 9.703125 68.875 21.90625 56.171875 21.90625 25.046875 
C 21.90625 -6.1875 9.796875 -18.90625 4.90625 -23.90625 
C 4.796875 -24.109375 4.703125 -24.203125 4.703125 -24.40625 
C 4.703125 -24.90625 5.09375 -25 5.40625 -25 
C 6.5 -25 15 -17.609375 19.90625 -6.59375 
C 24.90625 4.515625 26.296875 15.328125 26.296875 24.9375 
z
" id="CMR17-41"/>
     </defs>
     <g transform="translate(22.126022 182.989227)rotate(-90)scale(0.2 -0.2)">
      <use transform="scale(0.996264)" xlink:href="#CMMI12-80"/>
      <use transform="translate(76.425821 0)scale(0.996264)" xlink:href="#CMR17-40"/>
      <use transform="translate(111.706589 0)scale(0.996264)" xlink:href="#CMMI12-120"/>
      <use transform="translate(167.140648 0)scale(0.996264)" xlink:href="#CMMI12-59"/>
      <use transform="translate(210.84223 0)scale(0.996264)" xlink:href="#CMMI12-116"/>
      <use transform="translate(273.742569 0)scale(0.996264)" xlink:href="#CMR17-61"/>
      <use transform="translate(373.131367 0)scale(0.996264)" xlink:href="#CMR17-50"/>
      <use transform="translate(418.821844 0)scale(0.996264)" xlink:href="#CMR17-48"/>
      <use transform="translate(464.512321 0)scale(0.996264)" xlink:href="#CMR17-41"/>
     </g>
    </g>
   </g>
   <g id="patch_44">
    <path d="M 67.641015 255.32 
L 67.641015 10.7 
" style="fill:none;stroke:#000000;stroke-linecap:square;stroke-linejoin:miter;stroke-width:0.8;"/>
   </g>
   <g id="patch_45">
    <path d="M 402.441015 255.32 
L 402.441015 10.7 
" style="fill:none;stroke:#000000;stroke-linecap:square;stroke-linejoin:miter;stroke-width:0.8;"/>
   </g>
   <g id="patch_46">
    <path d="M 67.641015 255.32 
L 402.441015 255.32 
" style="fill:none;stroke:#000000;stroke-linecap:square;stroke-linejoin:miter;stroke-width:0.8;"/>
   </g>
   <g id="patch_47">
    <path d="M 67.641015 10.7 
L 402.441015 10.7 
" style="fill:none;stroke:#000000;stroke-linecap:square;stroke-linejoin:miter;stroke-width:0.8;"/>
   </g>
  </g>
 </g>
 <defs>
  <clipPath id="pdb0ce17101">
   <rect height="244.62" width="334.8" x="67.641015" y="10.7"/>
  </clipPath>
 </defs>
</svg>
