<?xml version="1.0" encoding="UTF-8"?>
<svg xmlns="http://www.w3.org/2000/svg" xmlns:xlink="http://www.w3.org/1999/xlink" width="57.091pt" height="96.776pt" viewBox="0 0 57.091 96.776" version="1.1">
<defs>
<clipPath id="clip1">
  <path d="M 28 0 L 57.089844 0 L 57.089844 29 L 28 29 Z M 28 0 "/>
</clipPath>
<clipPath id="clip2">
  <path d="M 28 68 L 57 68 L 57 96.777344 L 28 96.777344 Z M 28 68 "/>
</clipPath>
<clipPath id="clip3">
  <path d="M 28 68 L 57.089844 68 L 57.089844 96.777344 L 28 96.777344 Z M 28 68 "/>
</clipPath>
</defs>
<g id="surface1">
<path style="fill:none;stroke-width:0.3985;stroke-linecap:butt;stroke-linejoin:miter;stroke:rgb(0%,0%,0%);stroke-opacity:1;stroke-miterlimit:10;" d="M 0.00021875 -0.0015 L 0.00021875 28.346156 L 28.347875 28.346156 L 28.347875 -0.0015 Z M 0.00021875 -0.0015 " transform="matrix(1,0,0,-1,0.199,62.561)"/>
<path style=" stroke:none;fill-rule:nonzero;fill:rgb(39.99939%,39.99939%,100%);fill-opacity:1;" d="M 28.546875 28.542969 L 28.546875 0.199219 L 56.894531 0.199219 L 56.894531 28.542969 Z M 28.546875 28.542969 "/>
<g clip-path="url(#clip1)" clip-rule="nonzero">
<path style="fill:none;stroke-width:0.3985;stroke-linecap:butt;stroke-linejoin:miter;stroke:rgb(0%,0%,0%);stroke-opacity:1;stroke-miterlimit:10;" d="M 28.347875 34.018031 L 28.347875 62.361781 L 56.695531 62.361781 L 56.695531 34.018031 Z M 28.347875 34.018031 " transform="matrix(1,0,0,-1,0.199,62.561)"/>
</g>
<g clip-path="url(#clip2)" clip-rule="nonzero">
<path style=" stroke:none;fill-rule:nonzero;fill:rgb(100%,39.99939%,39.99939%);fill-opacity:1;" d="M 28.546875 96.578125 L 28.546875 68.230469 L 56.894531 68.230469 L 56.894531 96.578125 Z M 28.546875 96.578125 "/>
</g>
<g clip-path="url(#clip3)" clip-rule="nonzero">
<path style="fill:none;stroke-width:0.3985;stroke-linecap:butt;stroke-linejoin:miter;stroke:rgb(0%,0%,0%);stroke-opacity:1;stroke-miterlimit:10;" d="M 28.347875 -34.017125 L 28.347875 -5.669469 L 56.695531 -5.669469 L 56.695531 -34.017125 Z M 28.347875 -34.017125 " transform="matrix(1,0,0,-1,0.199,62.561)"/>
</g>
</g>
</svg>
