<?xml version="1.0" encoding="utf-8" standalone="no"?>
<!DOCTYPE svg PUBLIC "-//W3C//DTD SVG 1.1//EN"
  "http://www.w3.org/Graphics/SVG/1.1/DTD/svg11.dtd">
<svg xmlns:xlink="http://www.w3.org/1999/xlink" width="872.39952pt" height="447.867944pt" viewBox="0 0 872.39952 447.867944" xmlns="http://www.w3.org/2000/svg" version="1.1">
 <metadata>
  <rdf:RDF xmlns:dc="http://purl.org/dc/elements/1.1/" xmlns:cc="http://creativecommons.org/ns#" xmlns:rdf="http://www.w3.org/1999/02/22-rdf-syntax-ns#">
   <cc:Work>
    <dc:type rdf:resource="http://purl.org/dc/dcmitype/StillImage"/>
    <dc:date>2023-05-29T17:11:49.457128</dc:date>
    <dc:format>image/svg+xml</dc:format>
    <dc:creator>
     <cc:Agent>
      <dc:title>Matplotlib v3.6.3, https://matplotlib.org/</dc:title>
     </cc:Agent>
    </dc:creator>
   </cc:Work>
  </rdf:RDF>
 </metadata>
 <defs>
  <style type="text/css">*{stroke-linejoin: round; stroke-linecap: butt}</style>
 </defs>
 <g id="figure_1">
  <g id="patch_1">
   <path d="M 0 447.867944 
L 872.39952 447.867944 
L 872.39952 0 
L 0 0 
z
" style="fill: #ffffff"/>
  </g>
  <g id="axes_1">
   <g id="patch_2">
    <path d="M 55.541248 194.894252 
L 450.800384 194.894252 
L 450.800384 10.7 
L 55.541248 10.7 
z
" style="fill: #ffffff"/>
   </g>
   <g id="matplotlib.axis_1">
    <g id="xtick_1">
     <g id="line2d_1">
      <defs>
       <path id="m546483bdfb" d="M 0 0 
L 0 3.5 
" style="stroke: #000000; stroke-width: 0.8"/>
      </defs>
      <g>
       <use xlink:href="#m546483bdfb" x="73.507572" y="194.894252" style="stroke: #000000; stroke-width: 0.8"/>
      </g>
     </g>
     <g id="line2d_2">
      <defs>
       <path id="m4d86ea6fbc" d="M 0 0 
L 0 -3.5 
" style="stroke: #000000; stroke-width: 0.8"/>
      </defs>
      <g>
       <use xlink:href="#m4d86ea6fbc" x="73.507572" y="10.7" style="stroke: #000000; stroke-width: 0.8"/>
      </g>
     </g>
    </g>
    <g id="xtick_2">
     <g id="line2d_3">
      <g>
       <use xlink:href="#m546483bdfb" x="118.423383" y="194.894252" style="stroke: #000000; stroke-width: 0.8"/>
      </g>
     </g>
     <g id="line2d_4">
      <g>
       <use xlink:href="#m4d86ea6fbc" x="118.423383" y="10.7" style="stroke: #000000; stroke-width: 0.8"/>
      </g>
     </g>
    </g>
    <g id="xtick_3">
     <g id="line2d_5">
      <g>
       <use xlink:href="#m546483bdfb" x="163.339194" y="194.894252" style="stroke: #000000; stroke-width: 0.8"/>
      </g>
     </g>
     <g id="line2d_6">
      <g>
       <use xlink:href="#m4d86ea6fbc" x="163.339194" y="10.7" style="stroke: #000000; stroke-width: 0.8"/>
      </g>
     </g>
    </g>
    <g id="xtick_4">
     <g id="line2d_7">
      <g>
       <use xlink:href="#m546483bdfb" x="208.255005" y="194.894252" style="stroke: #000000; stroke-width: 0.8"/>
      </g>
     </g>
     <g id="line2d_8">
      <g>
       <use xlink:href="#m4d86ea6fbc" x="208.255005" y="10.7" style="stroke: #000000; stroke-width: 0.8"/>
      </g>
     </g>
    </g>
    <g id="xtick_5">
     <g id="line2d_9">
      <g>
       <use xlink:href="#m546483bdfb" x="253.170816" y="194.894252" style="stroke: #000000; stroke-width: 0.8"/>
      </g>
     </g>
     <g id="line2d_10">
      <g>
       <use xlink:href="#m4d86ea6fbc" x="253.170816" y="10.7" style="stroke: #000000; stroke-width: 0.8"/>
      </g>
     </g>
    </g>
    <g id="xtick_6">
     <g id="line2d_11">
      <g>
       <use xlink:href="#m546483bdfb" x="298.086627" y="194.894252" style="stroke: #000000; stroke-width: 0.8"/>
      </g>
     </g>
     <g id="line2d_12">
      <g>
       <use xlink:href="#m4d86ea6fbc" x="298.086627" y="10.7" style="stroke: #000000; stroke-width: 0.8"/>
      </g>
     </g>
    </g>
    <g id="xtick_7">
     <g id="line2d_13">
      <g>
       <use xlink:href="#m546483bdfb" x="343.002438" y="194.894252" style="stroke: #000000; stroke-width: 0.8"/>
      </g>
     </g>
     <g id="line2d_14">
      <g>
       <use xlink:href="#m4d86ea6fbc" x="343.002438" y="10.7" style="stroke: #000000; stroke-width: 0.8"/>
      </g>
     </g>
    </g>
    <g id="xtick_8">
     <g id="line2d_15">
      <g>
       <use xlink:href="#m546483bdfb" x="387.918249" y="194.894252" style="stroke: #000000; stroke-width: 0.8"/>
      </g>
     </g>
     <g id="line2d_16">
      <g>
       <use xlink:href="#m4d86ea6fbc" x="387.918249" y="10.7" style="stroke: #000000; stroke-width: 0.8"/>
      </g>
     </g>
    </g>
    <g id="xtick_9">
     <g id="line2d_17">
      <g>
       <use xlink:href="#m546483bdfb" x="432.83406" y="194.894252" style="stroke: #000000; stroke-width: 0.8"/>
      </g>
     </g>
     <g id="line2d_18">
      <g>
       <use xlink:href="#m4d86ea6fbc" x="432.83406" y="10.7" style="stroke: #000000; stroke-width: 0.8"/>
      </g>
     </g>
    </g>
   </g>
   <g id="matplotlib.axis_2">
    <g id="ytick_1">
     <g id="line2d_19">
      <defs>
       <path id="maf23aa9666" d="M 0 0 
L -3.5 0 
" style="stroke: #000000; stroke-width: 0.8"/>
      </defs>
      <g>
       <use xlink:href="#maf23aa9666" x="55.541248" y="183.584079" style="stroke: #000000; stroke-width: 0.8"/>
      </g>
     </g>
     <g id="line2d_20">
      <defs>
       <path id="mc40cc2ec5a" d="M 0 0 
L 3.5 0 
" style="stroke: #000000; stroke-width: 0.8"/>
      </defs>
      <g>
       <use xlink:href="#mc40cc2ec5a" x="450.800384" y="183.584079" style="stroke: #000000; stroke-width: 0.8"/>
      </g>
     </g>
     <g id="text_1">
      <!-- $\mathdefault{0.0}$ -->
      <g transform="translate(31.090666 188.427017) scale(0.14 -0.14)">
       <defs>
        <path id="CMR17-30" d="M 2688 2025 
C 2688 2416 2682 3080 2413 3591 
C 2176 4039 1798 4198 1466 4198 
C 1158 4198 768 4058 525 3597 
C 269 3118 243 2524 243 2025 
C 243 1661 250 1106 448 619 
C 723 -39 1216 -128 1466 -128 
C 1760 -128 2208 -7 2470 600 
C 2662 1042 2688 1559 2688 2025 
z
M 1466 -26 
C 1056 -26 813 325 723 812 
C 653 1188 653 1738 653 2096 
C 653 2588 653 2997 736 3387 
C 858 3929 1216 4096 1466 4096 
C 1728 4096 2067 3923 2189 3400 
C 2272 3036 2278 2607 2278 2096 
C 2278 1680 2278 1169 2202 792 
C 2067 95 1690 -26 1466 -26 
z
" transform="scale(0.015625)"/>
        <path id="CMMI12-3a" d="M 1178 307 
C 1178 492 1024 619 870 619 
C 685 619 557 466 557 313 
C 557 128 710 0 864 0 
C 1050 0 1178 153 1178 307 
z
" transform="scale(0.015625)"/>
       </defs>
       <use xlink:href="#CMR17-30" transform="scale(0.996264)"/>
       <use xlink:href="#CMMI12-3a" transform="translate(45.690477 0) scale(0.996264)"/>
       <use xlink:href="#CMR17-30" transform="translate(72.787654 0) scale(0.996264)"/>
      </g>
     </g>
    </g>
    <g id="ytick_2">
     <g id="line2d_21">
      <g>
       <use xlink:href="#maf23aa9666" x="55.541248" y="151.269298" style="stroke: #000000; stroke-width: 0.8"/>
      </g>
     </g>
     <g id="line2d_22">
      <g>
       <use xlink:href="#mc40cc2ec5a" x="450.800384" y="151.269298" style="stroke: #000000; stroke-width: 0.8"/>
      </g>
     </g>
     <g id="text_2">
      <!-- $\mathdefault{0.2}$ -->
      <g transform="translate(31.090666 156.112236) scale(0.14 -0.14)">
       <defs>
        <path id="CMR17-32" d="M 2669 989 
L 2554 989 
C 2490 536 2438 459 2413 420 
C 2381 369 1920 369 1830 369 
L 602 369 
C 832 619 1280 1072 1824 1597 
C 2214 1967 2669 2402 2669 3035 
C 2669 3790 2067 4224 1395 4224 
C 691 4224 262 3604 262 3030 
C 262 2780 448 2748 525 2748 
C 589 2748 781 2787 781 3010 
C 781 3207 614 3264 525 3264 
C 486 3264 448 3258 422 3245 
C 544 3790 915 4058 1306 4058 
C 1862 4058 2227 3617 2227 3035 
C 2227 2479 1901 2000 1536 1584 
L 262 146 
L 262 0 
L 2515 0 
L 2669 989 
z
" transform="scale(0.015625)"/>
       </defs>
       <use xlink:href="#CMR17-30" transform="scale(0.996264)"/>
       <use xlink:href="#CMMI12-3a" transform="translate(45.690477 0) scale(0.996264)"/>
       <use xlink:href="#CMR17-32" transform="translate(72.787654 0) scale(0.996264)"/>
      </g>
     </g>
    </g>
    <g id="ytick_3">
     <g id="line2d_23">
      <g>
       <use xlink:href="#maf23aa9666" x="55.541248" y="118.954517" style="stroke: #000000; stroke-width: 0.8"/>
      </g>
     </g>
     <g id="line2d_24">
      <g>
       <use xlink:href="#mc40cc2ec5a" x="450.800384" y="118.954517" style="stroke: #000000; stroke-width: 0.8"/>
      </g>
     </g>
     <g id="text_3">
      <!-- $\mathdefault{0.4}$ -->
      <g transform="translate(31.090666 123.797455) scale(0.14 -0.14)">
       <defs>
        <path id="CMR17-34" d="M 2150 4122 
C 2150 4256 2144 4256 2029 4256 
L 128 1254 
L 128 1088 
L 1779 1088 
L 1779 457 
C 1779 224 1766 160 1318 160 
L 1197 160 
L 1197 0 
C 1402 0 1747 0 1965 0 
C 2182 0 2528 0 2733 0 
L 2733 160 
L 2611 160 
C 2163 160 2150 224 2150 457 
L 2150 1088 
L 2803 1088 
L 2803 1254 
L 2150 1254 
L 2150 4122 
z
M 1798 3703 
L 1798 1254 
L 256 1254 
L 1798 3703 
z
" transform="scale(0.015625)"/>
       </defs>
       <use xlink:href="#CMR17-30" transform="scale(0.996264)"/>
       <use xlink:href="#CMMI12-3a" transform="translate(45.690477 0) scale(0.996264)"/>
       <use xlink:href="#CMR17-34" transform="translate(72.787654 0) scale(0.996264)"/>
      </g>
     </g>
    </g>
    <g id="ytick_4">
     <g id="line2d_25">
      <g>
       <use xlink:href="#maf23aa9666" x="55.541248" y="86.639736" style="stroke: #000000; stroke-width: 0.8"/>
      </g>
     </g>
     <g id="line2d_26">
      <g>
       <use xlink:href="#mc40cc2ec5a" x="450.800384" y="86.639736" style="stroke: #000000; stroke-width: 0.8"/>
      </g>
     </g>
     <g id="text_4">
      <!-- $\mathdefault{0.6}$ -->
      <g transform="translate(31.090666 91.482674) scale(0.14 -0.14)">
       <defs>
        <path id="CMR17-36" d="M 678 2176 
C 678 3690 1395 4032 1811 4032 
C 1946 4032 2272 4009 2400 3776 
C 2298 3776 2106 3776 2106 3553 
C 2106 3381 2246 3323 2336 3323 
C 2394 3323 2566 3348 2566 3560 
C 2566 3954 2246 4179 1805 4179 
C 1043 4179 243 3390 243 1984 
C 243 253 966 -128 1478 -128 
C 2099 -128 2688 427 2688 1283 
C 2688 2081 2170 2662 1517 2662 
C 1126 2662 838 2407 678 1960 
L 678 2176 
z
M 1478 25 
C 691 25 691 1200 691 1436 
C 691 1896 909 2560 1504 2560 
C 1613 2560 1926 2560 2138 2120 
C 2253 1870 2253 1609 2253 1289 
C 2253 944 2253 690 2118 434 
C 1978 171 1773 25 1478 25 
z
" transform="scale(0.015625)"/>
       </defs>
       <use xlink:href="#CMR17-30" transform="scale(0.996264)"/>
       <use xlink:href="#CMMI12-3a" transform="translate(45.690477 0) scale(0.996264)"/>
       <use xlink:href="#CMR17-36" transform="translate(72.787654 0) scale(0.996264)"/>
      </g>
     </g>
    </g>
    <g id="ytick_5">
     <g id="line2d_27">
      <g>
       <use xlink:href="#maf23aa9666" x="55.541248" y="54.324955" style="stroke: #000000; stroke-width: 0.8"/>
      </g>
     </g>
     <g id="line2d_28">
      <g>
       <use xlink:href="#mc40cc2ec5a" x="450.800384" y="54.324955" style="stroke: #000000; stroke-width: 0.8"/>
      </g>
     </g>
     <g id="text_5">
      <!-- $\mathdefault{0.8}$ -->
      <g transform="translate(31.090666 59.167893) scale(0.14 -0.14)">
       <defs>
        <path id="CMR17-38" d="M 1741 2264 
C 2144 2467 2554 2773 2554 3263 
C 2554 3841 1990 4179 1472 4179 
C 890 4179 378 3759 378 3180 
C 378 3021 416 2747 666 2505 
C 730 2442 998 2251 1171 2130 
C 883 1983 211 1634 211 934 
C 211 279 838 -128 1459 -128 
C 2144 -128 2720 362 2720 1010 
C 2720 1590 2330 1857 2074 2029 
L 1741 2264 
z
M 902 2822 
C 851 2854 595 3051 595 3351 
C 595 3739 998 4032 1459 4032 
C 1965 4032 2336 3676 2336 3262 
C 2336 2669 1670 2331 1638 2331 
C 1632 2331 1626 2331 1574 2370 
L 902 2822 
z
M 2080 1519 
C 2176 1449 2483 1240 2483 851 
C 2483 381 2010 25 1472 25 
C 890 25 448 438 448 940 
C 448 1443 838 1862 1280 2060 
L 2080 1519 
z
" transform="scale(0.015625)"/>
       </defs>
       <use xlink:href="#CMR17-30" transform="scale(0.996264)"/>
       <use xlink:href="#CMMI12-3a" transform="translate(45.690477 0) scale(0.996264)"/>
       <use xlink:href="#CMR17-38" transform="translate(72.787654 0) scale(0.996264)"/>
      </g>
     </g>
    </g>
    <g id="ytick_6">
     <g id="line2d_29">
      <g>
       <use xlink:href="#maf23aa9666" x="55.541248" y="22.010173" style="stroke: #000000; stroke-width: 0.8"/>
      </g>
     </g>
     <g id="line2d_30">
      <g>
       <use xlink:href="#mc40cc2ec5a" x="450.800384" y="22.010173" style="stroke: #000000; stroke-width: 0.8"/>
      </g>
     </g>
     <g id="text_6">
      <!-- $\mathdefault{1.0}$ -->
      <g transform="translate(31.090666 26.853112) scale(0.14 -0.14)">
       <defs>
        <path id="CMR17-31" d="M 1702 4058 
C 1702 4192 1696 4192 1606 4192 
C 1357 3916 979 3827 621 3827 
C 602 3827 570 3827 563 3808 
C 557 3795 557 3782 557 3648 
C 755 3648 1088 3686 1344 3839 
L 1344 461 
C 1344 236 1331 160 781 160 
L 589 160 
L 589 0 
C 896 0 1216 0 1523 0 
C 1830 0 2150 0 2458 0 
L 2458 160 
L 2266 160 
C 1715 160 1702 230 1702 458 
L 1702 4058 
z
" transform="scale(0.015625)"/>
       </defs>
       <use xlink:href="#CMR17-31" transform="scale(0.996264)"/>
       <use xlink:href="#CMMI12-3a" transform="translate(45.690477 0) scale(0.996264)"/>
       <use xlink:href="#CMR17-30" transform="translate(72.787654 0) scale(0.996264)"/>
      </g>
     </g>
    </g>
    <g id="text_7">
     <!-- $\lambda_s(t)$ -->
     <g transform="translate(22.126022 122.531867) rotate(-90) scale(0.2 -0.2)">
      <defs>
       <path id="CMMI12-15" d="M 1978 3965 
C 1818 4416 1312 4416 1229 4416 
C 1190 4416 1120 4416 1120 4352 
C 1120 4302 1158 4295 1190 4289 
C 1286 4276 1363 4263 1466 4080 
C 1530 3959 2189 2059 2189 2046 
C 2189 2040 2182 2033 2131 1982 
L 467 311 
C 390 234 339 183 339 102 
C 339 12 416 -64 518 -64 
C 544 -64 614 -51 653 -13 
C 755 82 1670 1194 2253 1881 
C 2419 1383 2624 797 2822 261 
C 2854 166 2886 76 2976 -6 
C 3040 -64 3053 -64 3232 -64 
L 3354 -64 
C 3379 -64 3424 -64 3424 -13 
C 3424 13 3418 19 3392 45 
C 3334 115 3290 229 3264 306 
L 1978 3965 
z
" transform="scale(0.015625)"/>
       <path id="CMMI12-73" d="M 1459 1280 
C 1568 1261 1741 1223 1779 1216 
C 1862 1192 2150 1090 2150 783 
C 2150 586 1971 70 1229 70 
C 1094 70 614 70 486 436 
C 742 404 870 603 870 745 
C 870 880 781 950 653 950 
C 512 950 326 841 326 552 
C 326 173 710 -64 1222 -64 
C 2195 -64 2483 651 2483 984 
C 2483 1079 2483 1258 2278 1462 
C 2118 1616 1965 1648 1619 1718 
C 1446 1756 1171 1814 1171 2101 
C 1171 2229 1286 2689 1894 2689 
C 2163 2689 2426 2589 2490 2368 
C 2208 2368 2195 2125 2195 2119 
C 2195 1984 2317 1946 2374 1946 
C 2464 1946 2643 2015 2643 2281 
C 2643 2545 2400 2816 1901 2816 
C 1062 2816 838 2160 838 1899 
C 838 1414 1312 1312 1459 1280 
z
" transform="scale(0.015625)"/>
       <path id="CMR17-28" d="M 1958 -1561 
C 1958 -1555 1958 -1542 1939 -1523 
C 1645 -1224 858 -407 858 1581 
C 858 3569 1632 4379 1946 4697 
C 1946 4704 1958 4717 1958 4736 
C 1958 4755 1939 4768 1914 4768 
C 1843 4768 1299 4296 986 3594 
C 666 2887 576 2199 576 1588 
C 576 1128 621 351 1005 -471 
C 1312 -1135 1837 -1600 1914 -1600 
C 1946 -1600 1958 -1587 1958 -1561 
z
" transform="scale(0.015625)"/>
       <path id="CMMI12-74" d="M 1286 2566 
L 1875 2566 
C 1997 2566 2061 2566 2061 2681 
C 2061 2752 2022 2752 1894 2752 
L 1331 2752 
L 1568 3692 
C 1594 3781 1594 3794 1594 3840 
C 1594 3943 1510 4000 1427 4000 
C 1376 4000 1229 3981 1178 3775 
L 928 2752 
L 326 2752 
C 198 2752 141 2752 141 2630 
C 141 2566 186 2566 307 2566 
L 877 2566 
L 454 881 
C 403 658 384 594 384 511 
C 384 211 595 -64 954 -64 
C 1600 -64 1946 868 1946 912 
C 1946 951 1920 970 1882 970 
C 1869 970 1843 970 1830 944 
C 1824 938 1818 931 1773 829 
C 1638 511 1344 64 973 64 
C 781 64 768 224 768 364 
C 768 370 768 492 787 568 
L 1286 2566 
z
" transform="scale(0.015625)"/>
       <path id="CMR17-29" d="M 1683 1581 
C 1683 2040 1638 2817 1254 3639 
C 947 4303 422 4768 346 4768 
C 326 4768 301 4761 301 4729 
C 301 4717 307 4710 314 4697 
C 621 4378 1402 3568 1402 1584 
C 1402 -407 627 -1217 314 -1537 
C 307 -1549 301 -1556 301 -1568 
C 301 -1600 326 -1600 346 -1600 
C 416 -1600 960 -1128 1274 -426 
C 1594 281 1683 969 1683 1581 
z
" transform="scale(0.015625)"/>
      </defs>
      <use xlink:href="#CMMI12-15" transform="scale(0.996264)"/>
      <use xlink:href="#CMMI12-73" transform="translate(56.904072 -14.943915) scale(0.697382)"/>
      <use xlink:href="#CMR17-28" transform="translate(89.567093 0) scale(0.996264)"/>
      <use xlink:href="#CMMI12-74" transform="translate(124.847861 0) scale(0.996264)"/>
      <use xlink:href="#CMR17-29" transform="translate(160.074191 0) scale(0.996264)"/>
     </g>
    </g>
   </g>
   <g id="line2d_31">
    <path d="M 73.507572 183.584079 
L 75.304205 183.438631 
L 77.100837 183.099236 
L 78.897469 182.469569 
L 80.694102 181.64509 
L 82.490734 180.532181 
L 84.287367 179.223081 
L 86.083999 177.628655 
L 87.880632 175.836729 
L 90.57558 172.658203 
L 92.372213 170.250739 
L 95.067161 166.207952 
L 97.76211 161.631632 
L 100.457059 156.558417 
L 103.152007 151.026564 
L 106.745272 142.963678 
L 110.338537 134.238462 
L 114.830118 122.655331 
L 124.711597 96.885189 
L 127.406545 90.397386 
L 130.101494 84.325836 
L 132.796443 78.757039 
L 135.491391 73.727007 
L 138.18634 69.202103 
L 140.881289 65.159557 
L 143.576237 61.554478 
L 146.271186 58.279461 
L 149.864451 54.351583 
L 155.254348 49.03037 
L 160.644245 43.725273 
L 164.23751 39.738042 
L 167.830775 35.042446 
L 174.118989 25.76293 
L 175.915621 23.631937 
L 176.813937 22.828486 
L 177.712253 22.262221 
L 178.61057 21.98926 
L 179.508886 22.019546 
L 180.407202 22.344534 
L 181.305518 23.042754 
L 182.203835 24.234444 
L 183.102151 25.85826 
L 184.000467 27.810849 
L 184.898783 30.149395 
L 186.695416 35.921602 
L 189.390364 45.563166 
L 192.983629 58.329128 
L 195.678578 66.999139 
L 198.373527 74.795097 
L 201.068475 81.825796 
L 203.763424 88.264369 
L 207.356689 96.169809 
L 211.84827 105.363777 
L 216.339851 114.061027 
L 220.831432 122.267387 
L 224.424697 128.38003 
L 227.119646 132.638088 
L 229.814594 136.573997 
L 232.509543 140.153954 
L 235.204491 143.361273 
L 237.89944 146.186971 
L 240.594389 148.623657 
L 243.289337 150.673647 
L 245.984286 152.349104 
L 248.679235 153.664852 
L 251.374183 154.639784 
L 254.069132 155.298638 
L 256.764081 155.667776 
L 259.459029 155.775787 
L 262.153978 155.654085 
L 264.848927 155.333257 
L 268.442192 154.648279 
L 272.035456 153.729811 
L 276.527038 152.338948 
L 281.916935 150.414682 
L 288.205148 147.90646 
L 293.595046 145.538316 
L 298.984943 142.936177 
L 304.37484 140.080302 
L 310.663054 136.471558 
L 325.036113 128.07508 
L 330.426011 125.314641 
L 338.510857 121.35259 
L 341.205805 119.730746 
L 343.002438 118.461804 
L 344.79907 116.998929 
L 346.595703 115.330067 
L 349.290651 112.4246 
L 352.883916 108.026575 
L 355.578865 104.821506 
L 357.375497 103.09516 
L 358.273813 102.41906 
L 359.17213 101.905014 
L 360.070446 101.565636 
L 360.968762 101.396646 
L 361.867078 101.371376 
L 362.765394 101.495666 
L 364.562027 102.115636 
L 366.358659 103.038182 
L 369.053608 104.815228 
L 370.85024 106.178869 
L 373.545189 108.536287 
L 376.240138 111.378236 
L 378.935086 114.674891 
L 387.918249 126.231917 
L 390.613197 129.091085 
L 392.40983 130.736916 
L 394.206462 132.168013 
L 396.003095 133.382903 
L 397.799727 134.38594 
L 399.596359 135.183299 
L 401.392992 135.783927 
L 403.189624 136.197841 
L 404.986257 136.435947 
L 406.782889 136.510529 
L 409.477838 136.344573 
L 412.172787 135.878184 
L 414.867735 135.163619 
L 417.562684 134.255003 
L 422.054265 132.438864 
L 431.935743 128.27569 
L 432.83406 127.950071 
L 432.83406 127.950071 
" clip-path="url(#p7bfb9de269)" style="fill: none; stroke: #000000; stroke-width: 0.5; stroke-linecap: square"/>
   </g>
   <g id="patch_3">
    <path d="M 55.541248 194.894252 
L 55.541248 10.7 
" style="fill: none; stroke: #000000; stroke-width: 0.8; stroke-linejoin: miter; stroke-linecap: square"/>
   </g>
   <g id="patch_4">
    <path d="M 450.800384 194.894252 
L 450.800384 10.7 
" style="fill: none; stroke: #000000; stroke-width: 0.8; stroke-linejoin: miter; stroke-linecap: square"/>
   </g>
   <g id="patch_5">
    <path d="M 55.541248 194.894252 
L 450.800384 194.894252 
" style="fill: none; stroke: #000000; stroke-width: 0.8; stroke-linejoin: miter; stroke-linecap: square"/>
   </g>
   <g id="patch_6">
    <path d="M 55.541248 10.7 
L 450.800384 10.7 
" style="fill: none; stroke: #000000; stroke-width: 0.8; stroke-linejoin: miter; stroke-linecap: square"/>
   </g>
  </g>
  <g id="axes_2">
   <g id="patch_7">
    <path d="M 466.440384 194.894252 
L 861.69952 194.894252 
L 861.69952 10.7 
L 466.440384 10.7 
z
" style="fill: #ffffff"/>
   </g>
   <g id="matplotlib.axis_3">
    <g id="xtick_10">
     <g id="line2d_32">
      <g>
       <use xlink:href="#m546483bdfb" x="484.406708" y="194.894252" style="stroke: #000000; stroke-width: 0.8"/>
      </g>
     </g>
     <g id="line2d_33">
      <g>
       <use xlink:href="#m4d86ea6fbc" x="484.406708" y="10.7" style="stroke: #000000; stroke-width: 0.8"/>
      </g>
     </g>
    </g>
    <g id="xtick_11">
     <g id="line2d_34">
      <g>
       <use xlink:href="#m546483bdfb" x="529.322519" y="194.894252" style="stroke: #000000; stroke-width: 0.8"/>
      </g>
     </g>
     <g id="line2d_35">
      <g>
       <use xlink:href="#m4d86ea6fbc" x="529.322519" y="10.7" style="stroke: #000000; stroke-width: 0.8"/>
      </g>
     </g>
    </g>
    <g id="xtick_12">
     <g id="line2d_36">
      <g>
       <use xlink:href="#m546483bdfb" x="574.23833" y="194.894252" style="stroke: #000000; stroke-width: 0.8"/>
      </g>
     </g>
     <g id="line2d_37">
      <g>
       <use xlink:href="#m4d86ea6fbc" x="574.23833" y="10.7" style="stroke: #000000; stroke-width: 0.8"/>
      </g>
     </g>
    </g>
    <g id="xtick_13">
     <g id="line2d_38">
      <g>
       <use xlink:href="#m546483bdfb" x="619.154141" y="194.894252" style="stroke: #000000; stroke-width: 0.8"/>
      </g>
     </g>
     <g id="line2d_39">
      <g>
       <use xlink:href="#m4d86ea6fbc" x="619.154141" y="10.7" style="stroke: #000000; stroke-width: 0.8"/>
      </g>
     </g>
    </g>
    <g id="xtick_14">
     <g id="line2d_40">
      <g>
       <use xlink:href="#m546483bdfb" x="664.069952" y="194.894252" style="stroke: #000000; stroke-width: 0.8"/>
      </g>
     </g>
     <g id="line2d_41">
      <g>
       <use xlink:href="#m4d86ea6fbc" x="664.069952" y="10.7" style="stroke: #000000; stroke-width: 0.8"/>
      </g>
     </g>
    </g>
    <g id="xtick_15">
     <g id="line2d_42">
      <g>
       <use xlink:href="#m546483bdfb" x="708.985763" y="194.894252" style="stroke: #000000; stroke-width: 0.8"/>
      </g>
     </g>
     <g id="line2d_43">
      <g>
       <use xlink:href="#m4d86ea6fbc" x="708.985763" y="10.7" style="stroke: #000000; stroke-width: 0.8"/>
      </g>
     </g>
    </g>
    <g id="xtick_16">
     <g id="line2d_44">
      <g>
       <use xlink:href="#m546483bdfb" x="753.901574" y="194.894252" style="stroke: #000000; stroke-width: 0.8"/>
      </g>
     </g>
     <g id="line2d_45">
      <g>
       <use xlink:href="#m4d86ea6fbc" x="753.901574" y="10.7" style="stroke: #000000; stroke-width: 0.8"/>
      </g>
     </g>
    </g>
    <g id="xtick_17">
     <g id="line2d_46">
      <g>
       <use xlink:href="#m546483bdfb" x="798.817385" y="194.894252" style="stroke: #000000; stroke-width: 0.8"/>
      </g>
     </g>
     <g id="line2d_47">
      <g>
       <use xlink:href="#m4d86ea6fbc" x="798.817385" y="10.7" style="stroke: #000000; stroke-width: 0.8"/>
      </g>
     </g>
    </g>
    <g id="xtick_18">
     <g id="line2d_48">
      <g>
       <use xlink:href="#m546483bdfb" x="843.733196" y="194.894252" style="stroke: #000000; stroke-width: 0.8"/>
      </g>
     </g>
     <g id="line2d_49">
      <g>
       <use xlink:href="#m4d86ea6fbc" x="843.733196" y="10.7" style="stroke: #000000; stroke-width: 0.8"/>
      </g>
     </g>
    </g>
   </g>
   <g id="matplotlib.axis_4">
    <g id="ytick_7">
     <g id="line2d_50">
      <g>
       <use xlink:href="#maf23aa9666" x="466.440384" y="183.584079" style="stroke: #000000; stroke-width: 0.8"/>
      </g>
     </g>
     <g id="line2d_51">
      <g>
       <use xlink:href="#mc40cc2ec5a" x="861.69952" y="183.584079" style="stroke: #000000; stroke-width: 0.8"/>
      </g>
     </g>
    </g>
    <g id="ytick_8">
     <g id="line2d_52">
      <g>
       <use xlink:href="#maf23aa9666" x="466.440384" y="151.269298" style="stroke: #000000; stroke-width: 0.8"/>
      </g>
     </g>
     <g id="line2d_53">
      <g>
       <use xlink:href="#mc40cc2ec5a" x="861.69952" y="151.269298" style="stroke: #000000; stroke-width: 0.8"/>
      </g>
     </g>
    </g>
    <g id="ytick_9">
     <g id="line2d_54">
      <g>
       <use xlink:href="#maf23aa9666" x="466.440384" y="118.954517" style="stroke: #000000; stroke-width: 0.8"/>
      </g>
     </g>
     <g id="line2d_55">
      <g>
       <use xlink:href="#mc40cc2ec5a" x="861.69952" y="118.954517" style="stroke: #000000; stroke-width: 0.8"/>
      </g>
     </g>
    </g>
    <g id="ytick_10">
     <g id="line2d_56">
      <g>
       <use xlink:href="#maf23aa9666" x="466.440384" y="86.639736" style="stroke: #000000; stroke-width: 0.8"/>
      </g>
     </g>
     <g id="line2d_57">
      <g>
       <use xlink:href="#mc40cc2ec5a" x="861.69952" y="86.639736" style="stroke: #000000; stroke-width: 0.8"/>
      </g>
     </g>
    </g>
    <g id="ytick_11">
     <g id="line2d_58">
      <g>
       <use xlink:href="#maf23aa9666" x="466.440384" y="54.324955" style="stroke: #000000; stroke-width: 0.8"/>
      </g>
     </g>
     <g id="line2d_59">
      <g>
       <use xlink:href="#mc40cc2ec5a" x="861.69952" y="54.324955" style="stroke: #000000; stroke-width: 0.8"/>
      </g>
     </g>
    </g>
    <g id="ytick_12">
     <g id="line2d_60">
      <g>
       <use xlink:href="#maf23aa9666" x="466.440384" y="22.010173" style="stroke: #000000; stroke-width: 0.8"/>
      </g>
     </g>
     <g id="line2d_61">
      <g>
       <use xlink:href="#mc40cc2ec5a" x="861.69952" y="22.010173" style="stroke: #000000; stroke-width: 0.8"/>
      </g>
     </g>
    </g>
   </g>
   <g id="line2d_62">
    <path d="M 484.406708 183.584079 
L 486.203341 183.438639 
L 487.999973 183.111303 
L 489.796606 182.565744 
L 492.491554 181.453367 
L 495.186503 180.038585 
L 498.779768 177.834409 
L 503.271349 174.803118 
L 515.847776 166.034907 
L 518.542725 164.417144 
L 521.237673 163.016714 
L 523.932622 161.880339 
L 526.627571 161.039943 
L 529.322519 160.445932 
L 532.017468 160.057092 
L 536.509049 159.660726 
L 544.593895 159.029164 
L 550.882108 158.280163 
L 558.068638 157.14047 
L 565.255168 155.94968 
L 568.848433 155.503431 
L 573.340014 155.261854 
L 576.933279 155.284429 
L 581.42486 155.489276 
L 585.916441 155.882086 
L 590.408022 156.524001 
L 606.577714 159.216783 
L 611.069295 159.595165 
L 614.66256 159.667776 
L 618.255825 159.527944 
L 622.747406 159.084821 
L 627.238987 158.403373 
L 635.323833 156.924975 
L 656.883422 152.92975 
L 662.27332 152.230696 
L 678.443011 150.772925 
L 687.426174 150.216731 
L 694.612703 150.101616 
L 699.104284 150.339917 
L 705.392498 150.958993 
L 717.968925 152.070332 
L 733.240301 153.000996 
L 737.731882 152.933973 
L 741.325147 152.691356 
L 745.816728 152.089349 
L 749.409993 151.36108 
L 753.901574 150.154545 
L 760.189787 148.453688 
L 762.884736 148.005714 
L 765.579685 147.804984 
L 768.274633 147.870691 
L 770.969582 148.178497 
L 773.664531 148.676594 
L 779.054428 150.025716 
L 787.139274 152.087018 
L 791.630855 153.010545 
L 796.122436 153.758563 
L 804.207282 154.76359 
L 812.292128 155.589312 
L 818.580342 156.015452 
L 823.071923 156.145026 
L 827.563504 156.046331 
L 831.156769 155.761998 
L 835.64835 155.190131 
L 840.139931 154.395136 
L 843.733196 153.601311 
L 843.733196 153.601311 
" clip-path="url(#pb13ad21669)" style="fill: none; stroke: #000000; stroke-width: 0.5; stroke-linecap: square"/>
   </g>
   <g id="patch_8">
    <path d="M 466.440384 194.894252 
L 466.440384 10.7 
" style="fill: none; stroke: #000000; stroke-width: 0.8; stroke-linejoin: miter; stroke-linecap: square"/>
   </g>
   <g id="patch_9">
    <path d="M 861.69952 194.894252 
L 861.69952 10.7 
" style="fill: none; stroke: #000000; stroke-width: 0.8; stroke-linejoin: miter; stroke-linecap: square"/>
   </g>
   <g id="patch_10">
    <path d="M 466.440384 194.894252 
L 861.69952 194.894252 
" style="fill: none; stroke: #000000; stroke-width: 0.8; stroke-linejoin: miter; stroke-linecap: square"/>
   </g>
   <g id="patch_11">
    <path d="M 466.440384 10.7 
L 861.69952 10.7 
" style="fill: none; stroke: #000000; stroke-width: 0.8; stroke-linejoin: miter; stroke-linecap: square"/>
   </g>
  </g>
  <g id="axes_3">
   <g id="patch_12">
    <path d="M 55.541248 392.088985 
L 450.800384 392.088985 
L 450.800384 207.894732 
L 55.541248 207.894732 
z
" style="fill: #ffffff"/>
   </g>
   <g id="matplotlib.axis_5">
    <g id="xtick_19">
     <g id="line2d_63">
      <g>
       <use xlink:href="#m546483bdfb" x="73.507572" y="392.088985" style="stroke: #000000; stroke-width: 0.8"/>
      </g>
     </g>
     <g id="line2d_64">
      <g>
       <use xlink:href="#m4d86ea6fbc" x="73.507572" y="207.894732" style="stroke: #000000; stroke-width: 0.8"/>
      </g>
     </g>
     <g id="text_8">
      <!-- $\mathdefault{0}$ -->
      <g transform="translate(70.093328 408.774861) scale(0.14 -0.14)">
       <use xlink:href="#CMR17-30" transform="scale(0.996264)"/>
      </g>
     </g>
    </g>
    <g id="xtick_20">
     <g id="line2d_65">
      <g>
       <use xlink:href="#m546483bdfb" x="118.423383" y="392.088985" style="stroke: #000000; stroke-width: 0.8"/>
      </g>
     </g>
     <g id="line2d_66">
      <g>
       <use xlink:href="#m4d86ea6fbc" x="118.423383" y="207.894732" style="stroke: #000000; stroke-width: 0.8"/>
      </g>
     </g>
     <g id="text_9">
      <!-- $\mathdefault{50}$ -->
      <g transform="translate(111.594894 408.774861) scale(0.14 -0.14)">
       <defs>
        <path id="CMR17-35" d="M 730 3692 
C 794 3666 1056 3584 1325 3584 
C 1920 3584 2246 3911 2432 4100 
C 2432 4157 2432 4192 2394 4192 
C 2387 4192 2374 4192 2323 4163 
C 2099 4058 1837 3973 1517 3973 
C 1325 3973 1037 3999 723 4139 
C 653 4171 640 4171 634 4171 
C 602 4171 595 4164 595 4037 
L 595 2203 
C 595 2089 595 2057 659 2057 
C 691 2057 704 2070 736 2114 
C 941 2401 1222 2522 1542 2522 
C 1766 2522 2246 2382 2246 1289 
C 2246 1085 2246 715 2054 421 
C 1894 159 1645 25 1370 25 
C 947 25 518 320 403 814 
C 429 807 480 795 506 795 
C 589 795 749 840 749 1038 
C 749 1210 627 1280 506 1280 
C 358 1280 262 1190 262 1011 
C 262 454 704 -128 1382 -128 
C 2042 -128 2669 440 2669 1264 
C 2669 2030 2170 2624 1549 2624 
C 1222 2624 947 2503 730 2274 
L 730 3692 
z
" transform="scale(0.015625)"/>
       </defs>
       <use xlink:href="#CMR17-35" transform="scale(0.996264)"/>
       <use xlink:href="#CMR17-30" transform="translate(45.690477 0) scale(0.996264)"/>
      </g>
     </g>
    </g>
    <g id="xtick_21">
     <g id="line2d_67">
      <g>
       <use xlink:href="#m546483bdfb" x="163.339194" y="392.088985" style="stroke: #000000; stroke-width: 0.8"/>
      </g>
     </g>
     <g id="line2d_68">
      <g>
       <use xlink:href="#m4d86ea6fbc" x="163.339194" y="207.894732" style="stroke: #000000; stroke-width: 0.8"/>
      </g>
     </g>
     <g id="text_10">
      <!-- $\mathdefault{100}$ -->
      <g transform="translate(153.096461 408.774861) scale(0.14 -0.14)">
       <use xlink:href="#CMR17-31" transform="scale(0.996264)"/>
       <use xlink:href="#CMR17-30" transform="translate(45.690477 0) scale(0.996264)"/>
       <use xlink:href="#CMR17-30" transform="translate(91.380954 0) scale(0.996264)"/>
      </g>
     </g>
    </g>
    <g id="xtick_22">
     <g id="line2d_69">
      <g>
       <use xlink:href="#m546483bdfb" x="208.255005" y="392.088985" style="stroke: #000000; stroke-width: 0.8"/>
      </g>
     </g>
     <g id="line2d_70">
      <g>
       <use xlink:href="#m4d86ea6fbc" x="208.255005" y="207.894732" style="stroke: #000000; stroke-width: 0.8"/>
      </g>
     </g>
     <g id="text_11">
      <!-- $\mathdefault{150}$ -->
      <g transform="translate(198.012272 408.774861) scale(0.14 -0.14)">
       <use xlink:href="#CMR17-31" transform="scale(0.996264)"/>
       <use xlink:href="#CMR17-35" transform="translate(45.690477 0) scale(0.996264)"/>
       <use xlink:href="#CMR17-30" transform="translate(91.380954 0) scale(0.996264)"/>
      </g>
     </g>
    </g>
    <g id="xtick_23">
     <g id="line2d_71">
      <g>
       <use xlink:href="#m546483bdfb" x="253.170816" y="392.088985" style="stroke: #000000; stroke-width: 0.8"/>
      </g>
     </g>
     <g id="line2d_72">
      <g>
       <use xlink:href="#m4d86ea6fbc" x="253.170816" y="207.894732" style="stroke: #000000; stroke-width: 0.8"/>
      </g>
     </g>
     <g id="text_12">
      <!-- $\mathdefault{200}$ -->
      <g transform="translate(242.928083 408.774861) scale(0.14 -0.14)">
       <use xlink:href="#CMR17-32" transform="scale(0.996264)"/>
       <use xlink:href="#CMR17-30" transform="translate(45.690477 0) scale(0.996264)"/>
       <use xlink:href="#CMR17-30" transform="translate(91.380954 0) scale(0.996264)"/>
      </g>
     </g>
    </g>
    <g id="xtick_24">
     <g id="line2d_73">
      <g>
       <use xlink:href="#m546483bdfb" x="298.086627" y="392.088985" style="stroke: #000000; stroke-width: 0.8"/>
      </g>
     </g>
     <g id="line2d_74">
      <g>
       <use xlink:href="#m4d86ea6fbc" x="298.086627" y="207.894732" style="stroke: #000000; stroke-width: 0.8"/>
      </g>
     </g>
     <g id="text_13">
      <!-- $\mathdefault{250}$ -->
      <g transform="translate(287.843894 408.774861) scale(0.14 -0.14)">
       <use xlink:href="#CMR17-32" transform="scale(0.996264)"/>
       <use xlink:href="#CMR17-35" transform="translate(45.690477 0) scale(0.996264)"/>
       <use xlink:href="#CMR17-30" transform="translate(91.380954 0) scale(0.996264)"/>
      </g>
     </g>
    </g>
    <g id="xtick_25">
     <g id="line2d_75">
      <g>
       <use xlink:href="#m546483bdfb" x="343.002438" y="392.088985" style="stroke: #000000; stroke-width: 0.8"/>
      </g>
     </g>
     <g id="line2d_76">
      <g>
       <use xlink:href="#m4d86ea6fbc" x="343.002438" y="207.894732" style="stroke: #000000; stroke-width: 0.8"/>
      </g>
     </g>
     <g id="text_14">
      <!-- $\mathdefault{300}$ -->
      <g transform="translate(332.759705 408.774861) scale(0.14 -0.14)">
       <defs>
        <path id="CMR17-33" d="M 1414 2157 
C 1984 2157 2234 1662 2234 1090 
C 2234 320 1824 25 1453 25 
C 1114 25 563 194 390 693 
C 422 680 454 680 486 680 
C 640 680 755 782 755 948 
C 755 1133 614 1216 486 1216 
C 378 1216 211 1165 211 926 
C 211 335 787 -128 1466 -128 
C 2176 -128 2720 430 2720 1085 
C 2720 1707 2208 2157 1600 2227 
C 2086 2328 2554 2756 2554 3329 
C 2554 3820 2048 4179 1472 4179 
C 890 4179 378 3829 378 3329 
C 378 3110 544 3072 627 3072 
C 762 3072 877 3155 877 3321 
C 877 3486 762 3569 627 3569 
C 602 3569 570 3569 544 3557 
C 730 3959 1235 4032 1459 4032 
C 1683 4032 2106 3925 2106 3320 
C 2106 3143 2080 2828 1862 2550 
C 1670 2304 1453 2304 1242 2284 
C 1210 2284 1062 2269 1037 2269 
C 992 2263 966 2257 966 2208 
C 966 2163 973 2157 1101 2157 
L 1414 2157 
z
" transform="scale(0.015625)"/>
       </defs>
       <use xlink:href="#CMR17-33" transform="scale(0.996264)"/>
       <use xlink:href="#CMR17-30" transform="translate(45.690477 0) scale(0.996264)"/>
       <use xlink:href="#CMR17-30" transform="translate(91.380954 0) scale(0.996264)"/>
      </g>
     </g>
    </g>
    <g id="xtick_26">
     <g id="line2d_77">
      <g>
       <use xlink:href="#m546483bdfb" x="387.918249" y="392.088985" style="stroke: #000000; stroke-width: 0.8"/>
      </g>
     </g>
     <g id="line2d_78">
      <g>
       <use xlink:href="#m4d86ea6fbc" x="387.918249" y="207.894732" style="stroke: #000000; stroke-width: 0.8"/>
      </g>
     </g>
     <g id="text_15">
      <!-- $\mathdefault{350}$ -->
      <g transform="translate(377.675516 408.774861) scale(0.14 -0.14)">
       <use xlink:href="#CMR17-33" transform="scale(0.996264)"/>
       <use xlink:href="#CMR17-35" transform="translate(45.690477 0) scale(0.996264)"/>
       <use xlink:href="#CMR17-30" transform="translate(91.380954 0) scale(0.996264)"/>
      </g>
     </g>
    </g>
    <g id="xtick_27">
     <g id="line2d_79">
      <g>
       <use xlink:href="#m546483bdfb" x="432.83406" y="392.088985" style="stroke: #000000; stroke-width: 0.8"/>
      </g>
     </g>
     <g id="line2d_80">
      <g>
       <use xlink:href="#m4d86ea6fbc" x="432.83406" y="207.894732" style="stroke: #000000; stroke-width: 0.8"/>
      </g>
     </g>
     <g id="text_16">
      <!-- $\mathdefault{400}$ -->
      <g transform="translate(422.591327 408.774861) scale(0.14 -0.14)">
       <use xlink:href="#CMR17-34" transform="scale(0.996264)"/>
       <use xlink:href="#CMR17-30" transform="translate(45.690477 0) scale(0.996264)"/>
       <use xlink:href="#CMR17-30" transform="translate(91.380954 0) scale(0.996264)"/>
      </g>
     </g>
    </g>
    <g id="text_17">
     <!-- $t$ -->
     <g transform="translate(249.648183 429.323886) scale(0.2 -0.2)">
      <use xlink:href="#CMMI12-74" transform="scale(0.996264)"/>
     </g>
    </g>
   </g>
   <g id="matplotlib.axis_6">
    <g id="ytick_13">
     <g id="line2d_81">
      <g>
       <use xlink:href="#maf23aa9666" x="55.541248" y="380.778811" style="stroke: #000000; stroke-width: 0.8"/>
      </g>
     </g>
     <g id="line2d_82">
      <g>
       <use xlink:href="#mc40cc2ec5a" x="450.800384" y="380.778811" style="stroke: #000000; stroke-width: 0.8"/>
      </g>
     </g>
     <g id="text_18">
      <!-- $\mathdefault{0.0}$ -->
      <g transform="translate(31.090666 385.62175) scale(0.14 -0.14)">
       <use xlink:href="#CMR17-30" transform="scale(0.996264)"/>
       <use xlink:href="#CMMI12-3a" transform="translate(45.690477 0) scale(0.996264)"/>
       <use xlink:href="#CMR17-30" transform="translate(72.787654 0) scale(0.996264)"/>
      </g>
     </g>
    </g>
    <g id="ytick_14">
     <g id="line2d_83">
      <g>
       <use xlink:href="#maf23aa9666" x="55.541248" y="348.46403" style="stroke: #000000; stroke-width: 0.8"/>
      </g>
     </g>
     <g id="line2d_84">
      <g>
       <use xlink:href="#mc40cc2ec5a" x="450.800384" y="348.46403" style="stroke: #000000; stroke-width: 0.8"/>
      </g>
     </g>
     <g id="text_19">
      <!-- $\mathdefault{0.2}$ -->
      <g transform="translate(31.090666 353.306969) scale(0.14 -0.14)">
       <use xlink:href="#CMR17-30" transform="scale(0.996264)"/>
       <use xlink:href="#CMMI12-3a" transform="translate(45.690477 0) scale(0.996264)"/>
       <use xlink:href="#CMR17-32" transform="translate(72.787654 0) scale(0.996264)"/>
      </g>
     </g>
    </g>
    <g id="ytick_15">
     <g id="line2d_85">
      <g>
       <use xlink:href="#maf23aa9666" x="55.541248" y="316.149249" style="stroke: #000000; stroke-width: 0.8"/>
      </g>
     </g>
     <g id="line2d_86">
      <g>
       <use xlink:href="#mc40cc2ec5a" x="450.800384" y="316.149249" style="stroke: #000000; stroke-width: 0.8"/>
      </g>
     </g>
     <g id="text_20">
      <!-- $\mathdefault{0.4}$ -->
      <g transform="translate(31.090666 320.992187) scale(0.14 -0.14)">
       <use xlink:href="#CMR17-30" transform="scale(0.996264)"/>
       <use xlink:href="#CMMI12-3a" transform="translate(45.690477 0) scale(0.996264)"/>
       <use xlink:href="#CMR17-34" transform="translate(72.787654 0) scale(0.996264)"/>
      </g>
     </g>
    </g>
    <g id="ytick_16">
     <g id="line2d_87">
      <g>
       <use xlink:href="#maf23aa9666" x="55.541248" y="283.834468" style="stroke: #000000; stroke-width: 0.8"/>
      </g>
     </g>
     <g id="line2d_88">
      <g>
       <use xlink:href="#mc40cc2ec5a" x="450.800384" y="283.834468" style="stroke: #000000; stroke-width: 0.8"/>
      </g>
     </g>
     <g id="text_21">
      <!-- $\mathdefault{0.6}$ -->
      <g transform="translate(31.090666 288.677406) scale(0.14 -0.14)">
       <use xlink:href="#CMR17-30" transform="scale(0.996264)"/>
       <use xlink:href="#CMMI12-3a" transform="translate(45.690477 0) scale(0.996264)"/>
       <use xlink:href="#CMR17-36" transform="translate(72.787654 0) scale(0.996264)"/>
      </g>
     </g>
    </g>
    <g id="ytick_17">
     <g id="line2d_89">
      <g>
       <use xlink:href="#maf23aa9666" x="55.541248" y="251.519687" style="stroke: #000000; stroke-width: 0.8"/>
      </g>
     </g>
     <g id="line2d_90">
      <g>
       <use xlink:href="#mc40cc2ec5a" x="450.800384" y="251.519687" style="stroke: #000000; stroke-width: 0.8"/>
      </g>
     </g>
     <g id="text_22">
      <!-- $\mathdefault{0.8}$ -->
      <g transform="translate(31.090666 256.362625) scale(0.14 -0.14)">
       <use xlink:href="#CMR17-30" transform="scale(0.996264)"/>
       <use xlink:href="#CMMI12-3a" transform="translate(45.690477 0) scale(0.996264)"/>
       <use xlink:href="#CMR17-38" transform="translate(72.787654 0) scale(0.996264)"/>
      </g>
     </g>
    </g>
    <g id="ytick_18">
     <g id="line2d_91">
      <g>
       <use xlink:href="#maf23aa9666" x="55.541248" y="219.204906" style="stroke: #000000; stroke-width: 0.8"/>
      </g>
     </g>
     <g id="line2d_92">
      <g>
       <use xlink:href="#mc40cc2ec5a" x="450.800384" y="219.204906" style="stroke: #000000; stroke-width: 0.8"/>
      </g>
     </g>
     <g id="text_23">
      <!-- $\mathdefault{1.0}$ -->
      <g transform="translate(31.090666 224.047844) scale(0.14 -0.14)">
       <use xlink:href="#CMR17-31" transform="scale(0.996264)"/>
       <use xlink:href="#CMMI12-3a" transform="translate(45.690477 0) scale(0.996264)"/>
       <use xlink:href="#CMR17-30" transform="translate(72.787654 0) scale(0.996264)"/>
      </g>
     </g>
    </g>
   </g>
   <g id="line2d_93">
    <path d="M 73.507572 380.778811 
L 74.405888 380.488196 
L 75.304205 379.784442 
L 76.202521 378.837317 
L 77.100837 377.490998 
L 77.999153 375.593888 
L 79.795786 370.858617 
L 80.694102 368.059456 
L 82.490734 361.243685 
L 84.287367 353.691243 
L 86.982315 340.643772 
L 89.677264 326.635533 
L 95.067161 299.030585 
L 97.76211 286.483921 
L 100.457059 275.414482 
L 102.253691 269.037908 
L 104.050324 263.26586 
L 105.846956 258.338459 
L 107.643588 253.96952 
L 109.440221 250.31383 
L 111.236853 247.096854 
L 113.033486 244.421833 
L 114.830118 242.047541 
L 116.626751 240.055873 
L 118.423383 238.255213 
L 121.118332 236.008425 
L 122.914964 234.729967 
L 125.609913 233.144534 
L 127.406545 232.355087 
L 129.203178 231.752306 
L 130.99981 231.424773 
L 132.796443 231.3409 
L 134.593075 231.569534 
L 136.389707 232.077915 
L 138.18634 232.903745 
L 139.982972 234.000379 
L 141.779605 235.369402 
L 144.474553 237.805225 
L 148.067818 241.494853 
L 151.661083 245.189141 
L 154.356032 247.626887 
L 156.152664 248.978541 
L 157.949297 250.049782 
L 159.745929 250.808849 
L 161.542562 251.229757 
L 163.339194 251.308431 
L 165.135826 251.047087 
L 166.932459 250.469477 
L 168.729091 249.601 
L 170.525724 248.48761 
L 173.220672 246.451613 
L 176.813937 243.331664 
L 182.203835 238.585149 
L 184.898783 236.482766 
L 187.593732 234.682414 
L 190.288681 233.241001 
L 192.085313 232.498828 
L 193.881945 231.918903 
L 195.678578 231.519552 
L 197.47521 231.276681 
L 199.271843 231.206076 
L 201.068475 231.282224 
L 203.763424 231.691011 
L 205.560056 232.145807 
L 208.255005 233.095179 
L 210.949954 234.363626 
L 213.644902 235.936085 
L 216.339851 237.794179 
L 219.0348 239.914495 
L 222.628064 243.075172 
L 228.017962 248.228612 
L 233.407859 253.319426 
L 237.001124 256.339123 
L 239.696073 258.279856 
L 242.391021 259.882631 
L 244.187654 260.747475 
L 245.984286 261.436674 
L 247.780919 261.956339 
L 249.577551 262.303772 
L 251.374183 262.490412 
L 254.069132 262.486577 
L 256.764081 262.186928 
L 259.459029 261.646921 
L 263.052294 260.658927 
L 269.340508 258.591787 
L 275.628721 256.613608 
L 280.120302 255.4438 
L 284.611883 254.491532 
L 299.883259 251.536104 
L 303.476524 250.531227 
L 307.069789 249.317149 
L 311.56137 247.509237 
L 316.951267 245.009994 
L 329.527694 238.993655 
L 333.120959 237.545102 
L 336.714224 236.311657 
L 340.307489 235.317485 
L 343.900754 234.570525 
L 347.494019 234.065802 
L 351.087284 233.789213 
L 354.680549 233.720805 
L 359.17213 233.891863 
L 363.663711 234.299468 
L 369.053608 235.019953 
L 378.935086 236.641045 
L 386.121616 237.728928 
L 391.511513 238.341213 
L 396.901411 238.719715 
L 402.291308 238.85615 
L 407.681205 238.774493 
L 414.867735 238.415452 
L 425.64753 237.604141 
L 432.83406 237.019642 
L 432.83406 237.019642 
" clip-path="url(#pb64e700078)" style="fill: none; stroke: #000000; stroke-width: 0.5; stroke-linecap: square"/>
   </g>
   <g id="line2d_94">
    <path d="M 73.507572 219.204906 
L 74.405888 219.350279 
L 75.304205 219.702948 
L 76.202521 220.179139 
L 77.100837 220.859467 
L 77.999153 221.823463 
L 79.795786 224.263236 
L 80.694102 225.729742 
L 82.490734 229.368061 
L 84.287367 233.542079 
L 86.083999 238.491616 
L 87.880632 243.861407 
L 90.57558 252.941503 
L 93.270529 262.831638 
L 96.863794 276.739546 
L 104.050324 304.493708 
L 106.745272 313.998451 
L 109.440221 322.646767 
L 111.236853 327.877204 
L 113.033486 332.534822 
L 114.830118 336.695603 
L 116.626751 340.230149 
L 118.423383 343.217296 
L 120.220016 345.564383 
L 122.016648 347.354108 
L 122.914964 348.013009 
L 124.711597 348.91979 
L 125.609913 349.174636 
L 126.508229 349.28405 
L 128.304861 349.136611 
L 129.203178 348.890375 
L 130.99981 348.049985 
L 132.796443 346.83246 
L 134.593075 345.261128 
L 136.389707 343.421093 
L 139.084656 340.256452 
L 143.576237 334.450206 
L 147.169502 329.851501 
L 149.864451 326.708983 
L 152.559399 323.996443 
L 154.356032 322.488454 
L 156.152664 321.247207 
L 157.949297 320.299991 
L 159.745929 319.650609 
L 161.542562 319.31403 
L 163.339194 319.277906 
L 165.135826 319.54575 
L 166.932459 320.089997 
L 168.729091 320.904269 
L 170.525724 321.947847 
L 172.322356 323.2067 
L 175.017305 325.39924 
L 178.61057 328.710546 
L 184.898783 334.655329 
L 187.593732 336.921424 
L 190.288681 338.842975 
L 192.085313 339.874265 
L 193.881945 340.697806 
L 195.678578 341.266401 
L 197.47521 341.593111 
L 199.271843 341.639846 
L 201.068475 341.429568 
L 202.865108 340.93459 
L 204.66174 340.186455 
L 206.458372 339.168652 
L 208.255005 337.919114 
L 210.051637 336.432682 
L 212.746586 333.83623 
L 215.441535 330.860619 
L 219.0348 326.466436 
L 230.71291 311.593833 
L 233.407859 308.586613 
L 236.102808 305.898636 
L 238.797756 303.575424 
L 241.492705 301.64639 
L 243.289337 300.589434 
L 245.08597 299.715107 
L 246.882602 299.021742 
L 248.679235 298.502593 
L 250.475867 298.150676 
L 252.2725 297.954515 
L 254.967448 297.926464 
L 257.662397 298.175735 
L 260.357346 298.649899 
L 263.95061 299.540809 
L 269.340508 301.190563 
L 279.221986 304.281795 
L 285.5102 305.966977 
L 298.984943 309.433283 
L 303.476524 310.907101 
L 307.069789 312.30311 
L 310.663054 313.909846 
L 315.154635 316.203102 
L 320.544532 319.280462 
L 333.120959 326.649027 
L 336.714224 328.44621 
L 340.307489 329.972446 
L 343.002438 330.907379 
L 345.697386 331.645928 
L 348.392335 332.179583 
L 351.087284 332.507466 
L 353.782232 332.634494 
L 356.477181 332.573139 
L 360.070446 332.227092 
L 363.663711 331.628373 
L 368.155292 330.619409 
L 375.341822 328.714504 
L 382.528351 326.887578 
L 387.019932 325.958611 
L 391.511513 325.261312 
L 396.003095 324.819495 
L 400.494676 324.625282 
L 404.986257 324.652322 
L 410.376154 324.918643 
L 417.562684 325.539921 
L 429.240795 326.836311 
L 432.83406 327.25897 
L 432.83406 327.25897 
" clip-path="url(#pb64e700078)" style="fill: none; stroke: #880000; stroke-width: 0.5; stroke-linecap: square"/>
   </g>
   <g id="patch_13">
    <path d="M 55.541248 392.088985 
L 55.541248 207.894732 
" style="fill: none; stroke: #000000; stroke-width: 0.8; stroke-linejoin: miter; stroke-linecap: square"/>
   </g>
   <g id="patch_14">
    <path d="M 450.800384 392.088985 
L 450.800384 207.894732 
" style="fill: none; stroke: #000000; stroke-width: 0.8; stroke-linejoin: miter; stroke-linecap: square"/>
   </g>
   <g id="patch_15">
    <path d="M 55.541248 392.088985 
L 450.800384 392.088985 
" style="fill: none; stroke: #000000; stroke-width: 0.8; stroke-linejoin: miter; stroke-linecap: square"/>
   </g>
   <g id="patch_16">
    <path d="M 55.541248 207.894732 
L 450.800384 207.894732 
" style="fill: none; stroke: #000000; stroke-width: 0.8; stroke-linejoin: miter; stroke-linecap: square"/>
   </g>
   <g id="legend_1">
    <g id="patch_17">
     <path d="M 335.822643 318.411284 
L 423.353022 318.411284 
Q 426.953022 318.411284 426.953022 314.811284 
L 426.953022 264.590467 
Q 426.953022 260.990467 423.353022 260.990467 
L 335.822643 260.990467 
Q 332.222643 260.990467 332.222643 264.590467 
L 332.222643 314.811284 
Q 332.222643 318.411284 335.822643 318.411284 
z
" style="fill: #ffffff; opacity: 0.8; stroke: #cccccc; stroke-linejoin: miter"/>
    </g>
    <g id="line2d_95">
     <path d="M 339.422643 274.490467 
L 357.422643 274.490467 
L 375.422643 274.490467 
" style="fill: none; stroke: #000000; stroke-width: 0.5; stroke-linecap: square"/>
    </g>
    <g id="text_24">
     <!-- $\mathcal{Q}_s$ -->
     <g transform="translate(389.822643 280.790467) scale(0.18 -0.18)">
      <defs>
       <path id="CMSY10-51" d="M 1427 192 
C 1306 192 1235 192 1075 96 
C 1024 64 870 -38 870 -115 
C 870 -173 902 -173 934 -173 
C 1363 -173 1626 -230 2266 -452 
C 2707 -610 3162 -768 3667 -768 
C 4416 -768 5037 -117 5037 141 
C 5037 173 5011 192 4979 192 
C 4915 192 4781 142 4678 74 
C 4531 -20 4518 -65 4486 -146 
C 4397 -396 4262 -416 4090 -416 
C 3667 -416 3379 -316 2458 -13 
C 3565 302 4960 1414 4960 2963 
C 4960 3837 4486 4544 3546 4544 
C 2240 4544 723 3202 723 1866 
C 723 1186 1126 672 1837 672 
C 2483 672 3213 1095 3213 1249 
C 3213 1287 3168 1287 3142 1287 
C 3053 1287 2944 1221 2854 1175 
C 2592 1024 2323 1024 2259 1024 
C 1683 1024 1267 1474 1267 2136 
C 1267 2939 1990 4192 3123 4192 
C 3930 4192 4416 3549 4416 2694 
C 4416 2057 4154 1330 3546 790 
C 3130 411 2662 192 1613 192 
L 1427 192 
z
" transform="scale(0.015625)"/>
      </defs>
      <use xlink:href="#CMSY10-51" transform="scale(0.996264)"/>
      <use xlink:href="#CMMI12-73" transform="translate(81.361931 -14.943915) scale(0.697382)"/>
     </g>
    </g>
    <g id="line2d_96">
     <path d="M 339.422643 300.428096 
L 357.422643 300.428096 
L 375.422643 300.428096 
" style="fill: none; stroke: #880000; stroke-width: 0.5; stroke-linecap: square"/>
    </g>
    <g id="text_25">
     <!-- $\langle X \rangle$ -->
     <g transform="translate(389.822643 306.728096) scale(0.18 -0.18)">
      <defs>
       <path id="CMSY10-68" d="M 2099 4557 
C 2131 4627 2131 4640 2131 4672 
C 2131 4742 2074 4800 2003 4800 
C 1946 4800 1901 4768 1856 4653 
L 736 1715 
C 723 1677 704 1638 704 1600 
C 704 1581 704 1568 736 1491 
L 1856 -1446 
C 1882 -1517 1914 -1600 2003 -1600 
C 2074 -1600 2131 -1542 2131 -1472 
C 2131 -1453 2131 -1440 2099 -1370 
L 966 1600 
L 2099 4557 
z
" transform="scale(0.015625)"/>
       <path id="CMMI12-58" d="M 3040 2596 
L 2438 3994 
C 2522 4147 2714 4172 2790 4179 
C 2829 4179 2899 4179 2899 4292 
C 2899 4364 2842 4364 2803 4364 
C 2694 4364 2566 4364 2458 4364 
L 2086 4364 
C 1696 4364 1414 4364 1408 4364 
C 1357 4364 1293 4364 1293 4243 
C 1293 4179 1350 4179 1434 4179 
C 1805 4179 1830 4115 1894 3962 
L 2656 2185 
L 1267 693 
C 1037 442 762 198 288 198 
C 211 192 160 192 160 68 
C 160 48 166 0 237 0 
C 326 0 422 0 512 0 
L 813 0 
C 1018 0 1242 0 1440 0 
C 1485 0 1562 0 1562 115 
C 1562 179 1517 185 1478 185 
C 1350 198 1267 268 1267 370 
C 1267 479 1344 557 1530 748 
L 2099 1368 
C 2240 1516 2579 1886 2720 2026 
L 3392 453 
C 3398 441 3424 377 3424 370 
C 3424 313 3283 198 3078 198 
C 3040 198 2970 198 2970 71 
C 2970 0 3034 0 3066 0 
C 3174 0 3302 0 3411 0 
L 4115 0 
C 4230 0 4352 0 4461 0 
C 4506 0 4576 0 4576 130 
C 4576 198 4512 198 4454 198 
C 4070 198 4058 230 3949 465 
L 3104 2441 
L 3917 3316 
C 3981 3381 4128 3542 4186 3606 
C 4461 3896 4717 4160 5235 4160 
C 5299 4179 5363 4179 5363 4292 
C 5363 4364 5306 4364 5280 4364 
C 5190 4364 5094 4364 5005 4364 
L 4710 4364 
C 4506 4364 4282 4364 4083 4364 
C 4038 4364 3962 4364 3962 4249 
C 3962 4185 4006 4179 4045 4179 
C 4147 4167 4256 4116 4256 3994 
L 4250 3982 
C 4243 3937 4230 3873 4160 3797 
L 3040 2596 
z
" transform="scale(0.015625)"/>
       <path id="CMSY10-69" d="M 1747 1491 
C 1779 1568 1779 1581 1779 1600 
C 1779 1619 1779 1632 1747 1709 
L 627 4653 
C 589 4762 550 4800 480 4800 
C 410 4800 352 4742 352 4672 
C 352 4653 352 4640 384 4570 
L 1517 1600 
L 384 -1357 
C 352 -1427 352 -1440 352 -1472 
C 352 -1542 410 -1600 480 -1600 
C 563 -1600 589 -1536 614 -1472 
L 1747 1491 
z
" transform="scale(0.015625)"/>
      </defs>
      <use xlink:href="#CMSY10-68" transform="scale(0.996264)"/>
      <use xlink:href="#CMMI12-58" transform="translate(38.743734 0) scale(0.996264)"/>
      <use xlink:href="#CMSY10-69" transform="translate(127.536296 0) scale(0.996264)"/>
     </g>
    </g>
   </g>
  </g>
  <g id="axes_4">
   <g id="patch_18">
    <path d="M 466.440384 392.088985 
L 861.69952 392.088985 
L 861.69952 207.894732 
L 466.440384 207.894732 
z
" style="fill: #ffffff"/>
   </g>
   <g id="matplotlib.axis_7">
    <g id="xtick_28">
     <g id="line2d_97">
      <g>
       <use xlink:href="#m546483bdfb" x="484.406708" y="392.088985" style="stroke: #000000; stroke-width: 0.8"/>
      </g>
     </g>
     <g id="line2d_98">
      <g>
       <use xlink:href="#m4d86ea6fbc" x="484.406708" y="207.894732" style="stroke: #000000; stroke-width: 0.8"/>
      </g>
     </g>
     <g id="text_26">
      <!-- $\mathdefault{0}$ -->
      <g transform="translate(480.992464 408.774861) scale(0.14 -0.14)">
       <use xlink:href="#CMR17-30" transform="scale(0.996264)"/>
      </g>
     </g>
    </g>
    <g id="xtick_29">
     <g id="line2d_99">
      <g>
       <use xlink:href="#m546483bdfb" x="529.322519" y="392.088985" style="stroke: #000000; stroke-width: 0.8"/>
      </g>
     </g>
     <g id="line2d_100">
      <g>
       <use xlink:href="#m4d86ea6fbc" x="529.322519" y="207.894732" style="stroke: #000000; stroke-width: 0.8"/>
      </g>
     </g>
     <g id="text_27">
      <!-- $\mathdefault{50}$ -->
      <g transform="translate(522.494031 408.774861) scale(0.14 -0.14)">
       <use xlink:href="#CMR17-35" transform="scale(0.996264)"/>
       <use xlink:href="#CMR17-30" transform="translate(45.690477 0) scale(0.996264)"/>
      </g>
     </g>
    </g>
    <g id="xtick_30">
     <g id="line2d_101">
      <g>
       <use xlink:href="#m546483bdfb" x="574.23833" y="392.088985" style="stroke: #000000; stroke-width: 0.8"/>
      </g>
     </g>
     <g id="line2d_102">
      <g>
       <use xlink:href="#m4d86ea6fbc" x="574.23833" y="207.894732" style="stroke: #000000; stroke-width: 0.8"/>
      </g>
     </g>
     <g id="text_28">
      <!-- $\mathdefault{100}$ -->
      <g transform="translate(563.995597 408.774861) scale(0.14 -0.14)">
       <use xlink:href="#CMR17-31" transform="scale(0.996264)"/>
       <use xlink:href="#CMR17-30" transform="translate(45.690477 0) scale(0.996264)"/>
       <use xlink:href="#CMR17-30" transform="translate(91.380954 0) scale(0.996264)"/>
      </g>
     </g>
    </g>
    <g id="xtick_31">
     <g id="line2d_103">
      <g>
       <use xlink:href="#m546483bdfb" x="619.154141" y="392.088985" style="stroke: #000000; stroke-width: 0.8"/>
      </g>
     </g>
     <g id="line2d_104">
      <g>
       <use xlink:href="#m4d86ea6fbc" x="619.154141" y="207.894732" style="stroke: #000000; stroke-width: 0.8"/>
      </g>
     </g>
     <g id="text_29">
      <!-- $\mathdefault{150}$ -->
      <g transform="translate(608.911408 408.774861) scale(0.14 -0.14)">
       <use xlink:href="#CMR17-31" transform="scale(0.996264)"/>
       <use xlink:href="#CMR17-35" transform="translate(45.690477 0) scale(0.996264)"/>
       <use xlink:href="#CMR17-30" transform="translate(91.380954 0) scale(0.996264)"/>
      </g>
     </g>
    </g>
    <g id="xtick_32">
     <g id="line2d_105">
      <g>
       <use xlink:href="#m546483bdfb" x="664.069952" y="392.088985" style="stroke: #000000; stroke-width: 0.8"/>
      </g>
     </g>
     <g id="line2d_106">
      <g>
       <use xlink:href="#m4d86ea6fbc" x="664.069952" y="207.894732" style="stroke: #000000; stroke-width: 0.8"/>
      </g>
     </g>
     <g id="text_30">
      <!-- $\mathdefault{200}$ -->
      <g transform="translate(653.827219 408.774861) scale(0.14 -0.14)">
       <use xlink:href="#CMR17-32" transform="scale(0.996264)"/>
       <use xlink:href="#CMR17-30" transform="translate(45.690477 0) scale(0.996264)"/>
       <use xlink:href="#CMR17-30" transform="translate(91.380954 0) scale(0.996264)"/>
      </g>
     </g>
    </g>
    <g id="xtick_33">
     <g id="line2d_107">
      <g>
       <use xlink:href="#m546483bdfb" x="708.985763" y="392.088985" style="stroke: #000000; stroke-width: 0.8"/>
      </g>
     </g>
     <g id="line2d_108">
      <g>
       <use xlink:href="#m4d86ea6fbc" x="708.985763" y="207.894732" style="stroke: #000000; stroke-width: 0.8"/>
      </g>
     </g>
     <g id="text_31">
      <!-- $\mathdefault{250}$ -->
      <g transform="translate(698.74303 408.774861) scale(0.14 -0.14)">
       <use xlink:href="#CMR17-32" transform="scale(0.996264)"/>
       <use xlink:href="#CMR17-35" transform="translate(45.690477 0) scale(0.996264)"/>
       <use xlink:href="#CMR17-30" transform="translate(91.380954 0) scale(0.996264)"/>
      </g>
     </g>
    </g>
    <g id="xtick_34">
     <g id="line2d_109">
      <g>
       <use xlink:href="#m546483bdfb" x="753.901574" y="392.088985" style="stroke: #000000; stroke-width: 0.8"/>
      </g>
     </g>
     <g id="line2d_110">
      <g>
       <use xlink:href="#m4d86ea6fbc" x="753.901574" y="207.894732" style="stroke: #000000; stroke-width: 0.8"/>
      </g>
     </g>
     <g id="text_32">
      <!-- $\mathdefault{300}$ -->
      <g transform="translate(743.658841 408.774861) scale(0.14 -0.14)">
       <use xlink:href="#CMR17-33" transform="scale(0.996264)"/>
       <use xlink:href="#CMR17-30" transform="translate(45.690477 0) scale(0.996264)"/>
       <use xlink:href="#CMR17-30" transform="translate(91.380954 0) scale(0.996264)"/>
      </g>
     </g>
    </g>
    <g id="xtick_35">
     <g id="line2d_111">
      <g>
       <use xlink:href="#m546483bdfb" x="798.817385" y="392.088985" style="stroke: #000000; stroke-width: 0.8"/>
      </g>
     </g>
     <g id="line2d_112">
      <g>
       <use xlink:href="#m4d86ea6fbc" x="798.817385" y="207.894732" style="stroke: #000000; stroke-width: 0.8"/>
      </g>
     </g>
     <g id="text_33">
      <!-- $\mathdefault{350}$ -->
      <g transform="translate(788.574652 408.774861) scale(0.14 -0.14)">
       <use xlink:href="#CMR17-33" transform="scale(0.996264)"/>
       <use xlink:href="#CMR17-35" transform="translate(45.690477 0) scale(0.996264)"/>
       <use xlink:href="#CMR17-30" transform="translate(91.380954 0) scale(0.996264)"/>
      </g>
     </g>
    </g>
    <g id="xtick_36">
     <g id="line2d_113">
      <g>
       <use xlink:href="#m546483bdfb" x="843.733196" y="392.088985" style="stroke: #000000; stroke-width: 0.8"/>
      </g>
     </g>
     <g id="line2d_114">
      <g>
       <use xlink:href="#m4d86ea6fbc" x="843.733196" y="207.894732" style="stroke: #000000; stroke-width: 0.8"/>
      </g>
     </g>
     <g id="text_34">
      <!-- $\mathdefault{400}$ -->
      <g transform="translate(833.490463 408.774861) scale(0.14 -0.14)">
       <use xlink:href="#CMR17-34" transform="scale(0.996264)"/>
       <use xlink:href="#CMR17-30" transform="translate(45.690477 0) scale(0.996264)"/>
       <use xlink:href="#CMR17-30" transform="translate(91.380954 0) scale(0.996264)"/>
      </g>
     </g>
    </g>
    <g id="text_35">
     <!-- $t$ -->
     <g transform="translate(660.547319 429.323886) scale(0.2 -0.2)">
      <use xlink:href="#CMMI12-74" transform="scale(0.996264)"/>
     </g>
    </g>
   </g>
   <g id="matplotlib.axis_8">
    <g id="ytick_19">
     <g id="line2d_115">
      <g>
       <use xlink:href="#maf23aa9666" x="466.440384" y="380.778811" style="stroke: #000000; stroke-width: 0.8"/>
      </g>
     </g>
     <g id="line2d_116">
      <g>
       <use xlink:href="#mc40cc2ec5a" x="861.69952" y="380.778811" style="stroke: #000000; stroke-width: 0.8"/>
      </g>
     </g>
    </g>
    <g id="ytick_20">
     <g id="line2d_117">
      <g>
       <use xlink:href="#maf23aa9666" x="466.440384" y="348.46403" style="stroke: #000000; stroke-width: 0.8"/>
      </g>
     </g>
     <g id="line2d_118">
      <g>
       <use xlink:href="#mc40cc2ec5a" x="861.69952" y="348.46403" style="stroke: #000000; stroke-width: 0.8"/>
      </g>
     </g>
    </g>
    <g id="ytick_21">
     <g id="line2d_119">
      <g>
       <use xlink:href="#maf23aa9666" x="466.440384" y="316.149249" style="stroke: #000000; stroke-width: 0.8"/>
      </g>
     </g>
     <g id="line2d_120">
      <g>
       <use xlink:href="#mc40cc2ec5a" x="861.69952" y="316.149249" style="stroke: #000000; stroke-width: 0.8"/>
      </g>
     </g>
    </g>
    <g id="ytick_22">
     <g id="line2d_121">
      <g>
       <use xlink:href="#maf23aa9666" x="466.440384" y="283.834468" style="stroke: #000000; stroke-width: 0.8"/>
      </g>
     </g>
     <g id="line2d_122">
      <g>
       <use xlink:href="#mc40cc2ec5a" x="861.69952" y="283.834468" style="stroke: #000000; stroke-width: 0.8"/>
      </g>
     </g>
    </g>
    <g id="ytick_23">
     <g id="line2d_123">
      <g>
       <use xlink:href="#maf23aa9666" x="466.440384" y="251.519687" style="stroke: #000000; stroke-width: 0.8"/>
      </g>
     </g>
     <g id="line2d_124">
      <g>
       <use xlink:href="#mc40cc2ec5a" x="861.69952" y="251.519687" style="stroke: #000000; stroke-width: 0.8"/>
      </g>
     </g>
    </g>
    <g id="ytick_24">
     <g id="line2d_125">
      <g>
       <use xlink:href="#maf23aa9666" x="466.440384" y="219.204906" style="stroke: #000000; stroke-width: 0.8"/>
      </g>
     </g>
     <g id="line2d_126">
      <g>
       <use xlink:href="#mc40cc2ec5a" x="861.69952" y="219.204906" style="stroke: #000000; stroke-width: 0.8"/>
      </g>
     </g>
    </g>
   </g>
   <g id="line2d_127">
    <path d="M 484.406708 380.778811 
L 485.305024 380.488196 
L 486.203341 379.784436 
L 487.101657 378.837099 
L 487.999973 377.570195 
L 488.898289 375.90956 
L 490.694922 371.776075 
L 492.491554 366.823326 
L 494.288187 361.206595 
L 497.881452 348.954568 
L 504.169665 327.354892 
L 506.864614 318.63697 
L 509.559562 310.542655 
L 512.254511 303.119635 
L 514.94946 296.364683 
L 517.644408 290.225005 
L 520.339357 284.736084 
L 523.034306 279.874277 
L 525.729254 275.584118 
L 528.424203 271.849981 
L 531.119152 268.587592 
L 533.8141 265.739694 
L 536.509049 263.286453 
L 539.203998 261.193505 
L 541.898946 259.42842 
L 544.593895 257.953548 
L 547.288844 256.709471 
L 550.882108 255.318946 
L 554.475373 254.186494 
L 558.068638 253.273433 
L 561.661903 252.547327 
L 566.153484 251.832194 
L 572.441698 251.113235 
L 578.729911 250.67305 
L 588.61139 250.297129 
L 608.374346 249.788207 
L 614.66256 249.246381 
L 620.052457 248.516826 
L 625.442355 247.561067 
L 631.730568 246.248977 
L 642.510363 243.698212 
L 664.069952 238.397991 
L 670.358165 237.142975 
L 676.646379 236.085808 
L 682.934593 235.210368 
L 690.121122 234.435479 
L 696.409336 233.967141 
L 708.087447 233.400477 
L 722.460506 232.834202 
L 733.240301 232.740634 
L 754.79989 232.591993 
L 777.257795 232.048629 
L 806.003914 231.436989 
L 826.665187 231.031753 
L 833.851717 230.653367 
L 843.733196 229.900107 
L 843.733196 229.900107 
" clip-path="url(#p1347345601)" style="fill: none; stroke: #000000; stroke-width: 0.5; stroke-linecap: square"/>
   </g>
   <g id="line2d_128">
    <path d="M 484.406708 219.204906 
L 485.305024 219.350279 
L 486.203341 219.702921 
L 487.101657 220.178994 
L 487.999973 220.818392 
L 488.898289 221.660568 
L 490.694922 223.777012 
L 492.491554 226.352156 
L 494.288187 229.323465 
L 496.983135 234.277429 
L 501.474716 243.17106 
L 509.559562 259.333822 
L 513.152827 266.04101 
L 516.746092 272.321764 
L 520.339357 278.117927 
L 523.932622 283.33866 
L 526.627571 286.853541 
L 529.322519 290.016071 
L 532.017468 292.825624 
L 534.712416 295.30138 
L 537.407365 297.476733 
L 540.102314 299.375237 
L 542.797262 301.024111 
L 545.492211 302.454236 
L 549.085476 304.056448 
L 552.678741 305.371516 
L 556.272006 306.462224 
L 560.763587 307.562527 
L 565.255168 308.423096 
L 569.746749 309.052022 
L 575.136646 309.553831 
L 582.323176 309.970206 
L 590.408022 310.21016 
L 604.781082 310.471102 
L 611.069295 310.897776 
L 616.459192 311.530251 
L 621.84909 312.437956 
L 626.340671 313.396604 
L 631.730568 314.755642 
L 638.917098 316.814732 
L 647.001944 319.416718 
L 665.866584 325.743108 
L 673.053114 327.749597 
L 679.341328 329.247819 
L 685.629541 330.516227 
L 691.019438 331.391821 
L 696.409336 332.037036 
L 704.494182 332.713292 
L 721.56219 333.887995 
L 727.850403 334.068303 
L 754.79989 334.375537 
L 768.274633 334.943334 
L 781.749377 335.50559 
L 797.020752 336.160029 
L 826.665187 337.131732 
L 832.055085 337.613291 
L 837.444982 338.292062 
L 843.733196 339.270136 
L 843.733196 339.270136 
" clip-path="url(#p1347345601)" style="fill: none; stroke: #880000; stroke-width: 0.5; stroke-linecap: square"/>
   </g>
   <g id="patch_19">
    <path d="M 466.440384 392.088985 
L 466.440384 207.894732 
" style="fill: none; stroke: #000000; stroke-width: 0.8; stroke-linejoin: miter; stroke-linecap: square"/>
   </g>
   <g id="patch_20">
    <path d="M 861.69952 392.088985 
L 861.69952 207.894732 
" style="fill: none; stroke: #000000; stroke-width: 0.8; stroke-linejoin: miter; stroke-linecap: square"/>
   </g>
   <g id="patch_21">
    <path d="M 466.440384 392.088985 
L 861.69952 392.088985 
" style="fill: none; stroke: #000000; stroke-width: 0.8; stroke-linejoin: miter; stroke-linecap: square"/>
   </g>
   <g id="patch_22">
    <path d="M 466.440384 207.894732 
L 861.69952 207.894732 
" style="fill: none; stroke: #000000; stroke-width: 0.8; stroke-linejoin: miter; stroke-linecap: square"/>
   </g>
   <g id="legend_2">
    <g id="patch_23">
     <path d="M 746.721779 318.411284 
L 834.252158 318.411284 
Q 837.852158 318.411284 837.852158 314.811284 
L 837.852158 264.590467 
Q 837.852158 260.990467 834.252158 260.990467 
L 746.721779 260.990467 
Q 743.121779 260.990467 743.121779 264.590467 
L 743.121779 314.811284 
Q 743.121779 318.411284 746.721779 318.411284 
z
" style="fill: #ffffff; opacity: 0.8; stroke: #cccccc; stroke-linejoin: miter"/>
    </g>
    <g id="line2d_129">
     <path d="M 750.321779 274.490467 
L 768.321779 274.490467 
L 786.321779 274.490467 
" style="fill: none; stroke: #000000; stroke-width: 0.5; stroke-linecap: square"/>
    </g>
    <g id="text_36">
     <!-- $\mathcal{Q}_s$ -->
     <g transform="translate(800.721779 280.790467) scale(0.18 -0.18)">
      <use xlink:href="#CMSY10-51" transform="scale(0.996264)"/>
      <use xlink:href="#CMMI12-73" transform="translate(81.361931 -14.943915) scale(0.697382)"/>
     </g>
    </g>
    <g id="line2d_130">
     <path d="M 750.321779 300.428096 
L 768.321779 300.428096 
L 786.321779 300.428096 
" style="fill: none; stroke: #880000; stroke-width: 0.5; stroke-linecap: square"/>
    </g>
    <g id="text_37">
     <!-- $\langle X \rangle$ -->
     <g transform="translate(800.721779 306.728096) scale(0.18 -0.18)">
      <use xlink:href="#CMSY10-68" transform="scale(0.996264)"/>
      <use xlink:href="#CMMI12-58" transform="translate(38.743734 0) scale(0.996264)"/>
      <use xlink:href="#CMSY10-69" transform="translate(127.536296 0) scale(0.996264)"/>
     </g>
    </g>
   </g>
  </g>
  <g id="text_38">
   <!-- (a) -->
   <g transform="translate(21.47976 436.19976) scale(0.18 -0.18)">
    <defs>
     <path id="CMR17-61" d="M 2304 1653 
C 2304 2072 2304 2294 2035 2543 
C 1798 2752 1523 2816 1306 2816 
C 800 2816 435 2407 435 1971 
C 435 1728 627 1728 666 1728 
C 749 1728 896 1778 896 1954 
C 896 2112 774 2181 666 2181 
C 640 2181 608 2174 589 2168 
C 723 2592 1069 2714 1293 2714 
C 1613 2714 1965 2429 1965 1885 
L 1965 1600 
C 1587 1600 1133 1549 774 1357 
C 371 1133 256 813 256 570 
C 256 77 832 -64 1171 -64 
C 1523 -64 1850 139 1990 511 
C 2003 233 2182 -18 2464 -18 
C 2598 -18 2938 70 2938 567 
L 2938 920 
L 2822 920 
L 2822 562 
C 2822 178 2650 128 2566 128 
C 2304 128 2304 458 2304 738 
L 2304 1653 
z
M 1965 870 
C 1965 317 1568 38 1216 38 
C 896 38 646 275 646 570 
C 646 761 730 1100 1101 1305 
C 1408 1478 1760 1504 1965 1504 
L 1965 870 
z
" transform="scale(0.015625)"/>
    </defs>
    <use xlink:href="#CMR17-28" transform="scale(0.996264)"/>
    <use xlink:href="#CMR17-61" transform="translate(35.280768 0) scale(0.996264)"/>
    <use xlink:href="#CMR17-29" transform="translate(80.971245 0) scale(0.996264)"/>
   </g>
  </g>
  <g id="text_39">
   <!-- (b) -->
   <g transform="translate(453.47976 436.19976) scale(0.18 -0.18)">
    <defs>
     <path id="CMR17-62" d="M 960 4396 
L 198 4326 
L 198 4160 
C 576 4160 634 4122 634 3817 
L 634 -13 
L 749 -13 
L 934 441 
C 1120 141 1395 -64 1766 -64 
C 2406 -64 3053 500 3053 1370 
C 3053 2188 2477 2790 1830 2790 
C 1434 2790 1152 2579 960 2330 
L 960 4396 
z
M 973 2004 
C 973 2118 973 2138 1062 2272 
C 1312 2657 1670 2688 1792 2688 
C 1984 2688 2643 2585 2643 1376 
C 2643 108 1888 38 1734 38 
C 1536 38 1248 114 1043 486 
C 973 608 973 621 973 735 
L 973 2004 
z
" transform="scale(0.015625)"/>
    </defs>
    <use xlink:href="#CMR17-28" transform="scale(0.996264)"/>
    <use xlink:href="#CMR17-62" transform="translate(35.280768 0) scale(0.996264)"/>
    <use xlink:href="#CMR17-29" transform="translate(86.176138 0) scale(0.996264)"/>
   </g>
  </g>
 </g>
 <defs>
  <clipPath id="p7bfb9de269">
   <rect x="55.541248" y="10.7" width="395.259136" height="184.194252"/>
  </clipPath>
  <clipPath id="pb13ad21669">
   <rect x="466.440384" y="10.7" width="395.259136" height="184.194252"/>
  </clipPath>
  <clipPath id="pb64e700078">
   <rect x="55.541248" y="207.894732" width="395.259136" height="184.194252"/>
  </clipPath>
  <clipPath id="p1347345601">
   <rect x="466.440384" y="207.894732" width="395.259136" height="184.194252"/>
  </clipPath>
 </defs>
</svg>
